<?xml version="1.0" encoding="UTF-8"?>
<svg width="80px" height="41px" viewBox="0 0 80 41" version="1.1" xmlns="http://www.w3.org/2000/svg" xmlns:xlink="http://www.w3.org/1999/xlink">
    <!-- Generator: Sketch 51.3 (57544) - http://www.bohemiancoding.com/sketch -->
    <title>Group 27</title>
    <desc>Created with Sketch.</desc>
    <defs>
        <polygon id="path-1" points="0.00179534227 0.047603989 10.4956274 0.047603989 10.4956274 13.1964732 0.00179534227 13.1964732"></polygon>
        <polygon id="path-3" points="0.0028449414 0.00527978592 2.8146789 0.00527978592 2.8146789 2.39147375 0.0028449414 2.39147375"></polygon>
    </defs>
    <g id="Page-1" stroke="none" stroke-width="1" fill="none" fill-rule="evenodd">
        <g id="Index-Opsi-1" transform="translate(-155.000000, -6383.000000)">
            <g id="Group-21" transform="translate(0.000000, 6335.000000)">
                <g id="Group-27" transform="translate(155.000000, 48.000000)">
                    <g id="Group-3" transform="translate(9.258998, 27.771607)">
                        <mask id="mask-2" fill="white">
                            <use xlink:href="#path-1"></use>
                        </mask>
                        <g id="Clip-2"></g>
                        <path d="M7.27829499,4.74089147 C7.27829499,5.80553796 6.47445589,6.49486809 5.23070148,6.49486809 L3.18282569,6.49486809 L3.18282569,2.95144168 L5.17565561,2.95144168 C6.53108257,2.95144168 7.27829499,3.57399876 7.27829499,4.70513631 L7.27829499,4.74089147 Z M5.41339732,0.047603989 L0.184773465,0.047603989 C0.0839407198,0.047603989 0.00179534227,0.129660385 0.00179534227,0.230383906 L0.00179534227,13.0138681 C0.00179534227,13.1151556 0.0839407198,13.1967044 0.184773465,13.1967044 L2.99984757,13.1967044 C3.10068031,13.1967044 3.18282569,13.1151556 3.18282569,13.0138681 L3.18282569,9.36159711 L5.13935356,9.36159711 C8.39276217,9.36159711 10.4956274,7.52641004 10.4956274,4.68618721 L10.4956274,4.6496425 C10.4956274,1.85397263 8.50099083,0.047603989 5.41339732,0.047603989 Z" id="Fill-1" fill="#000000" mask="url(#mask-2)"></path>
                    </g>
                    <path d="M49.5622583,30.5948655 L49.5622583,28.0018834 C49.5622583,27.9011598 49.4811291,27.8191034 49.3797883,27.8191034 L38.7758645,27.8191034 C38.6752576,27.8191034 38.5931122,27.9011598 38.5931122,28.0018834 L38.5931122,30.5948655 C38.5931122,30.695871 38.6752576,30.7776454 38.7758645,30.7776454 L42.4871983,30.7776454 L42.4871983,40.785142 C42.4871983,40.886655 42.5693437,40.9679783 42.6701764,40.9679783 L45.4854764,40.9679783 C45.5868737,40.9679783 45.6681722,40.886655 45.6681722,40.785142 L45.6681722,30.7776454 L49.3797883,30.7776454 C49.4811291,30.7776454 49.5622583,30.695871 49.5622583,30.5948655" id="Fill-4" fill="#000000"></path>
                    <path d="M54.1124742,35.2518395 L55.5402795,31.7712384 L56.9680847,35.2518395 L54.1124742,35.2518395 Z M57.0433987,27.8391297 C57.0141538,27.7712287 56.9483246,27.7278601 56.875156,27.7278601 L54.2791362,27.7278601 C54.2056288,27.7278601 54.1390656,27.7712287 54.1108934,27.8391297 L48.6263486,40.7140884 C48.6026366,40.7702026 48.6084517,40.8351146 48.6419308,40.8858711 C48.6763698,40.9379248 48.7335046,40.9679275 48.7943091,40.9679275 L51.6649372,40.9679275 C51.7391785,40.9679275 51.8065886,40.9237129 51.8341962,40.8550788 L52.9574143,38.1006909 L58.1228624,38.1006909 L59.2468144,40.8550788 C59.2747608,40.9237129 59.3421708,40.9679275 59.4163557,40.9679275 L62.3594185,40.9679275 C62.4212957,40.9679275 62.4784305,40.9379248 62.5121355,40.8858711 C62.5466309,40.8351146 62.5518814,40.7702026 62.5277177,40.7140884 L57.0433987,27.8391297 Z" id="Fill-6" fill="#000000"></path>
                    <path d="M23.1646577,27.1128432 L26.4483839,27.1128432 C26.6153282,27.1128432 26.7506563,26.977718 26.7506563,26.8119697 L26.7506563,25.7896768 C26.7506563,25.6231953 26.6153282,25.4885213 26.4483839,25.4885213 L23.1646577,25.4885213 C22.9977699,25.4885213 22.8623853,25.6231953 22.8623853,25.7896768 L22.8623853,26.8119697 C22.8623853,26.977718 22.9977699,27.1128432 23.1646577,27.1128432" id="Fill-8" fill="#000000"></path>
                    <path d="M70.6216006,36.5016458 L69.8396104,35.7389443 C70.681897,34.7005784 70.9883472,33.7130254 71.0965759,33.0804862 C71.1220946,32.9147944 71.1392011,32.7470158 71.1478956,32.5789553 C71.157945,32.3738425 71.1597516,32.1678838 71.1439435,31.9632221 C71.0571122,30.7613638 70.617705,29.716174 69.8138095,28.8351534 C69.8053973,28.8253968 69.7967594,28.8156403 69.7856373,28.8032895 C69.7948398,28.7925179 69.8035907,28.7819718 69.8130755,28.7724972 C69.8256655,28.7599209 69.8380861,28.7467242 69.8507325,28.7343735 L70.5473592,28.0531644 C70.5481496,28.0540103 70.5497304,28.055533 70.5505208,28.0576761 C71.1611066,28.7117586 71.6076274,29.4687077 71.8922287,30.327621 C72.0283472,30.7386926 72.1196951,31.1600282 72.1689259,31.5914023 C72.188686,31.76076 72.2018405,31.9306252 72.2073733,32.1018439 C72.2073733,32.1139691 72.2105914,32.1271094 72.2129626,32.1402497 L72.2129626,32.4953198 C72.2105914,32.5098136 72.2082202,32.5240254 72.2073733,32.5376733 C72.1994693,32.648379 72.1947269,32.7604381 72.1855243,32.8711437 C72.1634495,33.1483308 72.1212759,33.4216265 72.0612618,33.6922717 C71.8358843,34.7043006 71.3917347,35.6008301 70.7263853,36.3822552 C70.6918899,36.4232552 70.6568864,36.4619429 70.6216006,36.5016458 Z M68.3633649,34.2966128 C68.8754891,33.7217105 69.141403,33.0476073 69.1390318,32.2770103 C69.1359266,31.4934986 68.8568017,30.8107669 68.3197234,30.228533 L69.0490388,29.5160241 C70.4887001,30.9675481 70.5850162,33.4303116 69.0958984,35.0119979 L68.3633649,34.2966128 Z M67.727825,33.6767063 L67.0224474,32.9874326 C67.1324827,32.7709842 67.1888271,32.5337256 67.1880932,32.2738521 C67.1873028,31.9984697 67.120909,31.7486912 66.9942752,31.5222043 L67.6954185,30.837837 C68.2749527,31.6739099 68.2865265,32.8296362 67.727825,33.6767063 Z M65.5733578,33.2632662 C65.0291094,33.3639897 64.5051856,33.0037311 64.4043529,32.4606362 C64.3996104,32.4329457 64.3950939,32.4046348 64.3901256,32.3772263 L64.3901256,32.1813061 C64.3963924,32.146848 64.4019817,32.1134051 64.4090953,32.0790034 C64.4451715,31.9009608 64.5233084,31.7426004 64.646837,31.6092799 C64.8735131,31.3644078 65.1541623,31.2549993 65.4851715,31.283141 C65.9329908,31.3220543 66.2997375,31.6642662 66.3766323,32.1068631 C66.469561,32.648379 66.1128073,33.1622607 65.5733578,33.2632662 Z M74.5759266,40.5594615 L73.495108,39.5206444 L70.7950939,36.7722909 C72.8377191,36.6058095 74.4498574,34.668207 74.4498574,32.3017118 C74.4498574,29.8266541 72.6860183,27.8188384 70.5097022,27.8188384 C70.4667946,27.8188384 70.4243952,27.821207 70.3822781,27.8227861 C70.3167311,27.821207 70.2511277,27.8188384 70.1837742,27.8188384 L64.3340635,27.8188384 C64.2332308,27.8188384 64.1510854,27.9008948 64.1510854,28.0016183 L64.1510854,40.7851589 C64.1510854,40.8866719 64.2332308,40.9679388 64.3340635,40.9679388 L67.1490812,40.9679388 C67.2507043,40.9679388 67.331777,40.8866719 67.331777,40.7851589 L67.331777,36.8774697 L67.3428991,36.8774697 L71.1611066,40.8866719 C71.1947551,40.937936 71.2518899,40.9679388 71.3127509,40.9679388 L74.3091658,40.9679388 L74.4063853,40.9679388 L74.431904,40.9679388 L74.5048469,40.9679388 L74.5540776,40.9679388 C74.6743881,40.9671492 74.7112548,40.9132345 74.7323698,40.8280199 C74.7359831,40.7859484 74.7196669,40.6975757 74.5759266,40.5594615 Z" id="Fill-10" fill="#000000"></path>
                    <path d="M36.6191447,27.8189512 L33.8401468,27.8189512 C33.7390318,27.8189512 33.6571687,27.9007256 33.6571687,28.0017311 L33.6571687,35.3313693 L27.9888553,27.891251 C27.9535695,27.8455138 27.9008948,27.8189512 27.8432519,27.8189512 L25.2477403,27.8189512 C25.1466817,27.8189512 25.0648186,27.9007256 25.0648186,28.0017311 L25.0648186,29.3425495 L25.0648186,33.6968398 L26.5618405,33.6968398 L25.0648186,38.2590626 L25.0648186,40.7849333 C25.0648186,40.8867847 25.1466817,40.9679952 25.2477403,40.9679952 L28.0260042,40.9679952 C28.1273451,40.9679952 28.2089259,40.8867847 28.2089259,40.7849333 L28.2089259,33.1999897 L34.0781708,40.8959773 C34.1134566,40.9417146 34.1666394,40.9679952 34.2237742,40.9679952 L36.6191447,40.9679952 C36.7196951,40.9679952 36.8018405,40.8867847 36.8018405,40.7849333 L36.8018405,28.0017311 C36.8018405,27.9007256 36.7196951,27.8189512 36.6191447,27.8189512" id="Fill-12" fill="#000000"></path>
                    <path d="M24.4016486,27.8189512 L21.5862922,27.8189512 C21.4849513,27.8189512 21.4038786,27.9007256 21.4038786,28.0017311 L21.4038786,40.7849333 C21.4038786,40.8867847 21.4849513,40.9679952 21.5862922,40.9679952 L24.4016486,40.9679952 C24.5030459,40.9679952 24.5846267,40.8867847 24.5846267,40.7849333 L24.5846267,39.7224298 L24.5846267,35.3816183 L22.6979365,35.3816183 L24.5846267,30.5667971 L24.5846267,28.0017311 C24.5846267,27.9007256 24.5030459,27.8189512 24.4016486,27.8189512" id="Fill-14" fill="#000000"></path>
                    <path d="M68.2471983,24.6542644 C67.8891461,24.8625354 67.0299788,25.2757499 66.3283839,24.9317334 C66.2728299,24.9015051 66.2235427,24.8667651 66.1824982,24.8278517 C65.9842766,24.638981 65.9776711,24.3094583 66.1633028,23.8499989 C66.4979252,23.0199604 67.6508398,21.8030443 69.3911927,21.0942575 C69.8656598,20.9006495 70.4390402,20.7228889 71.0938885,20.6227293 C70.38247,22.7872135 69.8645307,23.6571805 68.2471983,24.6542644 M76.14247,19.9899081 C75.0755963,19.5228352 74.0687368,19.2774556 73.1409739,19.1846275 C73.2728582,18.7482341 73.5887932,17.7628242 74.1701341,16.2276646 C74.9818207,14.0826371 75.6061256,13.1920856 75.7793366,12.7759948 C75.9278758,12.418838 75.7985886,11.8902369 75.404686,11.6561365 C75.390741,11.6471695 75.3762315,11.6396124 75.360988,11.6317169 C75.3417361,11.6219604 75.3215243,11.6122039 75.3006916,11.6040828 C75.2933522,11.5998531 75.2838673,11.5969769 75.2761891,11.5935367 C75.2488638,11.5828215 75.2204093,11.5738545 75.1908821,11.565959 C75.1548624,11.556992 75.1205928,11.5490966 75.0876782,11.5433442 C75.0819195,11.5419906 75.0758222,11.5414831 75.0700635,11.5406935 C75.0434721,11.5370278 75.0168807,11.5327981 74.9921524,11.531501 C74.9887085,11.5307114 74.9853211,11.5307114 74.9813126,11.5307114 C74.9547212,11.5291323 74.9297107,11.5283428 74.9054905,11.5283428 L74.9023289,11.5283428 C74.5664079,11.5367458 74.4452505,11.7463703 74.4452505,11.7463703 C74.3307551,11.8801983 74.2330275,12.0832809 74.0861256,12.388384 C73.9792519,12.6105849 73.8170501,12.9596206 73.6125053,13.4308669 C72.6904446,15.1759329 71.8171066,16.1853111 71.1970924,16.7489343 C70.1447283,17.7054693 69.1760903,18.2030525 68.605307,18.0794886 C68.4576147,18.0476812 68.2398589,17.9547967 68.0552999,17.5258476 C67.8696683,17.0939659 68.0410727,16.3810058 68.3657022,15.6335312 C68.4036415,15.5335972 68.4633733,15.4039425 68.55235,15.2345849 C68.553705,15.2305807 68.5552858,15.2277609 68.5573747,15.2246028 C68.5631898,15.2132671 68.5682145,15.2019879 68.5734086,15.1908779 C68.5784333,15.1819673 68.5836838,15.1735642 68.5884263,15.1648792 C68.7450953,14.8700402 68.8881016,14.6189081 69.0170501,14.406915 L69.016542,14.4077045 C69.0194778,14.4029673 69.0217925,14.3987376 69.024446,14.3945078 C69.0252364,14.3934927 69.0252364,14.3929851 69.0260268,14.3919136 C69.0605222,14.3346151 69.0950176,14.2785574 69.1295131,14.2245862 C69.131602,14.2204129 69.1334086,14.2173111 69.1357798,14.213871 C69.3506563,13.876904 69.5652505,13.5968971 69.7516161,13.3764446 C70.0291037,13.0472039 70.2431898,12.8520732 70.2948483,12.8059975 C70.2955822,12.805208 70.2958645,12.8044184 70.2958645,12.8044184 C70.2993084,12.8017678 70.3016796,12.7993992 70.303204,12.7978765 C70.3045025,12.7970305 70.307156,12.7944363 70.307156,12.7944363 L70.3045025,12.7978765 C70.4894001,12.6137431 70.6810162,12.4336138 70.8864079,12.2547816 C70.9727311,12.1787596 71.0551588,12.1198256 71.1325618,12.0732988 L71.134199,12.0720017 C71.1365702,12.0703662 71.1410303,12.0672644 71.1465067,12.0640498 C71.1896965,12.0359645 71.3224277,11.9525546 71.4517149,11.934959 C71.5083416,11.9267816 71.5651941,11.9315188 71.6122795,11.9609576 C71.6396613,11.9778201 71.6589132,11.999871 71.6720677,12.0246289 C71.6791814,12.0367541 71.6839238,12.0511351 71.6875935,12.0661928 C71.688892,12.1340374 71.7668596,12.1908283 71.2412985,12.6371475 C70.9369936,12.8948779 70.6749753,13.1365917 70.5067325,13.2948957 C70.4383063,13.3546193 70.3735498,13.417219 70.3103176,13.4821309 C70.3092449,13.4837664 70.307156,13.4853455 70.307156,13.4853455 L70.3079464,13.4853455 C69.8247848,13.9887376 69.5109951,14.6133249 69.4565138,14.725666 L69.5699929,14.6680856 C70.4182639,14.32249 71.4870007,13.978981 72.227043,13.317285 C72.258151,13.2896509 72.2876217,13.2620168 72.3160198,13.2352286 C72.3250529,13.2267692 72.3334651,13.2188737 72.3415949,13.2113166 C72.3621454,13.191578 72.3821313,13.1720649 72.4016655,13.1521007 C72.4097953,13.1436977 72.4176994,13.1358022 72.4263373,13.1271172 C72.4490332,13.1045023 72.4708821,13.0821695 72.4924488,13.0589906 C72.4953282,13.0558325 72.4990543,13.0526743 72.5022159,13.0490085 C72.5264361,13.0232355 72.5493013,12.9974624 72.5714326,12.9714638 C72.5780381,12.9645835 72.5835709,12.9579851 72.5893296,12.9508792 C72.6056457,12.9322121 72.6222442,12.9128118 72.6375441,12.8938627 C72.643585,12.8859673 72.6499083,12.8790869 72.6562315,12.8709659 C72.6725476,12.8504377 72.6891461,12.8307554 72.7046718,12.8101708 C72.7078335,12.8062795 72.7112209,12.8009783 72.714439,12.7975945 C72.7322795,12.772329 72.7505152,12.7484171 72.7675653,12.7247307 C72.7715737,12.7192039 72.7743966,12.713959 72.7786874,12.7089398 C72.7915596,12.6902726 72.8039238,12.6705904 72.8166267,12.6524308 C72.8205222,12.646622 72.8249824,12.6395161 72.8289344,12.6329741 C72.8415808,12.6145326 72.8531546,12.5956399 72.8642202,12.5777059 L72.8724065,12.5637761 C72.8852788,12.5406536 72.8989979,12.5185464 72.911362,12.497003 C72.9126606,12.4929989 72.9148059,12.4898971 72.9161044,12.4866825 C72.9263797,12.4677898 72.9363726,12.4491227 72.945067,12.4312451 C72.9479464,12.4257183 72.9508257,12.4201351 72.9531969,12.4149466 C72.9619478,12.3978022 72.9697953,12.3812781 72.9774171,12.3649796 C72.9795625,12.3599604 72.9818772,12.3555051 72.9837403,12.3512754 C72.9932251,12.3305216 73.0011291,12.3097114 73.0095977,12.2902547 C73.0100494,12.2886757 73.0108963,12.2881681 73.0108963,12.2865326 C73.0182357,12.2681475 73.0256316,12.2494803 73.0319548,12.2323923 C73.034326,12.227373 73.0358504,12.2224102 73.0374876,12.2174473 C73.0425124,12.2029535 73.0472548,12.1887417 73.0519407,12.1748118 C73.0530134,12.1700746 73.0545378,12.1656193 73.0566831,12.160882 C73.0672406,12.1253524 73.0764432,12.090838 73.0838391,12.058805 C73.0851376,12.0532781 73.0867184,12.0483153 73.0874524,12.043578 L73.094566,12.010699 C73.0951306,12.0051722 73.0966549,11.9993634 73.0975018,11.9951337 C73.0995907,11.9830649 73.1012279,11.9722933 73.1027523,11.9615216 C73.1033169,11.9575175 73.1043331,11.9536261 73.1051235,11.950186 C73.1067043,11.9370457 73.1080593,11.9246385 73.1098659,11.9122878 C73.1104305,11.9059714 73.1111644,11.8994294 73.111729,11.8944102 C73.1122371,11.8870787 73.1128017,11.8810443 73.1135356,11.8739384 C73.114326,11.8673964 73.1141002,11.8615312 73.1148906,11.8547073 C73.1148906,11.8494624 73.1154552,11.8444432 73.1154552,11.8391983 C73.1167537,11.8144968 73.1167537,11.7924459 73.1159068,11.7712974 L73.1159068,11.765827 C73.1159068,11.758721 73.1159068,11.7518971 73.1154552,11.7450732 C73.1111644,11.6701227 73.0988567,11.6287843 73.0988567,11.6287843 L73.0985745,11.6287843 C73.0511503,11.3755092 72.9334933,11.1525188 72.7689203,10.9765629 C72.213945,10.3860952 71.0438673,10.265351 69.9685815,11.2058696 C69.1750741,11.8986399 68.5673677,12.5982341 67.8635709,13.408534 C67.3425829,14.0087018 66.7517572,14.6882754 65.9632181,15.5107004 C64.8444601,16.6774239 64.0020042,17.3669796 63.4074524,17.7620347 C63.3334933,17.8082795 62.7247706,18.1775615 62.5030628,17.9742534 C62.3556528,17.8387898 62.390374,17.5982039 62.4385321,17.434373 C62.6070572,16.9511708 62.9003529,16.4146179 63.1623712,15.9389164 C63.2415808,15.7949934 63.3166126,15.6577816 63.3842484,15.5304391 C63.4761609,15.3573593 63.5841073,15.1645972 63.6991673,14.9607816 C64.3655328,13.777816 65.1214961,12.4377871 64.6341002,11.4730746 C64.4632604,11.1338517 64.1457445,10.9152602 63.7631334,10.8736963 C62.739506,10.7632162 61.4025406,11.952047 60.7584757,12.6434638 C60.758024,12.6445354 60.758024,12.6445354 60.7574594,12.6453249 C60.3359492,13.0684652 59.7377276,13.9571557 59.7377276,13.9571557 C59.7211291,13.978981 59.704079,14.0023854 59.6877629,14.0244927 L59.6871983,14.0244927 C59.6300635,14.1010223 59.5982216,14.1273593 59.5834862,14.1357059 C59.5660409,14.1448985 59.5442484,14.154655 59.5210445,14.1623249 C59.4483839,14.1777774 59.4123641,14.1412891 59.3964996,14.1107788 L59.3954834,14.1107788 C59.3952011,14.1099329 59.3952011,14.1084102 59.3949753,14.1075642 C59.3923218,14.1026014 59.390741,14.0978641 59.3889344,14.0941983 C59.3854905,14.0812836 59.384192,14.0668462 59.3852082,14.0526344 C59.3857163,14.0447389 59.3865632,14.037633 59.3880875,14.0281585 L59.3880875,14.0263538 C59.3913056,14.0089838 59.396048,13.9895271 59.4023147,13.9674198 C59.4062668,13.9585092 59.4091461,13.9495422 59.4128158,13.9402933 C59.4599577,13.8269934 59.6668737,13.3627403 60.115314,12.822578 C60.6316161,12.1982162 60.8799153,12.0487664 61.0357939,11.759285 C61.1913338,11.4699728 61.0747495,10.8445395 60.6471418,10.5925615 C60.6471418,10.5925615 60.6463514,10.5925615 60.6463514,10.5917719 C60.5233874,10.5128737 60.3785745,10.4687155 60.225067,10.4687155 L60.2214538,10.4687155 C59.6866902,10.4702382 59.2454199,10.9547376 58.6511503,12.1955656 C58.6440367,12.210567 58.6366408,12.2260759 58.6300917,12.2410773 C58.1183063,12.84649 57.4037262,13.7430759 56.4174171,15.0912259 C55.1433451,16.8347128 54.2215667,17.699153 53.6081581,18.1288916 C53.6007622,18.1322754 52.8046013,18.6283359 52.6758222,18.0076963 C52.6024277,17.6549948 52.5915879,17.2341667 52.633705,16.7360759 C52.633705,16.7360759 52.8577841,14.5373029 53.8903881,12.8746316 C54.1315737,12.479633 54.2331969,12.3846619 54.3398447,12.3507678 C54.364573,12.344677 54.4030205,12.3444514 54.4424841,12.3777816 C54.4899083,12.4254363 54.4772618,12.4977362 54.4759068,12.5041089 C54.4622442,12.5722355 54.4288215,12.6642176 54.3872124,12.7618393 C54.3756387,12.7881199 54.2863797,12.980882 54.0752294,13.3988338 C54.0505011,13.4474473 54.0193931,13.5071708 53.9841073,13.577666 C53.983825,13.5791887 53.983091,13.5803166 53.9817361,13.5818393 C53.9814538,13.5837004 53.9807198,13.5852795 53.9799294,13.5868586 C53.7347918,14.0820732 53.2900776,15.068329 53.1105434,16.0443208 C53.339873,15.8328916 53.5157375,15.6430058 53.6213126,15.5212465 C54.225801,14.816915 54.6015808,14.0905326 54.8171912,13.5739439 L54.824813,13.5569122 C54.8258292,13.5542616 54.8271842,13.551329 54.8279746,13.5487348 C54.8474524,13.501926 54.8658574,13.4566399 54.8824559,13.4124817 C54.9327594,13.2867747 54.9772477,13.1628724 55.013832,13.0429741 C55.0514891,12.9248806 55.0683133,12.8578256 55.0683133,12.8578256 L55.0680311,12.8586151 C55.3155399,11.9139232 55.1423289,11.2006248 54.5686662,10.9289645 C54.3203105,10.8121681 53.8108963,10.704395 53.1898095,11.3079466 C52.8601553,11.6285023 52.5181369,12.1271571 52.1700776,12.7907706 C51.4952435,14.0804941 51.1590402,15.3549906 51.045561,16.4449026 C49.5938179,18.0410264 48.6025406,18.3800801 48.2447142,18.4502933 C47.9841073,18.5021213 47.8456175,18.4647871 47.8079605,18.4436949 C47.7708116,18.3858889 47.6647283,18.1336289 47.9116725,17.3254157 C48.1254764,16.6255959 48.5124912,15.7995051 48.9235004,14.9444831 C49.3465914,14.0647032 49.7217502,13.1465739 49.9078899,12.6779219 C50.0284827,12.3765409 50.1382922,12.0877362 50.2185745,11.8638999 C50.2844037,11.6834886 50.3386591,11.5317265 50.3578546,11.3894955 L50.3581369,11.3894955 C50.3594354,11.3800209 50.3602823,11.3716179 50.3610162,11.3625945 C50.3615243,11.3581392 50.362597,11.3542479 50.362597,11.3503001 C50.3644601,11.3299975 50.3659845,11.3103153 50.3668313,11.2919301 C50.3676217,11.2732066 50.3676217,11.255047 50.3673394,11.237959 L50.3673394,11.2369439 C50.3668313,11.2197994 50.3650247,11.203501 50.3633874,11.1861873 L50.3633874,11.1848338 C50.3618066,11.1690993 50.3594354,11.153534 50.3562738,11.138871 C50.3562738,11.138025 50.3562738,11.1362204 50.356048,11.1353744 C50.3531122,11.1217265 50.3502329,11.1070072 50.3454905,11.0925133 C50.3449259,11.0920058 50.3449259,11.0912162 50.344192,11.0896935 C50.3407481,11.0757073 50.3362879,11.062003 50.3312632,11.0497087 C50.3309809,11.0480732 50.3304728,11.0464941 50.330247,11.0457045 C50.3255046,11.0325642 50.3199718,11.021003 50.3136486,11.0086523 C50.3133663,11.0070732 50.3128582,11.0054377 50.3122936,11.0044226 C50.3057445,10.9925794 50.2996471,10.9810182 50.29259,10.9694569 C50.2923641,10.9678779 50.291235,10.9662988 50.2899365,10.9647197 C50.2836133,10.9538916 50.2762174,10.9426124 50.2691037,10.9328558 C50.2680875,10.9304872 50.2662809,10.9286825 50.2649259,10.9271034 C50.2578123,10.9171213 50.2501905,10.9073648 50.2422865,10.8976646 C50.2404799,10.895014 50.2385603,10.8929274 50.2367537,10.8910663 C50.2288497,10.8821557 50.2212279,10.8729631 50.2120254,10.8642217 C50.2093719,10.860838 50.2070007,10.8590333 50.2043472,10.8566646 C50.1964432,10.8476977 50.1883133,10.8395202 50.1793931,10.8316248 C50.1611574,10.8145367 50.1420183,10.7987458 50.1248553,10.784816 C50.1237826,10.7832369 50.121976,10.7824473 50.1209033,10.7817142 C50.053211,10.7296041 49.9916161,10.6980223 49.9468454,10.67834 C49.9402964,10.6764226 49.9342555,10.6733208 49.9279323,10.6715161 C49.9200282,10.6683015 49.9121242,10.6651433 49.9052929,10.6624927 C49.8900494,10.6577554 49.8749753,10.6527926 49.8613126,10.6482809 C49.8586591,10.6472657 49.8568525,10.6464762 49.8539167,10.6464762 C49.8376006,10.6414569 49.8212844,10.6375656 49.8057022,10.6336179 L49.8055328,10.6336179 C49.7804658,10.6275271 49.7564714,10.6238613 49.7336062,10.6204212 C49.7162738,10.617545 49.6991673,10.6159659 49.6822865,10.6143868 C49.4916302,10.593351 49.3276217,10.6260044 49.1936486,10.6904088 C49.1936486,10.6904088 49.1928017,10.6911983 49.191729,10.6911983 C49.1736062,10.6996578 49.1557092,10.7093015 49.1386027,10.719622 C49.1373042,10.719622 49.1364573,10.7204116 49.134933,10.7211447 C49.1186168,10.7311832 49.1020183,10.7406578 49.0864361,10.751655 C49.0848553,10.7532905 49.0830487,10.7540237 49.0814114,10.7556591 C49.0670148,10.7655849 49.0525053,10.7761309 49.0387862,10.7869026 C49.0361891,10.7892713 49.0338179,10.7916399 49.0314467,10.793501 C49.0182357,10.8042726 49.0058716,10.8143111 48.9942978,10.8255904 C48.9906281,10.8287486 48.9874665,10.8313428 48.9845872,10.8347829 C48.9734651,10.845329 48.9632463,10.8553111 48.9529711,10.8661392 C48.9493013,10.8700305 48.9452929,10.8747678 48.9413973,10.8789411 C48.933211,10.8886977 48.9245166,10.8987362 48.9161609,10.9084363 C48.9114185,10.9144707 48.90741,10.9210127 48.9026676,10.9273854 C48.895554,10.9357884 48.8890049,10.944699 48.8826817,10.9531585 C48.8768666,10.9618435 48.8721242,10.9694569 48.8668737,10.9784239 C48.8623571,10.9849659 48.857897,10.9920718 48.853945,10.9991777 C48.8444601,11.0144611 48.8358222,11.02997 48.8279181,11.0457045 C48.7010021,11.3011227 48.1691743,12.0348366 47.3498095,13.1855436 C46.5305011,14.3364198 44.3854622,17.1210924 43.2891179,17.8716688 C43.2875371,17.8733043 43.285674,17.8740374 43.283585,17.8753909 C43.2830769,17.8764061 43.2820042,17.8764061 43.2812138,17.8771956 C42.738885,18.2477747 42.4205222,18.2848834 42.2378264,18.2298971 C42.0540579,18.1494198 42.0071983,18.018468 41.9984474,17.926655 C41.9977135,17.9135147 41.9969231,17.8995849 41.9969231,17.885373 C41.9974312,17.8824968 41.9974312,17.8782671 41.9974312,17.8743194 C41.9998024,17.8374927 42.0064079,17.8004404 42.0190543,17.759666 C42.0192802,17.7588201 42.019506,17.7588201 42.019506,17.7572974 C42.0887791,17.5487444 42.3336909,17.2578531 43.0503035,16.5166949 C43.0874524,16.4780072 43.1240367,16.4393758 43.1601694,16.4017596 C43.1719125,16.3894088 43.1840508,16.3768325 43.196415,16.3639177 C43.2190543,16.3394418 43.2424841,16.3152479 43.2646154,16.2907719 C43.2785603,16.275827 43.2919972,16.2621227 43.3052082,16.2471213 C43.3259845,16.224732 43.3462526,16.2031887 43.3657304,16.1819274 C43.3786591,16.1674336 43.390741,16.1545188 43.4036697,16.140307 C43.4231475,16.1190457 43.4431334,16.0974459 43.4623853,16.0759026 C43.4744672,16.0627623 43.4858151,16.049058 43.4971066,16.0367073 C43.5165843,16.0151076 43.5358363,15.9939026 43.5537332,15.9725849 C43.5658151,15.9601777 43.5768807,15.947827 43.5874382,15.9338971 C43.6061256,15.9141585 43.6240226,15.8936303 43.6422018,15.8728765 C43.6532675,15.8607513 43.6632604,15.847893 43.674326,15.8363318 C43.6912068,15.8158036 43.708765,15.7965725 43.7253634,15.7761007 C43.735921,15.7644831 43.7459139,15.7524143 43.7556246,15.7405711 C43.7725053,15.7211144 43.7891037,15.7016578 43.8054199,15.6827087 C43.8143402,15.6708655 43.8235992,15.6608834 43.8325759,15.6496041 C43.8491743,15.630373 43.8654905,15.6109164 43.8815243,15.5909521 C43.8894284,15.5806316 43.8975582,15.5714391 43.9057445,15.5615133 C43.9218349,15.5420003 43.9373606,15.5228256 43.952096,15.5041585 C43.96,15.4949659 43.9678476,15.4854913 43.9752435,15.4754528 C43.9905434,15.4562781 44.0052788,15.4384006 44.0194495,15.420241 C44.0268454,15.411274 44.0339591,15.4023634 44.041355,15.3931144 C44.055808,15.3750113 44.0692449,15.3568517 44.0837544,15.3389741 C44.0903035,15.3308531 44.0964008,15.3223937 44.1026676,15.3142726 C44.1168948,15.2963387 44.130614,15.2787431 44.1437121,15.261655 C44.1500917,15.2542671 44.1551164,15.2461461 44.1605928,15.2393221 C44.1742555,15.2213882 44.1871842,15.2040746 44.2000565,15.1880017 C44.2050812,15.1806702 44.210614,15.1738462 44.215921,15.1672479 C44.2285109,15.1501598 44.2411574,15.1338613 44.2519407,15.1172809 C44.2572477,15.1111901 44.2619901,15.1040842 44.2664502,15.0983318 C44.2788144,15.0817513 44.2903881,15.0654528 44.3014538,15.0507334 C44.3059139,15.0446426 44.3101482,15.0381007 44.3143825,15.0325739 C44.325674,15.0170649 44.3364573,15.0020635 44.3472971,14.9873442 C44.3509668,14.9815354 44.354693,14.9765161 44.3585886,14.9707637 C44.368638,14.9560443 44.3796471,14.9412685 44.3896965,14.9271131 C44.3928017,14.9221502 44.3959633,14.9176949 44.3991814,14.9134088 C44.4091743,14.8987458 44.4178687,14.884816 44.4275794,14.8713373 C44.430741,14.866882 44.4339026,14.8627087 44.4365561,14.8592121 C44.4460409,14.8448311 44.4549612,14.8310704 44.4636556,14.8190017 C44.4660268,14.8147719 44.4678899,14.8119521 44.4707692,14.8090195 C44.4776006,14.7977403 44.4839238,14.7884913 44.4907551,14.7785092 C44.5639802,14.6638558 44.7146083,14.4048283 44.8214255,14.0610374 C44.9338885,13.6699301 44.953084,13.2838985 44.794326,12.9650911 C44.6784757,12.7334157 44.4910374,12.5677238 44.2566831,12.4787871 L44.2559492,12.4787871 C43.9035992,12.318904 43.7188144,12.4093634 43.2825124,12.3999453 C42.9055469,12.3912602 42.3536203,12.2174473 42.2104446,12.1703565 C40.5764573,11.6237651 40.585434,11.1490787 40.6422865,10.986545 C40.6470289,10.9734047 40.6527876,10.9612795 40.6596189,10.9489287 C40.6728299,10.9302616 40.7641778,10.8126757 40.9253634,10.9247348 C41.1001553,11.0459865 41.0479887,11.2203634 41.5290614,11.4662506 C42.0090049,11.7132094 42.1830628,11.6474514 42.1830628,11.6474514 C42.1830628,11.6474514 42.2085815,11.6287843 42.2473112,11.2616454 C42.2522795,11.2185587 42.2562879,11.1753593 42.2601835,11.1351488 L42.2601835,11.1335697 L42.2601835,11.1319906 C42.2978405,10.6535821 42.2177841,10.2887554 42.020861,10.007677 C41.8757657,9.80222586 41.5356104,9.46587923 40.8847706,9.53530289 C39.6144248,9.6683414 39.42247,10.5057678 39.3935639,10.7590429 C39.3321948,11.305578 39.6265632,11.9070993 40.1481157,12.4241392 C40.3861397,12.6526564 41.6351447,13.7672699 43.4333663,13.8321818 C43.4238814,13.8554171 43.4128723,13.8814157 43.4018066,13.9063992 C43.3059986,14.1143882 42.980861,14.7348586 42.2506987,15.3658187 L42.2501905,15.3658187 C41.8223571,15.7316605 41.2954975,16.1850292 40.9545519,16.743633 C40.5322512,17.4390539 40.4814397,18.1704556 40.803698,18.8716289 C40.9037403,19.0701997 41.1386027,19.4236908 41.6103599,19.6572272 C41.8397459,19.7613345 42.088271,19.810512 42.3505152,19.8031805 C43.1727594,19.7797761 44.0884968,19.1906619 45.1808892,17.9740278 L45.1808892,17.9748173 C45.1808892,17.9748173 45.1918984,17.9619026 45.211602,17.9403029 C45.2669301,17.8780415 45.3232745,17.8138063 45.3796189,17.7488944 C45.4156951,17.7020856 45.4499083,17.6549948 45.4833874,17.607904 C45.7503176,17.2633799 46.141849,16.702915 46.4390967,16.0527238 C46.739506,15.4129095 46.7452646,15.2495298 46.94518,15.185633 C46.9577699,15.1840539 46.9693437,15.1830388 46.9804658,15.1837719 L46.9811997,15.1837719 C47.1178264,15.2114624 47.1268031,15.3358724 47.1257869,15.3834143 C47.1196895,15.4599439 47.0936062,15.5677733 47.0307128,15.72134 C47.0196471,15.7487486 47.0093719,15.7724349 46.9991531,15.7960649 C46.3656457,17.290732 46.0844319,18.5002602 46.7134227,19.3074019 C47.0180663,19.6995807 47.5411997,19.9017609 48.1489061,19.8654982 C48.8513479,19.8234267 49.6508963,19.4741089 50.4881581,18.8508751 L50.5295413,18.8198008 C50.5584474,18.7974116 50.5871842,18.7761502 50.6167114,18.7535354 C50.6164291,18.7529714 50.6164291,18.7529714 50.6164291,18.7522382 L50.6588285,18.7198669 C50.6588285,18.7198669 50.5713761,18.0039741 50.6182357,17.8011736 C50.6656598,17.598937 50.7893578,17.5437252 50.8857304,17.5736715 C50.8857304,17.5736715 50.9947495,17.6000085 51.0155822,17.8280182 C51.0318419,18.011644 51.0663938,18.4029205 51.1982781,18.807732 C51.1987862,18.8085216 51.1987862,18.8101007 51.1987862,18.8108902 C51.1995766,18.8116234 51.1995766,18.8124693 51.1995766,18.8124693 C51.2035286,18.8231846 51.2066902,18.8337307 51.2106422,18.8445023 C51.216175,18.8600677 51.2209174,18.8758022 51.2265067,18.8910856 C51.2309668,18.9039439 51.2357092,18.9152795 51.2398871,18.9279122 C51.2493719,18.9523882 51.2575018,18.9736495 51.2662526,18.9949673 C51.2693578,19.0031447 51.2728017,19.0115477 51.2759068,19.0194432 C51.3019901,19.0815354 51.3241214,19.1290773 51.339139,19.1595876 C51.3467608,19.1725023 51.3533663,19.1874473 51.3612703,19.201208 C51.6024559,19.6361915 52.0389273,19.9036784 52.5603105,19.9362754 C52.5984192,19.938926 52.6377135,19.9402231 52.6758222,19.9399411 C53.5660409,19.9370085 54.6260268,19.2819109 55.845561,17.9892547 C55.9956246,17.8217582 56.1251941,17.6623263 56.2394637,17.5119177 L56.238391,17.5134968 C56.238391,17.5134968 56.2417784,17.5087596 56.246295,17.5026688 C56.2589414,17.4863703 56.272096,17.4693387 56.2841778,17.4527582 C56.2871136,17.4484721 56.3211009,17.396926 56.3758645,17.3114858 C56.525928,17.0840402 56.7815667,16.6784391 57.0485533,16.1766261 C57.248638,15.7997307 57.3708116,15.5758944 57.463458,15.4559961 C57.5048412,15.4058036 57.5938179,15.320025 57.693578,15.3605175 C57.7038532,15.3655367 57.7383486,15.3852754 57.7567537,15.4323098 C57.760988,15.4439274 57.7644319,15.454981 57.7667466,15.4689109 C57.7667466,15.4689109 57.7675935,15.4689109 57.7675935,15.4694184 C57.7675935,15.4712795 57.7678758,15.4728022 57.7683839,15.4751708 C57.7683839,15.4768063 57.768892,15.4786674 57.7691179,15.481036 C57.8020325,15.7022217 57.5669442,16.006197 56.9381793,17.2357458 C56.5356387,18.0232052 56.4909245,18.4460635 56.5309527,18.6673056 C56.5880311,18.8532437 56.7120677,18.9936702 56.9027241,19.0854267 C57.476669,19.3605835 57.8757657,18.8455739 58.1680452,18.4686784 C58.4039238,18.1647032 58.7332957,17.7065409 59.1517008,17.1265629 C59.7009174,16.3644253 60.4367819,15.3431475 61.3525194,14.1247087 C61.4243896,14.0302451 61.7313479,13.6333854 62.0599294,13.3025656 C62.1686662,13.1976124 62.2798306,13.0987499 62.390374,13.0053579 C62.3998589,12.9974624 62.4088356,12.9903565 62.4174735,12.9835326 L62.4174735,12.9843221 L62.4185462,12.9827431 C62.4348624,12.9688132 62.4501059,12.956688 62.463825,12.9440553 C62.5810303,12.8477871 62.8919972,12.6090058 63.0367537,12.6687293 C63.2044884,12.7384349 63.1257304,13.0550429 63.0217361,13.2788792 C62.8577276,13.6139287 62.6628934,13.9595243 62.4830205,14.2774858 C62.3642908,14.489479 62.2516584,14.6898545 62.1515596,14.8784432 C62.0870854,15.0004845 62.0146507,15.1314927 61.9396189,15.268197 C61.2792943,16.4696041 60.3756951,18.1141722 61.3137897,19.1843455 C61.5638956,19.4696536 61.9080593,19.6251378 62.3098095,19.6338228 C63.3021595,19.6561557 64.746789,18.7212204 66.6011291,16.8533799 C66.5677064,17.2849232 66.6124771,17.7012396 66.7735498,18.0760484 C67.178518,19.0170746 67.8322371,19.3379122 68.3098659,19.4410608 C68.468398,19.4749549 68.6284545,19.4909714 68.7895836,19.4902382 C69.1118419,19.4891667 69.4372618,19.4231268 69.759012,19.3116316 L69.7582216,19.3126468 C69.7582216,19.3126468 70.8787862,18.9915835 71.2905293,18.2746193 C71.50247,17.9100746 71.5193507,17.434373 71.728638,17.3217499 C71.7331546,17.3193813 71.8750882,17.2512547 71.9598306,17.3709274 C71.9877205,17.4216839 72.0090614,17.5000746 71.9993507,17.6200292 C71.9877205,17.7025367 71.9685251,17.7880333 71.9524912,17.8543552 C71.9453776,17.8771956 71.9400706,17.8977238 71.9356104,17.9166729 C71.9266902,17.9494955 71.9208186,17.9700801 71.9208186,17.9700801 C71.8742414,18.1159769 71.8279464,18.2654267 71.7818207,18.4155532 L71.6444037,18.8616468 C71.6125618,18.9658105 71.5819619,19.0667596 71.5517008,19.166186 C70.4938603,19.2482988 69.5845025,19.5104281 68.8646718,19.803688 C66.9936768,20.5664459 65.4255187,21.9497871 64.8692449,23.3292369 C64.3178829,24.6966179 64.8526464,25.4869535 65.2207481,25.8372864 C65.7011997,26.2938132 66.3728723,26.4824019 67.0278899,26.4800333 C67.3370501,26.4789618 67.6414114,26.4347472 67.9217784,26.3574281 C67.9294001,26.3559054 67.9362879,26.3535367 67.944192,26.3519576 C67.9778405,26.3419755 68.0115455,26.3308655 68.0471136,26.3200938 C68.0705434,26.3124803 68.0923924,26.3043593 68.1144672,26.2964638 C68.130614,26.2911626 68.1463656,26.2856922 68.1618913,26.2790938 C68.1921524,26.2685477 68.2213973,26.2575505 68.2498518,26.2459893 C69.3441073,25.8075092 71.1486521,24.5259631 71.7695131,23.0191708 C72.1006916,22.2162589 72.433451,21.2891626 72.6877911,20.548512 C73.5680169,20.600058 74.5395342,20.8094006 75.5819054,21.2659838 C75.9344248,21.420904 76.3456598,21.260175 76.5007481,20.9083194 C76.6556104,20.5564074 76.4954975,20.1451103 76.14247,19.9899081" id="Fill-16" fill="#000000"></path>
                    <g id="Group-20" transform="translate(77.177135, 21.286050)">
                        <mask id="mask-4" fill="white">
                            <use xlink:href="#path-3"></use>
                        </mask>
                        <g id="Clip-19"></g>
                        <path d="M1.02738744,0.0872166437 C0.687232181,-0.0937022008 0.265439661,0.0348810179 0.0845504587,0.375457359 C-0.0962822865,0.71530055 0.0332307692,1.1363542 0.372595625,1.31755502 C0.880993649,1.58763618 1.44206634,1.96035832 1.5484319,2.09869807 C1.68296965,2.28751238 1.89361186,2.38953301 2.1092223,2.39139409 C2.25143825,2.39353714 2.39596895,2.35248074 2.5204573,2.263826 C2.83486803,2.04156878 2.90910939,1.60709285 2.68666761,1.29200757 C2.35283557,0.821776479 1.41519266,0.293118982 1.02738744,0.0872166437" id="Fill-18" fill="#000000" mask="url(#mask-4)"></path>
                    </g>
                    <path d="M3.11209033,11.0413733 C2.05182216,10.8730872 1.17374171,10.1129799 1.15957092,10.1014187 C0.872598447,9.8467901 0.43234439,9.87284512 0.176931546,10.1595067 C-0.07949753,10.4467323 -0.0539788285,10.8874682 0.233840508,11.1434503 C0.281490473,11.1855219 1.4175808,12.1838465 2.89331828,12.4173829 C2.93148342,12.4239813 2.96835004,12.426068 3.00572477,12.4258424 C3.34164573,12.4247144 3.63736909,12.1809703 3.69128582,11.8385329 C3.75163867,11.4587048 3.4925561,11.101548 3.11209033,11.0413733" id="Fill-21" fill="#000000"></path>
                    <path d="M10.2609965,10.5062697 C10.4505801,9.79776492 10.6472209,9.12659436 10.8489428,8.49061499 C11.2106648,7.3894238 12.2006436,4.70231651 13.7474608,2.96757098 C14.350933,2.33796437 15.0394298,1.84297538 15.8227184,1.57921059 C16.4735582,1.43743067 17.7939252,1.53764663 17.2239323,4.16897813 C17.2239323,4.16897813 17.2233677,4.17157235 17.2225773,4.17473054 C17.1981313,4.25943755 17.1725561,4.34386259 17.1464728,4.42749807 C16.9629866,4.98689147 16.4266422,6.38399326 15.2397968,7.86941142 C13.9810247,9.34778006 12.2733042,10.3902629 10.1383147,10.9767828 C10.1772703,10.8221446 10.2175243,10.6656453 10.2609965,10.5062697 M9.80470854,12.4958695 C9.83446154,12.4880304 9.86263373,12.4816576 9.89001553,12.4761872 C9.90158927,12.4735366 9.9126549,12.4703784 9.92400282,12.4677278 C12.2814905,11.9204596 14.2632548,10.8558131 15.7684629,9.345637 C18.927362,5.78326149 18.8299732,3.22135365 18.7256965,2.51758611 C18.3639181,0.399346768 16.2897897,-1.18183205 13.5423514,1.1691542 C10.5108765,3.76394099 8.90269019,10.1361982 8.68578123,11.0433303 C8.66573888,11.1303495 8.64603529,11.21641 8.62678335,11.3026398 C6.87959915,11.5783041 5.55996613,11.4607182 5.52473677,11.457278 C5.1424079,11.4193798 4.80016373,11.6997814 4.76222442,12.0827113 C4.72484968,12.4653591 5.00527311,12.8059355 5.38833592,12.8446232 C5.45258433,12.8502065 6.66105293,12.9640139 8.34534368,12.7499341 C8.34534368,12.7499341 9.0001355,12.6994596 9.80470854,12.4958695" id="Fill-23" fill="#000000"></path>
                    <path d="M41.3182781,14.0509087 C41.3222301,14.0427312 41.3522653,13.979342 41.399633,13.8768138 L41.4278052,13.8097587 L41.3994072,13.7921067 C41.1128864,13.6579967 40.4276076,13.2777175 40.2095695,13.0933585 C40.136175,13.3050132 39.8146507,13.8723585 39.8146507,13.8723585 C38.4805646,16.1222828 36.3231616,18.6942292 35.2737332,18.2287354 C35.2266478,18.2074176 35.1670854,18.1810806 35.1397036,18.0006693 C35.0878758,17.6564272 35.2113479,17.1038578 35.4817219,16.4242278 C36.5370219,15.1097464 37.2510374,14.1024547 38.0001129,12.5649265 C38.1098659,12.3400751 38.3381228,11.8714231 37.9910797,11.4863502 C37.7947212,11.2691686 37.4874241,11.1939362 37.2075653,11.2957312 C37.0277488,11.3609252 36.8344954,11.4758605 36.28765,12.2159472 C35.9480028,12.674899 35.5772477,13.2385221 35.243698,13.8029348 C34.9148906,14.3578165 34.5528299,15.0284795 34.266422,15.7112113 C34.266422,15.7112113 33.9038532,16.2840834 33.2614255,16.9318495 C33.0903035,17.1225249 32.8999294,17.2942512 32.7003529,17.4460132 L32.6984898,17.4483818 L32.6987721,17.4475923 C31.880988,18.0680063 30.913705,18.3339142 30.4676923,18.0993062 C30.1114467,17.911789 30.0685392,17.217214 30.3518419,16.2425194 C30.4413832,15.9350476 30.5463938,15.6521081 30.6611715,15.3859183 L30.6604375,15.3859183 C30.6628088,15.380899 30.6646154,15.3777409 30.6669866,15.3727216 C30.6761891,15.3515166 30.6851658,15.3304245 30.693578,15.3104602 L30.6919972,15.3119829 C30.6919972,15.3119829 30.6957234,15.3033543 30.7030628,15.2896501 C30.7078052,15.2801755 30.7151447,15.2686143 30.7238956,15.2559816 C31.0524206,14.5995868 31.3776147,14.1305964 31.6248412,13.8216019 C31.703825,13.7245442 31.8657445,13.5330228 32.0592237,13.3497354 C32.3970078,13.0257395 32.7372195,12.7779912 33.0460974,12.5883309 L33.043952,12.5894025 C33.043952,12.5894025 33.048638,12.5865263 33.0573888,12.581789 C33.2193084,12.4828702 33.3711785,12.4010957 33.510741,12.3326872 C33.689259,12.2420022 33.8851658,12.1528399 34.0322936,12.112573 C34.0322936,12.112573 34.163952,12.0705015 34.2005928,12.1409967 C34.2263938,12.2659706 34.0499647,12.4594657 33.5826112,12.733833 C33.5826112,12.7345662 33.5815949,12.7345662 33.5808045,12.7354121 C33.5047565,12.7869582 33.4233451,12.8387298 33.3385462,12.8905579 L33.3393366,12.8905579 C33.3393366,12.8905579 33.2717008,12.9308248 33.1595201,13.0102305 C33.0410727,13.0949376 32.9409739,13.1730462 32.865434,13.234518 C32.4726041,13.5575552 31.9099506,14.1082635 31.4781651,14.8964561 C32.6145378,14.4238564 34.4577558,13.5601494 35.0106987,12.7256556 C35.3316584,12.2420022 35.4048836,11.8051576 35.2287368,11.4285442 C35.191362,11.3485744 35.1449541,11.2796583 35.0930699,11.2167766 C35.0930699,11.2167766 35.0923359,11.2152539 35.0918278,11.21469 C34.9922936,11.0844713 34.8922512,10.9840297 34.7961609,10.9064286 L34.7932251,10.90406 C34.7882569,10.8998867 34.7835145,10.8964465 34.7784898,10.8922732 C34.7142414,10.8420242 34.6510656,10.8020957 34.5904869,10.7705139 C34.3308963,10.6466116 34.0494566,10.6662938 33.843331,10.7120875 C33.3667184,10.8465359 31.1909104,11.5795166 29.7931404,14.005679 C28.3360903,14.166408 27.3366831,13.7577051 26.6594778,13.1977477 C26.6186591,13.1666735 26.5763162,13.1299032 26.5304728,13.0864781 C25.9209598,12.4955593 25.5312915,11.659712 25.5312915,11.659712 C24.9354411,10.2705056 25.028144,8.54890041 25.7208186,7.7057216 L25.7198024,7.7057216 C25.7198024,7.7057216 26.0315032,7.2838784 26.2342414,7.30491417 C26.2387579,7.30491417 26.2435004,7.30570371 26.2482428,7.30649326 L26.2487509,7.30649326 L26.2490332,7.30649326 C26.3361468,7.31698294 26.3851517,7.39486602 26.3819337,7.51267758 C26.3822159,7.51267758 26.3830064,7.51188803 26.3830064,7.51188803 C26.3827805,7.51690729 26.3819337,7.52187015 26.3819337,7.5255359 C26.3809174,7.54053728 26.3788285,7.55525667 26.376175,7.57104759 C26.3322512,7.90135983 26.1773888,8.27272847 25.9578264,9.0220641 C25.9549471,9.03125667 25.9522936,9.04073122 25.9496401,9.04913425 C25.8106422,9.53149051 25.7840508,9.8888729 25.7845589,10.0929706 C25.7866478,10.1763805 25.7916725,10.2584369 25.7998589,10.3341769 L25.7998589,10.33491 C25.8053917,10.3896707 25.8119972,10.4417243 25.8198447,10.4919733 L25.8198447,10.4927629 C25.8235709,10.5156033 25.8274665,10.5392897 25.8319831,10.5621865 C25.8319831,10.5640476 25.8319831,10.5656267 25.8327735,10.5682209 C25.8364432,10.5901026 25.8403952,10.611364 25.8443472,10.6313282 C25.8449118,10.6326817 25.8451376,10.6339788 25.8451376,10.6353323 C25.8627523,10.7237051 25.8822865,10.8007422 25.9004093,10.8638495 C25.9006916,10.8654286 25.9006916,10.8662182 25.9012562,10.8672897 C25.9051517,10.8817835 25.9093296,10.8959389 25.9130558,10.9096432 C25.9130558,10.9111659 25.9138462,10.9117298 25.9138462,10.9122374 C25.9267749,10.9545909 25.9386309,10.9895565 25.9475512,11.0153296 L25.9480593,11.0158935 C25.9504305,11.0242966 25.953084,11.0308385 25.9554552,11.0372113 C25.9562456,11.0379444 25.9567537,11.0395799 25.957036,11.0403131 C25.9586168,11.0456143 25.9601976,11.0497876 25.9617784,11.0529458 C25.9625688,11.0545249 25.9625688,11.0550889 25.9630769,11.0568935 C25.9638673,11.0600517 25.9652223,11.0621384 25.9657304,11.0634355 C25.9662385,11.0642814 25.9662385,11.065071 25.9668031,11.0658041 C25.9670289,11.0677216 25.9680452,11.0684547 25.9680452,11.0684547 L25.9680452,11.0677216 C26.1892449,11.7190971 26.5441355,12.2015098 26.6852788,12.3787629 C26.9258998,11.7969802 27.4622442,10.27654 27.6075653,7.9955414 C27.6317855,6.96591692 27.4180381,6.34313425 26.9469584,6.02646988 C26.7737474,5.90995543 26.5410303,5.82000358 26.2463797,5.83974223 C26.2463797,5.83974223 25.456542,5.84075736 24.6714467,6.78680275 C24.6516302,6.81122228 24.632717,6.8344011 24.6131828,6.85803109 C24.6108116,6.86147125 24.6084404,6.86541898 24.6053352,6.8680696 C24.5629358,6.92249188 24.5213267,6.97877524 24.4812985,7.03584814 C24.4710797,7.05163906 24.4602399,7.06585089 24.4497389,7.08085227 L24.4504728,7.08006272 C23.5521242,8.4231934 23.47235,10.5866061 24.343091,12.414518 C24.3915314,12.5165387 24.4433592,12.6164726 24.4971066,12.7138124 C24.4971066,12.7138124 24.4020325,13.0341425 24.204319,13.536463 C24.1898095,13.5732897 24.1748483,13.6098908 24.1592661,13.6485221 C24.1585321,13.6508908 24.1568948,13.6535414 24.1558786,13.6569816 C24.1416514,13.6929623 24.126916,13.7289994 24.1111644,13.7666157 C24.1095272,13.7692663 24.1087932,13.7719169 24.1076641,13.7742856 C24.0921948,13.8126349 24.0755963,13.8515483 24.0584333,13.8915331 C24.0579252,13.8931122 24.0574171,13.8946913 24.056909,13.8962704 C24.0400282,13.9359733 24.0221313,13.9762402 24.0044601,14.0178041 C23.9328723,14.1827065 23.8528723,14.3578165 23.7651941,14.541668 C23.7214397,14.6326349 23.6761609,14.7255194 23.6277205,14.8202085 C23.6267043,14.8215056 23.626422,14.8241563 23.625067,14.8257354 C23.5779252,14.9182814 23.5295413,15.012463 23.4787297,15.1081673 C23.4763585,15.1113818 23.4744954,15.1161191 23.47235,15.1197849 C23.422103,15.214474 23.3691461,15.3106858 23.3146648,15.4069541 C23.3122936,15.4109018 23.3102047,15.4148495 23.3083416,15.4190792 C23.2517713,15.5184492 23.1932816,15.6186652 23.1327594,15.7204602 C23.114072,15.7509706 23.0974735,15.7796198 23.0837544,15.8025166 C23.0658574,15.8319554 23.0477347,15.8611686 23.0297812,15.8898179 L23.0295554,15.8906074 C22.9289485,16.0531411 22.8299224,16.2069898 22.733832,16.3522099 C21.8313056,17.6469527 21.1238391,18.2586817 20.7850388,18.5074451 C20.3789979,18.7896514 19.9872406,18.9756459 19.628398,19.0300682 C19.4875371,19.051386 19.3540155,19.0653158 19.2263656,19.0711246 C19.2176711,19.0716322 19.2102752,19.0727037 19.2010727,19.0734933 L19.1947495,19.0734933 L19.1900071,19.0734933 C18.8179534,19.094247 18.4999294,19.0414039 18.2376853,18.9177835 C18.2366126,18.9177835 18.2358786,18.9169939 18.2350882,18.9169939 C18.2063514,18.9027821 18.1784615,18.8885703 18.1515879,18.8730613 C18.1492167,18.8722718 18.1476359,18.8706927 18.1452646,18.8693392 C18.1194637,18.8551838 18.0942272,18.8396748 18.0700071,18.8230944 C18.0668454,18.8217972 18.0636838,18.8199362 18.0605222,18.8183571 C18.0373183,18.8025662 18.0149612,18.7862677 17.9926041,18.7694616 C17.9888779,18.7660215 17.9854905,18.7628633 17.981482,18.7604946 C17.9604799,18.7441961 17.9393649,18.7263186 17.919379,18.708159 C17.9152011,18.7047752 17.9111927,18.7016171 17.9072406,18.6981769 C17.8872548,18.6795098 17.8685674,18.6616322 17.84988,18.6418935 L17.838024,18.6305579 C17.8188285,18.6103681 17.800367,18.5897835 17.78247,18.5682966 C17.779873,18.565364 17.7767114,18.5614162 17.7734933,18.5579761 C17.7532251,18.5343461 17.7340296,18.5080091 17.7147777,18.4828 C17.7145519,18.4819541 17.7145519,18.4819541 17.7137615,18.4809389 C17.4370078,18.0951329 17.3106563,17.525419 17.345434,16.7779444 C17.3754128,16.1176019 17.4707692,15.5752402 17.5713197,15.1665373 C17.5718278,15.1658041 17.5718278,15.1641686 17.5723924,15.1634355 C17.5805222,15.129767 17.5892167,15.0976776 17.5971207,15.0655882 C17.5979111,15.0632195 17.5987015,15.0600613 17.5987015,15.0579183 C17.6073959,15.0256033 17.6160903,14.995375 17.6245025,14.9656542 L17.6245025,14.9648646 C17.6748059,14.7852429 17.7235286,14.6392897 17.7637826,14.5301067 C18.280367,13.0138963 19.0359915,11.9702856 19.4812138,11.4442787 C19.5009739,11.4229609 19.5251941,11.3991054 19.5517855,11.3767161 C19.5715455,11.3612072 19.6107269,11.3398894 19.6607481,11.3496459 C19.7294566,11.3632938 19.7260692,11.4253296 19.7281581,11.4442787 C19.7260692,11.4836996 19.7165843,11.5297752 19.7076641,11.5632182 C19.3082287,12.9110861 18.6802541,14.0435208 18.0986874,14.8904217 L18.0991955,14.8904217 C18.0991955,14.8904217 17.6579252,16.0707367 17.874326,17.3792402 C18.5078335,16.7293309 20.1752435,14.8257354 21.0190543,12.0500297 C21.0788426,11.8185799 21.6486097,9.50442036 20.5088497,9.32739285 C19.7113338,9.20326492 18.8440367,9.97414388 18.3522371,10.5038165 C17.4494284,11.4948096 16.3699647,13.1585524 16.0490049,15.6504726 C15.9589555,16.2446061 15.9273394,16.7882649 15.9547212,17.2792498 C14.7407198,18.1624135 12.406662,19.0974052 10.9393931,18.3804974 C9.69400141,17.7716446 9.2753705,15.9298028 9.70348624,13.1020435 C9.13609033,13.2695964 8.59003529,13.3213117 8.26201835,13.3376666 C8.10484121,14.5742649 8.10348624,15.648668 8.26038109,16.5447464 C8.58924488,18.4220613 9.56499647,19.2599389 10.3264361,19.6315895 C11.4527594,20.1825799 12.9790261,20.1502085 14.6232886,19.5402842 C15.2032745,19.3262044 15.7709527,19.0466487 16.2706563,18.7392333 C16.4157516,19.0795276 16.610868,19.3753818 16.8541426,19.6249912 C17.2519407,20.0339761 17.9459704,20.4718358 19.0875935,20.467888 C19.319012,20.4671549 19.568892,20.4484314 19.8387579,20.4079953 C21.5351306,20.1489114 23.2651517,18.3370724 24.565307,16.3721741 C24.5995201,16.3229967 24.6335074,16.2711686 24.6695272,16.2135882 C24.831729,15.9637532 24.9863091,15.7110421 25.1334368,15.4595717 C25.4773183,14.8880531 25.6902752,14.502529 25.8061821,14.283148 C26.0038956,14.4480503 26.2256034,14.6092305 26.4691037,14.7512924 C26.5128582,14.7757684 26.5567819,14.8010338 26.6015526,14.8244382 C27.360621,15.2260352 28.2129005,15.4295689 29.1464785,15.433573 C29.0993366,15.5692622 29.0543402,15.7094066 29.0127311,15.8529912 C28.3419054,18.1566611 29.2281722,19.0205937 29.816796,19.3309417 C30.8391814,19.8698633 32.2848836,19.4569307 33.421482,18.6416116 C33.3707269,18.4614823 33.3309245,18.2529293 33.3367396,18.0527794 C33.3522653,17.5478083 33.7595483,17.6624616 33.7490473,17.9178234 C33.7379252,18.1735235 33.7890755,18.3560215 33.7890755,18.3560215 C33.9454058,19.0529651 34.4054199,19.3669788 34.70741,19.5018784 C35.9877488,20.0702388 37.5148624,19.2712182 39.2472548,17.1269802 C40.4091461,15.6888784 41.2653776,14.148756 41.3008892,14.0829981 L41.3182781,14.0509087 Z" id="Fill-25" fill="#000000"></path>
                </g>
            </g>
        </g>
    </g>
</svg>