<?xml version="1.0" encoding="UTF-8"?>
<svg width="24px" height="24px" viewBox="0 0 24 24" version="1.1" xmlns="http://www.w3.org/2000/svg" xmlns:xlink="http://www.w3.org/1999/xlink">
    <!-- Generator: Sketch 51.3 (57544) - http://www.bohemiancoding.com/sketch -->
    <title>Group 33</title>
    <desc>Created with Sketch.</desc>
    <defs></defs>
    <g id="Page-1" stroke="none" stroke-width="1" fill="none" fill-rule="evenodd">
        <g id="Index-Opsi-1" transform="translate(-716.000000, -6401.000000)">
            <g id="Group-21" transform="translate(0.000000, 6335.000000)">
                <g id="Group-14" transform="translate(317.000000, 48.000000)">
                    <g id="Group-13" transform="translate(365.000000, 0.000000)">
                        <g id="Group-6" transform="translate(0.000000, 18.000000)">
                            <g id="Group-33" transform="translate(34.000000, 0.000000)">
                                <circle id="Oval-5" fill="#4A4A4A" cx="12" cy="12" r="12"></circle>
                                <g id="Group-32" transform="translate(6.000000, 6.000000)" fill="#FFFFFF" fill-rule="nonzero">
                                    <path d="M8.75170898,0 L3.24829102,0 C1.45715332,0 0,1.45715332 0,3.24829102 L0,8.75180053 C0,10.5428467 1.45715332,12 3.24829102,12 L8.75180053,12 C10.5428467,12 12,10.5428467 12,8.75180053 L12,3.24829102 C12,1.45715332 10.5428467,6.66133815e-16 8.75170898,0 Z M6,9.28115845 C4.19073488,9.28115845 2.71884155,7.80926513 2.71884155,6 C2.71884155,4.19073488 4.19073488,2.71884155 6,2.71884155 C7.80926513,2.71884155 9.28115845,4.19073488 9.28115845,6 C9.28115845,7.80926513 7.80926513,9.28115845 6,9.28115845 Z M9.35961914,3.49264526 C8.82495117,3.49264526 8.39007567,3.05776978 8.39007567,2.52310181 C8.39007567,1.98843384 8.82495117,1.5534668 9.35961914,1.5534668 C9.89428711,1.5534668 10.3292542,1.98843384 10.3292542,2.52310181 C10.3292542,3.05776978 9.89428711,3.49264526 9.35961914,3.49264526 Z" id="Shape"></path>
                                </g>
                            </g>
                        </g>
                    </g>
                </g>
            </g>
        </g>
    </g>
</svg>