<?xml version="1.0" encoding="UTF-8"?>
<svg width="101px" height="85px" viewBox="0 0 101 85" version="1.1" xmlns="http://www.w3.org/2000/svg" xmlns:xlink="http://www.w3.org/1999/xlink">
    <!-- Generator: Sketch 51.3 (57544) - http://www.bohemiancoding.com/sketch -->
    <title>Group 50</title>
    <desc>Created with Sketch.</desc>
    <defs>
        <polygon id="path-1" points="0 0.336021277 8.0185383 0.336021277 8.0185383 25.6808511 0 25.6808511"></polygon>
        <polygon id="path-3" points="0.204831915 0.085 77.4042553 0.085 77.4042553 7.60504043 0.204831915 7.60504043"></polygon>
        <polygon id="path-5" points="0.204831915 0.0438382979 77.4042553 0.0438382979 77.4042553 5.79634894 0.204831915 5.79634894"></polygon>
    </defs>
    <g id="Page-1" stroke="none" stroke-width="1" fill="none" fill-rule="evenodd">
        <g id="Partner-Single-Page-(Form)" transform="translate(-976.000000, -374.000000)">
            <g id="Group-50" transform="translate(976.000000, 374.000000)">
                <path d="M26.8214064,7.27473404 L26.8214064,67.8851596 C26.8214064,68.8310106 27.5882149,69.5978191 28.5337043,69.5978191 L95.3733638,69.5978191 C96.3192149,69.5978191 97.0856617,68.8310106 97.0856617,67.8851596 L97.0856617,7.27473404 L26.8214064,7.27473404 Z" id="Fill-1" fill="#E6E7E8"></path>
                <path d="M30.7298511,67.8852681 L30.7298511,7.27484255 L26.8212979,7.27484255 L26.8212979,67.8852681 C26.8212979,68.8307574 27.5881064,69.597566 28.5339574,69.597566 L32.4421489,69.597566 C31.4966596,69.597566 30.7298511,68.8307574 30.7298511,67.8852681" id="Fill-3" fill="#D1D3D4"></path>
                <path d="M26.5335277,16.078166 C18.9092085,16.078166 12.729166,22.2582085 12.729166,29.8825277 L12.729166,35.3453149 C13.6518681,34.4898894 14.9644851,34.0254638 16.245634,34.1961872 L16.245634,33.5082298 C16.245634,32.9616979 16.7125915,32.5294638 17.2540596,32.5706979 C22.5913362,32.9541021 28.0226553,31.2580809 32.129783,28.5753362 C32.5128255,28.3246766 33.021017,28.3868894 33.3324426,28.7218255 C36.8434851,32.4961872 36.8221447,32.3496979 36.8221447,32.8426979 L36.8221447,34.1932936 C38.226634,33.982783 39.4723362,34.4168255 40.3378894,35.2216128 L40.3378894,29.8825277 C40.3378894,22.2582085 34.1578468,16.078166 26.5335277,16.078166" id="Fill-5" fill="#414042"></path>
                <path d="M16.4344787,29.8825277 C16.4344787,22.8872085 21.6386489,17.1111872 28.3862021,16.2054851 C27.7796277,16.1241021 27.1622021,16.078166 26.5335638,16.078166 C18.9092447,16.078166 12.7292021,22.2585702 12.7292021,29.8825277 L12.7292021,35.3456766 C13.6519043,34.4902511 14.9645213,34.0258255 16.2456702,34.1965489 L16.2456702,33.5085915 C16.2456702,33.2962723 16.3165638,33.1016766 16.4344787,32.9450596 L16.4344787,29.8825277 Z" id="Fill-7" fill="#58595B"></path>
                <path d="M36.6393043,33.644917 L36.6393043,41.2070234 C36.6393043,41.2887681 36.6349638,41.3701511 36.6327936,41.451534 C39.3090277,41.8566404 41.4050915,39.9233426 41.4050915,37.5484064 C41.4050915,35.1687681 39.3072191,33.2452362 36.6393043,33.644917" id="Fill-9" fill="#F2BB88"></path>
                <path d="M16.4284745,41.2069149 L16.4284745,33.6477021 C14.0987511,33.3366383 11.6626872,35.1248936 11.6626872,37.5486596 C11.6626872,39.9199787 13.7536872,41.8572553 16.4346234,41.4514255 C16.4324532,41.3696809 16.4284745,41.2886596 16.4284745,41.2069149" id="Fill-11" fill="#F2BB88"></path>
                <path d="M26.6804872,51.1653702 C24.4502319,51.1653702 22.4905298,50.5530085 20.887466,49.5290298 L20.887466,54.9462426 L26.6558915,62.0667106 L32.4239553,54.9462426 L32.4239553,49.3760298 C30.7897851,50.5030936 28.8116362,51.1653702 26.6804872,51.1653702" id="Fill-13" fill="#F2BB88"></path>
                <path d="M47.6835894,60.4905213 L32.4241,54.5806702 L26.6560362,61.7007766 L20.8876106,54.5806702 L5.64367447,60.4905213 C5.64367447,60.4905213 3.61702128e-05,62.8108404 3.61702128e-05,69.2444362 L3.61702128e-05,83.6018404 C3.61702128e-05,84.3270532 0.587802128,84.9148191 1.31301489,84.9148191 L52.0261851,84.9148191 C52.7448872,84.9148191 53.3275894,84.3324787 53.3275894,83.6137766 L53.3275894,69.2444362 C53.3275894,62.8108404 47.6835894,60.4905213 47.6835894,60.4905213" id="Fill-15" fill="#FED304"></path>
                <g id="Group-19" transform="translate(0.000000, 59.234149)">
                    <mask id="mask-2" fill="white">
                        <use xlink:href="#path-1"></use>
                    </mask>
                    <g id="Clip-18"></g>
                    <path d="M3.69402766,24.3678723 L3.69402766,8.34808511 C3.69402766,3.93387234 6.35072979,1.45621277 8.0185383,0.336021277 L5.64396383,1.25655319 C5.64396383,1.25655319 -3.61702128e-05,3.57651064 -3.61702128e-05,10.0104681 L-3.61702128e-05,24.3678723 C-3.61702128e-05,25.0930851 0.587729787,25.6808511 1.31294255,25.6808511 L5.00700638,25.6808511 C4.28179362,25.6808511 3.69402766,25.0930851 3.69402766,24.3678723" id="Fill-17" fill="#C5901A" mask="url(#mask-2)"></path>
                </g>
                <path d="M33.3320447,28.356434 C33.0206191,28.0214979 32.5127894,27.9592851 32.1293851,28.209583 C28.0226191,30.8926894 22.5913,32.5883489 17.2536617,32.2053064 C16.7125553,32.1640723 16.2455979,32.5959447 16.2455979,33.1428383 L16.2455979,41.3900085 C16.2455979,46.6900298 20.3983,51.5314128 26.6803426,51.5314128 C32.2726191,51.5314128 36.8221085,46.9819234 36.8221085,41.3900085 L36.8221085,32.4773064 C36.8221085,31.9843064 36.8434489,32.130434 33.3320447,28.356434" id="Fill-20" fill="#F2D1A5"></path>
                <path d="M19.9398787,41.3899 L19.9398787,32.2265383 C19.0461128,32.2739213 18.1490915,32.2695809 17.2538787,32.2051979 C16.7124106,32.1639638 16.2454532,32.5961979 16.2454532,33.1427298 L16.2454532,41.3899 C16.2454532,46.6899213 20.3988787,51.5313043 26.6809213,51.5313043 C27.2603681,51.5313043 27.8278787,51.4799426 28.3809213,51.3859 C23.5956021,50.5746021 19.9398787,46.4020064 19.9398787,41.3899" id="Fill-22" fill="#F2BB88"></path>
                <path d="M33.6206468,65.3593574 L37.9339447,56.7150383 L32.4237745,54.5809957 L26.6557106,61.7011021 L32.2794553,65.695017 C32.7348383,66.018017 33.371434,65.8588681 33.6206468,65.3593574" id="Fill-24" fill="#C5901A"></path>
                <path d="M19.6993468,65.3593574 L15.3856872,56.7150383 L20.8958574,54.5809957 L26.6639213,61.7011021 L21.0398149,65.695017 C20.5847936,66.018017 19.9481979,65.8588681 19.6993468,65.3593574" id="Fill-26" fill="#C5901A"></path>
                <polygon id="Fill-28" fill="#58595B" points="26.6631617 61.7056234 26.6631617 61.7005596 26.6595447 61.7034532 26.6559277 61.7005596 26.6559277 61.7056234 22.5661617 64.6108149 24.4994596 67.5207085 28.8203532 67.5207085 30.7540128 64.6108149"></polygon>
                <path d="M28.7069234,63.1570255 L26.6633064,61.7055149 L26.6633064,61.7008128 L26.6600511,61.7033447 L26.656434,61.7008128 L26.656434,61.7055149 L22.5659447,64.6110681 L24.4996043,67.5206 L28.5937106,67.5206 L27.0062,65.1311957 C26.8134128,64.8411106 26.8857532,64.4504723 27.1696894,64.2490043 L28.7069234,63.1570255 Z" id="Fill-30" fill="#414042"></path>
                <polygon id="Fill-32" fill="#414042" points="21.8547298 84.9149277 31.4647936 84.9149277 28.8200277 67.5206723 24.4994957 67.5206723"></polygon>
                <polygon id="Fill-34" fill="#58595B" points="24.4993149 67.5207447 21.8545489 84.915 25.9486553 84.915 28.5930596 67.5207447"></polygon>
                <g id="Group-38" transform="translate(23.148936, 0.276702)">
                    <mask id="mask-4" fill="white">
                        <use xlink:href="#path-3"></use>
                    </mask>
                    <g id="Clip-37"></g>
                    <path d="M75.349534,0.0848914894 L2.2596617,0.0848914894 C1.12970426,0.0848914894 0.204831915,1.00940213 0.204831915,2.13935957 L0.204831915,5.55021064 C0.204831915,6.68016809 1.12970426,7.60504043 2.2596617,7.60504043 L75.349534,7.60504043 C76.4794915,7.60504043 77.4043638,6.68016809 77.4043638,5.55021064 L77.4043638,2.13935957 C77.4043638,1.00940213 76.4794915,0.0848914894 75.349534,0.0848914894" id="Fill-36" fill="#58595B" mask="url(#mask-4)"></path>
                </g>
                <g id="Group-41" transform="translate(23.148936, 2.085213)">
                    <mask id="mask-6" fill="white">
                        <use xlink:href="#path-5"></use>
                    </mask>
                    <g id="Clip-40"></g>
                    <path d="M75.349534,1.81111489 L2.2596617,1.81111489 C1.22700213,1.81111489 0.368682979,1.03851915 0.227619149,0.0438382979 C0.213874468,0.137880851 0.204831915,0.233370213 0.204831915,0.331029787 L0.204831915,3.74188085 C0.204831915,4.8718383 1.12970426,5.79634894 2.2596617,5.79634894 L75.349534,5.79634894 C76.4794915,5.79634894 77.4043638,4.8718383 77.4043638,3.74188085 L77.4043638,0.331029787 C77.4043638,0.233370213 77.3949596,0.137880851 77.3815766,0.0438382979 C77.2405128,1.03851915 76.3818319,1.81111489 75.349534,1.81111489" id="Fill-39" fill="#414042" mask="url(#mask-6)"></path>
                </g>
                <path d="M11.1233894,84.9149277 L11.1233894,71.4559915 C11.1233894,70.6182894 10.4441128,69.9386511 9.60604894,69.9386511 C8.7676234,69.9386511 8.08798511,70.6179277 8.08798511,71.4559915 L8.08798511,84.9149277 L11.1233894,84.9149277 Z" id="Fill-42" fill="#C5901A"></path>
                <path d="M45.2396043,84.9149277 L45.2396043,71.4559915 C45.2396043,70.6182894 44.5603277,69.9386511 43.7222638,69.9386511 C42.8838383,69.9386511 42.2042,70.6179277 42.2042,71.4559915 L42.2042,84.9149277 L45.2396043,84.9149277 Z" id="Fill-44" fill="#C5901A"></path>
                <path d="M42.7161894,50.3346128 C42.1244447,49.7410596 42.1266149,48.7803787 42.7201681,48.188634 L56.5042745,34.4573362 C57.0659979,33.897783 57.9633809,33.8648681 58.5645298,34.3813787 L67.1900404,41.7948255 L80.6887638,27.2576553 C81.2591681,26.6434851 82.2191255,26.6080383 82.8332957,27.1784426 C83.447466,27.7488468 83.4832745,28.7088043 82.9128702,29.3229745 L68.4201894,44.9304213 C67.8653383,45.5279532 66.9375723,45.5800383 66.3190617,45.0483362 L57.6512319,37.5987191 L44.8621681,50.3389532 C44.2686149,50.9303362 43.3075723,50.9288894 42.7161894,50.3346128" id="Fill-46" fill="#FFFFFF"></path>
                <path d="M86.9070745,23.9744851 C86.9070745,23.5813149 86.5884149,23.2626553 86.1952447,23.2626553 L78.4917128,23.2626553 C77.8576489,23.2626553 77.5400745,24.0291021 77.9885851,24.4776128 L85.692117,32.1811447 C86.140266,32.6296553 86.9070745,32.3120809 86.9070745,31.6776553 L86.9070745,23.9744851 Z" id="Fill-48" fill="#FFFFFF"></path>
            </g>
        </g>
    </g>
</svg>