<?xml version="1.0" encoding="UTF-8"?>
<svg width="99px" height="67px" viewBox="0 0 99 67" version="1.1" xmlns="http://www.w3.org/2000/svg" xmlns:xlink="http://www.w3.org/1999/xlink">
    <!-- Generator: Sketch 51.3 (57544) - http://www.bohemiancoding.com/sketch -->
    <title>Group 23</title>
    <desc>Created with Sketch.</desc>
    <defs>
        <polygon id="path-1" points="1.93359375e-05 0.17248 99 0.17248 99 9 1.93359375e-05 9"></polygon>
        <polygon id="path-3" points="0 67 99 67 99 0 0 0"></polygon>
    </defs>
    <g id="Page-1" stroke="none" stroke-width="1" fill="none" fill-rule="evenodd">
        <g id="Partner-Single-Page-(Form)" transform="translate(-773.000000, -392.000000)">
            <g id="Group-23" transform="translate(773.000000, 392.000000)">
                <path d="M35.8997689,58.5557723 L35.8997689,62 L63.0996534,62 L63.0996534,58.5557723 L92,58.5557723 L92,3.44442277 C92,1.54145479 90.47825,0 88.5998459,0 L10.3999615,0 C8.52155739,0 7,1.54145479 7,3.44442277 L7,58.5557723 L35.8997689,58.5557723 Z" id="Fill-1" fill="#414042"></path>
                <g id="Group-5" transform="translate(0.000000, 58.000000)">
                    <mask id="mask-2" fill="white">
                        <use xlink:href="#path-1"></use>
                    </mask>
                    <g id="Clip-4"></g>
                    <path d="M63.1552518,0.17248 L63.1552518,3.70328 L35.8447869,3.70328 L35.8447869,0.17248 L1.93359375e-05,0.17248 L1.93359375e-05,5.46888 C1.93359375e-05,7.41968 1.52775176,9.00008 3.4137791,9.00008 L95.5862596,9.00008 C97.4722869,9.00008 99.0000193,7.41968 99.0000193,5.46888 L99.0000193,0.17248 L63.1552518,0.17248 Z" id="Fill-3" fill="#E6E7E8" mask="url(#mask-2)"></path>
                </g>
                <mask id="mask-4" fill="white">
                    <use xlink:href="#path-3"></use>
                </mask>
                <g id="Clip-7"></g>
                <polygon id="Fill-6" fill="#FFFFFF" mask="url(#mask-4)" points="10 54 89 54 89 3 10 3"></polygon>
                <path d="M83.2940494,51 L57.7059506,51 C56.7625375,51 56,50.3279905 56,49.5 C56,48.6720095 56.7625375,48 57.7059506,48 L83.2940494,48 C84.2374625,48 85,48.6720095 85,49.5 C85,50.3279905 84.2372693,51 83.2940494,51" id="Fill-8" fill="#FFD00D" mask="url(#mask-4)"></path>
                <path d="M32.3332704,41 L15.6667296,41 C14.7450062,41 14,40.3279905 14,39.5 C14,38.6720095 14.7450062,38 15.6667296,38 L32.3332704,38 C33.2549938,38 34,38.6720095 34,39.5 C34,40.3279905 33.2549938,41 32.3332704,41" id="Fill-9" fill="#FFD00D" mask="url(#mask-4)"></path>
                <path d="M75.2940494,41 L49.7059506,41 C48.7625375,41 48,40.3279905 48,39.5 C48,38.6720095 48.7625375,38 49.7059506,38 L75.2940494,38 C76.2374625,38 77,38.6720095 77,39.5 C77,40.3279905 76.2372693,41 75.2940494,41" id="Fill-10" fill="#FFD00D" mask="url(#mask-4)"></path>
                <path d="M40.500085,41 C40.1101105,41 39.7186066,40.8339651 39.4350042,40.562256 C39.1634664,40.2754994 39,39.8830688 39,39.4904671 C39,39.2941663 39.0450297,39.0980364 39.119966,38.916954 C39.1949023,38.7206532 39.299915,38.5546183 39.4350042,38.4188492 C39.9899745,37.8603836 40.9950722,37.8603836 41.5649958,38.4188492 C41.8350042,38.7056057 42,39.0980364 42,39.4906381 C42,39.8832398 41.8350042,40.2754994 41.5649958,40.562427 C41.4900595,40.6227878 41.413424,40.698196 41.3250637,40.7435094 C41.2501274,40.8038702 41.1585387,40.8491835 41.0700085,40.8792784 C40.9785896,40.9245918 40.8900595,40.9546867 40.7835174,40.9699051 C40.6951572,40.9849525 40.5901444,41 40.500085,41" id="Fill-11" fill="#FFD00D" mask="url(#mask-4)"></path>
                <path d="M49.2940494,51 L23.7059506,51 C22.7625375,51 22,50.3279905 22,49.5 C22,48.6720095 22.7625375,48 23.7059506,48 L49.2940494,48 C50.2374625,48 51,48.6720095 51,49.5 C51,50.3279905 50.2374625,51 49.2940494,51" id="Fill-12" fill="#FFD00D" mask="url(#mask-4)"></path>
                <path d="M15.499915,51 C15.3048428,51 15.1099405,50.9549036 14.9299915,50.8798564 C14.7500425,50.8049793 14.5850467,50.6996409 14.4350042,50.5643517 C14.1634664,50.2789681 14,49.9035618 14,49.4976942 C14,49.3023331 14.0450297,49.1071423 14.119966,48.9269269 C14.1949023,48.7315658 14.299915,48.5814714 14.4350042,48.4312068 C14.7950722,48.0857513 15.3050127,47.9354867 15.7835174,48.0256795 C15.8900595,48.0406549 15.9785896,48.0707759 16.0700085,48.1158723 C16.1585387,48.1459933 16.2499575,48.1909195 16.3250637,48.2511615 C16.4135939,48.3110632 16.4900595,48.371135 16.5649958,48.4312068 C16.699915,48.5814714 16.8049278,48.731736 16.880034,48.9269269 C16.9549703,49.1071423 17,49.3025033 17,49.4976942 C17,49.9033916 16.8350042,50.2787979 16.5649958,50.5643517 C16.4900595,50.6244235 16.413424,50.6844954 16.3250637,50.7445672 C16.2501274,50.8048092 16.1585387,50.8497354 16.0700085,50.8796862 C15.9785896,50.9249528 15.8900595,50.9547334 15.7835174,50.969879 C15.6949873,50.9848544 15.5899745,51 15.499915,51" id="Fill-13" fill="#FFD00D" mask="url(#mask-4)"></path>
                <path d="M83.5,41 C83.408576,41 83.3050867,40.9850538 83.2150221,40.9699378 C83.1100034,40.9549916 83.0199388,40.9249294 82.9300442,40.879921 C82.8399796,40.8498587 82.750085,40.8050202 82.658491,40.7450656 C82.5849099,40.685111 82.5099694,40.6251564 82.4350289,40.5652018 C82.1636456,40.280375 82,39.8905852 82,39.5006256 C82,39.1106659 82.1636456,38.721046 82.4350289,38.4360494 L82.658491,38.2561856 C82.750085,38.196231 82.8399796,38.1512226 82.9300442,38.1213302 C83.0201088,38.0763218 83.1100034,38.0464294 83.2150221,38.0313134 C83.6950833,37.9263504 84.2186473,38.091268 84.565311,38.4360494 C84.6251274,38.5109501 84.6852838,38.5860208 84.7451003,38.6758677 C84.8052566,38.7507685 84.8487595,38.8407853 84.8800272,38.9308022 C84.9252294,39.020819 84.9551376,39.1106659 84.9687323,39.2156289 C84.9850459,39.3056458 85,39.4106088 85,39.5004557 C85,39.5904726 84.9850459,39.6954356 84.9687323,39.8003986 C84.9551376,39.8904154 84.9250595,39.9802623 84.8800272,40.0702792 C84.8487595,40.160296 84.8052566,40.2501429 84.7451003,40.3401598 C84.6852838,40.4150605 84.6251274,40.4901312 84.565311,40.565032 C84.4902005,40.6249866 84.4135607,40.6849411 84.3401495,40.7448957 C84.250085,40.8048503 84.1586609,40.8498587 84.0701258,40.8797511 C83.9787017,40.9247595 83.8901665,40.9546519 83.7836184,40.9697679 C83.6949133,40.9850538 83.5898946,41 83.5,41" id="Fill-14" fill="#FFD00D" mask="url(#mask-4)"></path>
                <path d="M83.2940494,20 L57.7059506,20 C56.7625375,20 56,19.3279905 56,18.5 C56,17.6720095 56.7625375,17 57.7059506,17 L83.2940494,17 C84.2374625,17 85,17.6720095 85,18.5 C85,19.3279905 84.2372693,20 83.2940494,20" id="Fill-15" fill="#FFD00D" mask="url(#mask-4)"></path>
                <path d="M83.3332704,30 L66.6669184,30 C65.7450062,30 65,29.3279905 65,28.5 C65,27.6720095 65.7450062,27 66.6669184,27 L83.3332704,27 C84.2549938,27 85,27.6720095 85,28.5 C84.9998112,29.3279905 84.254805,30 83.3332704,30" id="Fill-16" fill="#FFD00D" mask="url(#mask-4)"></path>
                <path d="M53.2499504,30 L49.7500496,30 C48.7822492,30 48,29.3279905 48,28.5 C48,27.6720095 48.7822492,27 49.7500496,27 L53.2499504,27 C54.2177508,27 55,27.6720095 55,28.5 C55,29.3279905 54.2177508,30 53.2499504,30" id="Fill-17" fill="#FFD00D" mask="url(#mask-4)"></path>
                <path d="M75.2940494,10 L49.7059506,10 C48.7625375,10 48,9.32799048 48,8.5 C48,7.67200952 48.7625375,7 49.7059506,7 L75.2940494,7 C76.2374625,7 77,7.67200952 77,8.5 C76.9998068,9.32799048 76.2372693,10 75.2940494,10" id="Fill-18" fill="#FFD00D" mask="url(#mask-4)"></path>
                <path d="M83.5,10 C83.408576,10 83.3050867,9.98505381 83.2150221,9.96993778 C83.1100034,9.95499159 83.0199388,9.92492937 82.9300442,9.87992097 C82.8399796,9.84985875 82.750085,9.80502018 82.658491,9.74506559 C82.5849099,9.68511099 82.5099694,9.62515639 82.4350289,9.5652018 C82.1636456,9.28037501 82,8.89058522 82,8.50062558 C82,8.11083579 82.1636456,7.72104599 82.4350289,7.43604936 L82.658491,7.25618557 C82.750085,7.19623098 82.8399796,7.15122257 82.9300442,7.12133019 C83.0201088,7.07632179 83.1100034,7.04642941 83.2150221,7.03131338 C83.6950833,6.92635037 84.2186473,7.09126797 84.565311,7.43604936 C84.6251274,7.51095014 84.6852838,7.58602077 84.7451003,7.67586774 C84.8052566,7.75076853 84.8487595,7.84078534 84.8800272,7.93080216 C84.9252294,8.02081897 84.9551376,8.11066594 84.9687323,8.21562895 C84.9850459,8.30564576 85,8.41060876 85,8.50045574 C85,8.59047255 84.9850459,8.69543555 84.9687323,8.80039856 C84.9551376,8.89041537 84.9250595,8.98026234 84.8800272,9.07027916 C84.8487595,9.16029597 84.8052566,9.25014295 84.7451003,9.34015976 C84.6852838,9.41506055 84.6251274,9.49013117 84.565311,9.56503196 C84.4902005,9.62498655 84.4135607,9.68494115 84.3401495,9.74489574 C84.250085,9.80485034 84.1586609,9.84985875 84.0701258,9.87975112 C83.9787017,9.92475953 83.8901665,9.95465191 83.7836184,9.96976794 C83.6949133,9.98488397 83.5898946,10 83.5,10" id="Fill-19" fill="#FFD00D" mask="url(#mask-4)"></path>
                <path d="M51.500085,20 C51.0934579,20 50.7184367,19.8350824 50.4348343,19.5652018 C50.1634664,19.280375 50,18.9055314 50,18.5006256 C50,18.1108358 50.1634664,17.721046 50.4348343,17.4360494 C50.779949,17.091268 51.3050127,16.9263504 51.7835174,17.0313134 C51.8900595,17.0462596 51.9784197,17.0763218 52.0700085,17.1213302 C52.1585387,17.1513924 52.2499575,17.196231 52.3248938,17.2561856 C52.4135939,17.301194 52.4900595,17.3760948 52.5500425,17.4360494 C52.8348343,17.7208761 53,18.1106659 53,18.5006256 C53,18.9053616 52.8348343,19.2802052 52.5500425,19.5652018 C52.280034,19.8350824 51.9050127,20 51.500085,20" id="Fill-20" fill="#FFD00D" mask="url(#mask-4)"></path>
                <path d="M59.500085,30 C59.3950722,30 59.3051827,29.9849534 59.2,29.9697358 C59.1099405,29.9546892 59.020051,29.9244251 58.9301614,29.8791143 C58.839932,29.8488501 58.7500425,29.8037104 58.6584537,29.743353 C58.5848768,29.6829956 58.5099405,29.6226383 58.4350042,29.5622809 C58.1634664,29.2755407 58,28.898179 58,28.4905531 C58,28.0981448 58.1634664,27.7057365 58.4350042,27.4188253 C58.9899745,26.8603916 60.0100255,26.8603916 60.5651657,27.4188253 C60.8350042,27.7055655 61,28.0979738 61,28.4905531 C61,28.5962213 60.9850467,28.6868428 60.9687341,28.7925109 C60.9551402,28.8831324 60.9250637,28.973583 60.880034,29.0642045 C60.8487681,29.154826 60.8052676,29.2452766 60.7451147,29.3358981 C60.6853016,29.411302 60.6251487,29.486877 60.5653356,29.5622809 C60.280034,29.8339745 59.8900595,30 59.500085,30" id="Fill-21" fill="#FFD00D" mask="url(#mask-4)"></path>
                <polygon id="Fill-22" fill="#C5901A" mask="url(#mask-4)" points="15 31 39 31 39 7 15 7"></polygon>
            </g>
        </g>
    </g>
</svg>