<?xml version="1.0" encoding="UTF-8"?>
<svg width="47px" height="41px" viewBox="0 0 47 41" version="1.1" xmlns="http://www.w3.org/2000/svg" xmlns:xlink="http://www.w3.org/1999/xlink">
    <!-- Generator: Sketch 51.3 (57544) - http://www.bohemiancoding.com/sketch -->
    <title>Group 35</title>
    <desc>Created with Sketch.</desc>
    <defs>
        <polygon id="path-1" points="0 3.33333333e-05 3 3.33333333e-05 3 5 0 5"></polygon>
        <polygon id="path-3" points="0 3.33333333e-05 3 3.33333333e-05 3 5 0 5"></polygon>
    </defs>
    <g id="Page-1" stroke="none" stroke-width="1" fill="none" fill-rule="evenodd">
        <g id="Index-Opsi-1" transform="translate(-552.000000, -1653.000000)">
            <g id="Group-35" transform="translate(552.000000, 1653.000000)">
                <g id="Group-3" transform="translate(6.000000, 36.000000)">
                    <mask id="mask-2" fill="white">
                        <use xlink:href="#path-1"></use>
                    </mask>
                    <g id="Clip-2"></g>
                    <path d="M1.5,5.00003333 C0.6709,5.00003333 0,4.44095 0,3.75003333 L0,1.25003333 C0,0.559116667 0.6709,3.33333333e-05 1.5,3.33333333e-05 C2.3291,3.33333333e-05 3,0.559116667 3,1.25003333 L3,3.75003333 C3,4.44095 2.3291,5.00003333 1.5,5.00003333" id="Fill-1" fill="#444444" mask="url(#mask-2)"></path>
                </g>
                <g id="Group-6" transform="translate(39.000000, 36.000000)">
                    <mask id="mask-4" fill="white">
                        <use xlink:href="#path-3"></use>
                    </mask>
                    <g id="Clip-5"></g>
                    <path d="M1.5,5.00003333 C0.6709,5.00003333 0,4.44095 0,3.75003333 L0,1.25003333 C0,0.559116667 0.6709,3.33333333e-05 1.5,3.33333333e-05 C2.3291,3.33333333e-05 3,0.559116667 3,1.25003333 L3,3.75003333 C3,4.44095 2.3291,5.00003333 1.5,5.00003333" id="Fill-4" fill="#292929" mask="url(#mask-4)"></path>
                </g>
                <path d="M47,23.0714286 L47,33.9285714 C47,36.1812476 45.1549746,38 42.8691406,38 L4.13085937,38 C1.84502539,38 0,36.1812476 0,33.9285714 L0,23.0714286 C0,20.818481 1.84502539,19 4.13085937,19 L42.8691406,19 C45.1549746,19 47,20.818481 47,23.0714286" id="Fill-7" fill="#5A5A5A"></path>
                <path d="M46,23.0714286 L46,33.9285714 C46,36.1812476 44.1942305,38 41.9570312,38 L23,38 L23,19 L41.9570312,19 C44.1942305,19 46,20.818481 46,23.0714286" id="Fill-9" fill="#444444"></path>
                <path d="M18.6092715,33 L7.39072848,33 C6.62202649,33 6,32.4036444 6,31.6666667 L6,26.3333333 C6,25.5963556 6.62202649,25 7.39072848,25 L18.6092715,25 C19.3779735,25 20,25.5963556 20,26.3333333 L20,31.6666667 C20,32.4036444 19.3779735,33 18.6092715,33" id="Fill-11" fill="#F9D012"></path>
                <path d="M29.5,33 C28.6709,33 28,32.4036444 28,31.6666667 L28,26.3333333 C28,25.5963556 28.6709,25 29.5,25 C30.3291,25 31,25.5963556 31,26.3333333 L31,31.6666667 C31,32.4036444 30.3291,33 29.5,33" id="Fill-13" fill="#BABAC0"></path>
                <path d="M34.5,33 C33.6709,33 33,32.4036444 33,31.6666667 L33,26.3333333 C33,25.5963556 33.6709,25 34.5,25 C35.3291,25 36,25.5963556 36,26.3333333 L36,31.6666667 C36,32.4036444 35.3291,33 34.5,33" id="Fill-15" fill="#BABAC0"></path>
                <path d="M40.5,33 C39.6709,33 39,32.4036444 39,31.6666667 L39,26.3333333 C39,25.5963556 39.6709,25 40.5,25 C41.3291,25 42,25.5963556 42,26.3333333 L42,31.6666667 C42,32.4036444 41.3291,33 40.5,33" id="Fill-17" fill="#BABAC0"></path>
                <path d="M37.587156,7.62653155 C37.0642202,8.12448948 36.1834862,8.12448948 35.6331193,7.62653155 C32.2477064,4.40299648 27.7613761,2.62083124 23,2.62083124 C18.2386239,2.62083124 13.7522936,4.40299648 10.3668807,7.62653155 C9.81651376,8.12448948 8.93577982,8.12448948 8.41284404,7.62653155 C7.86238532,7.1023653 7.86238532,6.26378666 8.41284404,5.76582873 C12.3210092,2.04416101 17.4954128,0 23,0 C28.5045872,0 33.6788991,2.04416101 37.587156,5.76582873 C38.1376147,6.26378666 38.1376147,7.1023653 37.587156,7.62653155" id="Fill-19" fill="#F9D012"></path>
                <path d="M33.6112179,11.5749653 C33.0656546,12.1416782 32.2200315,12.1416782 31.6743772,11.5749653 C29.355915,9.1659396 26.2733913,7.83403678 23.0000114,7.83403678 C19.7266314,7.83403678 16.6441078,9.1659396 14.3255546,11.5749653 C13.7799913,12.1416782 12.9343681,12.1416782 12.3887139,11.5749653 C11.8704287,11.008158 11.8704287,10.1296066 12.3887139,9.56270475 C15.225825,6.61540097 18.9902119,5 23.0000114,5 C27.0097199,5 30.7741977,6.61540097 33.6112179,9.56279922 C34.129594,10.1296066 34.129594,11.008158 33.6112179,11.5749653" id="Fill-21" fill="#F9D012"></path>
                <path d="M29.5992449,15.5945045 C29.0918749,16.135045 28.2368179,16.135045 27.7290916,15.5945045 C26.4733574,14.3243243 24.7367928,13.6755856 23.0000501,13.6755856 C21.2633074,13.6755856 19.5267428,14.3244144 18.2709196,15.5945946 C17.7633714,16.1351351 16.9083144,16.1351351 16.4007662,15.5945946 C15.8664113,15.0810811 15.8664113,14.2162162 16.4007662,13.7027027 C18.1641376,11.891982 20.5952746,11 22.999961,11 C25.4046475,11 27.8358735,11.891982 29.5991558,13.7027027 C30.1335999,14.2161261 30.1335999,15.080991 29.5992449,15.5945045" id="Fill-23" fill="#F9D012"></path>
                <path d="M23,16 C20.7865778,16 19,17.7865778 19,20 C19,22.2132444 20.7865778,24 23,24 C25.2134222,24 27,22.2132444 27,20 C27,17.7865778 25.2134222,16 23,16" id="Fill-25" fill="#F9D012"></path>
                <path d="M27,20 C27,22.2132444 25.2134222,24 23,24 L23,16 C25.2134222,16 27,17.7865778 27,20" id="Fill-27" fill="#C5901A"></path>
                <path d="M29.5992315,13.7027027 C30.1335895,14.2162162 30.1335895,15.0810811 29.5992315,15.5945946 C29.0918587,16.1351351 28.2367969,16.1351351 27.7290678,15.5945946 C26.4733266,14.3244144 24.7367524,13.6756757 23,13.6756757 L23,11 C25.4046998,11 27.8359394,11.891982 29.5992315,13.7027027" id="Fill-29" fill="#C5901A"></path>
                <path d="M34.6112833,9.56273764 C35.1295722,10.1295373 35.1295722,11.0080769 34.6112833,11.5749711 C34.0657161,12.1416763 33.2200868,12.1416763 32.6744286,11.5749711 C30.3559496,9.16588338 27.2734036,7.83399854 24,7.83399854 L24,5 C28.0097375,5 31.7742426,6.61537917 34.6112833,9.56273764" id="Fill-31" fill="#C5901A"></path>
                <path d="M37.587156,7.62653155 C37.0642202,8.12448948 36.1834862,8.12448948 35.6331193,7.62653155 C32.2477064,4.40299648 27.7613761,2.62083124 23,2.62083124 L23,0 C28.5045872,0 33.6788991,2.04416101 37.587156,5.76582873 C38.1376147,6.26378666 38.1376147,7.1023653 37.587156,7.62653155" id="Fill-33" fill="#C5901A"></path>
            </g>
        </g>
    </g>
</svg>