<?xml version="1.0" encoding="UTF-8"?>
<svg width="571px" height="452px" viewBox="0 0 571 452" version="1.1" xmlns="http://www.w3.org/2000/svg" xmlns:xlink="http://www.w3.org/1999/xlink">
    <!-- Generator: Sketch 51.3 (57544) - http://www.bohemiancoding.com/sketch -->
    <title>Group 40</title>
    <desc>Created with Sketch.</desc>
    <defs>
        <polygon id="path-1" points="0 451.110236 400 451.110236 400 0.521401575 0 0.521401575"></polygon>
    </defs>
    <g id="Page-1" stroke="none" stroke-width="1" fill="none" fill-rule="evenodd">
        <g id="Index-Opsi-1" transform="translate(-458.000000, -1609.000000)">
            <g id="Group-40" transform="translate(458.000000, 1609.000000)">
                <g id="Group-39" transform="translate(463.000000, 335.000000)" fill-rule="nonzero">
                    <rect id="Rectangle-10" fill="#4A4A4A" x="0" y="0" width="108" height="6"></rect>
                    <rect id="Rectangle-11" fill="#F9D012" x="6" y="6" width="96" height="106"></rect>
                </g>
                <g id="Group-36" transform="translate(0.000000, 335.000000)" fill-rule="nonzero">
                    <rect id="Rectangle-10" fill="#4A4A4A" x="0" y="0" width="108" height="6"></rect>
                    <rect id="Rectangle-11" fill="#F9D012" x="6" y="6" width="96" height="106"></rect>
                </g>
                <g id="Group-34" transform="translate(62.000000, 0.000000)">
                    <g id="Group-38">
                        <polygon id="Fill-1" fill="#514B3D" points="0 96.6141102 400 96.6141102 400 85.0462913 0 85.0462913"></polygon>
                        <polygon id="Fill-2" fill="#514B3D" points="56.4444444 446.730819 62.2222222 446.730819 62.2222222 96.6141102 56.4444444 96.6141102"></polygon>
                        <polygon id="Fill-3" fill="#514B3D" points="381.777778 446.730819 387.555556 446.730819 387.555556 96.6141102 381.777778 96.6141102"></polygon>
                        <polygon id="Fill-4" fill="#FED304" points="62.2222222 384.452693 381.777778 384.452693 381.777778 238.531433 62.2222222 238.531433"></polygon>
                        <polygon id="Fill-5" fill="#514B3D" points="59.3333333 390.236157 384.666667 390.236157 384.666667 384.452693 59.3333333 384.452693"></polygon>
                        <polygon id="Fill-6" fill="#C5901A" points="62.2222222 238.531433 381.777778 238.531433 381.777778 96.6141102 62.2222222 96.6141102"></polygon>
                        <polygon id="Fill-7" fill="#FED304" points="91.4435556 84.9324016 352.556444 84.9324016 352.556444 0.88976378 91.4435556 0.88976378"></polygon>
                        <g id="Group-37" transform="translate(0.000000, 0.368362)">
                            <path d="M245.512178,41.5533031 C245.512178,43.1513189 244.307733,44.1870039 242.443733,44.1870039 L239.375289,44.1870039 L239.375289,38.8662165 L242.361067,38.8662165 C244.392178,38.8662165 245.512178,39.8013583 245.512178,41.4990276 L245.512178,41.5533031 Z M242.717511,34.506374 L234.882844,34.506374 C234.732622,34.506374 234.609067,34.6300512 234.609067,34.781311 L234.609067,53.9744055 C234.609067,54.1265551 234.732622,54.2493425 234.882844,54.2493425 L239.101511,54.2493425 C239.252622,54.2493425 239.375289,54.1265551 239.375289,53.9744055 L239.375289,48.4907913 L242.307733,48.4907913 C247.181511,48.4907913 250.332622,45.7351929 250.332622,41.4714449 L250.332622,41.4162795 C250.332622,37.218374 247.344178,34.506374 242.717511,34.506374 Z" id="Fill-8" fill="#000000"></path>
                            <path d="M294.994756,38.6742055 L294.994756,34.781489 C294.994756,34.6302291 294.872978,34.506552 294.720978,34.506552 L278.832978,34.506552 C278.681867,34.506552 278.5592,34.6302291 278.5592,34.781489 L278.5592,38.6742055 C278.5592,38.8254654 278.681867,38.9482528 278.832978,38.9482528 L284.393867,38.9482528 L284.393867,53.9745835 C284.393867,54.1267331 284.517422,54.2486307 284.668533,54.2486307 L288.886311,54.2486307 C289.038311,54.2486307 289.160978,54.1267331 289.160978,53.9745835 L289.160978,38.9482528 L294.720978,38.9482528 C294.872978,38.9482528 294.994756,38.8254654 294.994756,38.6742055" id="Fill-10" fill="#000000"></path>
                            <path d="M301.812533,45.6663252 L303.952089,40.4398528 L306.090756,45.6663252 L301.812533,45.6663252 Z M306.203644,34.5362701 C306.160978,34.434837 306.061422,34.3698843 305.952089,34.3698843 L302.062311,34.3698843 C301.952089,34.3698843 301.852533,34.434837 301.810756,34.5362701 L293.592978,53.8681677 C293.557422,53.9518055 293.566311,54.0496795 293.616089,54.1253094 C293.667644,54.2036087 293.753867,54.2489866 293.844533,54.2489866 L298.145867,54.2489866 C298.256978,54.2489866 298.357422,54.1822543 298.3992,54.0799315 L300.082756,49.9443094 L307.822311,49.9443094 L309.505867,54.0799315 C309.547644,54.1822543 309.648089,54.2489866 309.760089,54.2489866 L314.169867,54.2489866 C314.262311,54.2489866 314.348533,54.2036087 314.398311,54.1253094 C314.450756,54.0496795 314.458756,53.9518055 314.422311,53.8681677 L306.203644,34.5362701 Z" id="Fill-12" fill="#000000"></path>
                            <path d="M255.441867,33.4459535 L260.361867,33.4459535 C260.611644,33.4459535 260.8152,33.2430874 260.8152,32.9939535 L260.8152,31.459111 C260.8152,31.2090874 260.611644,31.007111 260.361867,31.007111 L255.441867,31.007111 C255.192089,31.007111 254.989422,31.2090874 254.989422,31.459111 L254.989422,32.9939535 C254.989422,33.2430874 255.192089,33.4459535 255.441867,33.4459535" id="Fill-14" fill="#000000"></path>
                            <path d="M326.549511,47.542748 L325.377956,46.397622 C326.640178,44.8387559 327.098844,43.3555197 327.261511,42.4061417 C327.299733,42.1570079 327.324622,41.9052047 327.337956,41.6534016 C327.353067,41.3455433 327.355733,41.0359055 327.332622,40.728937 C327.201956,38.9236063 326.543289,37.3549528 325.339733,36.031874 C325.3264,36.016748 325.313067,36.0025118 325.297067,35.9838268 C325.3104,35.967811 325.323733,35.952685 325.337956,35.9384488 C325.356622,35.918874 325.375289,35.8992992 325.393956,35.8806142 L326.4384,34.8582756 C326.439289,34.8591654 326.441956,34.8618346 326.442844,34.8645039 C327.357511,35.8468031 328.026844,36.9830315 328.453511,38.273189 C328.657067,38.8897953 328.793956,39.5224173 328.867733,40.1701654 C328.897956,40.4246378 328.917511,40.68 328.925511,40.9371417 C328.925511,40.954937 328.930844,40.9745118 328.9344,40.9949764 L328.9344,41.5279449 C328.930844,41.5492992 328.927289,41.5706535 328.925511,41.5911181 C328.913956,41.7575039 328.905956,41.9256693 328.892622,42.0920551 C328.859733,42.5075748 328.796622,42.9186457 328.706844,43.324378 C328.369067,44.8440945 327.703289,46.1903071 326.706844,47.3639055 C326.6544,47.4252992 326.602844,47.4831339 326.549511,47.542748 Z M323.165511,44.231937 C323.933511,43.3688661 324.331733,42.356315 324.328178,41.199622 C324.322844,40.0233543 323.905067,38.9983465 323.100622,38.1245984 L324.193067,37.0542126 C326.349511,39.2341339 326.4944,42.9311024 324.263289,45.3058819 L323.165511,44.231937 Z M322.213511,43.3012441 L321.156622,42.2664488 C321.321067,41.941685 321.4064,41.5848898 321.404622,41.1951732 C321.403733,40.7814331 321.304178,40.4059528 321.114844,40.0669528 L322.164622,39.0392756 C323.033067,40.2947323 323.049956,42.0297717 322.213511,43.3012441 Z M318.985067,42.6810787 C318.169956,42.8323386 317.384178,42.2913622 317.233956,41.4754488 C317.226844,41.4336299 317.219733,41.3909213 317.212622,41.3508819 L317.212622,41.0554803 C317.2224,41.003874 317.2304,40.9540472 317.240178,40.9024409 C317.295289,40.634622 317.412622,40.3970551 317.597511,40.1968583 C317.937067,39.8293858 318.357511,39.6647795 318.853511,39.7074882 C319.524622,39.7662126 320.073956,40.2796063 320.189511,40.9442598 C320.328178,41.7575039 319.793067,42.5289291 318.985067,42.6810787 Z M332.474844,53.6358504 L330.855289,52.0760945 L326.809067,47.9493701 C329.869511,47.6993465 332.285511,44.7898189 332.285511,41.2369921 C332.285511,37.5204488 329.641956,34.5059291 326.3824,34.5059291 C326.317511,34.5059291 326.2544,34.5094882 326.191289,34.5121575 C326.092622,34.5094882 325.993956,34.5059291 325.893511,34.5059291 L317.128178,34.5059291 C316.977067,34.5059291 316.8544,34.6296063 316.8544,34.7808661 L316.8544,53.9748504 C316.8544,54.127 316.977067,54.2488976 317.128178,54.2488976 L321.345956,54.2488976 C321.497956,54.2488976 321.619733,54.127 321.619733,53.9748504 L321.619733,48.1068583 L321.637511,48.1068583 L327.357511,54.127 C327.408178,54.2035197 327.493511,54.2488976 327.585067,54.2488976 L332.074844,54.2488976 L332.220622,54.2488976 L332.258844,54.2488976 L332.368178,54.2488976 L332.441956,54.2488976 C332.621511,54.2480079 332.677511,54.1670394 332.708622,54.0389134 C332.714844,53.9757402 332.689956,53.8431654 332.474844,53.6358504 Z" id="Fill-16" fill="#000000"></path>
                            <path d="M275.6016,34.5060181 L271.437156,34.5060181 C271.286933,34.5060181 271.163378,34.6288055 271.163378,34.7809551 L271.163378,45.7855535 L262.670044,34.6145693 C262.6176,34.5460575 262.538489,34.5060181 262.452267,34.5060181 L258.563378,34.5060181 C258.411378,34.5060181 258.288711,34.6288055 258.288711,34.7809551 L258.288711,36.7936008 L258.288711,43.331585 L260.532267,43.331585 L258.288711,50.1818764 L258.288711,53.9740496 C258.288711,54.127089 258.411378,54.2489866 258.563378,54.2489866 L262.726044,54.2489866 C262.878044,54.2489866 262.999822,54.127089 262.999822,53.9740496 L262.999822,42.585963 L271.794489,54.1404354 C271.846933,54.209837 271.926933,54.2489866 272.012267,54.2489866 L275.6016,54.2489866 C275.752711,54.2489866 275.875378,54.127089 275.875378,53.9740496 L275.875378,34.7809551 C275.875378,34.6288055 275.752711,34.5060181 275.6016,34.5060181" id="Fill-18" fill="#000000"></path>
                            <path d="M257.295111,34.5060181 L253.077333,34.5060181 C252.925333,34.5060181 252.803556,34.6288055 252.803556,34.7809551 L252.803556,53.9740496 C252.803556,54.127089 252.925333,54.2489866 253.077333,54.2489866 L257.295111,54.2489866 C257.447111,54.2489866 257.569778,54.127089 257.569778,53.9740496 L257.569778,52.3787031 L257.569778,45.8611835 L254.743111,45.8611835 L257.569778,38.6318528 L257.569778,34.7809551 C257.569778,34.6288055 257.447111,34.5060181 257.295111,34.5060181" id="Fill-20" fill="#000000"></path>
                            <path d="M213.549067,59.6809055 C213.012178,59.9932126 211.725067,60.613378 210.6744,60.097315 C210.590844,60.051937 210.517067,59.9994409 210.455733,59.9407165 C210.158844,59.6577717 210.148178,59.163063 210.4264,58.4734961 C210.927733,57.226937 212.655733,55.3993622 215.262844,54.3352047 C215.973956,54.0451417 216.833511,53.7782126 217.813956,53.6278425 C216.748178,56.8772598 215.972178,58.1834331 213.549067,59.6809055 M225.379289,52.6775748 C223.780178,51.9764409 222.271733,51.607189 220.881511,51.4683858 C221.079733,50.8135197 221.552622,49.3338425 222.423733,47.0284646 C223.639733,43.8075197 224.574844,42.4710945 224.8344,41.8464803 C225.057511,41.3099528 224.863733,40.5162835 224.273511,40.1648268 C224.253067,40.1514803 224.230844,40.1399134 224.207733,40.1274567 C224.179289,40.1132205 224.149067,40.0989843 224.117956,40.0865276 C224.1064,40.0802992 224.092178,40.0758504 224.081511,40.0705118 C224.039733,40.0544961 223.997067,40.0411496 223.953511,40.0295827 C223.899289,40.0153465 223.847733,40.0037795 223.798844,39.9948819 C223.789956,39.9931024 223.781067,39.9922126 223.772178,39.9913228 C223.732178,39.9859843 223.692178,39.9788661 223.655733,39.9770866 C223.6504,39.9761969 223.645067,39.9761969 223.639733,39.9761969 C223.599733,39.9744173 223.561511,39.9726378 223.525956,39.9726378 L223.520622,39.9726378 C223.017511,39.9850945 222.836178,40.3000709 222.836178,40.3000709 C222.664622,40.5011575 222.517956,40.8063465 222.297511,41.263685 C222.137511,41.5973465 221.894844,42.1214173 221.588178,42.8296693 C220.206844,45.4491339 218.8984,46.9644016 217.969511,47.8114567 C216.392622,49.2475354 214.941067,49.994937 214.085956,49.8089764 C213.863733,49.7609291 213.5384,49.622126 213.261067,48.977937 C212.983733,48.3292992 213.239733,47.2589134 213.726844,46.1360315 C213.783733,45.9865512 213.872622,45.7916929 214.005956,45.5372205 C214.008622,45.5318819 214.0104,45.5274331 214.013956,45.5220945 C214.022844,45.505189 214.029956,45.4882835 214.037956,45.4722677 C214.045067,45.4589213 214.053067,45.4455748 214.060178,45.4331181 C214.294844,44.9900157 214.509067,44.6127559 214.702844,44.2951102 L214.701956,44.296 C214.7064,44.2888819 214.709956,44.2826535 214.713511,44.2764252 C214.715289,44.2746457 214.715289,44.2737559 214.716178,44.2719764 C214.767733,44.1856693 214.819289,44.1020315 214.870844,44.021063 C214.8744,44.0148346 214.877067,44.0103858 214.880622,44.0050472 C215.2024,43.4987717 215.524178,43.0788031 215.803289,42.747811 C216.219289,42.2531024 216.540178,41.9603701 216.617511,41.8909685 C216.6184,41.8900787 216.6184,41.8882992 216.6184,41.8882992 C216.623733,41.8847402 216.627289,41.8811811 216.629956,41.8785118 C216.631733,41.877622 216.635289,41.8731732 216.635289,41.8731732 L216.631733,41.8785118 C216.908178,41.602685 217.196178,41.3313071 217.503733,41.0634882 C217.632622,40.9495984 217.756178,40.860622 217.872622,40.7912205 L217.8744,40.7894409 C217.878844,40.7867717 217.885067,40.7814331 217.893067,40.7769843 C217.957956,40.7351654 218.157067,40.6097087 218.349956,40.5830157 C218.435289,40.5705591 218.520622,40.5776772 218.590844,40.6221654 C218.631733,40.6470787 218.661067,40.6808898 218.680622,40.7182598 C218.691289,40.7360551 218.6984,40.7574094 218.703733,40.7805433 C218.705511,40.8819764 218.822844,40.9673937 218.035289,41.6373858 C217.579289,42.0244331 217.1864,42.3874567 216.934844,42.6250236 C216.831733,42.7148898 216.734844,42.8092047 216.640622,42.906189 C216.638844,42.9088583 216.635289,42.9106378 216.635289,42.9106378 L216.637067,42.9106378 C215.912622,43.666937 215.4424,44.604748 215.361511,44.7738031 L215.5304,44.6866063 C216.8024,44.167874 218.403289,43.651811 219.511733,42.6588346 C219.558844,42.6170157 219.603289,42.5760866 219.645067,42.5351575 C219.659289,42.5227008 219.671733,42.5111339 219.684178,42.4995669 C219.715289,42.4702047 219.744622,42.4408425 219.773956,42.4105906 C219.7864,42.3981339 219.797956,42.3865669 219.8104,42.3732205 C219.845067,42.3394094 219.877956,42.3055984 219.909956,42.2708976 C219.9144,42.2664488 219.919733,42.2611102 219.924178,42.2557717 C219.960622,42.2175118 219.995289,42.1783622 220.028178,42.1392126 C220.037956,42.1294252 220.046844,42.1196378 220.054844,42.1080709 C220.079733,42.0804882 220.104622,42.051126 220.126844,42.0226535 C220.136622,42.0110866 220.145511,42.0004094 220.155289,41.9888425 C220.179289,41.9577008 220.204178,41.9283386 220.228178,41.8971969 C220.232622,41.8909685 220.237956,41.8838504 220.2424,41.8785118 C220.269956,41.840252 220.296622,41.8046614 220.3224,41.7690709 C220.327733,41.761063 220.332178,41.7530551 220.3384,41.7450472 C220.357956,41.7174646 220.376622,41.6872126 220.395289,41.6605197 C220.401511,41.651622 220.407733,41.6409449 220.413956,41.6311575 C220.433511,41.6035748 220.4504,41.5751024 220.467289,41.5484094 L220.478844,41.5270551 C220.4984,41.4923543 220.518844,41.4594331 220.537511,41.4265118 C220.539289,41.4211732 220.542844,41.4167244 220.544622,41.4113858 C220.559733,41.3838031 220.574844,41.3553307 220.588178,41.3286378 C220.592622,41.3197402 220.597067,41.3117323 220.600622,41.3037244 C220.613067,41.2779213 220.624622,41.2538976 220.637067,41.2289843 C220.639733,41.2209764 220.643289,41.214748 220.645956,41.2085197 C220.660178,41.177378 220.672622,41.1453465 220.685067,41.116874 C220.685067,41.1142047 220.686844,41.113315 220.686844,41.1106457 C220.697511,41.0839528 220.709067,41.0554803 220.717956,41.0296772 C220.721511,41.0225591 220.724178,41.0145512 220.726844,41.0074331 C220.733956,40.985189 220.741067,40.9638346 220.748178,40.9433701 C220.749956,40.936252 220.752622,40.9291339 220.755289,40.9220157 C220.771289,40.8686299 220.784622,40.8170236 220.796178,40.7689764 C220.797956,40.7609685 220.800622,40.7538504 220.801511,40.7458425 L220.812178,40.6969055 C220.813067,40.6888976 220.814844,40.68 220.816622,40.6737717 C220.819289,40.6550866 220.821956,40.6390709 220.824622,40.6230551 C220.825511,40.6168268 220.827289,40.6114882 220.828178,40.6061496 C220.829956,40.5865748 220.832622,40.5678898 220.835289,40.5492047 C220.836178,40.5394173 220.837067,40.5296299 220.837956,40.5225118 C220.838844,40.5118346 220.839733,40.5020472 220.840622,40.4913701 C220.841511,40.4815827 220.841511,40.4735748 220.8424,40.4628976 C220.8424,40.4548898 220.843289,40.4468819 220.843289,40.4397638 C220.845067,40.4023937 220.845067,40.3685827 220.844178,40.3374409 L220.844178,40.3294331 C220.844178,40.3187559 220.844178,40.3080787 220.843289,40.2982913 C220.837067,40.1852913 220.8184,40.1238976 220.8184,40.1238976 C220.747289,39.7430787 220.5704,39.4085276 220.324178,39.1442677 C219.493067,38.2571732 217.739289,38.0765512 216.128622,39.4886063 C214.939289,40.5287402 214.029067,41.5786614 212.974844,42.7958583 C212.193511,43.697189 211.308178,44.717748 210.126844,45.9518504 C208.4504,47.7037953 207.188178,48.7394803 206.297511,49.332063 C206.1864,49.4014646 205.2744,49.9557874 204.941956,49.6514882 C204.721511,49.4477323 204.773067,49.0864882 204.845067,48.8400236 C205.0984,48.1148661 205.537511,47.3096299 205.9304,46.5951496 C206.048622,46.378937 206.161511,46.1725118 206.262844,45.9821024 C206.400622,45.7222913 206.5624,45.4322283 206.733956,45.1261496 C207.733067,43.3501811 208.865511,41.3384252 208.135733,39.8898898 C207.879733,39.3809449 207.403289,39.0517323 206.829956,38.9903386 C205.296622,38.8239528 203.293067,40.6088189 202.327733,41.6471732 C202.327733,41.648063 202.327733,41.648063 202.326844,41.6498425 C201.695733,42.2851339 200.798844,43.6197795 200.798844,43.6197795 C200.773956,43.651811 200.748178,43.6874016 200.724178,43.7212126 L200.723289,43.7212126 C200.637956,43.8351024 200.589956,43.8751417 200.567733,43.8875984 C200.541956,43.9018346 200.509067,43.9160709 200.4744,43.9276378 C200.365067,43.9507717 200.310844,43.8956063 200.287733,43.8502283 L200.285956,43.8502283 C200.285956,43.8493386 200.285956,43.8466693 200.285067,43.8457795 C200.281511,43.8377717 200.278844,43.8306535 200.276178,43.825315 C200.270844,43.8057402 200.269067,43.7843858 200.270844,43.7630315 C200.270844,43.7514646 200.272622,43.7398976 200.2744,43.7256614 L200.2744,43.7229921 C200.279733,43.697189 200.286844,43.6678268 200.296622,43.6349055 C200.301956,43.6215591 200.3064,43.6082126 200.311733,43.5939764 C200.382844,43.4240315 200.693067,42.7273465 201.364178,41.9158819 C202.1384,40.9780709 202.509956,40.7547402 202.743733,40.3196457 C202.976622,39.8845512 202.8024,38.9458504 202.161511,38.5677008 C202.161511,38.5677008 202.159733,38.5677008 202.159733,38.566811 C201.975733,38.4484724 201.758844,38.3817402 201.529511,38.3817402 L201.523289,38.3817402 C200.7224,38.3835197 200.061067,39.1113465 199.1704,40.9745118 C199.160622,40.9967559 199.149067,41.0198898 199.139289,41.0430236 C198.372178,41.9514724 197.301956,43.297685 195.823733,45.3218976 C193.915289,47.9395827 192.533956,49.237748 191.614844,49.8828268 C191.603289,49.8881654 190.4104,50.6328976 190.217511,49.701315 C190.107289,49.1710157 190.091289,48.5401732 190.1544,47.7918819 C190.1544,47.7918819 190.4904,44.4908583 192.037067,41.9941811 C192.398844,41.4007087 192.550844,41.2583465 192.710844,41.2076299 C192.748178,41.1987323 192.805956,41.1978425 192.864622,41.2485591 C192.935733,41.3197402 192.917067,41.4282913 192.915289,41.4380787 C192.893956,41.5395118 192.844178,41.678315 192.781956,41.825126 C192.764178,41.8642756 192.630844,42.1534488 192.3144,42.7807323 C192.277067,42.8536929 192.230844,42.9435591 192.1784,43.0494409 C192.177511,43.0521102 192.176622,43.0538898 192.174844,43.0556693 C192.173956,43.0583386 192.173067,43.0610079 192.171289,43.0636772 C191.804178,43.8075197 191.1384,45.2880866 190.869067,46.7535276 C191.213067,46.4358819 191.476178,46.1502677 191.6344,45.9678661 C192.540178,44.909937 193.102844,43.8199764 193.4264,43.0441024 L193.437956,43.0182992 C193.438844,43.0147402 193.440622,43.0102913 193.4424,43.0058425 C193.471733,42.9355512 193.499289,42.8679291 193.524178,42.8011969 C193.599733,42.6125669 193.665511,42.4266063 193.720622,42.246874 C193.777511,42.069811 193.8024,41.9692677 193.8024,41.9692677 L193.8024,41.9701575 C194.173067,40.5509843 193.913511,39.4805984 193.053956,39.0721969 C192.681511,38.8978031 191.918844,38.7349764 190.988178,39.6416457 C190.493956,40.1230079 189.981067,40.872189 189.459289,41.8678346 C188.448622,43.8048504 187.944622,45.7187323 187.774844,47.3541181 C185.599733,49.7511417 184.1144,50.2600866 183.5784,50.3659685 C183.187289,50.443378 182.980178,50.3873228 182.923289,50.3561811 C182.868178,50.2689843 182.709067,49.8908346 183.078844,48.6763071 C183.399733,47.6263858 183.979289,46.3860551 184.595289,45.102126 C185.229067,43.7808268 185.790844,42.4025827 186.069956,41.6987795 C186.251289,41.2458898 186.415733,40.8125748 186.535733,40.4771339 C186.6344,40.2057559 186.716178,39.9779764 186.744622,39.7644331 C186.747289,39.7501969 186.748178,39.7368504 186.749067,39.7235039 C186.749956,39.7172756 186.751733,39.7110472 186.751733,39.7057087 C186.7544,39.6754567 186.756178,39.6452047 186.757956,39.617622 C186.758844,39.5891496 186.758844,39.5624567 186.758844,39.5366535 L186.758844,39.534874 C186.757956,39.5099606 186.755289,39.4850472 186.752622,39.4583543 L186.752622,39.4574646 C186.750844,39.4334409 186.747289,39.4103071 186.741956,39.388063 C186.741956,39.3862835 186.741956,39.3836142 186.741956,39.3827244 C186.737511,39.3622598 186.733067,39.3400157 186.725956,39.3186614 C186.725067,39.3177717 186.725067,39.3159921 186.724178,39.3142126 C186.718844,39.2928583 186.712622,39.2723937 186.704622,39.2537087 C186.703733,39.2519291 186.703733,39.2492598 186.702844,39.2483701 C186.695733,39.2287953 186.687733,39.211 186.677956,39.192315 C186.677956,39.1896457 186.677067,39.1878661 186.676178,39.1860866 C186.6664,39.1682913 186.657511,39.1504961 186.646844,39.1335906 C186.645956,39.1309213 186.644178,39.1291417 186.6424,39.1264724 C186.633511,39.1104567 186.621956,39.0935512 186.611289,39.0784252 C186.609511,39.0748661 186.606844,39.0721969 186.605067,39.0695276 C186.5944,39.0552913 186.582844,39.0401654 186.571289,39.0259291 C186.568622,39.0214803 186.565956,39.018811 186.563289,39.0161417 C186.550844,39.0027953 186.539289,38.9885591 186.525956,38.9752126 C186.5224,38.9707638 186.517956,38.9680945 186.5144,38.9645354 C186.502844,38.951189 186.4904,38.9387323 186.477067,38.9262756 C186.449511,38.9013622 186.421067,38.8773386 186.395289,38.8559843 C186.393511,38.8542047 186.390844,38.8524252 186.389067,38.8515354 C186.288622,38.7732362 186.196178,38.7260787 186.128622,38.6967165 C186.118844,38.6940472 186.109956,38.6887087 186.100178,38.6860394 C186.088622,38.6815906 186.076178,38.6771417 186.0664,38.6726929 C186.043289,38.6655748 186.021067,38.6584567 186.000622,38.6513386 C185.996178,38.6495591 185.993511,38.6486693 185.989067,38.6486693 C185.965067,38.6415512 185.940178,38.6353228 185.917067,38.6290945 C185.879733,38.6201969 185.843289,38.6148583 185.808622,38.6095197 C185.782844,38.6050709 185.757067,38.6032913 185.732178,38.600622 C185.446844,38.5685906 185.200622,38.6175276 184.999733,38.7145118 C184.999733,38.7145118 184.998844,38.7162913 184.997067,38.7162913 C184.9704,38.728748 184.942844,38.7429843 184.917956,38.7581102 C184.915289,38.7581102 184.9144,38.7598898 184.911733,38.7607795 C184.887733,38.7759055 184.862844,38.7901417 184.839733,38.8070472 C184.837067,38.8088268 184.8344,38.8097165 184.831733,38.8123858 C184.8104,38.8275118 184.789067,38.8435276 184.767733,38.8595433 C184.764178,38.8631024 184.760622,38.8666614 184.757067,38.8693307 C184.737511,38.8853465 184.718844,38.9004724 184.701067,38.917378 C184.695733,38.9218268 184.691289,38.9262756 184.686844,38.9316142 C184.669956,38.9467402 184.654844,38.9618661 184.639733,38.9778819 C184.633511,38.9841102 184.628178,38.9912283 184.621956,38.9974567 C184.609511,39.0125827 184.597067,39.0277087 184.584622,39.0419449 C184.577511,39.0508425 184.571289,39.0606299 184.564178,39.0704173 C184.553511,39.082874 184.543733,39.0962205 184.533956,39.1086772 C184.525067,39.1220236 184.517956,39.1335906 184.510844,39.146937 C184.503733,39.1567244 184.496622,39.1674016 184.491289,39.1780787 C184.477067,39.2012126 184.463733,39.2243465 184.452178,39.2483701 C184.261956,39.6318583 183.464622,40.7333858 182.237067,42.4604173 C181.009511,44.1892283 177.795289,48.3702283 176.152622,49.4966693 C176.150844,49.4993386 176.148178,49.5002283 176.144622,49.5028976 C176.143733,49.5037874 176.141956,49.5037874 176.141067,49.5046772 C175.328622,50.0616693 174.851289,50.1168346 174.577511,50.0349764 C174.302844,49.9139685 174.232622,49.7173307 174.219289,49.5794173 C174.217511,49.5598425 174.216622,49.539378 174.216622,49.5180236 C174.217511,49.5135748 174.217511,49.5064567 174.217511,49.5011181 C174.221067,49.4459528 174.230844,49.3898976 174.2504,49.3285039 C174.2504,49.3276142 174.251289,49.3276142 174.251289,49.3249449 C174.3544,49.011748 174.721511,48.5757638 175.795289,47.4626693 C175.8504,47.4048346 175.905511,47.3461102 175.959733,47.2900551 C175.977511,47.2713701 175.995289,47.252685 176.013956,47.2331102 C176.048622,47.1966299 176.083289,47.1601496 176.116178,47.1236693 C176.137511,47.1005354 176.157067,47.0800709 176.177511,47.0578268 C176.208622,47.0240157 176.238844,46.9919843 176.268178,46.9599528 C176.286844,46.9377087 176.305511,46.9190236 176.325067,46.8976693 C176.353511,46.8656378 176.383733,46.8336063 176.412178,46.800685 C176.430844,46.7811102 176.447733,46.7606457 176.464622,46.7419606 C176.493956,46.7090394 176.5224,46.6778976 176.549067,46.6458661 C176.567733,46.6271811 176.584622,46.6084961 176.599733,46.5871417 C176.628178,46.5577795 176.654844,46.5266378 176.681511,46.4954961 C176.6984,46.4777008 176.713511,46.458126 176.7304,46.4412205 C176.755289,46.4100787 176.781956,46.3816063 176.806844,46.3504646 C176.822844,46.3335591 176.837067,46.314874 176.852178,46.2970787 C176.877067,46.2677165 176.901956,46.2392441 176.926844,46.2098819 C176.940178,46.1920866 176.953511,46.1778504 176.966844,46.1609449 C176.992622,46.1315827 177.016622,46.1022205 177.040622,46.0728583 C177.052178,46.0568425 177.064622,46.0434961 177.077067,46.0283701 C177.101067,45.9990079 177.124178,45.9705354 177.1464,45.942063 C177.157956,45.9278268 177.1704,45.9144803 177.181067,45.8993543 C177.204178,45.8708819 177.2264,45.8432992 177.247733,45.8157165 L177.279733,45.7756772 C177.301956,45.7480945 177.321511,45.7214016 177.343733,45.6938189 C177.353511,45.682252 177.3624,45.6689055 177.372178,45.6573386 C177.393511,45.6297559 177.413956,45.6039528 177.433511,45.5781496 C177.443289,45.5674724 177.4504,45.5550157 177.4584,45.5443386 C177.478844,45.5176457 177.4984,45.4918425 177.517956,45.4678189 C177.525067,45.456252 177.533956,45.4464646 177.541956,45.4366772 C177.560622,45.410874 177.579289,45.3859606 177.595289,45.3610472 C177.603289,45.3521496 177.6104,45.3414724 177.617511,45.3334646 C177.636178,45.3076614 177.653067,45.2836378 177.669956,45.2613937 C177.677067,45.2524961 177.6824,45.2427087 177.689511,45.233811 C177.7064,45.2106772 177.7224,45.1884331 177.7384,45.166189 C177.743733,45.1572913 177.749956,45.1501732 177.755289,45.1412756 C177.7704,45.1190315 177.787289,45.0967874 177.8024,45.0754331 C177.806844,45.068315 177.811289,45.0611969 177.815733,45.0558583 C177.830844,45.0336142 177.844178,45.0122598 177.859289,44.9917953 C177.863733,44.9855669 177.868178,44.9793386 177.871733,44.974 C177.885956,44.9517559 177.900178,44.9312913 177.912622,44.9134961 C177.916178,44.9072677 177.919733,44.9028189 177.923289,44.8983701 C177.933956,44.8814646 177.942844,44.8681181 177.953511,44.8521024 C178.062844,44.680378 178.288622,44.2915512 178.448622,43.7754882 C178.617511,43.1882441 178.645956,42.6090079 178.408622,42.1294252 C178.2344,41.7824173 177.9544,41.5332835 177.603289,41.3998189 L177.601511,41.3998189 C177.073511,41.1595827 176.797067,41.2957165 176.142844,41.2814803 C175.5784,41.2681339 174.751733,41.0074331 174.536622,40.9371417 C172.088622,40.1158898 172.101956,39.403189 172.187289,39.1593937 C172.1944,39.1398189 172.2024,39.1211339 172.213067,39.1033386 C172.232622,39.0748661 172.369511,38.8986929 172.611289,39.0668583 C172.873511,39.2483701 172.795289,39.5108504 173.515289,39.8792126 C174.2344,40.2502441 174.495733,40.1514803 174.495733,40.1514803 C174.495733,40.1514803 174.533956,40.1238976 174.591733,39.5722441 C174.599733,39.5072913 174.605067,39.4423386 174.611289,39.3827244 L174.611289,39.3800551 L174.611289,39.3773858 C174.667289,38.6593465 174.548178,38.111252 174.253067,37.6895039 C174.035289,37.3816457 173.525956,36.8762598 172.549956,36.9803622 C170.646844,37.1796693 170.359733,38.4377953 170.316178,38.8177244 C170.223733,39.6380866 170.664622,40.5411969 171.446844,41.3179606 C171.803289,41.6614094 173.6744,43.3341654 176.368622,43.4320394 C176.355289,43.4667402 176.3384,43.5058898 176.321511,43.5432598 C176.1784,43.8555669 175.691289,44.7871496 174.597067,45.734748 L174.596178,45.734748 C173.955289,46.2837323 173.165956,46.9644016 172.654844,47.8034488 C172.021956,48.8471417 171.9464,49.946 172.429067,50.9985906 C172.5784,51.2966614 172.9304,51.8269606 173.637956,52.1775276 C173.981067,52.334126 174.353511,52.4079764 174.7464,52.3964094 C175.9784,52.3617087 177.350844,51.4772835 178.987289,49.6505984 L178.987289,49.652378 C178.987289,49.652378 179.004178,49.6328031 179.033511,49.5998819 C179.116178,49.5064567 179.200622,49.4103622 179.285067,49.3124882 C179.339289,49.2421969 179.390844,49.1710157 179.440622,49.1007244 C179.840622,48.5837717 180.427289,47.7420551 180.872622,46.7659843 C181.323289,45.8050394 181.331289,45.5594646 181.630844,45.4633701 C181.649511,45.4615906 181.667289,45.459811 181.683289,45.4615906 L181.685067,45.4615906 C181.889511,45.5025197 181.902844,45.6893701 181.901067,45.7605512 C181.892178,45.8753307 181.853067,46.0381575 181.758844,46.2686063 C181.742844,46.3095354 181.726844,46.345126 181.711733,46.3807165 C180.7624,48.6247008 180.341067,50.4407087 181.284178,51.6525669 C181.740178,52.2415906 182.524178,52.545 183.4344,52.4907244 C184.486844,52.4275512 185.685067,51.9025906 186.939289,50.9674488 L187.001511,50.9202913 C187.045067,50.8873701 187.087733,50.8553386 187.132178,50.8206378 C187.132178,50.8206378 187.132178,50.8206378 187.132178,50.8188583 L187.195289,50.770811 C187.195289,50.770811 187.064622,49.6950866 187.134844,49.3916772 C187.205956,49.087378 187.390844,49.0046299 187.535733,49.0491181 C187.535733,49.0491181 187.6984,49.0891575 187.7304,49.4308268 C187.7544,49.7075433 187.805956,50.2947874 188.003289,50.9024961 C188.004178,50.9033858 188.004178,50.9060551 188.004178,50.9069449 C188.005956,50.9087244 188.005956,50.9096142 188.005956,50.9096142 C188.012178,50.9256299 188.015733,50.9416457 188.021956,50.9576614 C188.030844,50.9807953 188.037956,51.0048189 188.045956,51.027063 C188.052178,51.0466378 188.060178,51.0635433 188.0664,51.0831181 C188.080622,51.1195984 188.092178,51.1516299 188.105511,51.1836614 C188.109956,51.1952283 188.115289,51.2085748 188.120622,51.2201417 C188.159733,51.3135669 188.192622,51.384748 188.214844,51.4310157 C188.2264,51.4505906 188.236178,51.4728346 188.247733,51.4932992 C188.609511,52.1463858 189.263733,52.5476693 190.044178,52.5966063 C190.101956,52.6001654 190.160622,52.6028346 190.217511,52.6019449 C191.550844,52.5983858 193.140178,51.6143071 194.966844,49.6737323 C195.191733,49.4219291 195.385511,49.1825827 195.557067,48.9565827 L195.555289,48.959252 C195.555289,48.959252 195.560622,48.9521339 195.567733,48.9432362 C195.5864,48.9183228 195.605956,48.8925197 195.623733,48.8676063 C195.628178,48.861378 195.678844,48.7839685 195.761511,48.6558425 C195.9864,48.3141732 196.369511,47.7055748 196.769511,46.9519449 C197.069067,46.3860551 197.252178,46.0497244 197.390844,45.8699921 C197.453067,45.7943622 197.5864,45.6662362 197.735733,45.7267402 C197.751733,45.7338583 197.803289,45.7632205 197.830844,45.8344016 C197.837067,45.8521969 197.8424,45.8682126 197.845067,45.8895669 C197.845067,45.8895669 197.846844,45.8895669 197.846844,45.8895669 C197.846844,45.893126 197.846844,45.8949055 197.847733,45.8984646 C197.847733,45.9011339 197.848622,45.9038031 197.848622,45.9073622 C197.8984,46.2401339 197.5464,46.6956929 196.604178,48.5419528 C196.000622,49.7244488 195.933956,50.3588504 195.993511,50.691622 C196.079733,50.9701181 196.265511,51.1818819 196.550844,51.3197953 C197.411289,51.7326457 198.009511,50.9594409 198.446844,50.3935512 C198.800622,49.9371024 199.293956,49.2484252 199.920622,48.3782362 C200.743733,47.234 201.845956,45.700937 203.2184,43.8706929 C203.325956,43.7292205 203.7864,43.1330787 204.277956,42.6365906 C204.441511,42.4791024 204.607733,42.3305118 204.773067,42.1899291 C204.788178,42.1783622 204.801511,42.167685 204.813956,42.1578976 L204.813956,42.1587874 L204.815733,42.1561181 C204.840622,42.1356535 204.862844,42.1169685 204.883289,42.0982835 C205.059289,41.9541417 205.525067,41.5955669 205.741956,41.6845433 C205.993511,41.7895354 205.875289,42.2646693 205.719733,42.601 C205.473511,43.1046063 205.181956,43.6233386 204.912622,44.100252 C204.733956,44.4187874 204.565956,44.7195276 204.415733,45.0024724 C204.318844,45.1857638 204.2104,45.3824016 204.0984,45.587937 C203.108178,47.3914882 201.7544,49.8605827 203.159733,51.4683858 C203.534844,51.8963622 204.0504,52.1294803 204.653067,52.1428268 C206.140178,52.175748 208.304622,50.7725906 211.0824,47.9680551 C211.032622,48.6158031 211.099289,49.2413071 211.341067,49.8036378 C211.948178,51.2165827 212.926844,51.6988346 213.6424,51.8536535 C213.880622,51.9043701 214.120622,51.9283937 214.361511,51.9275039 C214.845067,51.9257244 215.332178,51.8260709 215.813956,51.6587953 L215.813067,51.6605748 C215.813067,51.6605748 217.492178,51.1783228 218.109067,50.1017087 C218.4264,49.5545039 218.452178,48.8400236 218.765956,48.6709685 C218.772178,48.6682992 218.984622,48.5650866 219.111733,48.7448189 C219.153511,48.8213386 219.185511,48.9387874 219.171289,49.1185197 C219.153511,49.2430866 219.125067,49.3712126 219.101067,49.4708661 C219.0904,49.5046772 219.0824,49.5358189 219.075289,49.5642913 C219.061956,49.6141181 219.053067,49.6443701 219.053067,49.6443701 C218.983733,49.8641417 218.9144,50.0883622 218.845067,50.3134724 L218.639733,50.9834646 C218.591733,51.1391732 218.545511,51.2913228 218.500178,51.4408031 C216.915289,51.5635906 215.552622,51.9577559 214.4744,52.3972992 C211.670844,53.543315 209.321511,55.6200236 208.487733,57.6913937 C207.661067,59.7440787 208.462844,60.9310236 209.013956,61.456874 C209.733956,62.1428819 210.740178,62.424937 211.7224,62.4222677 C212.185511,62.4204882 212.641511,62.3537559 213.061956,62.2380866 C213.072622,62.2354173 213.083289,62.2318583 213.094844,62.2300787 C213.145511,62.2149528 213.196178,62.1980472 213.249511,62.1820315 C213.284178,62.1704646 213.317067,62.1580079 213.349956,62.1464409 C213.373956,62.1384331 213.397956,62.1304252 213.421067,62.1206378 C213.4664,62.104622 213.510844,62.0877165 213.552622,62.070811 C215.192622,61.4123858 217.896622,59.4878268 218.8264,57.2260472 C219.323289,56.0204173 219.821956,54.627937 220.2024,53.5157323 C221.521511,53.5931417 222.976622,53.9081181 224.539289,54.5932362 C225.067289,54.8254646 225.683289,54.5843386 225.916178,54.0567087 C226.147289,53.528189 225.908178,52.9106929 225.379289,52.6775748" id="Fill-22" fill="#000000"></path>
                            <path d="M228.468711,54.7546394 C227.958489,54.4823717 227.326489,54.6763402 227.056267,55.1870646 C226.784267,55.697789 226.978933,56.3295213 227.487378,56.601789 C228.249156,57.0075213 229.090044,57.5671827 229.249156,57.7744976 C229.450933,58.0583323 229.766489,58.2113717 230.089156,58.2140409 C230.302489,58.2176 230.519378,58.1553165 230.706044,58.0227417 C231.177156,57.6890803 231.288267,57.0359937 230.954933,56.5635291 C230.454489,55.8570567 229.050044,55.0633874 228.468711,54.7546394" id="Fill-24" fill="#000000"></path>
                            <path d="M115.9536,39.2416079 C114.364267,38.988915 113.048711,37.847348 113.027378,37.8304425 C112.598044,37.4478441 111.938489,37.4869937 111.555378,37.9176394 C111.171378,38.3491748 111.2096,39.0102693 111.640711,39.3946472 C111.712711,39.4578205 113.414933,40.9570724 115.6256,41.3076394 C115.682489,41.3174268 115.7376,41.3200961 115.7936,41.3200961 C116.2976,41.3183165 116.740267,40.9526236 116.821156,40.4383402 C116.911822,39.8680016 116.523378,39.3323638 115.9536,39.2416079" id="Fill-26" fill="#000000"></path>
                            <path d="M126.664889,38.4382402 C126.949333,37.3740827 127.243556,36.3668701 127.545778,35.4121535 C128.088,33.7580827 129.571556,29.7238937 131.888889,27.1186654 C132.792889,26.1737362 133.824889,25.4307835 134.998222,25.0348386 C135.973333,24.8212953 137.952,24.9716654 137.097778,28.9231063 C137.097778,28.9231063 137.096889,28.9266654 137.096,28.9311142 C137.059556,29.0583504 137.020444,29.1855866 136.981333,29.3110433 C136.706667,30.1509803 135.903111,32.2481535 134.125333,34.4787913 C132.239111,36.698752 129.68,38.2638465 126.480889,39.1447126 C126.539556,38.9124843 126.6,38.6775866 126.664889,38.4382402 M125.981333,41.4251772 C126.025778,41.4136102 126.068444,41.4038228 126.109333,41.395815 C126.127111,41.3913661 126.143111,41.3869173 126.16,41.3833583 C129.692444,40.5612165 132.662222,38.9632008 134.917333,36.6960827 C139.649778,31.3468228 139.504,27.500374 139.348444,26.4433346 C138.806222,23.2633189 135.698667,20.8885394 131.581333,24.419122 C127.039111,28.3153976 124.629333,37.8821378 124.304889,39.2443661 C124.274667,39.3751614 124.245333,39.5041772 124.216889,39.6340827 C121.598222,40.0478228 119.621333,39.8707598 119.568889,39.8654213 C118.995556,39.8093661 118.482667,40.2302244 118.425778,40.8050118 C118.369778,41.3797992 118.790222,41.8905236 119.364444,41.949248 C119.460444,41.9572559 121.271111,42.1280906 123.794667,41.8068858 C123.794667,41.8068858 124.776,41.7312559 125.981333,41.4251772" id="Fill-28" fill="#000000"></path>
                            <path d="M173.200089,43.7603622 C173.205422,43.7479055 173.250756,43.6527008 173.321867,43.4987717 L173.364533,43.3982283 L173.321867,43.3715354 C172.892533,43.1704488 171.865867,42.5992205 171.538756,42.3225039 C171.428533,42.6401496 170.946756,43.4925433 170.946756,43.4925433 C168.947644,46.8709764 165.715644,50.7316614 164.1432,50.0331969 C164.072089,50.0011654 163.9832,49.9620157 163.942311,49.6906378 C163.864978,49.173685 164.049867,48.3444252 164.4552,47.3238661 C166.035644,45.3503701 167.105867,43.8377717 168.227644,41.5288346 C168.392089,41.1916142 168.734311,40.487811 168.214311,39.9094646 C167.920089,39.583811 167.459644,39.470811 167.040978,39.6238504 C166.771644,39.7208346 166.481867,39.8943386 165.662311,41.0047638 C165.152978,41.6943307 164.597422,42.5404961 164.097867,43.3884409 C163.605422,44.2212598 163.0632,45.2275827 162.633867,46.2534803 C162.633867,46.2534803 162.089867,47.1138819 161.128089,48.0855039 C160.8712,48.3720079 160.586756,48.6300394 160.2872,48.8578189 L160.284533,48.861378 L160.284533,48.8604882 C159.059644,49.7920709 157.609867,50.1915748 156.941422,49.8392283 C156.408089,49.5571732 156.344089,48.5143701 156.768089,47.0507087 C156.902311,46.5889213 157.059644,46.1645039 157.232089,45.765 L157.230311,45.765 C157.233867,45.7569921 157.237422,45.7525433 157.240089,45.7445354 C157.254311,45.7125039 157.267644,45.6813622 157.280089,45.6511102 L157.277422,45.6537795 C157.277422,45.6537795 157.283644,45.6404331 157.294311,45.6199685 C157.301422,45.6057323 157.312089,45.5888268 157.325422,45.5701417 C157.817867,44.5842835 158.304978,43.8795906 158.675644,43.4160236 C158.793867,43.2701024 159.036533,42.9827087 159.326311,42.7077717 C159.832978,42.2210709 160.342311,41.8491496 160.805422,41.5644252 L160.801867,41.5662047 C160.801867,41.5662047 160.808978,41.5617559 160.822311,41.5546378 C161.064978,41.4060472 161.292533,41.2832598 161.501422,41.180937 C161.768978,41.0439134 162.062311,40.9104488 162.282756,40.8499449 C162.282756,40.8499449 162.480089,40.7867717 162.5352,40.8926535 C162.573422,41.0803937 162.309422,41.3704567 161.608978,41.7824173 C161.608978,41.7841969 161.6072,41.7841969 161.606311,41.7850866 C161.492533,41.8624961 161.370756,41.9407953 161.243644,42.0182047 L161.244533,42.0182047 C161.244533,42.0182047 161.1432,42.0787087 160.9752,42.197937 C160.797422,42.3251732 160.6472,42.442622 160.534311,42.5351575 C159.945867,43.019189 159.1032,43.8466693 158.456089,45.0300551 C160.158311,44.3200236 162.920978,43.0236378 163.748533,41.7708504 C164.229422,41.0439134 164.339644,40.3881575 164.075644,39.8231575 C164.019644,39.7030394 163.950311,39.5998268 163.872089,39.504622 C163.872089,39.504622 163.8712,39.5028425 163.870311,39.5019528 C163.720978,39.3062047 163.570756,39.1558346 163.427644,39.0392756 L163.4232,39.0357165 C163.4152,39.0294882 163.408089,39.0241496 163.400978,39.0179213 C163.304978,38.9422913 163.209867,38.8826772 163.1192,38.8346299 C162.730756,38.6486693 162.308533,38.6789213 161.9992,38.7474331 C161.285422,38.9494094 158.025867,40.0500472 155.930756,43.6927402 C153.747644,43.9338661 152.250756,43.3199291 151.235644,42.4791024 C151.174311,42.4328346 151.1112,42.3776693 151.042756,42.3127165 C150.128978,41.4247323 149.545867,40.1701654 149.545867,40.1701654 C148.652533,38.0845591 148.792089,35.4989055 149.829422,34.2327717 L149.827644,34.2327717 C149.827644,34.2327717 150.294311,33.6001496 150.598311,33.6312913 C150.605422,33.6312913 150.612533,33.6330709 150.619644,33.6339606 L150.620533,33.6339606 C150.7512,33.6499764 150.824978,33.7665354 150.819644,33.9435984 C150.820533,33.9435984 150.821422,33.9418189 150.821422,33.9418189 C150.821422,33.9498268 150.819644,33.9569449 150.819644,33.9631732 C150.818756,33.9854173 150.8152,34.0076614 150.811644,34.0307953 C150.744978,34.5272835 150.513867,35.0851654 150.184089,36.2098268 C150.180533,36.2231732 150.176089,36.2374094 150.172533,36.2507559 C149.963644,36.9750236 149.923644,37.5115512 149.924533,37.8176299 C149.928089,37.9430866 149.9352,38.065874 149.947644,38.1797638 L149.947644,38.1806535 C149.956533,38.2634016 149.965422,38.3417008 149.977867,38.4164409 L149.977867,38.4182205 C149.9832,38.4520315 149.989422,38.487622 149.996533,38.5223228 C149.996533,38.5249921 149.996533,38.5276614 149.996533,38.5312205 C150.002756,38.5641417 150.008978,38.5961732 150.014311,38.6255354 C150.0152,38.6282047 150.0152,38.6299843 150.0152,38.6317638 C150.041867,38.7643386 150.0712,38.8800079 150.098756,38.9752126 C150.098756,38.9778819 150.098756,38.9787717 150.099644,38.9796614 C150.105867,39.0019055 150.112089,39.0232598 150.117422,39.0437244 C150.117422,39.0463937 150.118311,39.0472835 150.118311,39.0481732 C150.137867,39.1113465 150.155644,39.1638425 150.168978,39.2021024 L150.169867,39.2029921 C150.173422,39.2163386 150.177867,39.226126 150.181422,39.2350236 C150.182311,39.2368031 150.182311,39.2385827 150.1832,39.2394724 C150.185867,39.2483701 150.187644,39.2545984 150.190311,39.2590472 C150.1912,39.2608268 150.1912,39.2617165 150.192089,39.2652756 C150.193867,39.2697244 150.195644,39.2732835 150.196533,39.2741732 C150.197422,39.2759528 150.197422,39.2768425 150.198311,39.278622 C150.198311,39.2812913 150.200089,39.2821811 150.200089,39.2821811 L150.200089,39.2812913 C150.531644,40.2591417 151.0632,40.9834094 151.273867,41.2494488 C151.634756,40.3757008 152.4392,38.0934567 152.656089,34.6687559 C152.692533,33.1223465 152.372533,32.1872047 151.666756,31.7120709 C151.4072,31.5367874 151.057867,31.4015433 150.616978,31.4317953 C150.616978,31.4317953 149.432978,31.4335748 148.256978,32.8536378 C148.227644,32.8901181 148.1992,32.9248189 148.169867,32.9604094 C148.166311,32.965748 148.162756,32.9719764 148.158311,32.9755354 C148.094311,33.0573937 148.032089,33.1419213 147.972533,33.2273386 C147.956533,33.2513622 147.940533,33.2727165 147.924533,33.2949606 L147.925422,33.2940709 C146.579644,35.3102756 146.460533,38.5588031 147.765422,41.3037244 C147.837422,41.4567638 147.915644,41.6071339 147.995644,41.7530551 C147.995644,41.7530551 147.853422,42.2335276 147.557422,42.9880472 C147.5352,43.0432126 147.512978,43.098378 147.489867,43.1562126 C147.488089,43.1597717 147.486311,43.1633307 147.484533,43.1686693 C147.4632,43.2229449 147.440978,43.2772205 147.417867,43.3332756 C147.4152,43.3368346 147.414311,43.3412835 147.412533,43.3448425 C147.388533,43.4026772 147.364533,43.4614016 147.338756,43.5210157 C147.337867,43.523685 147.336978,43.5254646 147.336089,43.5281339 C147.3112,43.587748 147.284533,43.648252 147.257867,43.7105354 C147.150311,43.9578898 147.030311,44.2212598 146.898756,44.4970866 C146.833867,44.6332205 146.765422,44.7729134 146.693422,44.9152756 C146.691644,44.9170551 146.690756,44.9215039 146.688978,44.9241732 C146.618756,45.0620866 146.545867,45.2044488 146.470311,45.3477008 C146.465867,45.3530394 146.4632,45.3592677 146.460533,45.3654961 C146.384978,45.5069685 146.305867,45.652 146.224089,45.7961417 C146.220533,45.8023701 146.217867,45.8085984 146.214311,45.8148268 C146.129867,45.9643071 146.041867,46.1146772 145.9512,46.2668268 C145.923644,46.3130945 145.898756,46.3558031 145.878311,46.3905039 C145.850756,46.4341024 145.824089,46.4785906 145.797422,46.5212992 L145.796533,46.522189 C145.646311,46.7659843 145.497867,46.9973228 145.353867,47.215315 C144.000978,49.1594488 142.941422,50.0785748 142.433867,50.4522756 C141.825867,50.8758031 141.238311,51.1542992 140.700533,51.2361575 C140.489867,51.268189 140.289867,51.2886535 140.097867,51.2975512 C140.085422,51.2984409 140.073867,51.3002205 140.060533,51.302 L140.050756,51.302 L140.043644,51.302 C139.486311,51.332252 139.009867,51.253063 138.616978,51.0679921 C138.6152,51.0679921 138.614311,51.0662126 138.612533,51.0662126 C138.569867,51.045748 138.528089,51.0243937 138.488089,51.0003701 C138.484533,50.9994803 138.481867,50.996811 138.478311,50.9950315 C138.440089,50.9736772 138.401867,50.9505433 138.365422,50.9256299 C138.360978,50.9238504 138.356533,50.9202913 138.3512,50.9185118 C138.316533,50.8944882 138.283644,50.8704646 138.249867,50.8446614 C138.244533,50.8402126 138.2392,50.834874 138.232978,50.831315 C138.200978,50.8072913 138.169867,50.7805984 138.140533,50.7530157 C138.133422,50.7476772 138.1272,50.7432283 138.121867,50.7378898 C138.091644,50.7103071 138.064089,50.6827244 138.035644,50.6533622 L138.017867,50.6364567 C137.989422,50.6062047 137.961867,50.575063 137.9352,50.5430315 C137.930756,50.5385827 137.926311,50.5323543 137.921867,50.5270157 C137.890756,50.4914252 137.862311,50.4522756 137.832978,50.4149055 C137.832978,50.413126 137.832978,50.413126 137.832089,50.4122362 C137.416978,49.8321102 137.227644,48.9770472 137.280089,47.8550551 C137.325422,46.8629685 137.467644,46.0488346 137.618756,45.4357874 C137.619644,45.4340079 137.619644,45.4313386 137.620533,45.4304488 C137.632089,45.3797323 137.645422,45.331685 137.656978,45.2836378 C137.658756,45.2800787 137.659644,45.2756299 137.659644,45.2720709 C137.672978,45.2240236 137.685422,45.1786457 137.698756,45.1332677 L137.698756,45.132378 C137.773422,44.8627795 137.846311,44.6438976 137.906756,44.4801811 C138.680978,42.2032756 139.812533,40.6364016 140.480089,39.8471811 C140.510311,39.8142598 140.545867,39.7786693 140.585867,39.7448583 C140.6152,39.7217244 140.674756,39.6896929 140.749422,39.7039291 C140.851644,39.7252835 140.8472,39.8178189 140.849867,39.8471811 C140.8472,39.9059055 140.832978,39.9753071 140.819644,40.0251339 C140.220533,42.0493465 139.280089,43.7487953 138.408978,45.0211575 C138.408978,45.0211575 137.748533,46.7926772 138.072089,48.7572756 C139.021422,47.7820945 141.520089,44.9241732 142.784089,40.7565197 C142.873867,40.408622 143.728089,36.9340945 142.019644,36.6680551 C140.824978,36.4820945 139.525422,37.6396772 138.788533,38.4342362 C137.435644,39.922811 135.818756,42.420378 135.337867,46.1618346 C135.202756,47.0542677 135.155644,47.8701811 135.196533,48.6077953 C133.376978,49.9335433 129.880089,51.3375906 127.681867,50.2609764 C125.8152,49.3462992 125.188533,46.5809134 125.829422,42.3349606 C124.979644,42.5867638 124.161867,42.665063 123.669422,42.6890866 C123.434756,44.5460236 123.432089,46.1591654 123.667644,47.5044882 C124.160089,50.3232598 125.622311,51.5813858 126.762756,52.1392677 C128.450756,52.966748 130.737867,52.917811 133.200978,52.0022441 C134.070311,51.6810394 134.920978,51.2610709 135.669422,50.7992835 C135.8872,51.3108976 136.179644,51.7548898 136.544089,52.1294803 C137.139644,52.7434173 138.179644,53.4009528 139.890756,53.3956142 C140.237422,53.3938346 140.611644,53.3653622 141.016089,53.3048583 C143.557422,52.9160315 146.149422,50.1960236 148.097867,47.2455669 C148.149422,47.1717165 148.200089,47.0943071 148.254311,47.0071102 C148.496978,46.6325197 148.728978,46.2525906 148.949422,45.8753307 C149.464089,45.0175984 149.784089,44.4383622 149.957422,44.1091496 C150.253422,44.3565039 150.585867,44.5985197 150.950311,44.812063 C151.016089,44.8485433 151.081867,44.8868031 151.148533,44.9215039 C152.286311,45.5247638 153.563644,45.8299528 154.961867,45.8361811 C154.891644,46.039937 154.824089,46.250811 154.761867,46.4661339 C153.756533,49.9246457 155.084533,51.2219213 155.966311,51.6881575 C157.497867,52.4969528 159.664089,51.8776772 161.3672,50.6533622 C161.291644,50.382874 161.232089,50.0696772 161.240978,49.768937 C161.264089,49.0108583 161.873867,49.1825827 161.858756,49.5660709 C161.841867,49.9504488 161.918311,50.2244961 161.918311,50.2244961 C162.152978,51.2708583 162.841867,51.7424331 163.294311,51.9444094 C165.213422,52.7976929 167.500533,51.5982913 170.096978,48.379126 C171.837422,46.2196693 173.120978,43.9071732 173.174311,43.8084094 L173.200089,43.7603622 Z" id="Fill-30" fill="#000000"></path>
                            <mask id="mask-2" fill="white">
                                <use xlink:href="#path-1"></use>
                            </mask>
                            <g id="Clip-33"></g>
                            <polygon id="Fill-32" fill="#514B3D" mask="url(#mask-2)" points="0 279.964173 400 279.964173 400 274.180709 0 274.180709"></polygon>
                            <path d="M361.781244,394.089191 C361.781244,423.491435 337.969689,447.327317 308.595467,447.327317 C279.222133,447.327317 255.410578,423.491435 255.410578,394.089191 C255.410578,364.686946 279.222133,340.851954 308.595467,340.851954 C337.969689,340.851954 361.781244,364.686946 361.781244,394.089191 Z" id="Stroke-34" stroke="#514B3D" stroke-width="8.504" mask="url(#mask-2)"></path>
                            <path d="M327.730044,396.596011 L325.697156,393.843972 L327.642044,391.205822 L333.855378,393.956972 L327.730044,396.596011 Z M330.5416,406.646783 L323.914933,405.905609 L323.538044,402.501373 L326.538044,401.245027 L330.5416,406.646783 Z M323.563822,389.459216 L324.216267,389.749279 L323.801156,390.313389 L323.563822,389.459216 Z M323.876711,397.563184 L324.304267,398.140641 L323.650933,398.430704 L323.876711,397.563184 Z M323.663378,382.072397 L330.390489,381.318767 L326.4376,386.720523 L323.299822,385.288893 L323.663378,382.072397 Z M315.970044,411.885712 L317.387822,408.808019 L320.638489,409.171932 L321.391378,415.905665 L315.970044,411.885712 Z M320.174489,405.390436 L319.471378,405.390436 L320.098933,404.749806 L320.174489,405.390436 Z M300.099822,402.533405 C297.867822,400.287641 296.610933,397.250877 296.602933,394.083318 C296.602933,387.450129 301.975378,382.072397 308.602044,382.072397 C315.2296,382.072397 320.600267,387.450129 320.600267,394.083318 C320.600267,397.268672 319.337156,400.323231 317.086489,402.576113 C312.384267,407.25983 304.778933,407.241145 300.099822,402.533405 Z M313.008267,409.712019 L312.367378,409.297389 L313.2216,409.058932 L313.008267,409.712019 Z M308.790489,419.360617 L306.091822,413.229255 L308.840267,411.194365 L311.476711,413.142058 L308.790489,419.360617 Z M304.610933,409.800106 L304.284711,409.159476 L305.150489,409.385476 L304.610933,409.800106 Z M297.306044,405.679609 L297.380711,404.975806 L298.0216,405.60398 L297.306044,405.679609 Z M296.050933,416.043578 L296.791378,409.410389 L300.193156,409.034019 L301.448267,412.036972 L296.050933,416.043578 Z M297.720267,382.7762 L297.092711,383.41594 L297.017156,382.7762 L297.720267,382.7762 Z M301.184267,376.230208 L299.816267,379.371964 L296.602933,379.006271 L295.850044,372.272539 L301.184267,376.230208 Z M304.196711,378.453728 L304.761156,378.868357 L303.907822,379.107704 L304.196711,378.453728 Z M308.414489,368.806019 L311.112267,374.936491 L308.363822,376.971381 L305.728267,375.024578 L308.414489,368.806019 Z M312.594044,378.366531 L312.882044,379.019617 L312.016267,378.793617 L312.594044,378.366531 Z M319.898044,382.487027 L319.822489,383.19083 L319.183378,382.562657 L319.898044,382.487027 Z M321.154044,372.172885 L320.4136,378.806074 L317.010933,379.183334 L315.755822,376.180381 L321.154044,372.172885 Z M293.540711,406.094239 L286.8136,406.84698 L290.767378,401.471027 L293.904267,402.877743 L293.540711,406.094239 Z M283.348711,394.208775 L289.474044,391.570625 L291.507822,394.321775 L289.562044,396.959924 L283.348711,394.208775 Z M292.900711,390.025106 L293.553156,389.735932 L293.327378,390.603452 L292.900711,390.025106 Z M293.402933,397.852357 L293.641156,398.706531 L292.988711,398.417357 L293.402933,397.852357 Z M286.662489,381.519854 L293.290044,382.261027 L293.666933,385.666153 L290.666933,386.921609 L286.662489,381.519854 Z M354.827822,403.103743 C355.070489,401.8732 355.263378,400.616854 355.4056,399.334704 L342.954933,393.882231 L355.368267,388.442216 C355.217156,387.185869 355.020711,385.929523 354.778044,384.673176 L338.411822,391.946995 L329.876711,388.177956 L335.336267,380.766224 L353.170933,378.768704 C352.745156,377.57909 352.289156,376.402822 351.802933,375.238121 L338.298933,376.745381 L346.330933,365.82798 C345.569156,364.822546 344.774489,363.850924 343.946044,362.913113 L333.340711,377.310381 L324.078489,378.340728 L325.106933,369.169932 L339.540711,358.528357 C338.595822,357.6902 337.611822,356.8992 336.591378,356.153578 L325.646489,364.219287 L327.153156,350.726019 C325.998489,350.23309 324.822489,349.784649 323.626044,349.382476 L321.655378,367.18398 L314.124711,372.712082 L310.4216,364.257546 L317.638489,347.798696 C316.409156,347.55668 315.154044,347.36805 313.873156,347.233696 L308.426044,359.696617 L302.992267,347.271066 C301.737156,347.422326 300.482044,347.618964 299.226933,347.862759 L306.468711,364.24509 L302.703378,372.787712 L295.298044,367.322783 L293.314933,349.469672 C292.118489,349.897649 290.938044,350.353208 289.775378,350.839019 L291.281156,364.35809 L280.375378,356.316405 C279.370933,357.070924 278.395822,357.867263 277.450933,358.704531 L291.846489,369.307846 L292.875822,378.580074 L283.713156,377.562184 L273.082044,363.1142 C272.2456,364.060909 271.454489,365.044987 270.710489,366.066436 L278.768267,377.022098 L265.300711,375.501491 C264.807378,376.657294 264.359378,377.834452 263.9576,379.032074 L281.730044,381.017137 L287.252711,388.555216 L278.8056,392.261972 L262.363822,385.03798 C262.120267,386.269413 261.929156,387.524869 261.786044,388.806129 L274.236711,394.258602 L261.823378,399.698617 C261.974489,400.954964 262.170933,402.2122 262.414489,403.468546 L278.793156,396.218751 L287.328267,399.98868 L281.867822,407.401302 L264.033156,409.385476 C264.459822,410.583098 264.920267,411.764704 265.4136,412.927625 L278.918489,411.420365 L270.886489,422.338657 C271.638489,423.34409 272.434044,424.319271 273.270489,425.26598 L283.863378,410.867822 L293.126489,409.838365 L292.110489,419.009161 L277.663378,429.638279 C278.608267,430.475546 279.592267,431.267436 280.612711,432.013058 L291.5576,423.94646 L290.039378,437.427271 C291.193156,437.92109 292.370044,438.369531 293.5656,438.771704 L295.548711,420.994224 L303.080267,415.466121 L306.782489,423.921546 L299.564711,440.36705 C300.794933,440.609956 302.050044,440.803035 303.330933,440.945397 L308.778044,428.482476 L314.212711,440.908027 C315.467822,440.756767 316.722933,440.559239 317.978044,440.317224 L310.736267,423.921546 L314.500711,415.378035 L321.906044,420.843854 L323.9016,438.696074 C325.090044,438.268987 326.266044,437.812539 327.428711,437.326728 L325.922933,423.808546 L336.8296,431.849342 C337.834044,431.094822 338.809156,430.299373 339.754044,429.462106 L325.3576,418.846334 L324.329156,409.574106 L333.490933,410.604452 L344.122044,425.051546 C344.959378,424.105728 345.748711,423.121649 346.4936,422.1002 L338.436711,411.144539 L351.916711,412.651798 C352.410044,411.495995 352.858044,410.319728 353.259822,409.121216 L335.474044,407.148609 L329.951378,399.61142 L338.398489,395.905554 L354.827822,403.103743 Z" id="Fill-35" fill="#514B3D" mask="url(#mask-2)"></path>
                            <path d="M315.147556,394.089191 C315.147556,397.711419 312.214222,400.647639 308.595556,400.647639 C304.977778,400.647639 302.044444,397.711419 302.044444,394.089191 C302.044444,390.467852 304.977778,387.531631 308.595556,387.531631 C312.214222,387.531631 315.147556,390.467852 315.147556,394.089191" id="Fill-36" fill="#514B3D" mask="url(#mask-2)"></path>
                        </g>
                    </g>
                </g>
            </g>
        </g>
    </g>
</svg>