<?xml version="1.0" encoding="UTF-8"?>
<svg width="24px" height="24px" viewBox="0 0 24 24" version="1.1" xmlns="http://www.w3.org/2000/svg" xmlns:xlink="http://www.w3.org/1999/xlink">
    <!-- Generator: Sketch 51.3 (57544) - http://www.bohemiancoding.com/sketch -->
    <title>Group 31</title>
    <desc>Created with Sketch.</desc>
    <defs></defs>
    <g id="Page-1" stroke="none" stroke-width="1" fill="none" fill-rule="evenodd">
        <g id="Index-Opsi-1" transform="translate(-716.000000, -6401.000000)">
            <g id="Group-21" transform="translate(0.000000, 6335.000000)">
                <g id="Group-14" transform="translate(317.000000, 48.000000)">
                    <g id="Group-13" transform="translate(365.000000, 0.000000)">
                        <g id="Group-6" transform="translate(0.000000, 18.000000)">
                            <g id="Group-31" transform="translate(34.000000, 0.000000)">
                                <g id="Group-29" fill="#4A4A4A">
                                    <g id="Group-30">
                                        <circle id="Oval-5" cx="12" cy="12" r="12"></circle>
                                    </g>
                                </g>
                                <path d="M15.0223999,7 L9.9776001,7 C8.33572388,7 7,8.33572388 7,9.9776001 L7,15.0224838 C7,16.6642761 8.33572388,18 9.9776001,18 L15.0224838,18 C16.6642761,18 18,16.6642761 18,15.0224838 L18,9.9776001 C18,8.33572388 16.6642761,7 15.0223999,7 Z M12.5,15.5077286 C10.841507,15.5077286 9.49227142,14.158493 9.49227142,12.5 C9.49227142,10.841507 10.841507,9.49227142 12.5,9.49227142 C14.158493,9.49227142 15.5077286,10.841507 15.5077286,12.5 C15.5077286,14.158493 14.158493,15.5077286 12.5,15.5077286 Z M15.5796509,10.2015915 C15.0895386,10.2015915 14.6909027,9.80295563 14.6909027,9.31284333 C14.6909027,8.82273102 15.0895386,8.42401123 15.5796509,8.42401123 C16.0697632,8.42401123 16.468483,8.82273102 16.468483,9.31284333 C16.468483,9.80295563 16.0697632,10.2015915 15.5796509,10.2015915 Z" id="Shape" fill="#FFFFFF" fill-rule="nonzero"></path>
                            </g>
                        </g>
                    </g>
                </g>
            </g>
        </g>
    </g>
</svg>