<?xml version="1.0" encoding="UTF-8"?>
<svg width="80px" height="80px" viewBox="0 0 80 80" version="1.1" xmlns="http://www.w3.org/2000/svg" xmlns:xlink="http://www.w3.org/1999/xlink">
    <!-- Generator: Sketch 51.3 (57544) - http://www.bohemiancoding.com/sketch -->
    <title>Group 16</title>
    <desc>Created with Sketch.</desc>
    <defs></defs>
    <g id="Page-1" stroke="none" stroke-width="1" fill="none" fill-rule="evenodd">
        <g id="Index-Opsi-1" transform="translate(-329.000000, -3625.000000)">
            <g id="Group-16" transform="translate(329.000000, 3625.000000)">
                <polygon id="Fill-1" fill="#FFFFFF" points="16.5104688 35.9923594 14.0620313 26.1917344 11.6145313 35.9923594 14.0629688 38.9261094"></polygon>
                <path d="M25,47.3957812 L22.6298437,47.3957812 L22.6298437,32.55875 C22.6298437,31.6957813 21.9301562,30.99625 21.0673437,30.99625 C20.2045312,30.99625 19.5048437,31.6957813 19.5048437,32.55875 L19.5048437,44.21875 L8.62015625,44.21875 L8.62015625,32.55875 C8.62015625,31.6957813 7.92046875,30.99625 7.05765625,30.99625 C6.19484375,30.99625 5.49515625,31.6957813 5.49515625,32.55875 L5.49515625,47.3957812 L3.125,47.3957812 L3.125,29.7079687 C3.125,27.6948438 4.56171875,25.968125 6.54125,25.6021875 L10.0129687,24.9603125 C10.1559375,24.9339062 10.2940625,24.8964062 10.43,24.8542188 L12.3276562,26.6876562 L10.0984375,35.61375 C9.97765625,36.0978125 10.0951562,36.6104688 10.4146875,36.9935938 L12.863125,39.9271875 C13.16,40.2829688 13.5995313,40.4885938 14.0629688,40.4885938 C14.5264063,40.4885938 14.9657812,40.2828125 15.2626562,39.9270313 L17.7101562,36.9932813 C18.0296875,36.6101563 18.1471875,36.0976562 18.02625,35.6135938 L15.796875,26.6892188 L17.6948438,24.8546875 C17.8303125,24.8967188 17.968125,24.9339062 18.1104687,24.9601563 L21.5835937,25.6021875 C23.5632813,25.968125 25,27.6948438 25,29.7079687 L25,47.3957812 Z M8.62015625,72.65625 L12.5,72.65625 L12.5,47.34375 L8.62015625,47.34375 L8.62015625,72.65625 Z M14.0625,7.34375 C16.1817187,7.34375 17.976875,8.7571875 18.5548437,10.6909375 L16.9229687,9.7321875 C16.265,9.34546875 15.4242187,9.4909375 14.9339062,10.0759375 C13.9235938,11.2817187 12.441875,11.9732813 10.8684375,11.9732813 L9.3753125,11.9732813 C9.4065625,9.4153125 11.4971875,7.34375 14.0625,7.34375 Z M14.0625,19.3154688 C11.6365625,19.3154688 9.6353125,17.4629688 9.39859375,15.0982813 L10.8682813,15.0982813 C12.9157813,15.0982813 14.8659375,14.36125 16.3867188,13.0417187 L18.75,14.43 L18.75,14.6279688 C18.75,17.2126563 16.6471875,19.3154688 14.0625,19.3154688 Z M14.0629688,24.0189063 L12.7259375,22.7271875 C12.7751563,22.603125 12.8201563,22.476875 12.8557813,22.346875 C13.2492188,22.408125 13.6521875,22.4403125 14.0625,22.4403125 C14.4723438,22.4403125 14.8748438,22.408125 15.2678125,22.3470312 C15.3034375,22.4775 15.3485937,22.6039062 15.3979688,22.7282813 L14.0629688,24.0189063 Z M14.0623437,32.6395313 L14.8020312,35.6009375 L14.0628125,36.4871875 L13.3228125,35.600625 L14.0623437,32.6395313 Z M22.1517188,22.529375 L18.6784375,21.8873438 C18.4384375,21.8429687 18.264375,21.6335937 18.264375,21.3895313 L18.264375,21.2090625 C20.4332813,19.8192187 21.875,17.3895313 21.875,14.6279688 L21.875,12.03125 C21.875,7.7234375 18.3703125,4.21875 14.0625,4.21875 C9.7546875,4.21875 6.25,7.7234375 6.25,12.03125 L6.25,14.6279688 C6.25,17.3889062 7.6909375,19.818125 9.8590625,21.208125 L9.8590625,21.3896875 C9.8590625,21.63375 9.68484375,21.8429687 9.44484375,21.8873438 L5.973125,22.5292188 C2.51203125,23.1690625 0,26.188125 0,29.7079687 L0,48.9584375 C0,49.8214062 0.6996875,50.5209375 1.5625,50.5209375 L5.49515625,50.5209375 L5.49515625,74.21875 C5.49515625,75.0817188 6.19484375,75.78125 7.05765625,75.78125 L21.0673437,75.78125 C21.9301563,75.78125 22.6298437,75.0817188 22.6298437,74.21875 L22.6298437,66.484375 C22.6298437,65.6214062 21.9301563,64.921875 21.0673437,64.921875 C20.2045313,64.921875 19.5048437,65.6214062 19.5048437,66.484375 L19.5048437,72.65625 L15.625,72.65625 L15.625,47.34375 L19.5048437,47.34375 L19.5048437,54.53125 C19.5048437,55.3942188 20.2045313,56.09375 21.0673437,56.09375 C21.9301563,56.09375 22.6298437,55.3942188 22.6298437,54.53125 L22.6298437,50.5207812 L26.5625,50.5207812 C27.4253125,50.5207812 28.125,49.82125 28.125,48.9582812 L28.125,29.708125 C28.125,26.1882813 25.6129688,23.1692188 22.1517188,22.529375 Z" id="Fill-2" fill="#C5901A"></path>
                <path d="M21.0672031,58.59375 C20.6562656,58.59375 20.2531406,58.7609375 19.9625156,59.0515625 C19.6718906,59.3421875 19.5047031,59.7453125 19.5047031,60.15625 C19.5047031,60.5671875 19.6717344,60.9703125 19.9625156,61.2609375 C20.2532969,61.5515625 20.6562656,61.71875 21.0672031,61.71875 C21.4781406,61.71875 21.8812656,61.5515625 22.1717344,61.2609375 C22.4623594,60.9703125 22.6297031,60.5671875 22.6297031,60.15625 C22.6297031,59.7453125 22.4625156,59.3421875 22.1717344,59.0515625 C21.8812656,58.7609375 21.4781406,58.59375 21.0672031,58.59375" id="Fill-4" fill="#C5901A"></path>
                <path d="M40.0196094,16.0166875 C39.1569531,16.0166875 38.4571094,16.7162187 38.4571094,17.5791875 L38.4571094,23.2965312 C38.4571094,24.1595 39.1569531,24.8590312 40.0196094,24.8590312 C40.8825781,24.8590312 41.5821094,24.1595 41.5821094,23.2965312 L41.5821094,19.1416875 L46.4941406,19.1416875 C47.3569531,19.1416875 48.0566406,18.4421562 48.0566406,17.5791875 C48.0566406,16.7162187 47.3571094,16.0166875 46.4941406,16.0166875 L40.0196094,16.0166875 Z" id="Fill-6" fill="#C5901A"></path>
                <path d="M40.0202969,29.9296562 C40.4312344,29.9296562 40.8343594,29.7624687 41.1249844,29.4718437 C41.4154531,29.1812187 41.5827969,28.7796562 41.5827969,28.3671562 C41.5827969,27.9562187 41.4156094,27.5530937 41.1249844,27.2624687 C40.8343594,26.9718437 40.4312344,26.8046562 40.0202969,26.8046562 C39.6077969,26.8046562 39.2062344,26.9718437 38.9156094,27.2624687 C38.6234219,27.5530937 38.4577969,27.9562187 38.4577969,28.3671562 C38.4577969,28.7796562 38.6234219,29.1812187 38.9156094,29.4718437 C39.2062344,29.7624687 39.6077969,29.9296562 40.0202969,29.9296562" id="Fill-8" fill="#C5901A"></path>
                <path d="M46.4941406,60.8583125 L41.5821094,60.8583125 L41.5821094,34.2875313 C41.5821094,33.4245625 40.8825781,32.7250313 40.0196094,32.7250313 C39.1569531,32.7250313 38.4571094,33.4245625 38.4571094,34.2875313 L38.4571094,38.457375 L34.0622656,38.457375 C33.1994531,38.457375 32.4997656,39.1569063 32.4997656,40.019875 C32.4997656,40.8828438 33.1994531,41.582375 34.0622656,41.582375 L38.4571094,41.582375 L38.4571094,62.4208125 C38.4571094,63.283625 39.1569531,63.9833125 40.0196094,63.9833125 L46.4941406,63.9833125 C47.3569531,63.9833125 48.0566406,63.283625 48.0566406,62.4208125 C48.0566406,61.5578438 47.3571094,60.8583125 46.4941406,60.8583125 L485.3125,41.582375" id="Fill-10" fill="#C5901A"></path>
                <path d="M76.875,35.3125 L74.3675,35.3125 L74.3675,28.6290625 C74.3675,27.7660937 73.6678125,27.0665625 72.805,27.0665625 C71.9421875,27.0665625 71.2425,27.7660937 71.2425,28.6290625 L71.2425,35.3125 L60.0075,35.3125 L60.0075,28.6290625 C60.0075,27.7660937 59.3078125,27.0665625 58.445,27.0665625 C57.5821875,27.0665625 56.8825,27.7660937 56.8825,28.6290625 L56.8825,35.3125 L54.375,35.3125 L54.375,26.0873437 C54.375,24.0051562 55.8610937,22.2190625 57.9085938,21.8404687 L61.4670313,21.1825 C61.6196875,21.1542187 61.7670312,21.11375 61.911875,21.0678125 L64.0625,23.145625 L64.0625,31.5103125 C64.0625,32.3732813 64.7621875,33.0728125 65.625,33.0728125 C66.4878125,33.0728125 67.1875,32.3732813 67.1875,31.5103125 L67.1875,23.146875 L69.3379687,21.0684375 C69.4823438,21.1142187 69.6292188,21.1545312 69.7814063,21.1826563 L73.34125,21.8407812 C75.38875,22.2190625 76.875,24.0051562 76.875,26.0875 L76.875,35.3125 Z M65.625,3.125 C67.8490625,3.125 69.7279688,4.63171875 70.2942187,6.678125 L68.5371875,5.6459375 C67.8792188,5.259375 67.0384375,5.4046875 66.548125,5.98953125 C65.5048437,7.234375 63.975,7.9484375 62.3509375,7.9484375 L60.78125,7.9484375 C60.7923438,5.286875 62.9609375,3.125 65.625,3.125 Z M65.625,15.4740625 C63.1035938,15.4740625 61.026875,13.5371875 60.8023437,11.0732813 L62.3509375,11.0732813 C64.4498437,11.0732813 66.448125,10.314375 68.003125,8.95640625 L70.46875,10.4051562 L70.46875,10.6304687 C70.46875,13.3010938 68.2959375,15.4740625 65.625,15.4740625 Z M65.6254687,20.3104687 L64.20875,18.9417187 C64.2673437,18.7973437 64.3185938,18.6496875 64.3585937,18.4973437 C64.77125,18.5635938 65.1940625,18.5990625 65.625,18.5990625 C66.0554688,18.5990625 66.4776562,18.5635938 66.8898438,18.4976562 C66.93,18.6503125 66.9814062,18.7984375 67.0401563,18.943125 L65.6254687,20.3104687 Z M73.909375,18.7676562 L70.349375,18.1095313 C70.085,18.060625 69.8929687,17.8298437 69.8929687,17.5609375 L69.8929687,17.3546875 C72.1153125,15.9390625 73.59375,13.4548437 73.59375,10.6303125 L73.59375,7.96875 C73.59375,3.5746875 70.0189063,0 65.625,0 C61.2310937,0 57.65625,3.5746875 57.65625,7.96875 L57.65625,10.6303125 C57.65625,13.4542187 59.1340625,15.9378125 61.3554688,17.3535937 L61.3554688,17.5609375 C61.3554688,17.83 61.1634375,18.060625 60.8989062,18.1095313 L57.3404687,18.7675 C53.8114063,19.4201562 51.25,22.4984375 51.25,26.0873437 L51.25,36.875 C51.25,37.7379688 51.9496875,38.4375 52.8125,38.4375 L78.4375,38.4375 C79.3003125,38.4375 80,37.7379688 80,36.875 L80,26.0875 C80,22.4985937 77.4384375,19.4201562 73.909375,18.7676562 Z" id="Fill-12" fill="#C5901A"></path>
                <path d="M76.875,76.875 L74.3675,76.875 L74.3675,70.1915625 C74.3675,69.3285937 73.6678125,68.6290625 72.805,68.6290625 C71.9421875,68.6290625 71.2425,69.3285937 71.2425,70.1915625 L71.2425,76.875 L60.0075,76.875 L60.0075,70.1915625 C60.0075,69.3285937 59.3078125,68.6290625 58.445,68.6290625 C57.5821875,68.6290625 56.8825,69.3285937 56.8825,70.1915625 L56.8825,76.875 L54.375,76.875 L54.375,67.6498438 C54.375,65.5676562 55.8610937,63.7815625 57.9085938,63.4029687 L61.4670313,62.745 C61.6196875,62.7167187 61.7670312,62.67625 61.911875,62.6303125 L64.0625,64.708125 L64.0625,73.0728125 C64.0625,73.9357812 64.7621875,74.6353125 65.625,74.6353125 C66.4878125,74.6353125 67.1875,73.9357812 67.1875,73.0728125 L67.1875,64.709375 L69.3379687,62.6309375 C69.4823438,62.6767187 69.6292188,62.7170312 69.7814063,62.7451563 L73.34125,63.4032812 C75.38875,63.7815625 76.875,65.5676562 76.875,67.65 L76.875,76.875 Z M65.625,44.6875 C67.8490625,44.6875 69.7279688,46.1942187 70.2942187,48.240625 L68.5371875,47.2084375 C67.8792188,46.8217188 67.0384375,46.9671875 66.548125,47.5520312 C65.505,48.796875 63.9751563,49.5109375 62.3510938,49.5109375 L60.78125,49.5109375 C60.7923438,46.849375 62.9609375,44.6875 65.625,44.6875 Z M65.625,57.0365625 C63.1035938,57.0365625 61.026875,55.0996875 60.8023437,52.6357813 L62.3509375,52.6357813 C64.4498437,52.6357813 66.448125,51.876875 68.003125,50.5189063 L70.46875,51.9675 L70.46875,52.1928125 C70.46875,54.8635938 68.2959375,57.0365625 65.625,57.0365625 Z M65.6254687,61.8729687 L64.20875,60.5042187 C64.2673437,60.3598437 64.3185938,60.2121875 64.3585937,60.0598437 C64.77125,60.1260937 65.1940625,60.1615625 65.625,60.1615625 C66.0554688,60.1615625 66.4776562,60.1260937 66.8898438,60.0601562 C66.93,60.2128125 66.9814062,60.3609375 67.0401563,60.505625 L65.6254687,61.8729687 Z M73.909375,60.3301563 L70.349375,59.6720313 C70.085,59.623125 69.8929687,59.3923437 69.8929687,59.1234375 L69.8929687,58.9171875 C72.1153125,57.5015625 73.59375,55.0173437 73.59375,52.1928125 L73.59375,49.53125 C73.59375,45.1371875 70.0189063,41.5625 65.625,41.5625 C61.2310937,41.5625 57.65625,45.1371875 57.65625,49.53125 L57.65625,52.1928125 C57.65625,55.0167187 59.1340625,57.5003125 61.3554688,58.9159375 L61.3554688,59.1234375 C61.3554688,59.3925 61.1634375,59.623125 60.8989062,59.6720313 L57.3404687,60.33 C53.8114063,60.9826562 51.25,64.0609375 51.25,67.6498438 L51.25,78.4375 C51.25,79.3004687 51.9496875,80 52.8125,80 L78.4375,80 C79.3003125,80 80,79.3004687 80,78.4375 L80,67.65 C80,64.0610937 77.4384375,60.9826562 73.909375,60.3301563 Z" id="Fill-14" fill="#C5901A"></path>
            </g>
        </g>
    </g>
</svg>