<?xml version="1.0" encoding="UTF-8"?>
<svg width="52px" height="80px" viewBox="0 0 52 80" version="1.1" xmlns="http://www.w3.org/2000/svg" xmlns:xlink="http://www.w3.org/1999/xlink">
    <!-- Generator: Sketch 51.3 (57544) - http://www.bohemiancoding.com/sketch -->
    <title>Group 59</title>
    <desc>Created with Sketch.</desc>
    <defs>
        <polygon id="path-1" points="0.000288653268 0.0813590352 51.1125558 0.0813590352 51.1125558 78.2021754 0.000288653268 78.2021754"></polygon>
        <polygon id="path-3" points="0.000288653268 0.330238161 51.1125558 0.330238161 51.1125558 78.9885399 0.000288653268 78.9885399"></polygon>
    </defs>
    <g id="Page-1" stroke="none" stroke-width="1" fill="none" fill-rule="evenodd">
        <g id="Partner-Single-Page-(Form)" transform="translate(-593.000000, -379.000000)">
            <g id="Group-59" transform="translate(593.000000, 379.000000)">
                <g id="Group-3" transform="translate(0.000000, 1.797753)">
                    <mask id="mask-2" fill="white">
                        <use xlink:href="#path-1"></use>
                    </mask>
                    <g id="Clip-2"></g>
                    <path d="M51.1114012,74.7874636 C51.1114012,76.6725682 49.5743225,78.2021754 47.6767881,78.2021754 L3.43454091,78.2021754 C1.53844975,78.2021754 0.000288653268,76.6740031 0.000288653268,74.7874636 L0.000288653268,3.49607092 C0.000288653268,1.61096629 1.53700649,0.0813590352 3.43454091,0.0813590352 L47.6778705,0.0813590352 C49.5739617,0.0813590352 51.1128444,1.60953139 51.1128444,3.49607092 L51.1128444,74.7874636 L51.1114012,74.7874636 Z" id="Fill-1" fill="#58595B" mask="url(#mask-2)"></path>
                </g>
                <g id="Group-6">
                    <mask id="mask-4" fill="white">
                        <use xlink:href="#path-3"></use>
                    </mask>
                    <g id="Clip-5"></g>
                    <path d="M51.1114012,75.5499888 C51.1114012,77.4480546 49.5743225,78.9885399 47.6767881,78.9885399 L3.43454091,78.9885399 C1.53844975,78.9885399 0.000288653268,77.4494994 0.000288653268,75.5499888 L0.000288653268,3.7684281 C0.000288653268,1.87036232 1.53700649,0.330238161 3.43454091,0.330238161 L47.6778705,0.330238161 C49.5739617,0.330238161 51.1128444,1.86891755 51.1128444,3.7684281 L51.1128444,75.5499888 L51.1114012,75.5499888 Z" id="Fill-4" fill="#414042" mask="url(#mask-4)"></path>
                </g>
                <path d="M47.6404494,65.3759494 C47.6404494,66.9990035 46.3158869,68.3146067 44.6803401,68.3146067 L6.55525501,68.3146067 C4.92006816,68.3146067 3.59550562,66.9990035 3.59550562,65.3759494 L3.59550562,6.53523544 C3.59550562,4.91110889 4.92006816,3.59550562 6.55525501,3.59550562 L44.6803401,3.59550562 C46.3158869,3.59550562 47.6404494,4.91110889 47.6404494,6.53523544 L47.6404494,65.3759494 Z" id="Fill-7" fill="#FED304"></path>
                <path d="M6.29213483,68.3146067 C4.8021685,68.3146067 3.59550562,66.9990035 3.59550562,65.3759494 L3.59550562,6.53523544 C3.59550562,4.91110889 4.8021685,3.59550562 6.29213483,3.59550562" id="Fill-9" fill="#C5901A"></path>
                <path d="M33.258427,75.0215822 C33.258427,75.7844431 32.5914036,76.4044944 31.7715429,76.4044944 L19.4647668,76.4044944 C18.6445515,76.4044944 17.9775281,75.7854326 17.9775281,75.0215822 L17.9775281,73.2943438 C17.9775281,72.5304934 18.6434876,71.9101124 19.4647668,71.9101124 L31.7715429,71.9101124 C32.5903398,71.9101124 33.258427,72.5291742 33.258427,73.2943438 L33.258427,75.0215822 Z" id="Fill-11" fill="#58595B"></path>
                <path d="M10.7865169,28.3146067 C10.7865169,28.5626777 10.5722769,28.7640449 10.3111047,28.7640449 L7.66678161,28.7640449 C7.40417643,28.7640449 7.19101124,28.5626777 7.19101124,28.3146067 C7.19101124,28.0665358 7.40417643,27.8651685 7.66678161,27.8651685 L10.3107465,27.8651685 C10.5722769,27.8651685 10.7865169,28.0665358 10.7865169,28.3146067" id="Fill-13" fill="#FFFFFF"></path>
                <path d="M10.7865169,30.1123596 C10.7865169,30.3604305 10.5722769,30.5617978 10.3111047,30.5617978 L7.66678161,30.5617978 C7.40417643,30.5617978 7.19101124,30.3604305 7.19101124,30.1123596 C7.19101124,29.8642886 7.40417643,29.6629213 7.66678161,29.6629213 L10.3107465,29.6629213 C10.5722769,29.6629213 10.7865169,29.8642886 10.7865169,30.1123596" id="Fill-15" fill="#FFFFFF"></path>
                <path d="M10.7865169,31.9101124 C10.7865169,32.1581833 10.5722769,32.3595506 10.3111047,32.3595506 L7.66678161,32.3595506 C7.40417643,32.3595506 7.19101124,32.1581833 7.19101124,31.9101124 C7.19101124,31.6620414 7.40417643,31.4606742 7.66678161,31.4606742 L10.3107465,31.4606742 C10.5722769,31.4606742 10.7865169,31.6620414 10.7865169,31.9101124" id="Fill-17" fill="#FFFFFF"></path>
                <path d="M12.2682633,10.246246 L11.6987053,10.246246 L11.6987053,9.91729804 L12.2682633,9.91729804 C12.3514949,9.91729804 12.4283815,9.99129122 12.4283815,10.0809677 C12.4283815,10.1710464 12.3518681,10.246246 12.2682633,10.246246 Z M11.6987053,11.1603031 L12.2917771,11.1603031 C12.4112126,11.1603031 12.5101201,11.2684779 12.5101201,11.3995745 C12.5101201,11.536301 12.4164379,11.6416609 12.2917771,11.6416609 L11.6987053,11.6416609 L11.6987053,11.1603031 Z M13.1420085,10.6620555 C13.3021267,10.4682255 13.37864,10.2603208 13.37864,10.0270814 C13.37864,9.44559151 12.9546441,8.98876404 12.4123323,8.98876404 L10.9320788,8.98876404 C10.8525796,8.98876404 10.7865169,9.05994227 10.7865169,9.14680383 L10.7865169,12.4278384 C10.7865169,12.5147 10.8540725,12.5842697 10.9320788,12.5842697 L12.4321138,12.5842697 C13.002045,12.5842697 13.4831461,12.0703388 13.4831461,11.4578843 C13.4816531,11.1446197 13.3573656,10.8542769 13.1420085,10.6620555 Z" id="Fill-19" fill="#FFFFFF"></path>
                <path d="M15.3171586,9.9171942 L15.7389241,9.9171942 C15.9377837,9.9171942 16.1068716,10.0953209 16.1068716,10.3032024 C16.1068716,10.5179195 15.9377837,10.6916232 15.7389241,10.6916232 L15.3171586,10.6916232 L15.3171586,9.9171942 Z M15.9026684,8.98876404 L14.5293541,8.98876404 C14.4457644,8.98876404 14.3820225,9.05993431 14.3820225,9.14678615 L14.3820225,12.4274538 C14.3820225,12.5143057 14.4453827,12.5842697 14.5293541,12.5842697 L15.1686819,12.5842697 C15.2484548,12.5842697 15.3160136,12.5130994 15.3160136,12.4274538 L15.3160136,11.6216617 L15.583577,11.6216617 C15.9664103,11.6216617 16.1435137,12.0104845 16.1435137,12.2754631 L16.1435137,12.4262476 C16.1435137,12.5130994 16.2095457,12.5826613 16.2919904,12.5826613 L16.9286464,12.5826613 C17.0122361,12.5826613 17.0786498,12.511491 17.0786498,12.4262476 L17.0786498,12.2396769 C17.0786498,11.9079511 16.9706321,11.500632 16.6809307,11.2489225 C16.9259745,10.9811293 17.0786498,10.6023588 17.0786498,10.2336405 C17.0797949,9.54968222 16.5511567,8.98876404 15.9026684,8.98876404 Z" id="Fill-21" fill="#FFFFFF"></path>
                <path d="M20.547555,11.6401579 L19.6496281,11.6401579 L19.6496281,11.1757418 L20.4725431,11.1757418 C20.5418579,11.1757418 20.5947144,11.1033653 20.5947144,11.0181218 L20.5947144,10.4013128 C20.5947144,10.3156673 20.5409084,10.2448991 20.4725431,10.2448991 L19.6496281,10.2448991 L19.6496281,9.93006114 L20.5276151,9.93006114 C20.5956639,9.93006114 20.6507359,9.85889088 20.6507359,9.77324531 L20.6507359,9.14678615 C20.6507359,9.05872803 20.5943978,8.98876404 20.5276151,8.98876404 L18.9976262,8.98876404 C18.932426,8.98876404 18.8764045,9.05993431 18.8764045,9.14678615 L18.8764045,12.4274538 C18.8764045,12.5143057 18.9333755,12.5842697 18.9976262,12.5842697 L20.547555,12.5842697 C20.6171863,12.5842697 20.6741573,12.5126973 20.6741573,12.4274538 L20.6741573,11.7969738 C20.6741573,11.7129366 20.6171863,11.6401579 20.547555,11.6401579" id="Fill-23" fill="#FFFFFF"></path>
                <path d="M23.819976,10.904035 L23.8989741,11.1308176 L23.7383446,11.1308176 L23.819976,10.904035 Z M23.9364982,9.07798352 C23.9164195,9.02374437 23.8696789,8.98876404 23.8196468,8.98876404 C23.7696147,8.98876404 23.7215575,9.02374437 23.7031246,9.07798352 L22.4839207,12.3696713 C22.4641711,12.4144775 22.4697668,12.4730401 22.4934663,12.5147021 C22.517824,12.5591153 22.5609438,12.5842697 22.5994554,12.5842697 L23.1800914,12.5842697 C23.2324276,12.5842697 23.2781807,12.5492893 23.2966136,12.4922989 L23.4644845,12.0175098 L24.1813923,12.0175098 L24.3410343,12.4922989 C24.3617713,12.5465381 24.4108159,12.5842697 24.4621647,12.5842697 L25.0378633,12.5842697 L25.0401674,12.5842697 C25.1102782,12.5842697 25.1685393,12.5147021 25.1685393,12.4309851 C25.1685393,12.4007212 25.1603104,12.3696713 25.1448399,12.3449099 L23.9364982,9.07798352 Z" id="Fill-25" fill="#FFFFFF"></path>
                <path d="M27.6080787,10.6072641 L28.5242675,9.23955719 C28.5568838,9.19092583 28.5642133,9.12822754 28.5370941,9.07437132 C28.5154721,9.02453422 28.464532,8.98876404 28.4099271,8.98876404 L27.7209532,8.98876404 C27.6777091,8.98876404 27.6322661,9.01448642 27.6080787,9.05829484 L26.961616,10.059056 L26.961616,9.1467155 C26.961616,9.05829484 26.8993151,8.98876404 26.8201564,8.98876404 L26.2088753,8.98876404 C26.130816,8.98876404 26.0674157,9.05990249 26.0674157,9.1467155 L26.0674157,12.4259163 C26.0674157,12.5127293 26.1322819,12.582662 26.2088753,12.582662 L26.8201564,12.582662 C26.9004145,12.582662 26.961616,12.5111217 26.961616,12.4259163 L26.961616,11.5525613 L27.051036,11.4255571 L27.7341463,12.5171503 C27.7597996,12.5601549 27.8037767,12.5842697 27.8506855,12.5842697 L28.62175,12.5842697 C28.673423,12.5842697 28.7239966,12.5513129 28.7474511,12.50027 C28.7723714,12.4476196 28.7694396,12.3849213 28.7371898,12.3350842 L27.6080787,10.6072641 Z" id="Fill-27" fill="#FFFFFF"></path>
                <path d="M31.3141465,8.98876404 L30.7057476,8.98876404 C30.6255313,8.98876404 30.5617978,9.05994227 30.5617978,9.14680383 L30.5617978,12.4278384 C30.5617978,12.5147 30.6255313,12.5842697 30.7057476,12.5842697 L31.3141465,12.5842697 C31.3958279,12.5842697 31.4606603,12.5130914 31.4606603,12.4278384 L31.4606603,9.14680383 C31.4617592,9.05994227 31.3972931,8.98876404 31.3141465,8.98876404" id="Fill-29" fill="#FFFFFF"></path>
                <path d="M35.8120864,8.98876404 L35.2405741,8.98876404 C35.1602911,8.98876404 35.0968712,9.05831645 35.0968712,9.14319396 L35.0968712,10.3637011 L34.0440273,9.04299134 C34.0168998,9.00959047 33.9776747,8.98876404 33.9347838,8.98876404 L33.3999303,8.98876404 C33.3196473,8.98876404 33.258427,9.05831645 33.258427,9.14319396 L33.258427,12.3492847 C33.258427,12.4341622 33.3207471,12.5021428 33.3999303,12.5021428 L33.974742,12.5021428 C34.0528255,12.5021428 34.116612,12.4325904 34.116612,12.3492847 L34.116612,10.4886597 L35.705409,12.5300424 C35.7325366,12.565015 35.773228,12.5842697 35.8120864,12.5842697 C35.8315157,12.5842697 35.8458126,12.581519 35.8626757,12.5760177 C35.9198636,12.5540124 35.9550562,12.4966415 35.9550562,12.4329834 L35.9550562,9.14319396 C35.9550562,9.05831645 35.8938358,8.98876404 35.8120864,8.98876404" id="Fill-31" fill="#FFFFFF"></path>
                <path d="M40.4262267,10.5199416 C40.4155722,10.4466814 40.3508843,10.3933663 40.2804886,10.3933663 L38.6069746,10.3933663 C38.526305,10.3933663 38.4627587,10.460106 38.4627587,10.544106 L38.4627587,11.1309551 C38.4627587,11.2138044 38.5274466,11.2790098 38.6069746,11.2790098 L39.3455582,11.2790098 C39.2123773,11.4884344 38.9802619,11.666407 38.64769,11.666407 C38.1826981,11.666407 37.8185433,11.283229 37.8185433,10.7903525 C37.8185433,10.2959417 38.1838397,9.90701031 38.64769,9.90701031 C38.9182376,9.90701031 39.1701399,10.0378048 39.3200636,10.2549006 C39.3428946,10.288654 39.3767606,10.310517 39.4159539,10.3201061 C39.4559082,10.3270102 39.4966235,10.3158869 39.5289675,10.2917225 L40.0506563,9.90470894 C40.0830003,9.880161 40.1027872,9.84602403 40.1096365,9.80690075 C40.1164858,9.76739392 40.1054508,9.72788708 40.0830003,9.69528435 C39.7431986,9.23347629 39.2485264,8.98876404 38.64769,8.98876404 C37.6587261,8.98876404 36.8539326,9.79577747 36.8539326,10.7903525 C36.8539326,11.7776398 37.6587261,12.5842697 38.64769,12.5842697 C39.6408395,12.5842697 40.4494382,11.7761056 40.4494382,10.7903525 C40.4479161,10.6979141 40.4395448,10.6108457 40.4262267,10.5199416" id="Fill-33" fill="#FFFFFF"></path>
                <path d="M17.692479,14.3820225 L16.5348835,14.3820225 C16.3749599,14.3820225 16.2494642,14.5054098 16.2494642,14.6596439 L16.2494642,19.0986831 L12.4305468,14.4821839 C12.3727966,14.4179499 12.2928347,14.3820225 12.2076902,14.3820225 L11.0682342,14.3820225 C10.9134933,14.3820225 10.7865169,14.5054098 10.7865169,14.6596439 L10.7865169,22.9516326 C10.7865169,23.1058667 10.9134933,23.2317944 11.0682342,23.2317944 L12.2313826,23.2317944 C12.3887149,23.2317944 12.5156913,23.1058667 12.5156913,22.9516326 L12.5156913,17.4627128 L17.4751753,23.2731654 C17.5314448,23.3373994 17.6099258,23.3707865 17.6928492,23.3707865 C17.726907,23.3707865 17.7598542,23.3667946 17.7928015,23.3540929 C17.9001576,23.3141735 17.9775281,23.2089314 17.9775281,23.0931651 L17.9775281,14.6596439 C17.9771579,14.5054098 17.8498113,14.3820225 17.692479,14.3820225" id="Fill-35" fill="#FFFFFF"></path>
                <path d="M23.9954659,21.5996469 L20.6190789,21.5996469 L20.6190789,19.3150426 L23.7581869,19.3150426 C23.9119523,19.3150426 24.0374019,19.1897174 24.0374019,19.0319552 L24.0374019,17.8741717 C24.0374019,17.7200954 23.9119523,17.5947703 23.7581869,17.5947703 L20.6190789,17.5947703 L20.6190789,16.1258855 L23.9244972,16.1258855 C24.0768289,16.1258855 24.1997696,15.9979801 24.1997696,15.8402178 L24.1997696,14.6640041 C24.1997696,14.5073476 24.0768289,14.3820225 23.9244972,14.3820225 L19.1502431,14.3820225 C19.0007788,14.3820225 18.8764045,14.5073476 18.8764045,14.6640041 L18.8764045,23.0862246 C18.8764045,23.2428811 19.0007788,23.3707865 19.1502431,23.3707865 L23.9954659,23.3707865 C24.1442133,23.3707865 24.2696629,23.2428811 24.2696629,23.0862246 L24.2696629,21.8816285 C24.2696629,21.7275523 24.1452886,21.5996469 23.9954659,21.5996469" id="Fill-37" fill="#FFFFFF"></path>
                <path d="M33.8717865,14.3820225 L32.5731427,14.3820225 C32.4568796,14.3820225 32.351423,14.4491543 32.3052159,14.5543879 L30.3693609,19.1897466 L28.4335059,14.5543879 C28.3884167,14.4491543 28.2829601,14.3820225 28.1696781,14.3820225 L26.8669352,14.3820225 C26.7734031,14.3820225 26.6821067,14.4259303 26.6269563,14.5028597 C26.5755322,14.5797891 26.5662163,14.6763137 26.6016169,14.7623149 L28.2497953,18.755023 L28.0612404,19.1959155 L26.1212864,14.5543879 C26.0776877,14.4491543 25.9737217,14.3820225 25.8585765,14.3820225 L24.5535978,14.3820225 C24.4600656,14.3820225 24.3713778,14.4259303 24.3184632,14.5028597 C24.2674117,14.5797891 24.2539968,14.6763137 24.28977,14.7648551 L27.7921957,23.1976954 C27.8357943,23.3043805 27.9423688,23.3707865 28.0571414,23.3707865 C28.1719139,23.3707865 28.2788611,23.3040176 28.3235776,23.1976954 L29.2160459,21.0618161 L30.1029246,23.1976954 C30.1476412,23.3043805 30.2516072,23.3707865 30.3693609,23.3707865 C30.481525,23.3707865 30.5892174,23.3040176 30.6357971,23.1976954 L34.1367322,14.7648551 C34.171015,14.6763137 34.1631895,14.5787004 34.1076665,14.5028597 C34.0551245,14.4255674 33.9679272,14.3820225 33.8717865,14.3820225" id="Fill-39" fill="#FFFFFF"></path>
                <path d="M37.9348809,17.9791497 L36.7665256,17.9791497 C36.2733593,17.9791497 35.8738145,17.5564136 35.8738145,17.0341667 C35.8738145,16.515974 36.2723152,16.0891837 36.7665256,16.0891837 L39.1589218,16.0891837 C39.3075329,16.0891837 39.4286493,15.9638739 39.4286493,15.8061311 L39.4286493,14.6639694 C39.4286493,14.5073322 39.3075329,14.3820225 39.1589218,14.3820225 L36.6283555,14.3820225 C35.2664926,14.3820225 34.1573034,15.5580914 34.1573034,17.0094733 C34.1573034,18.466015 35.2873747,19.6992105 36.6283555,19.6992105 L37.7326722,19.6992105 C38.2738675,19.6992105 38.6880297,20.1105214 38.6880297,20.6559874 C38.6880297,21.192608 38.2738675,21.5983905 37.7326722,21.5983905 L34.8533744,21.5983905 C34.7082436,21.5983905 34.5874753,21.7262802 34.5874753,21.8814431 L34.5874753,23.0862596 C34.5874753,23.2428968 34.7082436,23.3707865 34.8533744,23.3707865 L37.9334887,23.3707865 C39.3200622,23.3707865 40.4494375,22.1464364 40.4494375,20.6441935 C40.4504816,19.1747523 39.3211063,17.9791497 37.9348809,17.9791497" id="Fill-41" fill="#FFFFFF"></path>
                <path d="M26.3060917,14.5401191 C26.2581442,14.4432641 26.1438078,14.3820225 26.0171772,14.3820225 L24.5820302,14.3820225 C24.4791684,14.3820225 24.3816342,14.4222955 24.3234415,14.4928565 C24.266888,14.5634175 24.2525447,14.6519517 24.2918863,14.7331634 L25.4627072,17.0786517 L26.9662921,15.8588114 L26.3060917,14.5401191 Z" id="Fill-43" fill="#FFFFFF"></path>
                <path d="M28.6025185,14.3820225 L27.26158,14.3820225 C27.1648943,14.3820225 27.071278,14.4114739 27.0141107,14.4630747 C26.9611638,14.5146755 26.9515719,14.5794199 26.9884046,14.6371057 L27.3970167,15.2808989 L28.7640449,14.4112305 C28.7168531,14.3932189 28.6608368,14.3820225 28.6025185,14.3820225" id="Fill-45" fill="#FFFFFF"></path>
                <path d="M23.8222825,17.5945334 L20.6419595,17.5945334 L20.6419595,16.125957 L23.9907764,16.125957 C24.1451081,16.125957 24.2696629,15.9980463 24.2696629,15.839909 L24.2696629,14.6640157 C24.2696629,14.5073528 24.1451081,14.3820225 23.9907764,14.3820225 L19.1542016,14.3820225 C19.0027749,14.3820225 18.8764045,14.5073528 18.8764045,14.6640157 L18.8764045,23.086213 C18.8764045,23.2428759 19.0027749,23.3707865 19.1542016,23.3707865 L19.7123378,23.3707865 L21.4546522,21.5995742 L20.6419595,21.5995742 L20.6419595,19.3148763 L23.7042641,19.3148763 L24.1051635,18.9116076 L24.1051635,17.8739463 C24.1051635,17.7198637 23.9780667,17.5945334 23.8222825,17.5945334" id="Fill-47" fill="#FFFFFF"></path>
                <path d="M43.1460674,40.8988764 C43.1460674,41.1469473 42.9305216,41.3483146 42.6649837,41.3483146 L9.46984772,41.3483146 C9.20430982,41.3483146 8.98876404,41.1469473 8.98876404,40.8988764 C8.98876404,40.6508055 9.20430982,40.4494382 9.46984772,40.4494382 L42.6649837,40.4494382 C42.9319707,40.4494382 43.1460674,40.6508055 43.1460674,40.8988764" id="Fill-49" fill="#FFFFFF"></path>
                <path d="M43.1460674,45.3932584 C43.1460674,45.6413294 42.9305216,45.8426966 42.6649837,45.8426966 L9.46984772,45.8426966 C9.20430982,45.8426966 8.98876404,45.6413294 8.98876404,45.3932584 C8.98876404,45.1451875 9.20430982,44.9438202 9.46984772,44.9438202 L42.6649837,44.9438202 C42.9319707,44.9438202 43.1460674,45.1451875 43.1460674,45.3932584" id="Fill-51" fill="#FFFFFF"></path>
                <path d="M43.1460674,50.7865169 C43.1460674,51.0345878 42.9305216,51.2359551 42.6649837,51.2359551 L9.46984772,51.2359551 C9.20430982,51.2359551 8.98876404,51.0345878 8.98876404,50.7865169 C8.98876404,50.5384459 9.20430982,50.3370787 9.46984772,50.3370787 L42.6649837,50.3370787 C42.9319707,50.3370787 43.1460674,50.5384459 43.1460674,50.7865169" id="Fill-53" fill="#FFFFFF"></path>
                <path d="M43.1460674,56.1797753 C43.1460674,56.4278462 42.9305216,56.6292135 42.6649837,56.6292135 L9.46984772,56.6292135 C9.20430982,56.6292135 8.98876404,56.4278462 8.98876404,56.1797753 C8.98876404,55.9317043 9.20430982,55.7303371 9.46984772,55.7303371 L42.6649837,55.7303371 C42.9319707,55.7303371 43.1460674,55.9317043 43.1460674,56.1797753" id="Fill-55" fill="#FFFFFF"></path>
                <path d="M43.1460674,61.5730337 C43.1460674,61.8211046 42.9305216,62.0224719 42.6649837,62.0224719 L9.46984772,62.0224719 C9.20430982,62.0224719 8.98876404,61.8211046 8.98876404,61.5730337 C8.98876404,61.3249628 9.20430982,61.1235955 9.46984772,61.1235955 L42.6649837,61.1235955 C42.9319707,61.1235955 43.1460674,61.3249628 43.1460674,61.5730337" id="Fill-57" fill="#FFFFFF"></path>
            </g>
        </g>
    </g>
</svg>