<?xml version="1.0" encoding="UTF-8"?>
<svg width="80px" height="80px" viewBox="0 0 80 80" version="1.1" xmlns="http://www.w3.org/2000/svg" xmlns:xlink="http://www.w3.org/1999/xlink">
    <!-- Generator: Sketch 51.3 (57544) - http://www.bohemiancoding.com/sketch -->
    <title>Group 6</title>
    <desc>Created with Sketch.</desc>
    <defs>
        <polygon id="path-1" points="4.70588235e-05 0 79.998902 0 79.998902 80 4.70588235e-05 80"></polygon>
    </defs>
    <g id="Page-1" stroke="none" stroke-width="1" fill="none" fill-rule="evenodd">
        <g id="Index-Opsi-1" transform="translate(-329.000000, -3462.000000)">
            <g id="Group-6" transform="translate(329.000000, 3462.000000)">
                <g id="Group-3">
                    <mask id="mask-2" fill="white">
                        <use xlink:href="#path-1"></use>
                    </mask>
                    <g id="Clip-2"></g>
                    <path d="M70.8080471,76.875 L60.6231059,76.875 L60.6231059,67.8717188 C60.6231059,67.00875 59.9208314,66.3092188 59.0544784,66.3092188 C58.1884392,66.3092188 57.485851,67.00875 57.485851,67.8717188 L57.485851,76.875 L21.2943216,76.875 L21.2943216,52.6651563 L27.7300863,52.6651563 L38.5089098,52.6651563 L57.485851,52.6651563 L57.485851,54.1078125 C57.485851,54.9707813 58.1884392,55.6703125 59.0544784,55.6703125 C59.9208314,55.6703125 60.6231059,54.9707813 60.6231059,54.1078125 L60.6231059,52.6651563 L60.9286745,52.6651563 L66.0651451,52.6651563 C68.6803608,52.6651563 70.8078902,54.784375 70.8078902,57.389375 L70.8080471,76.875 Z M19.4204392,49.5401562 L19.4204392,42.815625 L26.1617725,42.815625 L26.1617725,49.5401562 L19.7260078,49.5401562 L19.4204392,49.5401562 Z M36.9404392,44.47125 L36.9404392,49.5401562 L29.2988706,49.5401562 L29.2988706,42.815625 L35.2783216,42.815625 C36.1948706,42.815625 36.9404392,43.5582813 36.9404392,44.47125 Z M16.7768314,35.8979688 L16.7768314,23.940625 C17.7004392,24.4701562 18.7696157,24.7746875 19.9096941,24.7746875 L20.1278902,24.7746875 C22.0127529,24.7746875 23.7057725,23.9451562 24.8616941,22.6345312 C26.0174588,23.945 27.7104784,24.7745313 29.5953412,24.7745313 L29.8135373,24.7745313 C31.6984,24.7745313 33.3914196,23.945 34.5473412,22.634375 C35.7032627,23.9448438 37.3962824,24.7745313 39.2811451,24.7745313 L39.4993412,24.7745313 C41.3842039,24.7745313 43.0772235,23.945 44.2331451,22.634375 C45.3890667,23.945 47.0820863,24.7745313 48.966949,24.7745313 L49.1848314,24.7745313 C51.069851,24.7745313 52.7628706,23.945 53.9187922,22.634375 C55.0747137,23.945 56.7677333,24.7745313 58.6525961,24.7745313 L58.8704784,24.7745313 C60.0107137,24.7745313 61.0797333,24.47 62.0036549,23.9404688 L62.0036549,35.8978125 C60.4560471,36.5189063 59.3602039,38.0290625 59.3602039,39.7904688 L59.3602039,49.5403125 L59.0547922,49.5403125 L40.0775373,49.5403125 L40.0775373,44.4714063 C40.0775373,41.8353125 37.9244392,39.6907812 35.2781647,39.6907812 L27.7300863,39.6907812 L19.4176157,39.6907812 C19.3769882,37.9725 18.294949,36.5071875 16.7768314,35.8979688 Z M18.1570667,76.875 L7.97228235,76.875 L7.97228235,57.389375 C7.97228235,54.7845313 10.0998118,52.6651563 12.7148706,52.6651563 L17.851498,52.6651563 L18.1569098,52.6651563 L18.1569098,76.875 L18.1570667,76.875 Z M14.1333804,39.7903125 C14.1333804,39.2 14.6152627,38.7196875 15.2082039,38.7196875 C15.8009882,38.7196875 16.2830275,39.2 16.2830275,39.7903125 L16.2830275,41.253125 L16.2830275,49.5401562 L14.1333804,49.5401562 L14.1333804,39.7903125 Z M16.7443608,3.125 L23.2929098,3.125 L23.2929098,18.4965625 C23.2929098,20.235 21.8729882,21.649375 20.1277333,21.649375 L19.9095373,21.649375 C18.3095373,21.649375 16.9865569,20.4595312 16.7766745,18.9221875 L16.7766745,17.750625 C16.7766745,17.6421875 16.7655373,17.53625 16.7443608,17.4339062 L16.7443608,3.125 Z M26.4301647,3.125 L32.9787137,3.125 L32.9787137,18.4965625 C32.9787137,20.235 31.5587922,21.649375 29.8135373,21.649375 L29.5953412,21.649375 C27.8500863,21.649375 26.4301647,20.235 26.4301647,18.4965625 L26.4301647,3.125 Z M36.1158118,3.125 L42.6643608,3.125 L42.6643608,18.4965625 C42.6643608,20.235 41.2444392,21.649375 39.4991843,21.649375 L39.2809882,21.649375 C37.5357333,21.649375 36.1158118,20.235 36.1158118,18.4965625 L36.1158118,3.125 Z M45.801302,3.125 L45.8014588,3.125 L52.349851,3.125 L52.349851,18.4965625 C52.349851,20.235 50.9297725,21.649375 49.1845176,21.649375 L48.9666353,21.649375 C47.2212235,21.649375 45.801302,20.235 45.801302,18.4965625 L45.801302,3.125 Z M55.486949,3.125 L62.035498,3.125 L62.035498,17.4348438 C62.0143216,17.536875 62.0033412,17.6426563 62.0033412,17.7509375 L62.0033412,18.9214063 C61.7940863,20.4592188 60.4706353,21.6495313 58.8701647,21.6495313 L58.6522824,21.6495313 C56.9068706,21.6495313 55.486949,20.2351563 55.486949,18.4967188 L55.486949,3.125 Z M62.497302,39.7903125 C62.497302,39.2 62.9793412,38.7196875 63.5721255,38.7196875 C64.1647529,38.7196875 64.6467922,39.2 64.6467922,39.7903125 L64.6467922,49.5401562 L62.497302,49.5401562 L62.497302,39.7903125 Z M13.6074196,18.4965625 C13.6074196,20.2351563 12.187498,21.6495313 10.4422431,21.6495313 C9.56945882,21.6495313 8.75722353,21.3035938 8.15424314,20.6753125 C7.55126275,20.0470313 7.24098824,19.2229688 7.28036078,18.3546875 L7.82796863,6.24359375 C7.90702745,4.49484375 9.34561569,3.125 11.102949,3.125 L13.6074196,3.125 L13.6074196,18.4965625 Z M65.1727529,3.125 L67.6772235,3.125 C69.4345569,3.125 70.8731451,4.49484375 70.9522039,6.24359375 L71.4999686,18.3546875 C71.5393412,19.2229687 71.2287529,20.0470312 70.6259294,20.6753125 C70.022949,21.3034375 69.2104,21.649375 68.3380863,21.649375 C66.5926745,21.649375 65.1727529,20.235 65.1727529,18.4965625 L65.1727529,3.125 Z M78.4301647,76.875 L73.945302,76.875 L73.945302,57.389375 C73.945302,53.649375 71.3049882,50.5142187 67.7842039,49.7304688 L67.7842039,39.7903125 C67.7842039,38.0290625 66.6883608,36.51875 65.1407529,35.8976562 L65.1407529,23.9032812 C66.0787922,24.4557813 67.171498,24.774375 68.3382431,24.774375 C70.0753412,24.774375 71.6933804,24.0854687 72.8936941,22.8346875 C74.0940078,21.5839062 74.7125176,19.9428125 74.6344,18.2140625 L74.0864784,6.10296875 C73.9318118,2.68078125 71.1164392,0 67.6773804,0 L63.6041255,0 L53.9184784,0 L44.2328314,0 L34.5471843,0 L24.8615373,0 L15.1758902,0 L11.102949,0 C7.66357647,0 4.84851765,2.68078125 4.69369412,6.10296875 L4.14608627,18.2140625 C4.06796863,19.9428125 4.68585098,21.58375 5.88647843,22.8345313 C7.08694902,24.0854687 8.70498824,24.774375 10.4422431,24.774375 C11.6086745,24.774375 12.7015373,24.4557813 13.6397333,23.9032812 L13.6397333,35.8976562 C12.0919686,36.51875 10.9961255,38.0290625 10.9961255,39.7903125 L10.9961255,49.7304688 C7.47534118,50.5140625 4.83502745,53.649375 4.83502745,57.389375 L4.83502745,76.875 L1.56867451,76.875 C0.702478431,76.875 4.70588235e-05,77.5745312 4.70588235e-05,78.4375 C4.70588235e-05,79.3004688 0.702478431,80 1.56867451,80 L6.40381176,80 L19.725851,80 L59.0546353,80 L72.3768314,80 L78.4303216,80 C79.2963608,80 79.998949,79.3004688 79.998949,78.4375 C79.998949,77.5745312 79.2963608,76.875 78.4301647,76.875 Z" id="Fill-1" fill="#C5901A" mask="url(#mask-2)"></path>
                </g>
                <path d="M60.502902,60.3921563 C60.4636863,60.2984063 60.414902,60.2077813 60.3585882,60.122 C60.3021176,60.0374688 60.2362353,59.9562188 60.1640784,59.8843438 C60.0919216,59.8124688 60.0119216,59.7468438 59.9256471,59.6905938 C59.8409412,59.6343438 59.7499608,59.5859063 59.6542745,59.5468438 C59.5601569,59.5077813 59.4613333,59.4780938 59.3609412,59.4579375 C59.1585882,59.4171563 58.9499608,59.4171563 58.7476078,59.4579375 C58.6487843,59.4780938 58.5499608,59.5077813 58.4542745,59.5468438 C58.3601569,59.5859063 58.2691765,59.6343438 58.1844706,59.6905938 C58.0981961,59.7468438 58.0181961,59.8124688 57.9460392,59.8843438 C57.8738824,59.9562188 57.808,60.0374688 57.7499608,60.122 C57.6934902,60.2077813 57.6448627,60.2984063 57.6056471,60.3921563 C57.5664314,60.4860625 57.5366275,60.5843438 57.5162353,60.6843438 C57.4958431,60.7860625 57.4865882,60.8874688 57.4865882,60.9890313 C57.4865882,61.0921563 57.496,61.1937188 57.5162353,61.2952813 C57.5366275,61.3952813 57.5664314,61.4937188 57.6056471,61.5874688 C57.6448627,61.6812188 57.6934902,61.7718438 57.7499608,61.8577813 C57.808,61.9421563 57.8738824,62.022 57.9460392,62.0952813 C58.0181961,62.1671563 58.0981961,62.231375 58.1844706,62.2891875 C58.2691765,62.3452813 58.3601569,62.393875 58.4542745,62.4329375 C58.5499608,62.472 58.6487843,62.5015313 58.7476078,62.5218438 C58.8495686,62.5421563 58.9532549,62.5515313 59.0552157,62.5515313 C59.1570196,62.5515313 59.2607059,62.5421563 59.3609412,62.5218438 C59.4613333,62.5015313 59.5603137,62.472 59.6542745,62.4329375 C59.7499608,62.393875 59.8409412,62.3452813 59.9256471,62.2891875 C60.0119216,62.231375 60.0919216,62.1671563 60.1640784,62.0952813 C60.2362353,62.022 60.3021176,61.9421563 60.3585882,61.8577813 C60.414902,61.7718438 60.4636863,61.6812188 60.502902,61.5874688 C60.5421176,61.4937188 60.5717647,61.3952813 60.5923137,61.2952813 C60.6127059,61.1937188 60.6235294,61.0921563 60.6235294,60.9890313 C60.6235294,60.8874688 60.6127059,60.7860625 60.5923137,60.6843438 C60.5716078,60.5843438 60.5421176,60.4860625 60.502902,60.3921563" id="Fill-4" fill="#C5901A"></path>
            </g>
        </g>
    </g>
</svg>