<?xml version="1.0" encoding="UTF-8"?>
<svg width="80px" height="44px" viewBox="0 0 80 44" version="1.1" xmlns="http://www.w3.org/2000/svg" xmlns:xlink="http://www.w3.org/1999/xlink">
    <!-- Generator: Sketch 51.3 (57544) - http://www.bohemiancoding.com/sketch -->
    <title>Group 10</title>
    <desc>Created with Sketch.</desc>
    <defs>
        <polygon id="path-1" points="0.124970734 0.0411119268 39.2073335 0.0411119268 39.2073335 43.8103613 0.124970734 43.8103613"></polygon>
    </defs>
    <g id="Page-1" stroke="none" stroke-width="1" fill="none" fill-rule="evenodd">
        <g id="Index-Opsi-1" transform="translate(-782.000000, -3480.000000)">
            <g id="Group-10" transform="translate(782.000000, 3480.000000)">
                <g id="Group-3" transform="translate(39.842060, 0.117621)">
                    <mask id="mask-2" fill="white">
                        <use xlink:href="#path-1"></use>
                    </mask>
                    <g id="Clip-2"></g>
                    <path d="M19.6631362,37.7904006 L16.5143435,35.235588 L16.6891089,34.684466 C18.6453382,35.0882835 20.667918,35.0509812 22.6081152,34.5752574 L22.8019286,35.2263815 L19.6631362,37.7904006 Z M9.16118177,21.5218238 L9.16118177,16.0631441 C11.3813846,15.9317129 15.09749,15.1066172 18.2816802,11.3006687 L29.6185718,11.3006687 L29.6185718,21.5218238 C29.6185718,27.1708248 25.0387984,31.7505982 19.3897974,31.7505982 C13.7409552,31.7505982 9.16118177,27.1708248 9.16118177,21.5218238 Z M12.149495,5.8027818 C12.2071152,7.66551717 13.1841187,9.3784083 14.7581182,10.3763646 C13.2169765,11.8022659 11.251382,12.6851406 9.16118177,12.8894303 L9.16118177,9.79095617 C9.16118177,9.25872339 9.8084962,6.71708566 12.149495,5.8027818 Z M17.7538919,3.21273041 L26.0516756,3.21273041 C29.0269728,3.20907955 31.6200401,5.23911982 32.3306891,8.1288597 L17.7538919,8.1288597 C16.3959285,8.1288597 15.2957479,7.02804421 15.2957479,5.67087442 C15.2957479,4.31291097 16.3959285,3.21273041 17.7538919,3.21273041 Z M29.5244429,34.1366773 L25.8069089,34.1366773 L25.5535705,33.4231711 C30.0044525,31.1248715 32.7976825,26.5314471 32.790222,21.5218238 L32.790222,11.3006687 L34.112153,11.3006687 C34.9907419,11.2944781 35.6993274,10.5795432 35.6982162,9.70111312 C35.6937717,4.37307089 31.3797179,0.0534613782 26.0516756,0.0410801802 L17.7538919,0.0410801802 C15.9579833,0.0380642473 14.2698546,0.895382845 13.2131669,2.34668148 C8.24624298,2.76240402 6.32144289,7.089474 5.99619834,9.45650509 C5.98889661,9.52634774 5.98699181,9.59698407 5.98937281,9.66698546 L5.98937281,21.5211889 C5.99254747,26.7117681 8.99197206,31.434084 13.6895256,33.6417469 L13.514284,34.1366773 L9.80786127,34.1366773 C4.46870771,34.1366773 0.124970734,38.5770829 0.124970734,43.8103613 L3.2967797,43.8103613 C3.2967797,40.3215619 6.21747257,37.3084863 9.80786127,37.3084863 L14.1163595,37.3084863 L18.6670847,41.0333221 C19.2542392,41.5022203 20.0904462,41.4941249 20.6691879,41.0134804 L25.1868966,37.3084863 L29.5244429,37.3084863 C33.1148316,37.3084863 36.035842,40.3215619 36.035842,43.8103613 L39.2073335,43.8103613 C39.2073335,38.5770829 34.8637552,34.1366773 29.5244429,34.1366773 Z" id="Fill-1" fill="#C5901A" mask="url(#mask-2)"></path>
                </g>
                <path d="M56.2981329,15.8988075 C55.4220838,15.8988075 54.7123872,16.6094565 54.7123872,17.484712 L54.7123872,17.9907538 C54.6912756,18.2372666 54.4842874,18.4275878 54.2366634,18.4275878 C53.988722,18.4275878 53.7817338,18.2372666 53.760781,17.9907538 L53.760781,17.484712 C53.760781,16.6094565 53.0509256,15.8988075 52.1748765,15.8988075 C51.2989861,15.8988075 50.5891307,16.6094565 50.5891307,17.484712 L50.5891307,17.9907538 C50.5891307,20.0053969 52.2220203,21.6382865 54.2366634,21.6382865 C56.2509891,21.6382865 57.8838786,20.0053969 57.8838786,17.9907538 L57.8838786,17.484712 C57.8838786,16.6094565 57.174182,15.8988075 56.2981329,15.8988075" id="Fill-4" fill="#C5901A" transform="translate(54.236505, 18.768547) scale(1, -1) translate(-54.236505, -18.768547) "></path>
                <path d="M67.8749023,18.0111669 L67.8749023,17.4846485 C67.8749023,16.609393 67.1648882,15.898744 66.2889978,15.898744 C65.4131074,15.898744 64.7030933,16.609393 64.7030933,17.4846485 L64.7030933,17.990849 C64.7180142,18.1413282 64.6462668,18.2875216 64.5172166,18.3679994 C64.3884839,18.4478422 64.2254648,18.4478422 64.0967321,18.3679994 C63.9678406,18.2875216 63.8952995,18.1413282 63.9102204,17.990849 L63.9102204,17.4846485 C63.9102204,16.609393 63.2002064,15.898744 62.3244747,15.898744 C61.4484256,15.898744 60.7385702,16.609393 60.7385702,17.4846485 L60.7385702,17.990849 C60.7217445,19.96692 62.3101887,21.5825076 64.2862596,21.5991746 C66.2828072,21.5936189 67.8804579,19.9873966 67.8749023,18.0111669 Z" id="Fill-6" fill="#C5901A" transform="translate(64.306677, 18.748959) scale(1, -1) translate(-64.306677, -18.748959) "></path>
                <path d="M28.3872775,40.7563801 L28.3872775,31.7466775 C28.3798171,30.8609457 27.6663108,30.1436298 26.7804202,30.1310899 L14.1395345,30.1310899 C13.253009,30.1436298 12.5387091,30.8603107 12.5288676,31.7466775 L12.5288676,40.7563801 L5.86825929,40.7563801 L5.86825929,24.205893 C6.33969722,24.082081 6.78891248,23.8863628 7.20082541,23.625564 C8.19513086,25.0768626 9.7932578,25.9992619 11.5475783,26.1349789 C13.3012639,26.2706958 15.0222504,25.604016 16.2283061,24.3230382 C18.4262862,26.6602274 22.1027084,26.7730868 24.4400564,24.5744717 C24.538471,24.4822477 24.6333935,24.3855791 24.7249826,24.2858946 C25.9242128,25.5830632 27.6475803,26.2645052 29.4088851,26.1379948 C31.1706661,26.0116431 32.7792694,25.0905137 33.7804004,23.6360404 C34.1707256,23.8876327 34.5986706,24.0758904 35.0478859,24.1935118 L35.0478859,40.7563801 L28.3872775,40.7563801 Z M15.7005179,40.7563801 L25.2156273,40.7563801 L25.2156273,33.3027401 L15.7005179,33.3027401 L15.7005179,40.7563801 Z M3.17233278,18.0471993 C3.17233278,18.024818 3.14264966,18.0038652 3.15503085,17.9857696 L7.21622254,12.1194627 C7.23669914,12.0908907 7.25098514,12.0524772 7.28622393,12.0524772 L9.19864283,12.0524772 L9.19864283,16.6062184 C9.1918173,17.4895692 9.89421219,18.2149805 10.777563,18.2373619 L30.1893768,18.2373619 C31.0652672,18.2373619 31.7175023,17.4821088 31.7175023,16.6062184 L31.7175023,12.0524772 L34.350253,12.0524772 C34.3881902,12.0524772 34.423429,12.0940654 34.4426358,12.1262882 L37.870799,17.9114824 C37.8855612,17.9306891 37.8961964,17.9529118 37.902387,17.976563 L37.902387,19.6299292 C37.8955614,20.4240719 37.2984067,21.0899581 36.5091847,21.1828171 C35.7199627,21.2764698 34.98471,20.7691581 34.7920078,19.997873 L34.7362924,19.4743705 C34.6526399,18.6326078 33.924054,18.0045001 33.0791166,18.0459295 C32.2341792,18.0868827 31.5701978,18.7837219 31.568928,19.6292942 C31.568928,19.8975535 31.5911506,20.1651779 31.6363896,20.4296276 C31.5819441,21.8729895 30.3801742,23.0060279 28.9361773,22.9757098 C27.4915455,22.9447568 26.3393004,21.7614 26.3467608,20.3169269 C26.3480307,19.4372269 25.6399214,18.7218159 24.7608564,18.7130856 L24.6914899,18.7130856 C23.8119486,18.7218159 23.1044743,19.4372269 23.1057442,20.3169269 C23.1192365,21.2647235 22.624941,22.1480744 21.8092105,22.6312586 C20.9933213,23.1144427 19.9817139,23.1242842 19.1566182,22.6572908 C18.3313637,22.1901387 17.8197663,21.317423 17.8148455,20.3689914 L17.8148455,20.330578 C17.8142106,19.4545289 17.1030854,18.7453084 16.2270363,18.7459434 C15.3517808,18.7472132 14.6425604,19.4577035 14.6431953,20.3335939 C14.6474811,21.7880672 13.4760293,22.9731701 12.0213972,22.9861862 C10.5669239,22.9992024 9.37515427,21.835211 9.35277287,20.3813726 L9.36467787,20.2053374 C9.38753547,20.013905 9.39928173,19.8219965 9.39928173,19.6292942 C9.39928173,18.7737217 8.72085557,18.0725967 7.86607671,18.0440247 C7.01113911,18.0162464 6.28763269,18.6703863 6.23128237,19.5238953 L6.2071549,19.8813627 C6.09620032,20.6829659 5.37761464,21.2585329 4.5706145,21.1915475 C3.76393182,21.1247207 3.15011012,20.4388341 3.17233278,19.6299292 L3.17233278,18.0471993 Z M12.3702931,15.0657116 L28.5458521,15.0657116 L28.5458521,7.92937955 L12.3702931,7.92937955 L12.3702931,15.0657116 Z M38.2195361,42.3465704 L38.2195361,23.9593801 C39.8054406,23.2222227 41.0740372,21.5594913 41.0740372,19.6299292 L41.0740372,17.976563 C41.0678466,17.3886149 40.9048275,16.8132066 40.6013294,16.3089109 L37.1818965,10.5143515 C36.5890276,9.51147443 35.5148793,8.89193833 34.350253,8.880827 L31.7175023,8.880827 L31.7175023,6.27728328 C31.7386139,5.45948928 31.0924106,4.77868212 30.2747753,4.75757059 L30.189853,4.75757059 L10.777563,4.75757059 C9.93580031,4.72788746 9.22959583,5.38583702 9.1999127,6.22696482 C9.19927776,6.24379055 9.19864283,6.26045755 9.19864283,6.27728328 L9.19864283,8.880827 L7.28574773,8.880827 C6.2114407,8.88955733 5.20792873,9.42036152 4.59648803,10.3043473 L0.554503066,16.1595428 C0.180368658,16.717173 -0.0129685113,17.3755987 0.000682553225,18.0471993 L0.000682553225,19.6299292 C-0.00804777873,21.4666323 1.04133812,23.1436497 2.69660906,23.9389035 L2.69660906,42.3465704 C2.69899006,43.2224608 3.41090895,43.9304113 4.28679934,43.9278716 L36.6329967,43.9278716 C37.507141,43.9297764 38.2176313,43.2230957 38.2195361,42.3489514 L38.2195361,42.3465704 Z" id="Fill-8" fill="#C5901A"></path>
            </g>
        </g>
    </g>
</svg>