<?xml version="1.0" encoding="UTF-8"?>
<svg width="36px" height="39px" viewBox="0 0 36 39" version="1.1" xmlns="http://www.w3.org/2000/svg" xmlns:xlink="http://www.w3.org/1999/xlink">
    <!-- Generator: Sketch 51.3 (57544) - http://www.bohemiancoding.com/sketch -->
    <title>Group 45</title>
    <desc>Created with Sketch.</desc>
    <defs>
        <polygon id="path-1" points="3.125e-05 0.050015625 29.9953438 0.050015625 29.9953438 38.984375 3.125e-05 38.984375"></polygon>
        <polygon id="path-3" points="0.005265625 0.050015625 26.9483906 0.050015625 26.9483906 38.984375 0.005265625 38.984375"></polygon>
        <polygon id="path-5" points="0 39.0125 40 39.0125 40 0.078125 0 0.078125"></polygon>
    </defs>
    <g id="Page-1" stroke="none" stroke-width="1" fill="none" fill-rule="evenodd">
        <g id="Index-Opsi-1" transform="translate(-643.000000, -1777.000000)">
            <g id="Group-45" transform="translate(643.000000, 1777.000000)">
                <g id="Group-3" transform="translate(0.000000, 0.028125)">
                    <mask id="mask-2" fill="white">
                        <use xlink:href="#path-1"></use>
                    </mask>
                    <g id="Clip-2"></g>
                    <path d="M27.2122969,0.050015625 L18.11925,0.050015625 L2.783,0.050015625 C1.2455,0.050015625 3.125e-05,1.2955625 3.125e-05,2.8330625 L3.125e-05,3.72501563 L2.18784375,19.5803281 L3.125e-05,35.3094688 L3.125e-05,36.2014219 C3.125e-05,37.7388438 1.2455,38.9843906 2.783,38.9843906 L2.93792188,38.9843906 L27.2122188,38.9843906 C28.7497187,38.9843906 29.9951875,37.7388438 29.9951875,36.2014219 L29.9951875,35.3094688 L27.5539375,19.58025 L29.9953438,3.72501563 L29.9953438,2.8330625 C29.9953438,1.2955625 28.7497969,0.050015625 27.2122969,0.050015625" id="Fill-1" fill="#CCCCCC" mask="url(#mask-2)"></path>
                </g>
                <g id="Group-6" transform="translate(3.046875, 0.028125)">
                    <mask id="mask-4" fill="white">
                        <use xlink:href="#path-3"></use>
                    </mask>
                    <g id="Clip-5"></g>
                    <path d="M24.1654219,0.050015625 L15.1854219,0.050015625 L0.005265625,38.9843906 L24.1654219,38.9843906 C25.7029219,38.9843906 26.9483906,37.7388438 26.9483906,36.2014219 L26.9483906,35.3094688 L26.9483906,3.72501563 L26.9483906,2.8330625 C26.9484687,1.2955625 25.7029219,0.050015625 24.1654219,0.050015625" id="Fill-4" fill="#ADADAD" mask="url(#mask-4)"></path>
                </g>
                <mask id="mask-6" fill="white">
                    <use xlink:href="#path-5"></use>
                </mask>
                <g id="Clip-8"></g>
                <polygon id="Fill-7" fill="#4D4D4D" mask="url(#mask-6)" points="0 35.3375 29.9953125 35.3375 29.9953125 3.753125 0 3.753125"></polygon>
                <polygon id="Fill-9" fill="#3B3B3B" mask="url(#mask-6)" points="4.48501562 35.3375 29.9953281 35.3375 29.9953281 3.753125 16.7994688 3.753125"></polygon>
                <polygon id="Fill-11" fill="#EBEBEB" mask="url(#mask-6)" points="24.7545302 11.4508219 21.8522031 10.7145313 22.5884936 13.616859 32.4214244 23.4498403 32.4214244 23.4492139 34.0984476 23.0189842 34.5868346 21.2838032"></polygon>
                <path d="M35.0634214,21.7603998 C35.6612328,22.3582596 35.6612328,23.3279507 35.0634214,23.9257623 C34.7644916,24.2253667 34.3724233,24.3748316 33.9803549,24.3748316 C33.5883348,24.3748316 33.1963147,24.2253667 32.8973849,23.9257623 L32.4214293,23.4498547 L34.5867912,21.2837695 L35.0634214,21.7603998 Z" id="Fill-12" fill="#4D4D4D" mask="url(#mask-6)"></path>
                <polygon id="Fill-13" fill="#D6C9AD" mask="url(#mask-6)" points="4.13914062 26.91125 5.83265625 26.91125 5.83265625 26.3101562 4.13914062 26.3101562"></polygon>
                <polygon id="Fill-14" fill="#C2AE86" mask="url(#mask-6)" points="5.57046875 26.91125 6.07046875 26.91125 6.07046875 26.3101562 5.57046875 26.3101562"></polygon>
                <path d="M5.97789844,31.6731797 L3.99407031,31.6731797 C3.74836719,31.6731797 3.54922656,31.4739609 3.54922656,31.2282578 L3.54922656,27.2548984 C3.54922656,27.0092734 3.74836719,26.8100547 3.99407031,26.8100547 L5.97789844,26.8100547 C6.22360156,26.8100547 6.42274219,27.0092734 6.42274219,27.2548984 L6.42274219,31.2282578 C6.42282031,31.4739609 6.22360156,31.6731797 5.97789844,31.6731797" id="Fill-15" fill="#854437" mask="url(#mask-6)"></path>
                <path d="M5.97713281,26.8100547 L5.71486719,26.8100547 C5.96096094,26.8100547 6.16049219,27.0088828 6.16049219,27.2541953 L6.16049219,31.2290391 C6.16049219,31.4742734 5.96096094,31.6731797 5.71486719,31.6731797 L5.97713281,31.6731797 C6.22322656,31.6731797 6.42275781,31.4742734 6.42275781,31.2290391 L6.42275781,27.2541953 C6.42283594,27.0088828 6.22322656,26.8100547 5.97713281,26.8100547" id="Fill-16" fill="#63352B" mask="url(#mask-6)"></path>
                <path d="M5.97350781,26.4114141 L3.99842969,26.4114141 C3.96952344,26.4114141 3.94608594,26.3879766 3.94608594,26.3590703 L3.94608594,25.8768047 C3.94608594,25.8478984 3.96952344,25.8243828 3.99842969,25.8243828 L5.97350781,25.8243828 C6.00241406,25.8243828 6.02585156,25.8478984 6.02585156,25.8768047 L6.02585156,26.3590703 C6.02585156,26.3879766 6.00249219,26.4114141 5.97350781,26.4114141" id="Fill-17" fill="#F6F1DD" mask="url(#mask-6)"></path>
                <polygon id="Fill-18" fill="#3B3B3B" mask="url(#mask-6)" points="3.54914063 29.6721875 6.4228125 29.6721875 6.4228125 28.5884375 3.54914063 28.5884375"></polygon>
                <path d="M4.986,28.0964453 C5.53240625,28.0964453 5.97529687,28.5378516 5.97529687,29.0823828 C5.97529687,29.6268359 5.53240625,30.0682422 4.986,30.0682422 C4.43959375,30.0682422 3.99670312,29.6268359 3.99670312,29.0823828 C3.99670312,28.5378516 4.43959375,28.0964453 4.986,28.0964453" id="Fill-19" fill="#F6CC65" mask="url(#mask-6)"></path>
                <path d="M5.38967187,29.3253828 C5.24904687,29.6479609 5.00264062,29.8130391 4.781,29.7853828 C4.7450625,29.7810078 4.70982812,29.7714766 4.6756875,29.7567109 C4.64514062,29.7435078 4.6169375,29.7267109 4.59139062,29.7065547 C4.41279687,29.5667109 4.36185937,29.2703047 4.50498437,28.9422578 C4.64514062,28.6206172 4.9263125,28.3731953 5.15764062,28.3763203 C5.196,28.3766328 5.23295312,28.3839766 5.2675625,28.3990547 C5.29803125,28.4122578 5.32514062,28.4306953 5.34928125,28.4535859 C5.51896875,28.6145234 5.532875,28.9971016 5.38967187,29.3253828" id="Fill-20" fill="#854437" mask="url(#mask-6)"></path>
                <path d="M5.34927344,28.4535 C5.34638281,28.4581094 5.34278906,28.4624063 5.33903906,28.4664688 C5.33482031,28.4709219 5.08302344,28.74225 5.07028906,29.0808438 C5.05763281,29.4171719 4.86153906,29.6877188 4.78099219,29.785375 C4.74505469,29.781 4.70982031,29.7714688 4.67567969,29.7567813 C4.64513281,29.7435 4.61692969,29.7267031 4.59138281,29.7065469 C4.59489844,29.700375 4.59919531,29.6946719 4.60435156,29.6892813 C4.60669531,29.6867813 4.86091406,29.4132656 4.87372656,29.0735781 C4.88607031,28.7439688 5.07427344,28.4783438 5.15763281,28.3763125 C5.19599219,28.3767031 5.23294531,28.3839688 5.26755469,28.3990469 C5.29802344,28.41225 5.32513281,28.4306875 5.34927344,28.4535" id="Fill-21" fill="#572F26" mask="url(#mask-6)"></path>
                <path d="M5.98003125,15.5100781 L4.1758125,15.5100781 L4.1758125,14.71125 C4.1758125,14.5499219 4.30659375,14.4191406 4.46784375,14.4191406 L5.688,14.4191406 C5.84925,14.4191406 5.98003125,14.5499219 5.98003125,14.71125 L5.98003125,15.5100781 Z" id="Fill-22" fill="#ED3124" mask="url(#mask-6)"></path>
                <path d="M5.98007031,14.7133828 L5.98007031,15.5100234 L5.46014844,15.5100234 L5.46014844,14.7133828 C5.46014844,14.5508828 5.33022656,14.4191641 5.17014844,14.4191641 L5.69007031,14.4191641 C5.85014844,14.4191641 5.98007031,14.5508828 5.98007031,14.7133828" id="Fill-23" fill="#D8231E" mask="url(#mask-6)"></path>
                <path d="M6.509625,18.9348359 L6.72720312,18.6672578 C6.79376562,18.5853828 6.83017187,18.4825703 6.83017187,18.3764766 L6.83017187,17.2240547 C6.83017187,17.1113984 6.78907812,17.0027266 6.7149375,16.9188203 L6.098375,16.2217109 C6.02423437,16.1378828 5.98314062,16.0292109 5.98314062,15.9165547 L5.98314062,15.5100703 L4.17259375,15.5100703 L4.17259375,15.9164766 C4.17259375,16.0292109 4.13165625,16.1378828 4.0574375,16.2217109 L3.440875,16.9188203 C3.36673437,17.0026484 3.32571875,17.1113984 3.32571875,17.2240547 L3.32571875,18.3763984 C3.32571875,18.4825703 3.36204687,18.5853828 3.42860937,18.6672578 L3.6461875,18.9348359 C3.71275,19.0167109 3.74915625,19.1195234 3.74915625,19.2256953 L3.74915625,20.2294453 C3.74915625,20.3368672 3.71189062,20.4408516 3.64384375,20.5231172 L3.43095312,20.7807734 C3.36290625,20.8631172 3.32564062,20.9671016 3.32564062,21.0744453 L3.32564062,22.5347578 C3.32564062,22.7871016 3.52720312,22.9916328 3.77579687,22.9916328 L6.3799375,22.9916328 C6.62853125,22.9916328 6.83009375,22.7871016 6.83009375,22.5347578 L6.83009375,21.0744453 C6.83009375,20.9671016 6.79282812,20.8631172 6.72478125,20.7807734 L6.51189062,20.5231172 C6.44392187,20.4408516 6.40657812,20.3368672 6.40657812,20.2294453 L6.40657812,19.2256953 C6.40665625,19.1195234 6.4430625,19.0167109 6.509625,18.9348359" id="Fill-24" fill="#9A3F21" mask="url(#mask-6)"></path>
                <path d="M6.40659375,19.2255938 L6.40659375,20.2295 C6.40659375,20.3369219 6.4439375,20.4409063 6.51190625,20.5230938 L6.724875,20.7808281 C6.79292187,20.8630938 6.8301875,20.9670781 6.8301875,21.0745 L6.8301875,22.5347344 C6.8301875,22.7870781 6.62854687,22.9916094 6.37995312,22.9916094 L5.8458125,22.9916094 C6.09440625,22.9916094 6.29604687,22.7870781 6.29604687,22.5347344 L6.29604687,21.0745 C6.29604687,20.9670781 6.25870312,20.8630938 6.19073437,20.7808281 L5.9776875,20.5230938 C5.90971875,20.4409063 5.87260937,20.3369219 5.87260937,20.2295 L5.87260937,19.2255938 C5.87260937,19.1195781 5.90885937,19.0166094 5.9755,18.9348125 L6.19307812,18.6672344 C6.2595625,18.5854375 6.29604687,18.4824688 6.29604687,18.3764531 L6.29604687,17.2239531 C6.29604687,17.111375 6.25503125,17.002625 6.18073437,16.9187969 L5.56425,16.2217656 C5.49003125,16.1380156 5.44901562,16.0291875 5.44901562,15.9164531 L5.44901562,15.5100469 L5.98315625,15.5100469 L5.98315625,15.9164531 C5.98315625,16.0291875 6.02417187,16.1380156 6.0983125,16.2218438 L6.714875,16.9187969 C6.78917187,17.002625 6.8301875,17.1114531 6.8301875,17.2240313 L6.8301875,18.3764531 C6.8301875,18.4824688 6.79378125,18.5854375 6.72714062,18.6672344 L6.5095625,18.9348906 C6.44307812,19.0166094 6.40659375,19.1195781 6.40659375,19.2255938" id="Fill-25" fill="#8C331B" mask="url(#mask-6)"></path>
                <polygon id="Fill-26" fill="#ED3124" mask="url(#mask-6)" points="3.325625 18.4214063 6.83007812 18.4214063 6.83007812 17.2679688 3.325625 17.2679688"></polygon>
                <polygon id="Fill-27" fill="#D8231E" mask="url(#mask-6)" points="6.29601562 18.4214063 6.83007812 18.4214063 6.83007812 17.2679688 6.29601562 17.2679688"></polygon>
                <path d="M6.58839844,17.2680078 L6.53144531,17.2680078 C6.52699219,17.2674609 6.52214844,17.2672266 6.51691406,17.2672266 C6.48089844,17.2673047 6.25597656,17.2644141 6.22863281,17.2672266 C6.22699219,17.2673828 6.22535156,17.2677734 6.22363281,17.2680078 L6.17738281,17.2680078 C6.17738281,17.2680078 6.16003906,17.2998828 6.14324219,17.3283984 C6.13878906,17.3352734 6.13457031,17.3423047 6.13050781,17.3494922 C6.12722656,17.3551172 6.12402344,17.3608203 6.12074219,17.3665234 C6.05371094,17.4833984 5.92644531,17.5441016 5.80371094,17.5865234 C5.67707031,17.6301953 5.54605469,17.6530859 5.41886719,17.6922266 C5.28707031,17.7328516 5.15503906,17.7733984 5.02691406,17.8258203 C4.78488281,17.9248047 4.50605469,18.0162891 4.37105469,18.2724609 C4.36160156,18.2902734 4.34589844,18.3216797 4.33746094,18.3511328 L4.31613281,18.4213672 L4.36707031,18.4213672 L4.38027344,18.4213672 L4.45503906,18.4213672 L4.62582031,18.4213672 L5.16371094,18.4213672 L5.30792969,18.4213672 L5.39878906,18.4213672 L5.39933594,18.3976172 C5.40019531,18.3597266 5.40738281,18.3221484 5.42128906,18.2867578 C5.44308594,18.2309766 5.47183594,18.1707422 5.51847656,18.1312891 C5.56878906,18.0887891 5.63191406,18.0667578 5.69402344,18.0476953 C5.97972656,17.9601172 6.34636719,17.9818359 6.51925781,17.6451172 C6.55652344,17.5724609 6.57761719,17.4867578 6.58488281,17.4048047 C6.58660156,17.3853516 6.58824219,17.3666797 6.58839844,17.3494922 L6.58839844,17.2680078 Z" id="Fill-28" fill="#E2EEFD" mask="url(#mask-6)"></path>
                <path d="M5.80464062,20.1792656 C5.94272801,20.1792656 6.05464062,20.2912226 6.05464062,20.4292656 C6.05464062,20.5673087 5.94272801,20.6792656 5.80464062,20.6792656 C5.66655324,20.6792656 5.55464062,20.5673087 5.55464062,20.4292656 C5.55464062,20.2912226 5.66655324,20.1792656 5.80464062,20.1792656" id="Fill-29" fill="#E2EEFD" mask="url(#mask-6)"></path>
                <path d="M5.80464062,19.1658203 C5.94272801,19.1658203 6.05464062,19.2778 6.05464062,19.4158711 C6.05464062,19.5539421 5.94272801,19.6658203 5.80464062,19.6658203 C5.66655324,19.6658203 5.55464062,19.5539421 5.55464062,19.4158711 C5.55464062,19.2778 5.66655324,19.1658203 5.80464062,19.1658203" id="Fill-30" fill="#E2EEFD" mask="url(#mask-6)"></path>
                <path d="M5.23602344,20.7376641 C5.37411082,20.7376641 5.48602344,20.849621 5.48602344,20.9876641 C5.48602344,21.1257071 5.37411082,21.2376641 5.23602344,21.2376641 C5.09793605,21.2376641 4.98602344,21.1257071 4.98602344,20.9876641 C4.98602344,20.849621 5.09793605,20.7376641 5.23602344,20.7376641" id="Fill-31" fill="#E2EEFD" mask="url(#mask-6)"></path>
                <path d="M6.04053906,21.1929063 C6.17862645,21.1929063 6.29053906,21.3048632 6.29053906,21.4429063 C6.29053906,21.5809493 6.17862645,21.6929063 6.04053906,21.6929063 C5.90245168,21.6929063 5.79053906,21.5809493 5.79053906,21.4429063 C5.79053906,21.3048632 5.90245168,21.1929063 6.04053906,21.1929063" id="Fill-32" fill="#E2EEFD" mask="url(#mask-6)"></path>
                <path d="M4.41653906,17.552125 L3.74669531,17.552125 C3.67638281,17.552125 3.61950781,17.6640766 3.61950781,17.8020494 C3.61950781,17.9401734 3.67638281,18.052125 3.74669531,18.052125 L4.41653906,18.052125 C4.48677344,18.052125 4.54372656,17.9401734 4.54372656,17.8020494 C4.54372656,17.6640766 4.48677344,17.552125 4.41653906,17.552125" id="Fill-33" fill="#A80505" mask="url(#mask-6)"></path>
                <path d="M3.98905656,17.9049844 L3.74991219,17.9049844 C3.67788848,17.9049844 3.61948437,18.016936 3.61948437,18.15506 C3.61948437,18.2930328 3.67788848,18.4049844 3.74991219,18.4049844 L3.98905656,18.4049844 C4.06108027,18.4049844 4.11948437,18.2930328 4.11948437,18.15506 C4.11948437,18.016936 4.06108027,17.9049844 3.98905656,17.9049844" id="Fill-34" fill="#A80505" mask="url(#mask-6)"></path>
                <path d="M10.4446406,19.0575156 L11.4357344,19.0575156 L11.4357344,17.7795469 L10.4446406,19.0575156 Z M11.4840938,19.98525 C11.4518281,19.9529844 11.4357344,19.9132187 11.4357344,19.8660312 L11.4357344,19.3593125 L10.2993281,19.3593125 C10.2397188,19.3593125 10.1887812,19.3388437 10.1465938,19.2978281 C10.1043281,19.2568125 10.0832344,19.2065781 10.0832344,19.1469687 L10.0832344,19.113375 C10.0832344,19.0612656 10.0980781,19.0165781 10.1279219,18.9793125 L11.2978438,17.48525 C11.3176875,17.4579063 11.3444063,17.4362656 11.3779219,17.4200156 C11.4114375,17.4039219 11.4469063,17.3957969 11.4840938,17.3957969 L11.558625,17.3957969 C11.6231563,17.3957969 11.6753438,17.4163437 11.7151094,17.4572813 C11.754875,17.4982969 11.7747187,17.5498594 11.7747187,17.6118906 L11.7747187,19.0575156 L12.0578437,19.0575156 C12.1001094,19.0575156 12.136125,19.0724375 12.1659687,19.1022031 C12.1957344,19.1320469 12.2106562,19.1680625 12.2106562,19.21025 C12.2106562,19.2525156 12.1957344,19.2879062 12.1659687,19.3164219 C12.136125,19.3450156 12.1001094,19.3593125 12.0578437,19.3593125 L11.7747187,19.3593125 L11.7747187,19.8660312 C11.7747187,19.9132187 11.758,19.9529844 11.7244062,19.98525 C11.6908906,20.0174375 11.6505,20.0336094 11.6033906,20.0336094 C11.556125,20.0336094 11.5163594,20.0174375 11.4840938,19.98525 Z" id="Fill-35" fill="#FFFFFF" mask="url(#mask-6)"></path>
                <path d="M12.6279063,19.9609922 C12.5906406,19.9250547 12.5719687,19.8784141 12.5719687,19.8213047 C12.5719687,19.6921641 12.6098594,19.5729453 12.6856406,19.4636484 C12.7613437,19.3543516 12.8532969,19.2581016 12.9613438,19.1748984 C13.0693906,19.0916953 13.2115781,18.9929453 13.3879844,18.8786484 C13.5393906,18.7817734 13.6599375,18.6998203 13.7493125,18.6327891 C13.8387656,18.5657578 13.9132969,18.4924766 13.9729063,18.4129453 C14.0325156,18.3334922 14.0622813,18.2490391 14.0622813,18.1595859 C14.0622813,18.0180234 14.0157188,17.9056797 13.9225938,17.8223984 C13.8294688,17.7392734 13.6797813,17.6976328 13.4736094,17.6976328 C13.2500938,17.6976328 13.03775,17.7423203 12.8365,17.8317734 C12.8116563,17.8441953 12.7880625,17.8503672 12.7657188,17.8503672 C12.7259531,17.8503672 12.6924375,17.8367734 12.6651719,17.8093516 C12.63775,17.7820859 12.6241563,17.7473203 12.6241563,17.7050547 C12.6241563,17.6430234 12.6515,17.5970078 12.7061094,17.5671641 C12.9594688,17.4405234 13.2351719,17.3771641 13.5332187,17.3771641 C13.6922031,17.3771641 13.8368906,17.4088828 13.9673594,17.4722422 C14.0976719,17.5355234 14.2007188,17.6243516 14.2765781,17.7385703 C14.3522813,17.8528672 14.3901719,17.9845078 14.3901719,18.1334922 C14.3901719,18.2801328 14.3473594,18.4161484 14.2616563,18.5415391 C14.1759531,18.6670078 14.0734531,18.7768516 13.9543125,18.8712266 C13.8350156,18.9656797 13.6797813,19.0748984 13.4885312,19.1991172 C13.3147031,19.3159141 13.1836094,19.4095859 13.0954844,19.4803672 C13.0072813,19.5511484 12.9457969,19.6238828 12.9110313,19.6983359 L14.2075938,19.6983359 C14.2522813,19.6983359 14.2901719,19.7138828 14.3212656,19.7448984 C14.3522813,19.7759922 14.3678281,19.8138047 14.3678281,19.8584922 C14.3678281,19.9032578 14.3522813,19.9405234 14.3212656,19.9702891 C14.2901719,20.0001328 14.2522813,20.0149766 14.2075938,20.0149766 L12.7694688,20.0149766 C12.7122813,20.0149766 12.6651719,19.9970078 12.6279063,19.9609922" id="Fill-36" fill="#FFFFFF" mask="url(#mask-6)"></path>
                <path d="M10.154,30.0043281 C10.1242344,29.9745625 10.1093125,29.9372969 10.1093125,29.8925313 C10.1093125,29.8478438 10.1242344,29.8100313 10.154,29.7789375 C10.1838438,29.7479219 10.2210313,29.732375 10.2657969,29.732375 L10.7091562,29.732375 L10.7091562,27.8434688 L10.3291563,28.0297188 C10.2943125,28.0445625 10.2657969,28.0520625 10.2434531,28.0520625 C10.1962656,28.0520625 10.15775,28.0371406 10.1279844,28.0072969 C10.0981406,27.9775313 10.0832188,27.9390156 10.0832188,27.8919063 C10.0832188,27.8222969 10.1154844,27.7714375 10.1800938,27.7390938 L10.6868125,27.4745625 C10.7215781,27.4572188 10.7562656,27.4484687 10.7911094,27.4484687 L10.8693906,27.4484687 C10.919,27.4484687 10.9612656,27.4658906 10.9960312,27.5006563 C11.0307969,27.5354219 11.0482188,27.5776094 11.0482188,27.6272969 L11.0482188,29.732375 L11.4170469,29.732375 C11.4617344,29.732375 11.499625,29.7479219 11.5307188,29.7789375 C11.5617344,29.8100313 11.5772812,29.8478438 11.5772812,29.8925313 C11.5772812,29.9372969 11.5617344,29.9745625 11.5307188,30.0043281 C11.499625,30.0341719 11.4617344,30.0490156 11.4170469,30.0490156 L10.2657969,30.0490156 C10.2210313,30.0490156 10.1838438,30.0341719 10.154,30.0043281" id="Fill-37" fill="#FFFFFF" mask="url(#mask-6)"></path>
                <path d="M13.6133594,29.5013984 C13.7289063,29.3200703 13.7866406,29.0692109 13.7866406,28.7487422 C13.7866406,28.4308516 13.7289063,28.1812422 13.6133594,27.9998359 C13.4978125,27.8186641 13.3320312,27.7279609 13.1159375,27.7279609 C12.8998437,27.7279609 12.7340625,27.8186641 12.6185937,27.9998359 C12.503125,28.1812422 12.4453125,28.4308516 12.4453125,28.7487422 C12.4453125,29.0692109 12.503125,29.3200703 12.6185937,29.5013984 C12.7340625,29.6826484 12.8998437,29.7732734 13.1159375,29.7732734 C13.3320312,29.7732734 13.4978125,29.6826484 13.6133594,29.5013984 M12.3652344,29.7249141 C12.1925,29.4839766 12.10625,29.1585859 12.10625,28.7487422 C12.10625,28.3388984 12.1925,28.0135859 12.3652344,27.7726484 C12.5378125,27.5317109 12.788125,27.4112422 13.1159375,27.4112422 C13.4413281,27.4112422 13.6909375,27.5317109 13.8648438,27.7726484 C14.0386719,28.0135859 14.125625,28.3388984 14.125625,28.7487422 C14.125625,29.1585859 14.0386719,29.4839766 13.8648438,29.7249141 C13.6909375,29.9658516 13.4413281,30.0863203 13.1159375,30.0863203 C12.788125,30.0863203 12.5378125,29.9658516 12.3652344,29.7249141" id="Fill-38" fill="#FFFFFF" mask="url(#mask-6)"></path>
                <path d="M15.8599844,28.3910937 C15.9456875,28.3090625 15.9885781,28.2160156 15.9885781,28.1116406 C15.9885781,27.9949219 15.9431875,27.89875 15.8525625,27.8229688 C15.7618594,27.7471875 15.6295937,27.7092969 15.4557656,27.7092969 C15.2818594,27.7092969 15.1495937,27.7471875 15.0589687,27.8229688 C14.9682656,27.89875 14.9229531,27.9949219 14.9229531,28.1116406 C14.9229531,28.2160156 14.9658437,28.3090625 15.0514687,28.3910937 C15.1371719,28.4730469 15.2719375,28.5139844 15.4557656,28.5139844 C15.6395156,28.5139844 15.7742812,28.4730469 15.8599844,28.3910937 M15.8339687,29.711875 C15.9320156,29.6610156 16.0027969,29.5995312 16.0463125,29.5274219 C16.0896719,29.4554687 16.1114687,29.3871094 16.1114687,29.3225781 C16.1114687,29.1635937 16.0481875,29.04 15.9214687,28.9517969 C15.7948281,28.8636719 15.6395156,28.8195312 15.4557656,28.8195312 C15.2719375,28.8195312 15.1167031,28.8636719 14.9899844,28.9517969 C14.8633437,29.04 14.7999844,29.1635937 14.7999844,29.3225781 C14.7999844,29.3871094 14.8217031,29.4554687 14.8652187,29.5274219 C14.9086562,29.5995312 14.9794375,29.6610156 15.0775625,29.711875 C15.1756875,29.7628125 15.3017031,29.7882812 15.4557656,29.7882812 C15.60975,29.7882812 15.7357656,29.7628125 15.8339687,29.711875 M14.8838125,29.9782031 C14.736,29.9063281 14.6286562,29.8155469 14.5615469,29.70625 C14.4944375,29.5970313 14.4609219,29.4814844 14.4609219,29.3597656 C14.4609219,29.0145312 14.6459219,28.7798437 15.0160781,28.655625 C14.8894375,28.6134375 14.7856875,28.5444531 14.7049844,28.4488281 C14.6242812,28.3532812 14.5839687,28.2333594 14.5839687,28.0892969 C14.5839687,27.9825781 14.6131094,27.8769531 14.6714687,27.7726563 C14.7298281,27.6682812 14.8242031,27.5821094 14.9546719,27.51375 C15.0850625,27.4454687 15.2520156,27.41125 15.4557656,27.41125 C15.6593594,27.41125 15.8264687,27.4454687 15.9568594,27.51375 C16.08725,27.5821094 16.181625,27.6682812 16.2399844,27.7726563 C16.2983437,27.8769531 16.3275625,27.9825781 16.3275625,28.0892969 C16.3275625,28.2333594 16.2871719,28.3532812 16.2064687,28.4488281 C16.1257656,28.5444531 16.0220937,28.6134375 15.895375,28.655625 C16.2654531,28.7798437 16.4505312,29.0145312 16.4505312,29.3597656 C16.4505312,29.4814844 16.4170156,29.5970313 16.3499062,29.70625 C16.282875,29.8155469 16.1754531,29.9063281 16.0276406,29.9782031 C15.8798281,30.0502344 15.6892031,30.0863281 15.4557656,30.0863281 C15.22225,30.0863281 15.0315469,30.0502344 14.8838125,29.9782031" id="Fill-39" fill="#FFFFFF" mask="url(#mask-6)"></path>
                <path d="M3.47236719,10.1062578 C3.43041406,10.0888359 3.39549219,10.0600078 3.36752344,10.0197734 C3.33955469,9.97969531 3.32564844,9.93688281 3.32564844,9.89141406 C3.32564844,9.83203906 3.34564844,9.78055469 3.38588281,9.73680469 C3.42603906,9.69313281 3.47760156,9.67125781 3.54049219,9.67125781 C3.57533594,9.67125781 3.60861719,9.67828906 3.64002344,9.69227344 C3.96150781,9.83555469 4.30564844,9.90711719 4.67252344,9.90711719 C5.28385156,9.90711719 5.58971094,9.70625781 5.58971094,9.30438281 C5.58971094,9.19961719 5.55033594,9.11227344 5.47174219,9.04235156 C5.39314844,8.97250781 5.29619531,8.91750781 5.18088281,8.87727344 C5.06557031,8.83711719 4.90135156,8.78907031 4.68822656,8.73313281 C4.40517969,8.65977344 4.17635156,8.58907031 4.00166406,8.52094531 C3.82697656,8.45274219 3.67674219,8.35055469 3.55096094,8.21430469 C3.42517969,8.07805469 3.36228906,7.89641406 3.36228906,7.66922656 C3.36228906,7.47008594 3.41471094,7.28930469 3.51955469,7.12680469 C3.62432031,6.96438281 3.77892969,6.83508594 3.98338281,6.73899219 C4.18775781,6.64289844 4.43314844,6.59485156 4.71971094,6.59485156 C5.10400781,6.59485156 5.45158594,6.65250781 5.76260156,6.76782031 C5.86041406,6.80282031 5.90932031,6.87266406 5.90932031,6.97742969 C5.90932031,7.03336719 5.89010156,7.08407031 5.85174219,7.12946094 C5.81322656,7.17492969 5.76260156,7.19758594 5.69971094,7.19758594 C5.67877344,7.19758594 5.65072656,7.19063281 5.61588281,7.17657031 C5.34338281,7.08227344 5.06205469,7.03508594 4.77205469,7.03508594 C4.49603906,7.03508594 4.27158594,7.08750781 4.09861719,7.19235156 C3.92572656,7.29711719 3.83924219,7.44391406 3.83924219,7.63258594 C3.83924219,7.75836719 3.88025781,7.86055469 3.96236719,7.93914844 C4.04439844,8.01782031 4.14752344,8.07891406 4.27158594,8.12258594 C4.39557031,8.16633594 4.56416406,8.21258594 4.77736719,8.26149219 C5.05330469,8.32789844 5.27603906,8.39430469 5.44557031,8.46063281 C5.61494531,8.52703906 5.76002344,8.63008594 5.88057031,8.76985156 C6.00111719,8.90961719 6.06135156,9.09828906 6.06135156,9.33586719 C6.06135156,9.53157031 6.00541406,9.70711719 5.89361719,9.86258594 C5.78182031,10.0180547 5.62455469,10.1395391 5.42197656,10.2268047 C5.21924219,10.3141484 4.98517969,10.3578203 4.71971094,10.3578203 C4.27596094,10.3578203 3.86017969,10.2739922 3.47236719,10.1062578" id="Fill-40" fill="#FFFFFF" mask="url(#mask-6)"></path>
                <path d="M6.74270312,9.66603906 L6.74270312,8.04135156 L6.37059375,8.04135156 C6.342625,8.04135156 6.31903125,8.03182031 6.29989062,8.01252344 C6.28059375,7.99338281 6.27098437,7.96978906 6.27098437,7.94182031 C6.27098437,7.90689844 6.28676562,7.87721094 6.31817187,7.85267969 L7.03090625,7.15564844 C7.06239062,7.12416406 7.09207812,7.10846094 7.12004687,7.10846094 C7.1479375,7.10846094 7.17153125,7.11892969 7.19082812,7.13994531 C7.20996875,7.16088281 7.21957812,7.18541406 7.21957812,7.21330469 L7.21957812,7.63260156 L7.81184375,7.63260156 C7.87121875,7.63260156 7.920125,7.65182031 7.9585625,7.69017969 C7.997,7.72869531 8.01621875,7.77760156 8.01621875,7.83697656 C8.01621875,7.89291406 7.997,7.94096094 7.9585625,7.98111719 C7.920125,8.02127344 7.87121875,8.04135156 7.81184375,8.04135156 L7.21957812,8.04135156 L7.21957812,9.62408594 C7.21957812,9.76041406 7.25192187,9.84682031 7.31660937,9.88353906 C7.38121875,9.92017969 7.46239062,9.93853906 7.56028125,9.93853906 C7.630125,9.93853906 7.69996875,9.92807031 7.76989062,9.90713281 C7.783875,9.90369531 7.79879687,9.90017969 7.8145,9.89666406 C7.83020312,9.89322656 7.85028125,9.89135156 7.87473437,9.89135156 C7.92364062,9.89135156 7.96723438,9.90971094 8.00575,9.94642969 C8.0441875,9.98314844 8.06340625,10.0276797 8.06340625,10.0800234 C8.06340625,10.1604922 8.02325,10.2215859 7.94285937,10.2634609 C7.80660937,10.3264297 7.66160937,10.3578359 7.50785937,10.3578359 C6.99770312,10.3578359 6.74270312,10.1272109 6.74270312,9.66603906" id="Fill-41" fill="#FFFFFF" mask="url(#mask-6)"></path>
                <path d="M10.1414141,9.82324219 C10.2724297,9.75691406 10.3807109,9.65214844 10.4663359,9.50878906 C10.5519609,9.36558594 10.5947734,9.18386719 10.5947734,8.96378906 C10.5947734,8.74714844 10.5519609,8.56722656 10.4663359,8.42394531 C10.3807109,8.28074219 10.2724297,8.17683594 10.1414141,8.11214844 C10.0103984,8.04753906 9.87321094,8.01511719 9.73000781,8.01511719 C9.58328906,8.01511719 9.44438281,8.04753906 9.31336719,8.11214844 C9.18235156,8.17683594 9.07492969,8.28074219 8.99102344,8.42394531 C8.90719531,8.56722656 8.86532031,8.74714844 8.86532031,8.96378906 C8.86532031,9.18386719 8.90719531,9.36558594 8.99102344,9.50878906 C9.07492969,9.65214844 9.18235156,9.75691406 9.31336719,9.82324219 C9.44438281,9.88964844 9.58328906,9.92285156 9.73000781,9.92285156 C9.87321094,9.92285156 10.0103984,9.88964844 10.1414141,9.82324219 M9.02250781,10.1848828 C8.81977344,10.0695703 8.66352344,9.90628906 8.55344531,9.69480469 C8.44336719,9.48347656 8.38836719,9.24152344 8.38836719,8.96894531 C8.38836719,8.69644531 8.44336719,8.45457031 8.55344531,8.24308594 C8.66352344,8.03175781 8.81977344,7.86839844 9.02250781,7.75308594 C9.22508594,7.63777344 9.46094531,7.58019531 9.73000781,7.58019531 C9.99547656,7.58019531 10.2296172,7.63777344 10.4322734,7.75308594 C10.6348516,7.86839844 10.7921172,8.03175781 10.9039922,8.24308594 C11.0157109,8.45457031 11.0717266,8.69644531 11.0717266,8.96894531 C11.0717266,9.24152344 11.0157109,9.48347656 10.9039922,9.69480469 C10.7921172,9.90628906 10.6348516,10.0695703 10.4322734,10.1848828 C10.2296172,10.3001953 9.99547656,10.3578516 9.73000781,10.3578516 C9.46094531,10.3578516 9.22508594,10.3001953 9.02250781,10.1848828" id="Fill-42" fill="#FFFFFF" mask="url(#mask-6)"></path>
                <path d="M12.2769922,10.1901016 C12.0638672,10.0783047 11.8935547,9.91760156 11.7659766,9.70799219 C11.6384766,9.49830469 11.5747266,9.25197656 11.5747266,8.96900781 C11.5747266,8.68596094 11.6384766,8.43963281 11.7659766,8.23002344 C11.8935547,8.02041406 12.0638672,7.85971094 12.2769922,7.74783594 C12.4901172,7.63611719 12.7224609,7.58017969 12.9740234,7.58017969 C13.1591797,7.58017969 13.3190234,7.60377344 13.4536328,7.65096094 C13.5880859,7.69807031 13.7130078,7.75838281 13.8283203,7.83174219 C13.8981641,7.87721094 13.9331641,7.93830469 13.9331641,8.01517969 C13.9331641,8.06760156 13.9130078,8.11564844 13.8728516,8.15924219 C13.8326953,8.20299219 13.7863672,8.22478906 13.7339453,8.22478906 C13.6955078,8.22478906 13.6570703,8.21432031 13.6186328,8.19330469 C13.5033984,8.13400781 13.4046484,8.09111719 13.3225391,8.06494531 C13.2404297,8.03869531 13.1382422,8.02564844 13.0159766,8.02564844 C12.7154297,8.02564844 12.4795703,8.11213281 12.3084766,8.28502344 C12.1372266,8.45799219 12.0516797,8.68596094 12.0516797,8.96900781 C12.0516797,9.25197656 12.1372266,9.48002344 12.3084766,9.65291406 C12.4795703,9.82588281 12.7154297,9.91236719 13.0159766,9.91236719 C13.1382422,9.91236719 13.2404297,9.89924219 13.3225391,9.87307031 C13.4046484,9.84682031 13.5033984,9.80408594 13.6186328,9.74463281 C13.6570703,9.72369531 13.6955078,9.71322656 13.7339453,9.71322656 C13.7863672,9.71322656 13.8326953,9.73502344 13.8728516,9.77869531 C13.9130078,9.82244531 13.9331641,9.87041406 13.9331641,9.92283594 C13.9331641,9.99971094 13.8981641,10.0608828 13.8283203,10.1062734 C13.7130078,10.1796328 13.5880859,10.2399453 13.4536328,10.2870547 C13.3190234,10.3342422 13.1591797,10.3578359 12.9740234,10.3578359 C12.7224609,10.3578359 12.4901172,10.3019766 12.2769922,10.1901016" id="Fill-43" fill="#FFFFFF" mask="url(#mask-6)"></path>
                <path d="M14.5986953,10.2635 C14.5532266,10.2181094 14.5305703,10.1621719 14.5305703,10.0958437 L14.5305703,6.6944375 C14.5305703,6.62810937 14.5532266,6.5713125 14.5986953,6.524125 C14.6440859,6.4769375 14.6999453,6.45334375 14.7663516,6.45334375 C14.8327578,6.45334375 14.8895547,6.4769375 14.9367422,6.524125 C14.9839297,6.5713125 15.0074453,6.62810937 15.0074453,6.6944375 L15.0074453,8.83795312 L16.2547891,7.68498437 C16.3072109,7.63959375 16.3596328,7.61685937 16.4119766,7.61685937 C16.4923672,7.61685937 16.5508828,7.63959375 16.5876016,7.68498437 C16.6243203,7.73045312 16.6426016,7.78459375 16.6426016,7.84748437 C16.6426016,7.90685937 16.6129141,7.96623438 16.5535391,8.02560938 L15.7988516,8.70170312 L16.7474453,9.95951562 C16.7823672,10.0049844 16.7998672,10.0520937 16.7998672,10.101 C16.7998672,10.1709219 16.7770547,10.2267812 16.7317422,10.2687344 C16.6862734,10.3106875 16.6286172,10.331625 16.5587734,10.331625 C16.5238516,10.331625 16.4888516,10.322875 16.4540078,10.3054531 C16.4190078,10.2879531 16.3892422,10.2635 16.3648672,10.2320937 L15.4633828,9.0056875 L15.0074453,9.41975 L15.0074453,10.0958437 C15.0074453,10.1621719 14.9839297,10.2181094 14.9367422,10.2635 C14.8895547,10.3088906 14.8327578,10.331625 14.7663516,10.331625 C14.6999453,10.331625 14.6440859,10.3088906 14.5986953,10.2635" id="Fill-44" fill="#FFFFFF" mask="url(#mask-6)"></path>
            </g>
        </g>
    </g>
</svg>