<?xml version="1.0" encoding="UTF-8"?>
<svg width="80px" height="92px" viewBox="0 0 80 92" version="1.1" xmlns="http://www.w3.org/2000/svg" xmlns:xlink="http://www.w3.org/1999/xlink">
    <!-- Generator: Sketch 51.3 (57544) - http://www.bohemiancoding.com/sketch -->
    <title>Group 67</title>
    <desc>Created with Sketch.</desc>
    <defs>
        <polygon id="path-1" points="0 92.2095672 80 92.2095672 80 0.106970387 0 0.106970387"></polygon>
    </defs>
    <g id="Page-1" stroke="none" stroke-width="1" fill="none" fill-rule="evenodd">
        <g id="Entrepreneur-Single-Page-(Form)" transform="translate(-1089.000000, -1372.000000)">
            <g id="Group-67" transform="translate(1089.000000, 1372.000000)">
                <polygon id="Fill-1" fill="#C5901A" points="11.7539863 48.8687016 77.2665148 48.8687016 77.2665148 19.8026424 11.7539863 19.8026424"></polygon>
                <g id="Group-66" transform="translate(0.000000, 0.075262)">
                    <path d="M26.8824237,37.071344 C28.4917175,37.071344 29.7965011,38.3759453 29.7965011,39.9854214 C29.7965011,41.5947153 28.4917175,42.8994989 26.8824237,42.8994989 C25.2729476,42.8994989 23.9683462,41.5947153 23.9683462,39.9854214 C23.9683462,38.3759453 25.2729476,37.071344 26.8824237,37.071344" id="Fill-2" fill="#5A4650"></path>
                    <path d="M32.7106515,37.071344 C34.3199453,37.071344 35.6247289,38.3759453 35.6247289,39.9854214 C35.6247289,41.5947153 34.3199453,42.8994989 32.7106515,42.8994989 C31.1011754,42.8994989 29.796574,41.5947153 29.796574,39.9854214 C29.796574,38.3759453 31.1011754,37.071344 32.7106515,37.071344" id="Fill-4" fill="#5A4650"></path>
                    <path d="M29.7965376,32.8326743 C27.4553986,32.8326743 25.5578132,34.7302597 25.5578132,37.0712164 L25.5578132,39.1264328 L34.035262,39.1264328 L34.035262,37.0712164 C34.035262,34.7302597 32.1374943,32.8326743 29.7965376,32.8326743" id="Fill-6" fill="#64505A"></path>
                    <path d="M34.8291025,45.6919727 L32.0928838,44.7263235 C31.6691936,44.5768929 31.3858223,44.1763462 31.3858223,43.7271435 L31.3858223,41.5747973 L28.2069613,41.5747973 L28.2069613,43.7271435 C28.2069613,44.1763462 27.92359,44.5768929 27.4998998,44.7263235 L24.7640456,45.6919727 C24.1284191,45.9163007 23.7034533,46.5169385 23.7034533,47.1910159 L23.7034533,48.4626333 C23.7034533,48.9014487 24.0591708,49.2571663 24.4983508,49.2571663 L35.0947973,49.2571663 C35.5336128,49.2571663 35.8895125,48.9014487 35.8895125,48.4626333 L35.8895125,47.1910159 C35.8895125,46.5169385 35.4645467,45.9163007 34.8291025,45.6919727" id="Fill-8" fill="#E3AA75"></path>
                    <path d="M34.8291025,45.6919727 L32.4409476,44.8491481 C32.3901048,46.2676446 31.2272802,47.4029522 29.796574,47.4029522 C28.3655034,47.4029522 27.2026788,46.2676446 27.1522005,44.8491481 L24.7640456,45.6919727 C24.1284191,45.9163007 23.7034533,46.5169385 23.7034533,47.1910159 L23.7034533,48.4626333 C23.7034533,48.9014487 24.0591708,49.2573485 24.4983508,49.2573485 L35.0947973,49.2573485 C35.5336128,49.2573485 35.8895125,48.9014487 35.8895125,48.4626333 L35.8895125,47.1910159 C35.8895125,46.5169385 35.4645467,45.9163007 34.8291025,45.6919727" id="Fill-10" fill="#E6E7E8"></path>
                    <path d="M28.2069795,43.1013941 C28.6946333,43.3126014 29.2322187,43.4292301 29.7965923,43.4292301 C30.3607836,43.4292301 30.8985513,43.3126014 31.3858405,43.1013941 L31.3858405,42.1045831 L28.2069795,42.1045831 L28.2069795,43.1013941 Z" id="Fill-12" fill="#D29B6E"></path>
                    <path d="M33.3728474,38.3957358 C33.3728474,38.3957358 33.0182232,38.3530934 32.9096128,38.3232073 C32.3076993,38.1564647 31.004738,37.6360091 30.0175854,36.1145513 C29.913713,35.954369 29.6793622,35.954369 29.5754897,36.1145513 C28.5883371,37.6360091 27.2853759,38.1564647 26.6834624,38.3232073 C26.5748519,38.3530934 26.2200456,38.3957358 26.2200456,38.3957358 C25.8318907,38.3957358 25.521549,38.7299499 25.5612756,39.1264875 C25.5957175,39.4710888 25.9115262,39.7203827 26.2579499,39.7203827 L26.3660137,39.7203827 C26.5015945,41.4980592 27.9838724,42.899426 29.7965376,42.899426 C31.6090205,42.899426 33.0912984,41.4980592 33.2270615,39.7203827 L33.3351253,39.7203827 C33.681549,39.7203827 33.9971754,39.4710888 34.0316173,39.1264875 C34.071344,38.7299499 33.7611845,38.3957358 33.3728474,38.3957358" id="Fill-14" fill="#F5B97D"></path>
                    <path d="M32.9096128,38.3231344 C32.308246,38.156574 31.0074715,37.6370296 30.0205011,36.1193986 C29.9149886,35.9570296 29.6780866,35.9568474 29.572574,36.1190342 C28.8908428,37.1675991 28.0596811,37.7394442 27.4122096,38.0477813 C27.1224601,38.1859134 26.8693394,38.2715626 26.6834624,38.3231344 C26.5748519,38.3530205 26.2202278,38.3956629 26.2202278,38.3956629 C25.8318907,38.3956629 25.5217312,38.729877 25.5612756,39.1262323 C25.5957175,39.4711982 25.9115262,39.720492 26.2579499,39.720492 L26.3660137,39.720492 C26.5017768,41.4983508 27.9840547,42.8993531 29.7965376,42.8993531 C29.9771298,42.8993531 30.1531663,42.8813121 30.326287,42.8545239 C28.8137585,42.6203554 27.6254214,41.4054123 27.4380866,39.8784875 C27.410205,39.6516082 27.4164009,39.4212665 27.4446469,39.1945695 C27.4676082,39.0097859 27.5224601,38.8266424 27.6296128,38.6744784 C27.7238269,38.5405376 27.8464692,38.4273713 27.991344,38.3451845 C28.5708428,38.0166196 29.21959,37.5085558 29.7965376,36.7258679 C30.4877449,37.6634533 31.281549,38.2068702 31.936492,38.5201276 C32.4037358,38.7437267 32.9535308,38.6994442 33.3728474,38.3956629 C33.3728474,38.3956629 33.018041,38.3530205 32.9096128,38.3231344" id="Fill-16" fill="#E3AA75"></path>
                    <path d="M28.207344,39.2136492 C28.0608292,39.2136492 27.9423781,39.0950159 27.9423781,38.9486834 L27.9423781,38.6837175 C27.9423781,38.537385 28.0608292,38.4189339 28.207344,38.4189339 C28.3536765,38.4189339 28.4721276,38.537385 28.4721276,38.6837175 L28.4721276,38.9486834 C28.4721276,39.0950159 28.3536765,39.2136492 28.207344,39.2136492" id="Fill-18" fill="#5A4650"></path>
                    <path d="M31.3862597,39.2136492 C31.2397449,39.2136492 31.1212938,39.0950159 31.1212938,38.9486834 L31.1212938,38.6837175 C31.1212938,38.537385 31.2397449,38.4189339 31.3862597,38.4189339 C31.5325923,38.4189339 31.6510433,38.537385 31.6510433,38.6837175 L31.6510433,38.9486834 C31.6512255,39.0950159 31.5327745,39.2136492 31.3862597,39.2136492" id="Fill-20" fill="#5A4650"></path>
                    <polygon id="Fill-22" fill="#FFD164" points="31.3857312 43.4441287 31.3862312 43.4446287 31.3862312 43.4206287"></polygon>
                    <polygon id="Fill-24" fill="#FFD164" points="28.2069795 43.4206469 28.2069795 43.4446469 28.2079795 43.4441469"></polygon>
                    <path d="M30.6276082,32.9152437 C30.4358998,33.3343781 30.3263781,33.7987062 30.3263781,34.2896401 C30.3263781,36.1185239 31.8088383,37.6011663 33.6379043,37.6011663 C33.772574,37.6011663 33.9045103,37.5905968 34.0351708,37.5749248 L34.0351708,37.0712346 C34.0351708,35.0147426 32.5703872,33.3015763 30.6276082,32.9152437" id="Fill-26" fill="#6E5A64"></path>
                    <path d="M28.7490478,40.2502779 C28.6657677,40.2502779 28.6036264,40.326451 28.6174761,40.4086378 C28.703672,40.9187062 29.1987973,41.3097768 29.7965194,41.3097768 C30.3942415,41.3097768 30.8893667,40.9187062 30.9753804,40.4086378 C30.9892301,40.326451 30.9272711,40.2502779 30.8438087,40.2502779 L28.7490478,40.2502779 Z" id="Fill-28" fill="#FFFFFF"></path>
                    <mask id="mask-2" fill="white">
                        <use xlink:href="#path-1"></use>
                    </mask>
                    <g id="Clip-31"></g>
                    <polygon id="Fill-30" fill="#FED304" mask="url(#mask-2)" points="11.7539863 78.6795444 77.2665148 78.6795444 77.2665148 48.7934396 11.7539863 48.7934396"></polygon>
                    <path d="M17.9040911,53.1978497 L16.4464146,53.1978497 C15.9452756,53.1978497 15.5352528,52.7878269 15.5352528,52.2866879 L15.5352528,50.8290114 C15.5352528,50.3278724 15.9452756,49.9178497 16.4464146,49.9178497 L17.9040911,49.9178497 C18.4052301,49.9178497 18.8152528,50.3278724 18.8152528,50.8290114 L18.8152528,52.2866879 C18.8152528,52.7878269 18.4052301,53.1978497 17.9040911,53.1978497" id="Fill-32" fill="#FFFFFF" mask="url(#mask-2)"></path>
                    <path d="M18.0863235,51.5577585 C18.0863235,52.0610843 17.6784875,52.4689203 17.1751617,52.4689203 C16.6720182,52.4689203 16.264,52.0610843 16.264,51.5577585 C16.264,51.054615 16.6720182,50.6465968 17.1751617,50.6465968 C17.6784875,50.6465968 18.0863235,51.054615 18.0863235,51.5577585" id="Fill-33" fill="#F2F2F2" mask="url(#mask-2)"></path>
                    <path d="M28.8380319,53.1978497 L27.3803554,53.1978497 C26.8792164,53.1978497 26.4691936,52.7878269 26.4691936,52.2866879 L26.4691936,50.8290114 C26.4691936,50.3278724 26.8792164,49.9178497 27.3803554,49.9178497 L28.8380319,49.9178497 C29.3391708,49.9178497 29.7491936,50.3278724 29.7491936,50.8290114 L29.7491936,52.2866879 C29.7491936,52.7878269 29.3391708,53.1978497 28.8380319,53.1978497" id="Fill-34" fill="#FFFFFF" mask="url(#mask-2)"></path>
                    <path d="M29.0204465,51.5577585 C29.0204465,52.0610843 28.6124282,52.4689203 28.1092847,52.4689203 C27.605959,52.4689203 27.198123,52.0610843 27.198123,51.5577585 C27.198123,51.054615 27.605959,50.6465968 28.1092847,50.6465968 C28.6124282,50.6465968 29.0204465,51.054615 29.0204465,51.5577585" id="Fill-35" fill="#F2F2F2" mask="url(#mask-2)"></path>
                    <path d="M39.7721549,53.1978497 L38.3144784,53.1978497 C37.8133394,53.1978497 37.4033166,52.7878269 37.4033166,52.2866879 L37.4033166,50.8290114 C37.4033166,50.3278724 37.8133394,49.9178497 38.3144784,49.9178497 L39.7721549,49.9178497 C40.2732938,49.9178497 40.6833166,50.3278724 40.6833166,50.8290114 L40.6833166,52.2866879 C40.6833166,52.7878269 40.2732938,53.1978497 39.7721549,53.1978497" id="Fill-36" fill="#FFFFFF" mask="url(#mask-2)"></path>
                    <path d="M39.9543872,51.5577585 C39.9543872,52.0610843 39.5465513,52.4689203 39.0432255,52.4689203 C38.5398998,52.4689203 38.1320638,52.0610843 38.1320638,51.5577585 C38.1320638,51.054615 38.5398998,50.6465968 39.0432255,50.6465968 C39.5465513,50.6465968 39.9543872,51.054615 39.9543872,51.5577585" id="Fill-37" fill="#F2F2F2" mask="url(#mask-2)"></path>
                    <path d="M50.7060957,53.1978497 L49.2484191,53.1978497 C48.7472802,53.1978497 48.3372574,52.7878269 48.3372574,52.2866879 L48.3372574,50.8290114 C48.3372574,50.3278724 48.7472802,49.9178497 49.2484191,49.9178497 L50.7060957,49.9178497 C51.2072346,49.9178497 51.6172574,50.3278724 51.6172574,50.8290114 L51.6172574,52.2866879 C51.6172574,52.7878269 51.2072346,53.1978497 50.7060957,53.1978497" id="Fill-38" fill="#FFFFFF" mask="url(#mask-2)"></path>
                    <path d="M50.888328,51.5577585 C50.888328,52.0610843 50.480492,52.4689203 49.9771663,52.4689203 C49.4740228,52.4689203 49.0660046,52.0610843 49.0660046,51.5577585 C49.0660046,51.054615 49.4740228,50.6465968 49.9771663,50.6465968 C50.480492,50.6465968 50.888328,51.054615 50.888328,51.5577585" id="Fill-39" fill="#F2F2F2" mask="url(#mask-2)"></path>
                    <path d="M61.6400364,53.1978497 L60.1823599,53.1978497 C59.681221,53.1978497 59.2711982,52.7878269 59.2711982,52.2866879 L59.2711982,50.8290114 C59.2711982,50.3278724 59.681221,49.9178497 60.1823599,49.9178497 L61.6400364,49.9178497 C62.1411754,49.9178497 62.5511982,50.3278724 62.5511982,50.8290114 L62.5511982,52.2866879 C62.5511982,52.7878269 62.1411754,53.1978497 61.6400364,53.1978497" id="Fill-40" fill="#FFFFFF" mask="url(#mask-2)"></path>
                    <path d="M61.822451,51.5577585 C61.822451,52.0610843 61.414615,52.4689203 60.9112893,52.4689203 C60.4079636,52.4689203 60.0001276,52.0610843 60.0001276,51.5577585 C60.0001276,51.054615 60.4079636,50.6465968 60.9112893,50.6465968 C61.414615,50.6465968 61.822451,51.054615 61.822451,51.5577585" id="Fill-41" fill="#F2F2F2" mask="url(#mask-2)"></path>
                    <path d="M72.5741595,53.1978497 L71.1164829,53.1978497 C70.615344,53.1978497 70.2053212,52.7878269 70.2053212,52.2866879 L70.2053212,50.8290114 C70.2053212,50.3278724 70.615344,49.9178497 71.1164829,49.9178497 L72.5741595,49.9178497 C73.0752984,49.9178497 73.4853212,50.3278724 73.4853212,50.8290114 L73.4853212,52.2866879 C73.4853212,52.7878269 73.0752984,53.1978497 72.5741595,53.1978497" id="Fill-42" fill="#FFFFFF" mask="url(#mask-2)"></path>
                    <path d="M72.7563918,51.5577585 C72.7563918,52.0610843 72.3485558,52.4689203 71.8452301,52.4689203 C71.3420866,52.4689203 70.9340683,52.0610843 70.9340683,51.5577585 C70.9340683,51.054615 71.3420866,50.6465968 71.8452301,50.6465968 C72.3485558,50.6465968 72.7563918,51.054615 72.7563918,51.5577585" id="Fill-43" fill="#F2F2F2" mask="url(#mask-2)"></path>
                    <polygon id="Fill-44" fill="#64505A" mask="url(#mask-2)" points="0 19.7273804 80 19.7273804 80 17.3583599 0 17.3583599"></polygon>
                    <polygon id="Fill-45" fill="#64505A" mask="url(#mask-2)" points="10.5694761 91.4347153 11.7539863 91.4347153 11.7539863 19.7271982 10.5694761 19.7271982"></polygon>
                    <polygon id="Fill-46" fill="#64505A" mask="url(#mask-2)" points="77.2665148 91.4347153 78.4510251 91.4347153 78.4510251 19.7271982 77.2665148 19.7271982"></polygon>
                    <polygon id="Fill-47" fill="#64505A" mask="url(#mask-2)" points="11.1617312 79.8640547 77.8587699 79.8640547 77.8587699 78.6795444 11.1617312 78.6795444"></polygon>
                    <polygon id="Fill-49" fill="#FED304" mask="url(#mask-2)" points="17.7448747 17.3197267 71.2758087 17.3197267 71.2758087 0.106788155 17.7448747 0.106788155"></polygon>
                    <path d="M49.3304601,8.51070615 C49.3304601,8.83799544 49.0835353,9.0501139 48.7015763,9.0501139 L48.0725103,9.0501139 L48.0725103,7.96036446 L48.6846287,7.96036446 C49.1008474,7.96036446 49.3304601,8.15189066 49.3304601,8.49958998 L49.3304601,8.51070615 Z M48.7575216,7.06742597 L47.151508,7.06742597 C47.1205285,7.06742597 47.0951982,7.09275626 47.0951982,7.12373576 L47.0951982,11.0546697 C47.0951982,11.0858314 47.1205285,11.1109795 47.151508,11.1109795 L48.0162005,11.1109795 C48.04718,11.1109795 48.0725103,11.0858314 48.0725103,11.0546697 L48.0725103,9.93157175 L48.6735125,9.93157175 C49.6728747,9.93157175 50.3187062,9.36719818 50.3187062,8.49394077 L50.3187062,8.48264237 C50.3187062,7.62287016 49.706041,7.06742597 48.7575216,7.06742597 Z" id="Fill-50" fill="#000000" mask="url(#mask-2)"></path>
                    <path d="M59.4751344,7.9210205 L59.4751344,7.12375399 C59.4751344,7.09259226 59.4501686,7.06744419 59.4190068,7.06744419 L56.1616036,7.06744419 C56.1306241,7.06744419 56.1056583,7.09259226 56.1056583,7.12375399 L56.1056583,7.9210205 C56.1056583,7.952 56.1306241,7.97714806 56.1616036,7.97714806 L57.3016492,7.97714806 L57.3016492,11.0546879 C57.3016492,11.0858497 57.3269795,11.1108155 57.357959,11.1108155 L58.2228337,11.1108155 C58.2539954,11.1108155 58.2789613,11.0858497 58.2789613,11.0546879 L58.2789613,7.97714806 L59.4190068,7.97714806 C59.4501686,7.97714806 59.4751344,7.952 59.4751344,7.9210205" id="Fill-51" fill="#000000" mask="url(#mask-2)"></path>
                    <path d="M60.8728383,9.35307517 L61.3112893,8.28264237 L61.7499226,9.35307517 L60.8728383,9.35307517 Z M61.7730661,7.07353075 C61.7641367,7.05257403 61.7439089,7.03927107 61.7213121,7.03927107 L60.9238633,7.03927107 C60.9014487,7.03927107 60.8810387,7.05257403 60.8722916,7.07353075 L59.1875535,11.0327107 C59.1802642,11.0500228 59.1820866,11.0700683 59.1922916,11.0855581 C59.202861,11.1015945 59.2205376,11.1108884 59.2391253,11.1108884 L60.1209476,11.1108884 C60.1437267,11.1108884 60.1645011,11.097221 60.1728838,11.0762642 L60.5180319,10.2290661 L62.1047289,10.2290661 L62.449877,11.0762642 C62.4584419,11.097221 62.4792164,11.1108884 62.5019954,11.1108884 L63.4060501,11.1108884 C63.4251845,11.1108884 63.4426788,11.1015945 63.4528838,11.0855581 C63.4636355,11.0700683 63.4652756,11.0500228 63.4578041,11.0327107 L61.7730661,7.07353075 Z" id="Fill-52" fill="#000000" mask="url(#mask-2)"></path>
                    <path d="M51.3663235,6.8507426 L52.3749795,6.8507426 C52.4261868,6.8507426 52.4677358,6.80915194 52.4677358,6.75807569 L52.4677358,6.44340951 C52.4677358,6.39215084 52.4261868,6.3507426 52.3749795,6.3507426 L51.3663235,6.3507426 C51.3149339,6.3507426 51.273385,6.39215084 51.273385,6.44340951 L51.273385,6.75807569 C51.273385,6.80915194 51.3149339,6.8507426 51.3663235,6.8507426" id="Fill-53" fill="#000000" mask="url(#mask-2)"></path>
                    <path d="M65.9440364,9.73738497 L65.7038542,9.50285194 C65.9626241,9.18358087 66.056656,8.87979954 66.0900046,8.68535763 C66.0978405,8.63433257 66.1031253,8.58276082 66.1058588,8.53118907 C66.1087745,8.46813667 66.1093212,8.40471982 66.1045831,8.34184966 C66.077795,7.97210023 65.9427608,7.6508246 65.6960182,7.3798451 C65.6932847,7.37674715 65.6905513,7.37383144 65.6872711,7.37000456 C65.6900046,7.36672437 65.692738,7.36344419 65.695836,7.36071071 C65.6994806,7.35670159 65.7034897,7.35269248 65.7073166,7.3488656 L65.9212574,7.13948064 C65.9214396,7.13966287 65.9219863,7.14020957 65.9223508,7.14075626 C66.1096856,7.34194077 66.2469066,7.57465148 66.3343781,7.83888838 C66.3761093,7.9651754 66.4041731,8.0947426 66.4192984,8.22740774 C66.4254943,8.2795262 66.4295034,8.33182688 66.4311435,8.38449203 C66.4311435,8.38813667 66.4322369,8.39214579 66.4329658,8.39633713 L66.4329658,8.50549431 C66.4322369,8.50986788 66.431508,8.51424146 66.4311435,8.5184328 C66.4287745,8.55251025 66.4273166,8.58695216 66.4245831,8.62102961 C66.4178405,8.70613212 66.4047198,8.79032346 66.3863144,8.87342141 C66.3170661,9.18467426 66.1807563,9.4603918 65.9762916,9.70075626 C65.9657221,9.7133303 65.9549704,9.7251754 65.9440364,9.73738497 Z M65.2502779,9.05929841 C65.4077267,8.88253303 65.4893667,8.67515262 65.4886378,8.43825057 C65.4877267,8.19733941 65.4018952,7.98740774 65.2369749,7.80845558 L65.4611207,7.58923007 C65.9032164,8.03569932 65.932738,8.79287472 65.4755171,9.27925285 L65.2502779,9.05929841 Z M65.0551071,8.86868337 L64.838615,8.65674715 C64.872328,8.59023235 64.8896401,8.51715718 64.8894579,8.43733941 C64.8890934,8.35260137 64.8688656,8.27569932 64.8298679,8.20626879 L65.0450843,7.99579043 C65.2233075,8.25292027 65.2267699,8.60827335 65.0551071,8.86868337 Z M64.3932392,8.74166743 C64.2261321,8.77264692 64.065221,8.66184966 64.0344237,8.4947426 C64.0327836,8.48617768 64.031508,8.47743052 64.0298679,8.46904784 L64.0298679,8.40872893 C64.0318724,8.39815945 64.0335125,8.38795444 64.0356993,8.37738497 C64.0468155,8.32253303 64.0708702,8.27387699 64.1087745,8.23287472 C64.1783872,8.15761276 64.2645831,8.12389977 64.3662688,8.13264692 C64.5038542,8.14467426 64.6164738,8.24982232 64.640164,8.38594989 C64.6685923,8.55251025 64.5590706,8.71050569 64.3932392,8.74166743 Z M67.1587973,10.9853121 L66.8267699,10.6658588 L65.9974305,9.82066515 C66.6246743,9.76945786 67.1199818,9.17355809 67.1199818,8.44590433 C67.1199818,7.68471982 66.578205,7.06731663 65.9097768,7.06731663 C65.8964738,7.06731663 65.8835353,7.06804556 65.8705968,7.06859226 C65.850369,7.06804556 65.8303235,7.06731663 65.809549,7.06731663 L64.0125558,7.06731663 C63.9815763,7.06731663 63.9564282,7.09264692 63.9564282,7.12362642 L63.9564282,11.0547426 C63.9564282,11.0859043 63.9815763,11.1108702 64.0125558,11.1108702 L64.8772483,11.1108702 C64.9085923,11.1108702 64.9335581,11.0859043 64.9335581,11.0547426 L64.9335581,9.85292027 L64.9370205,9.85292027 L66.1096856,11.0859043 C66.1202551,11.1015763 66.1375672,11.1108702 66.1563371,11.1108702 L67.0767927,11.1108702 L67.1066788,11.1108702 L67.1145148,11.1108702 L67.1369294,11.1108702 L67.1520547,11.1108702 C67.1890478,11.1106879 67.2003462,11.0941048 67.2069066,11.0678633 C67.208,11.0549248 67.2028975,11.0277722 67.1587973,10.9853121 Z" id="Fill-54" fill="#000000" mask="url(#mask-2)"></path>
                    <path d="M55.4991344,7.06735308 L54.6455581,7.06735308 C54.6145786,7.06735308 54.5894305,7.09250114 54.5894305,7.12366287 L54.5894305,9.37751253 L52.8482005,7.08958542 C52.8374487,7.07555353 52.8212301,7.06735308 52.8033713,7.06735308 L52.0061048,7.06735308 C51.9751253,7.06735308 51.949795,7.09250114 51.949795,7.12366287 L51.949795,7.53587244 L51.949795,8.87491572 L52.4097494,8.87491572 L51.949795,10.2779226 L51.949795,11.0545968 C51.949795,11.0859408 51.9751253,11.1109066 52.0061048,11.1109066 L52.8596811,11.1109066 C52.8908428,11.1109066 52.9156264,11.0859408 52.9156264,11.0545968 L52.9156264,8.72220501 L54.7186333,11.0886743 C54.729385,11.1028884 54.7457859,11.1109066 54.7634624,11.1109066 L55.4991344,11.1109066 C55.5301139,11.1109066 55.5554442,11.0859408 55.5554442,11.0545968 L55.5554442,7.12366287 C55.5554442,7.09250114 55.5301139,7.06735308 55.4991344,7.06735308" id="Fill-55" fill="#000000" mask="url(#mask-2)"></path>
                    <path d="M51.7462779,7.06735308 L50.8814032,7.06735308 C50.8502415,7.06735308 50.8252756,7.09250114 50.8252756,7.12366287 L50.8252756,11.0545968 C50.8252756,11.0859408 50.8502415,11.1109066 50.8814032,11.1109066 L51.7462779,11.1109066 C51.7774396,11.1109066 51.8025877,11.0859408 51.8025877,11.0545968 L51.8025877,10.7278542 L51.8025877,9.39300228 L51.2229066,9.39300228 L51.8025877,7.91236446 L51.8025877,7.12366287 C51.8025877,7.09250114 51.7774396,7.06735308 51.7462779,7.06735308" id="Fill-56" fill="#000000" mask="url(#mask-2)"></path>
                    <path d="M42.7777494,12.2233257 C42.6676811,12.2874715 42.4038087,12.4144875 42.18841,12.3086105 C42.1712802,12.2993166 42.1561549,12.2887472 42.1435809,12.2767198 C42.0827153,12.2187699 42.0805285,12.1172665 42.1375672,11.9760364 C42.2403462,11.7207289 42.5944237,11.3466059 43.1290934,11.128656 C43.2748793,11.0690661 43.4509157,11.0143964 43.6521002,10.9835991 C43.4336036,11.6492938 43.274697,11.9168109 42.7777494,12.2233257 M45.2030797,10.7889749 C44.8752437,10.6453759 44.5659954,10.5699317 44.2809841,10.5415034 C44.3216219,10.4071982 44.4185695,10.1041458 44.5969749,9.63216401 C44.846451,8.97248292 45.0381595,8.6985877 45.0913713,8.57066059 C45.1369294,8.46077449 45.097385,8.29822323 44.9762005,8.22624146 C44.9720091,8.22350797 44.9676355,8.22113895 44.9628975,8.21876993 C44.9570661,8.21567198 44.9508702,8.21275626 44.944492,8.21038724 C44.942123,8.20892938 44.9392073,8.20801822 44.9370205,8.20692483 C44.9284556,8.20364465 44.9197084,8.20091116 44.9105968,8.19854214 C44.8996629,8.19580866 44.8890934,8.19343964 44.8788884,8.19161731 C44.8772483,8.19125285 44.875426,8.19107062 44.8736036,8.19088838 C44.8654032,8.18961276 44.8572027,8.18833713 44.849549,8.18797267 C44.8484556,8.1876082 44.8473622,8.1876082 44.846451,8.1876082 C44.8382506,8.18724374 44.8305968,8.1870615 44.8231253,8.1870615 L44.8220319,8.1870615 C44.7187062,8.18961276 44.6815308,8.25394077 44.6815308,8.25394077 C44.6465421,8.29512528 44.6164738,8.35763098 44.5712802,8.45148064 C44.5384784,8.51981777 44.4887289,8.62715262 44.4258588,8.77202733 C44.1424875,9.30870159 43.8744237,9.61904328 43.6839909,9.79234624 C43.3605285,10.0864692 43.0629431,10.2395444 42.8878178,10.2014579 C42.8422597,10.1917995 42.7753804,10.1631891 42.7188884,10.0312528 C42.6616674,9.8985877 42.7143326,9.67917995 42.8140137,9.44938497 C42.8258588,9.4185877 42.844082,9.37886105 42.8715991,9.32656036 C42.8719636,9.32546697 42.8725103,9.32455581 42.8728747,9.32364465 C42.874697,9.32018223 42.8763371,9.31671982 42.8779772,9.3132574 C42.8796173,9.31052392 42.8810752,9.30797267 42.882533,9.30523918 C42.9306424,9.2146697 42.9745604,9.13740319 43.014287,9.07216401 L43.0141048,9.07234624 C43.0150159,9.07088838 43.0157449,9.06961276 43.0164738,9.06833713 C43.0168383,9.0681549 43.0168383,9.06797267 43.0168383,9.0676082 C43.02759,9.04993166 43.0381595,9.03280182 43.0487289,9.01603645 C43.0492756,9.01494305 43.0500046,9.01384966 43.0507335,9.01275626 C43.1165194,8.90924829 43.1826697,8.82305239 43.2398907,8.75526196 C43.3251754,8.65412301 43.390779,8.59398633 43.4066333,8.57977221 C43.4069977,8.57958998 43.4069977,8.57940774 43.4069977,8.57940774 C43.4080911,8.57867882 43.40882,8.57794989 43.4093667,8.57740319 C43.4097312,8.57722096 43.4106424,8.57630979 43.4106424,8.57630979 L43.4097312,8.57740319 C43.4664055,8.52072893 43.5254487,8.4653303 43.5883189,8.41029613 C43.6149248,8.38697039 43.6402551,8.36892938 43.6639453,8.35453303 L43.664492,8.35416856 C43.665221,8.35362187 43.6666788,8.35271071 43.6683189,8.35161731 C43.6816219,8.34305239 43.7224419,8.31735763 43.7619863,8.31207289 C43.7794806,8.30952164 43.7969749,8.3109795 43.8113713,8.32009112 C43.8199362,8.32519362 43.8257677,8.33193622 43.8295945,8.33958998 C43.8319636,8.34323462 43.8334214,8.34779043 43.8345148,8.35234624 C43.8350615,8.37330296 43.8589339,8.39061503 43.6974761,8.52801822 C43.6039909,8.60728929 43.5234442,8.68145786 43.4718724,8.73029613 C43.4507335,8.74851936 43.4308702,8.76783599 43.4115535,8.78769932 C43.4111891,8.78824601 43.4106424,8.78879271 43.4106424,8.78879271 L43.4108246,8.78879271 C43.2623052,8.94350797 43.1659043,9.1357631 43.149139,9.17020501 L43.1839453,9.15252847 C43.4445376,9.04610478 43.7729203,8.94059226 44.000164,8.73703872 C44.0098223,8.72865604 44.0189339,8.72009112 44.0274989,8.71189066 C44.0304146,8.70933941 44.0329658,8.70678815 44.0353349,8.70441913 C44.0418952,8.69840547 44.0479089,8.69257403 44.0539226,8.68637813 C44.0564738,8.68364465 44.0586606,8.68127563 44.0613941,8.67854214 C44.0685011,8.67161731 44.0750615,8.66487472 44.0818041,8.65776765 C44.0827153,8.65667426 44.0838087,8.6557631 44.0847198,8.6546697 C44.0921913,8.64665148 44.0992984,8.63881549 44.106041,8.63079727 C44.1080456,8.62861048 44.1098679,8.62660592 44.111508,8.62441913 C44.1166105,8.61876993 44.121713,8.61275626 44.1262688,8.60692483 C44.1280911,8.60455581 44.1300957,8.60236902 44.1321002,8.59981777 C44.1370205,8.59362187 44.142123,8.58742597 44.1470433,8.58123007 C44.1479544,8.57995444 44.1488656,8.57831435 44.149959,8.57722096 C44.1556082,8.5695672 44.1610752,8.56209567 44.1661777,8.55498861 C44.1674533,8.55316629 44.1683645,8.5515262 44.1698223,8.55006834 C44.1736492,8.54441913 44.1774761,8.53822323 44.181303,8.53275626 C44.1825786,8.53093394 44.1840364,8.52874715 44.1851298,8.52656036 C44.1889567,8.52109339 44.1926014,8.51507973 44.1958815,8.50961276 L44.1984328,8.50542141 C44.2024419,8.49831435 44.2066333,8.49138952 44.2104601,8.48482916 C44.2108246,8.48373576 44.2115535,8.48264237 44.211918,8.48173121 C44.2151982,8.47589977 44.2181139,8.47006834 44.2208474,8.46460137 C44.2217585,8.46296128 44.2226697,8.46113895 44.2233986,8.45968109 C44.2259499,8.45439636 44.2283189,8.44929385 44.2308702,8.44419134 C44.2314169,8.44273349 44.2319636,8.44127563 44.2326925,8.44 C44.2356082,8.43362187 44.2381595,8.42724374 44.2405285,8.42123007 C44.2407107,8.4208656 44.2408929,8.42068337 44.2408929,8.42013667 C44.243262,8.41448747 44.245631,8.40865604 44.2474533,8.40355353 C44.2481822,8.40191344 44.2487289,8.40045558 44.2490934,8.39881549 C44.2507335,8.39444191 44.2521913,8.39006834 44.2536492,8.38569476 C44.2540137,8.38441913 44.2545604,8.38296128 44.2549248,8.38150342 C44.2583872,8.37056948 44.261303,8.36 44.2633075,8.35015945 C44.2638542,8.34833713 44.2642187,8.34687927 44.2645831,8.34542141 L44.2667699,8.33539863 C44.2669522,8.33357631 44.2674989,8.33193622 44.2676811,8.33047836 C44.26841,8.32683371 44.2687745,8.32355353 44.2693212,8.32027335 C44.2695034,8.31899772 44.2698679,8.3177221 44.2698679,8.31681093 C44.2704146,8.31261959 44.270779,8.30897494 44.2713257,8.30514806 C44.271508,8.30314351 44.2718724,8.30113895 44.2718724,8.29949886 C44.2720547,8.29731207 44.2722369,8.29548975 44.2726014,8.29330296 C44.2727836,8.29111617 44.2727836,8.28947608 44.2729658,8.28728929 C44.2729658,8.28583144 44.2731481,8.28419134 44.2731481,8.28255125 C44.2735125,8.27489749 44.2735125,8.2681549 44.2733303,8.26177677 L44.2733303,8.25995444 C44.2733303,8.25776765 44.2733303,8.2557631 44.2731481,8.25357631 C44.2718724,8.23061503 44.2680456,8.21785877 44.2680456,8.21785877 C44.253467,8.14004556 44.2172027,8.07134396 44.1667244,8.01722096 C43.9963371,7.83571754 43.6367927,7.79854214 43.3064055,8.08792711 C43.0625786,8.30095672 42.8759727,8.51599089 42.6600273,8.76510251 C42.4998451,8.94970387 42.3183417,9.15872437 42.0759727,9.41166287 C41.7324647,9.77047836 41.4736948,9.98241458 41.2910979,10.1039636 C41.2683189,10.1181777 41.0811663,10.2317084 41.0131936,10.1692027 C40.9678178,10.1276538 40.9785695,10.0534852 40.9933303,10.0031891 C41.0450843,9.85448747 41.1352893,9.6895672 41.215836,9.54323462 C41.2400729,9.49895216 41.2630342,9.45685649 41.2839909,9.41767654 C41.3120547,9.36446469 41.3454032,9.30523918 41.380574,9.24255125 C41.5854032,8.87863326 41.817385,8.46660592 41.6677722,8.16993166 C41.6152893,8.06569476 41.517795,7.99845103 41.4002551,7.98569476 C41.0859043,7.95179954 40.6751526,8.3171754 40.4774305,8.52984055 L40.4770661,8.53038724 C40.3474989,8.66068337 40.1638087,8.93384966 40.1638087,8.93384966 C40.1587062,8.94059226 40.1534214,8.94769932 40.1483189,8.95462415 L40.1481367,8.95462415 C40.1308246,8.97813212 40.1209841,8.98615034 40.1164282,8.98870159 C40.1109613,8.99161731 40.1044009,8.99453303 40.0972938,8.99690205 C40.0748793,9.00164009 40.0637631,8.99052392 40.0590251,8.98104784 L40.0586606,8.98104784 C40.0584784,8.9808656 40.0584784,8.98031891 40.0584784,8.98013667 C40.0575672,8.97849658 40.0572027,8.97722096 40.0564738,8.97594533 C40.0555626,8.97211845 40.0551982,8.96756264 40.0555626,8.96318907 C40.0555626,8.96082005 40.0557449,8.95863326 40.0562916,8.95571754 L40.0562916,8.95517084 C40.0572027,8.9498861 40.0588428,8.94387244 40.0608474,8.93694761 C40.0619408,8.93421412 40.0628519,8.93148064 40.0639453,8.92874715 C40.0783417,8.89375854 40.1419408,8.75107062 40.2797084,8.58505695 C40.4382506,8.39298405 40.5146059,8.3470615 40.562533,8.25794989 C40.6102779,8.1690205 40.5743781,7.97676538 40.4429886,7.8991344 C40.4429886,7.8991344 40.4428064,7.8991344 40.4428064,7.89895216 C40.4050843,7.87471526 40.3606196,7.86123007 40.3136036,7.86123007 L40.312328,7.86123007 C40.1479544,7.86159453 40.0125558,8.01066059 39.829959,8.39225513 C39.8279544,8.39681093 39.8255854,8.40154897 39.8235809,8.40610478 C39.6663144,8.59234624 39.4469066,8.86806378 39.1438542,9.28264237 C38.7524191,9.81876993 38.4692301,10.0846469 38.2808018,10.2167654 C38.278615,10.2178588 38.0340592,10.3703872 37.9945148,10.1794077 C37.971918,10.0709795 37.9686378,9.94159453 37.9815763,9.78833713 C37.9815763,9.78833713 38.0504601,9.11225513 38.3675444,8.60109339 C38.441713,8.47954442 38.4728747,8.45020501 38.5056765,8.43981777 C38.5133303,8.43799544 38.5249932,8.43799544 38.5370205,8.44820046 C38.5517813,8.46277904 38.5477722,8.48501139 38.5474077,8.48701595 C38.5432164,8.50797267 38.5330114,8.53640091 38.5202551,8.56628702 C38.5166105,8.57448747 38.4892756,8.63371298 38.4242187,8.76218679 C38.4167472,8.77712984 38.4072711,8.79553531 38.3963371,8.81722096 C38.3963371,8.81776765 38.3959727,8.81794989 38.3956082,8.81849658 C38.3956082,8.81904328 38.3952437,8.81958998 38.3950615,8.81995444 C38.3197995,8.97230068 38.1831253,9.27553531 38.1279089,9.57567198 C38.1984328,9.51061503 38.2525558,9.45230068 38.2849932,9.41476082 C38.4705057,9.19826879 38.586041,8.97485194 38.6521913,8.81594533 L38.6545604,8.81066059 C38.6549248,8.80993166 38.6552893,8.8090205 38.6556538,8.80829157 C38.6614852,8.79389522 38.6671344,8.77986333 38.6724191,8.76637813 C38.6879089,8.72774487 38.7013941,8.68965831 38.7126925,8.65266515 C38.7243554,8.61640091 38.7294579,8.59580866 38.7294579,8.59580866 L38.7292756,8.59599089 C38.8052665,8.30551253 38.7520547,8.08610478 38.575836,8.00264237 C38.4996629,7.9667426 38.3431253,7.93357631 38.152328,8.11927107 C38.0511891,8.21785877 37.946041,8.37111617 37.8390706,8.5752164 C37.6318724,8.97175399 37.5285467,9.36373576 37.4937403,9.69886105 C37.0478178,10.189795 36.7433075,10.2940319 36.6332392,10.3155353 C36.5532392,10.3315718 36.5105968,10.3200911 36.4991162,10.3135308 C36.4876355,10.295672 36.4551982,10.2182232 36.5310068,9.96965831 C36.5966105,9.75444191 36.7156082,9.50041002 36.8418952,9.23744875 C36.9718269,8.96701595 37.0869977,8.68455581 37.1442187,8.54059226 C37.1812118,8.44783599 37.2151071,8.35890661 37.2395262,8.29020501 C37.2599362,8.23462415 37.2767016,8.18797267 37.282533,8.1442369 C37.2830797,8.14132118 37.283262,8.13876993 37.2834442,8.13603645 C37.2836264,8.13457859 37.2839909,8.13348519 37.2839909,8.13220957 C37.2843554,8.12601367 37.2849021,8.11981777 37.2850843,8.1143508 C37.2854487,8.10851936 37.2854487,8.10287016 37.2852665,8.09758542 L37.2852665,8.09740319 C37.2850843,8.09211845 37.2845376,8.08701595 37.2841731,8.08173121 L37.2841731,8.08136674 C37.2838087,8.07644647 37.2830797,8.07170843 37.2819863,8.06715262 L37.2819863,8.06624146 C37.2810752,8.06205011 37.280164,8.05749431 37.2787062,8.0529385 C37.2785239,8.05275626 37.2785239,8.05257403 37.2781595,8.05202733 C37.2770661,8.04783599 37.2759727,8.04346241 37.2743326,8.03981777 C37.2743326,8.03927107 37.2741503,8.03890661 37.2739681,8.03854214 C37.2725103,8.03453303 37.2706879,8.03107062 37.2690478,8.02724374 C37.2688656,8.02669704 37.2686834,8.02615034 37.2685011,8.02578588 C37.2664966,8.02214123 37.264492,8.01867882 37.2623052,8.01503417 C37.2623052,8.0146697 37.2619408,8.01412301 37.2615763,8.01357631 C37.259754,8.01029613 37.257385,8.00683371 37.2551982,8.003918 C37.2548337,8.00318907 37.254287,8.00264237 37.2539226,8.00209567 C37.2517358,7.99899772 37.2493667,7.996082 37.2468155,7.99298405 C37.2462688,7.99225513 37.2459043,7.9915262 37.2453576,7.9909795 C37.2428064,7.98824601 37.2404374,7.98551253 37.2377039,7.98277904 C37.2369749,7.98168565 37.2360638,7.98113895 37.2353349,7.98041002 C37.2327836,7.97767654 37.2304146,7.97512528 37.2276811,7.97275626 C37.2220319,7.96747153 37.2160182,7.96255125 37.2109157,7.95835991 C37.2105513,7.95781321 37.2100046,7.95763098 37.2096401,7.95726651 C37.1888656,7.94123007 37.1700957,7.93157175 37.1560638,7.92555809 C37.1542415,7.92501139 37.1524191,7.92410023 37.1504146,7.92355353 C37.1478633,7.92246014 37.1454943,7.92154897 37.1434897,7.92082005 C37.1387517,7.91917995 37.1340137,7.9177221 37.1300046,7.91644647 C37.1290934,7.916082 37.1285467,7.91571754 37.1276355,7.91571754 C37.1227153,7.91425968 37.1176128,7.91298405 37.1128747,7.91189066 L37.1126925,7.91189066 C37.1050387,7.91006834 37.0977494,7.90879271 37.0906424,7.90769932 C37.0853576,7.90678815 37.0800729,7.90642369 37.0749704,7.90587699 C37.0164738,7.89949886 36.9659954,7.90952164 36.9248109,7.92938497 C36.9248109,7.92938497 36.9246287,7.9295672 36.9242642,7.9295672 C36.9187973,7.93211845 36.9131481,7.93503417 36.9078633,7.93831435 C36.9074989,7.93831435 36.9073166,7.93849658 36.9067699,7.93867882 C36.9018497,7.94177677 36.8967472,7.94469248 36.8918269,7.9481549 C36.8914624,7.94851936 36.8907335,7.94888383 36.890369,7.94924829 C36.8859954,7.95234624 36.8816219,7.95562642 36.8772483,7.95908884 C36.8763371,7.95981777 36.8756082,7.96036446 36.8748793,7.96091116 C36.8710524,7.96437358 36.8670433,7.96747153 36.8635809,7.97093394 C36.8624875,7.9718451 36.8613941,7.97257403 36.8604829,7.97366743 C36.8572027,7.97694761 36.8541048,7.98004556 36.8510068,7.98332574 C36.8499134,7.98460137 36.8486378,7.98605923 36.8473622,7.98733485 C36.8448109,7.99025057 36.8422597,7.99334852 36.8395262,7.99644647 C36.8380683,7.99808656 36.8367927,8.00027335 36.8355171,8.00209567 C36.8333303,8.00482916 36.8311435,8.00756264 36.8293212,8.0101139 C36.8276811,8.01284738 36.826041,8.01503417 36.8244009,8.01776765 C36.8231253,8.01995444 36.8216674,8.02214123 36.820574,8.02432802 C36.8176583,8.02888383 36.8149248,8.03362187 36.8125558,8.03854214 C36.7735581,8.11708428 36.6100957,8.34268793 36.3584328,8.69658314 C36.1067699,9.05047836 35.4478178,9.90678815 35.1110524,10.1376765 C35.1106879,10.1382232 35.1101412,10.1384055 35.1094123,10.1387699 C35.1092301,10.1391344 35.1088656,10.1391344 35.1086834,10.1393166 C34.942123,10.2532118 34.8442642,10.2646925 34.7881367,10.2477449 C34.7318269,10.2229613 34.7174305,10.1826879 34.714697,10.1544419 C34.7143326,10.1504328 34.7141503,10.1462415 34.7141503,10.1418679 C34.7143326,10.1409567 34.7143326,10.1396811 34.7143326,10.1384055 C34.7150615,10.1271071 34.7170661,10.1158087 34.7208929,10.1032346 C34.7210752,10.1028702 34.7210752,10.1028702 34.7210752,10.1025057 C34.7423964,10.0383599 34.8174761,9.94888383 35.0376128,9.72091116 C35.0490934,9.70906606 35.0603918,9.69722096 35.071508,9.68555809 C35.0749704,9.68191344 35.0787973,9.67790433 35.0826241,9.67389522 C35.0897312,9.66642369 35.0968383,9.65895216 35.1035809,9.65148064 C35.1077722,9.64692483 35.1119636,9.64273349 35.1159727,9.63799544 C35.1223508,9.63125285 35.1285467,9.62451025 35.1347426,9.61794989 C35.1385695,9.61357631 35.1423964,9.6095672 35.1462232,9.60519362 C35.1522369,9.59863326 35.1582506,9.59207289 35.1644465,9.5853303 C35.1679089,9.58132118 35.1715535,9.57712984 35.1750159,9.57330296 C35.1808474,9.5667426 35.186861,9.56018223 35.192328,9.55362187 C35.1961549,9.54979499 35.1994351,9.54596811 35.2027153,9.54177677 C35.2085467,9.53558087 35.2140137,9.52938497 35.2194806,9.52300683 C35.2229431,9.51936219 35.226041,9.51535308 35.2293212,9.51170843 C35.2344237,9.5053303 35.2400729,9.49949886 35.2451754,9.49330296 C35.2484556,9.48965831 35.2513713,9.48601367 35.2544692,9.48218679 C35.2595718,9.47635535 35.264492,9.47034169 35.2697768,9.46451025 C35.272328,9.4608656 35.2752437,9.45776765 35.2779772,9.45430524 C35.2830797,9.44829157 35.288,9.44246014 35.2931025,9.43626424 C35.2954715,9.43316629 35.2980228,9.43025057 35.300574,9.42715262 C35.3054943,9.42132118 35.3100501,9.41530752 35.3147882,9.40965831 C35.3171572,9.4067426 35.3195262,9.40382688 35.3218952,9.40072893 C35.326451,9.39489749 35.3311891,9.38943052 35.3353804,9.38378132 C35.3377494,9.38104784 35.3399362,9.37831435 35.342123,9.37558087 C35.3466788,9.36993166 35.3506879,9.36428246 35.3552437,9.35881549 C35.3570661,9.35626424 35.3590706,9.35371298 35.3610752,9.35116173 C35.3652665,9.34569476 35.3696401,9.34022779 35.3736492,9.33494305 C35.3756538,9.33275626 35.3771116,9.33020501 35.3787517,9.32820046 C35.3829431,9.32273349 35.3869522,9.31726651 35.3909613,9.31234624 C35.3926014,9.31015945 35.3940592,9.30797267 35.3956993,9.30596811 C35.3997084,9.30068337 35.4035353,9.2957631 35.4068155,9.29066059 C35.4086378,9.28865604 35.4099134,9.28665148 35.4111891,9.28482916 C35.4151982,9.27972665 35.4186606,9.27462415 35.422123,9.27006834 C35.4235809,9.26824601 35.4246743,9.26624146 35.4259499,9.26460137 C35.4295945,9.25986333 35.4326925,9.25512528 35.4361549,9.25075171 C35.4372483,9.24892938 35.4385239,9.24728929 35.4394351,9.2456492 C35.4427153,9.24109339 35.4461777,9.23653759 35.4490934,9.23216401 C35.4501868,9.23070615 35.4510979,9.22924829 35.4520091,9.22797267 C35.4551071,9.22341686 35.4578405,9.21922551 35.4609385,9.21503417 C35.4618497,9.21357631 35.4625786,9.21230068 35.4634897,9.21120729 C35.4664055,9.20683371 35.4693212,9.20264237 35.4718724,9.19881549 C35.4726014,9.19753986 35.4731481,9.19681093 35.4740592,9.19589977 C35.476246,9.19243736 35.4780683,9.18952164 35.4802551,9.18642369 C35.5026697,9.15125285 35.5489567,9.07161731 35.5817585,8.96592255 C35.6163827,8.84546697 35.6222141,8.72683371 35.5735581,8.62879271 C35.5378405,8.55753986 35.4802551,8.50651481 35.4084556,8.47936219 L35.4080911,8.47936219 C35.2998451,8.43015945 35.2429886,8.45785877 35.1090478,8.45494305 C34.9931481,8.4523918 34.8238542,8.39881549 34.779754,8.38441913 C34.2777039,8.21640091 34.2806196,8.07025057 34.2981139,8.02031891 C34.2995718,8.01630979 34.3012118,8.01266515 34.3033986,8.00883827 C34.3074077,8.00300683 34.3354715,7.96692483 34.3848565,8.00136674 C34.438615,8.03872437 34.4225786,8.09230068 34.570369,8.16792711 C34.717795,8.243918 34.7711891,8.22369021 34.7711891,8.22369021 C34.7711891,8.22369021 34.7790251,8.21785877 34.7910524,8.10487472 C34.7926925,8.09175399 34.7937859,8.07845103 34.7948793,8.06605923 L34.7948793,8.06569476 L34.7948793,8.06514806 C34.8065421,7.91808656 34.7819408,7.80583144 34.7214396,7.71927107 C34.6769749,7.65621868 34.5725558,7.55271071 34.3724647,7.57403189 C33.9823052,7.61503417 33.923262,7.87252847 33.9143326,7.95034169 C33.8955626,8.11854214 33.9859499,8.30350797 34.1463144,8.46241458 C34.2193895,8.53275626 34.6031708,8.87553531 35.1555171,8.89539863 C35.1524191,8.90250569 35.149139,8.91052392 35.1456765,8.91817768 C35.1163371,8.98214123 35.0162916,9.1729385 34.7921458,9.36701595 L34.7919636,9.36701595 C34.660574,9.4794533 34.4985695,9.61886105 34.3939681,9.79070615 C34.2642187,10.0046469 34.2485467,10.2295216 34.3474989,10.4451025 C34.3782961,10.5061503 34.4504601,10.6149431 34.5955171,10.6867426 C34.6658588,10.7188155 34.7422141,10.7339408 34.8227608,10.7315718 C35.0753349,10.7242825 35.3565194,10.5431435 35.6921913,10.1692027 L35.6921913,10.169385 C35.6921913,10.169385 35.6956538,10.1653759 35.7016674,10.1586333 C35.718615,10.1394989 35.7359271,10.1198178 35.7532392,10.0999544 C35.7643554,10.0855581 35.7747426,10.0709795 35.7851298,10.0565831 C35.8671344,9.95052392 35.9874077,9.77831435 36.0787062,9.57822323 C36.1709157,9.38159453 36.172738,9.33129841 36.2341503,9.31161731 C36.2379772,9.31125285 36.2416219,9.31088838 36.2449021,9.31107062 L36.2450843,9.31107062 C36.28718,9.3194533 36.2899134,9.3577221 36.289549,9.37248292 C36.2877267,9.39599089 36.2797084,9.42915718 36.2603918,9.47635535 C36.2571116,9.48473804 36.2538314,9.49202733 36.2507335,9.49931663 C36.0561093,9.95890661 35.9699134,10.3310251 36.1628975,10.5792255 C36.2565649,10.6996811 36.4172938,10.7618223 36.6038998,10.7507062 C36.8196629,10.7377677 37.0653121,10.6304328 37.3224419,10.4387244 L37.3351982,10.4292483 C37.3441276,10.4223235 37.3528747,10.4157631 37.3619863,10.4088383 C37.3618041,10.408656 37.3618041,10.408656 37.3618041,10.4084738 L37.3749248,10.398451 C37.3749248,10.398451 37.3479544,10.1783144 37.3623508,10.1159909 C37.3769294,10.0538497 37.4150159,10.0367198 37.4445376,10.0460137 C37.4445376,10.0460137 37.4780683,10.0540319 37.4844465,10.1241913 C37.4893667,10.1806834 37.5001185,10.3009567 37.5407563,10.4254214 L37.5407563,10.4265148 C37.5411207,10.426697 37.5411207,10.4268793 37.5411207,10.4268793 C37.5423964,10.4303417 37.5431253,10.4334396 37.5444009,10.4367198 C37.546041,10.4416401 37.5476811,10.4463781 37.5493212,10.4511162 C37.5505968,10.4551253 37.5520547,10.4585877 37.5533303,10.4624146 C37.5564282,10.4698861 37.5587973,10.4766287 37.5615308,10.4830068 C37.5624419,10.4855581 37.5635353,10.4882916 37.5646287,10.4906606 C37.5726469,10.5096128 37.5793895,10.5243736 37.5839453,10.5336674 C37.5863144,10.5376765 37.5881367,10.5422323 37.5906879,10.5464237 C37.6646743,10.6801822 37.7989795,10.7625513 37.9589795,10.772574 C37.9706424,10.773303 37.9828519,10.7736674 37.9945148,10.7736674 C38.2678633,10.7727563 38.5935125,10.5713895 38.9681822,10.1737585 C39.014287,10.122369 39.0540137,10.0733485 39.0891845,10.0270615 L39.08882,10.027426 C39.08882,10.027426 39.0899134,10.0259681 39.0913713,10.0241458 C39.0951982,10.0192255 39.0990251,10.0139408 39.1028519,10.0088383 C39.1037631,10.0075626 39.1141503,9.99170843 39.1310979,9.96528474 C39.1772027,9.89548975 39.2557449,9.77066059 39.3377494,9.61630979 C39.3991617,9.50059226 39.4367016,9.43170843 39.4651298,9.39489749 C39.4778861,9.37940774 39.505221,9.35298405 39.535836,9.36537585 C39.5391162,9.36701595 39.5495034,9.37302961 39.5551526,9.38742597 C39.5564282,9.39107062 39.5575216,9.39453303 39.5582506,9.39872437 C39.5582506,9.39872437 39.558615,9.39872437 39.558615,9.39890661 C39.558615,9.3994533 39.558615,9.4 39.5587973,9.40072893 C39.5587973,9.40127563 39.5589795,9.40182232 39.5591617,9.40255125 C39.5691845,9.47052392 39.4970205,9.56400911 39.3038542,9.941959 C39.1801185,10.184328 39.166451,10.3142597 39.1786606,10.3822323 C39.1963371,10.4394533 39.2344237,10.4826424 39.2929203,10.5108884 C39.4693212,10.5954442 39.5919636,10.4370843 39.6816219,10.3211845 C39.7539681,10.2276993 39.8552893,10.0868337 39.9837631,9.90842825 C40.1525103,9.67407745 40.3784784,9.36009112 40.6598451,8.98542141 C40.6818952,8.95626424 40.7762916,8.8343508 40.8770661,8.73248292 C40.9105968,8.70022779 40.944492,8.66979499 40.9785695,8.64118451 C40.9816674,8.63881549 40.9842187,8.6366287 40.9869522,8.63444191 L40.9869522,8.63480638 L40.9873166,8.63425968 C40.9922369,8.6298861 40.9969749,8.62624146 41.0011663,8.62241458 C41.0370661,8.59271071 41.132738,8.51927107 41.1772027,8.53767654 C41.2285923,8.55917995 41.2045376,8.65649203 41.1724647,8.72537585 C41.1221686,8.82833713 41.0623964,8.93457859 41.0069977,9.03243736 C40.9705513,9.09749431 40.9361093,9.15927107 40.9053121,9.21722096 C40.8854487,9.25457859 40.8632164,9.29503417 40.8400729,9.33712984 C40.6372483,9.70651481 40.3597084,10.2122096 40.6478178,10.5413212 C40.7247198,10.6289749 40.8304146,10.6769021 40.9537859,10.6794533 C41.2586606,10.6863781 41.7025786,10.3988155 42.2722369,9.82441913 C42.2618497,9.95708428 42.2755171,10.0851936 42.3250843,10.2003645 C42.4493667,10.4899317 42.650369,10.5885194 42.7968838,10.6202278 C42.8457221,10.630615 42.8949248,10.6355353 42.9443098,10.6353531 C43.043262,10.6349886 43.1433075,10.6147608 43.2420774,10.5805011 L43.2418952,10.5806834 C43.2418952,10.5806834 43.5861321,10.4819134 43.7126014,10.2615945 C43.7776583,10.1495216 43.7829431,10.0031891 43.8470888,9.96856492 C43.8485467,9.96783599 43.8921002,9.94687927 43.9181595,9.98369021 C43.9267244,9.99917995 43.9332847,10.0234169 43.9301868,10.0602278 C43.9267244,10.0857403 43.9207107,10.1119818 43.9157904,10.1322096 C43.9136036,10.1393166 43.9121458,10.1456948 43.9106879,10.1515262 C43.9079544,10.161549 43.9061321,10.1679271 43.9061321,10.1679271 C43.8917358,10.2127563 43.8775216,10.2586788 43.8634897,10.3049658 L43.8213941,10.4420046 C43.8115535,10.4740774 43.8020774,10.5050569 43.7927836,10.535672 C43.4678633,10.5610023 43.1885011,10.641549 42.9674533,10.731754 C42.3926925,10.966287 41.9108702,11.3917995 41.7401185,11.8158542 C41.5706424,12.2364465 41.7348337,12.4793622 41.848,12.5872437 C41.9956082,12.7275626 42.2018952,12.7855125 42.4030797,12.7847836 C42.498205,12.7846014 42.5916902,12.7709339 42.6777039,12.7472437 C42.6800729,12.746697 42.6822597,12.7459681 42.6846287,12.7454214 C42.6950159,12.7423235 42.7054032,12.7390433 42.7161549,12.7357631 C42.7234442,12.7332118 42.7301868,12.7308428 42.7369294,12.7282916 C42.7418497,12.7268337 42.7467699,12.7250114 42.751508,12.7230068 C42.7608018,12.7197267 42.7697312,12.7164465 42.7784784,12.7128018 C43.114697,12.5779499 43.6690478,12.1839636 43.8596629,11.7205467 C43.9613485,11.4736219 44.0637631,11.1886105 44.1417585,10.96082 C44.4121913,10.9766743 44.7105057,11.0410023 45.0306879,11.1815034 C45.1391162,11.2290661 45.2654032,11.1796811 45.3129658,11.0714351 C45.3607107,10.9631891 45.3113257,10.8367198 45.2030797,10.7889749" id="Fill-57" fill="#000000" mask="url(#mask-2)"></path>
                    <path d="M45.8363554,11.2144692 C45.7319362,11.1587062 45.602369,11.1984328 45.5467882,11.3030342 C45.4912073,11.4076355 45.5309339,11.5370205 45.6351708,11.5927836 C45.7915262,11.6758815 45.9637358,11.7905057 45.9965376,11.8329658 C46.0377221,11.8910979 46.1024146,11.9224419 46.1687472,11.9229886 C46.2123007,11.9237175 46.2567654,11.9109613 46.2950342,11.8838087 C46.3916173,11.8154715 46.4143964,11.681713 46.3460592,11.5849476 C46.2434624,11.4402551 45.9555353,11.2777039 45.8363554,11.2144692" id="Fill-58" fill="#000000" mask="url(#mask-2)"></path>
                    <path d="M22.769549,8.03723007 C22.4438998,7.98547608 22.1740137,7.75167198 22.1696401,7.74820957 C22.0816219,7.66984966 21.9462232,7.67786788 21.8678633,7.76606834 C21.789139,7.85445103 21.7969749,7.98984966 21.8851754,8.06857403 C21.9001185,8.08151253 22.2490934,8.38857403 22.7023052,8.46037358 C22.7139681,8.46237813 22.7252665,8.46292483 22.7367472,8.46292483 C22.8400729,8.46256036 22.9308246,8.38766287 22.9474077,8.28233257 C22.9659954,8.16552164 22.8863599,8.05581777 22.769549,8.03723007" id="Fill-59" fill="#000000" mask="url(#mask-2)"></path>
                    <path d="M24.9654123,7.87271071 C25.0237267,7.65476082 25.0840456,7.44829157 25.1460046,7.2529385 C25.2573485,6.91416856 25.5613121,6.08792711 26.0363918,5.5543508 C26.2219043,5.36082005 26.4332938,5.20865604 26.6740228,5.12756264 C26.8739317,5.08382688 27.2793986,5.11462415 27.1042733,5.923918 C27.1042733,5.923918 27.1040911,5.92464692 27.1039089,5.92555809 C27.0964374,5.95161731 27.0886014,5.97767654 27.0805831,6.0033713 C27.0242733,6.17539863 26.8595353,6.60492027 26.4948884,7.06177677 C26.1081913,7.51644647 25.5837267,7.83699317 24.9278724,8.01740319 C24.9397175,7.96984055 24.9521093,7.92173121 24.9654123,7.87271071 M24.8252756,8.48446469 C24.8343872,8.48209567 24.8431344,8.48009112 24.8515171,8.47845103 C24.8551617,8.47753986 24.8584419,8.4766287 24.8620866,8.47589977 C25.5860957,8.30751708 26.1949339,7.98022779 26.6572574,7.51589977 C27.6276446,6.42031891 27.5975763,5.63252847 27.5656856,5.41603645 C27.4545239,4.76473804 26.8174396,4.27835991 25.9733394,5.00145786 C25.0423144,5.79927107 24.5482825,7.75881549 24.4815854,8.03781321 C24.4755718,8.06460137 24.4693759,8.09102506 24.4635444,8.11763098 C23.9268702,8.20236902 23.5214032,8.16610478 23.5106515,8.16501139 C23.3931116,8.15353075 23.2879636,8.23972665 23.2763007,8.35744875 C23.26482,8.47517084 23.3510159,8.57977221 23.468738,8.59179954 C23.4886014,8.59343964 23.8598087,8.62842825 24.3769841,8.56264237 C24.3769841,8.56264237 24.5781686,8.54715262 24.8252756,8.48446469" id="Fill-60" fill="#000000" mask="url(#mask-2)"></path>
                    <path d="M34.5057494,8.96273349 C34.5068428,8.96018223 34.5161367,8.94068337 34.5307153,8.90915718 L34.5394624,8.88856492 L34.5307153,8.88309795 C34.4425148,8.84191344 34.2320364,8.72492027 34.1651572,8.66824601 C34.1425604,8.73330296 34.0437904,8.90788155 34.0437904,8.90788155 C33.6339499,9.59963554 32.9713531,10.3905239 32.6489841,10.2474715 C32.6344055,10.2409112 32.6161822,10.2328929 32.6077995,10.1773121 C32.5917631,10.0714351 32.6296674,9.90159453 32.7127654,9.69257403 C33.0369567,9.28838269 33.2563645,8.9785877 33.4863417,8.50569476 C33.5202369,8.4366287 33.5903964,8.29248292 33.4837904,8.17403189 C33.4234715,8.10733485 33.3288929,8.08419134 33.2428793,8.11553531 C33.1878451,8.13539863 33.1282551,8.17093394 32.9604191,8.39835991 C32.856,8.53958998 32.7421048,8.71289294 32.6396902,8.88656036 C32.5387335,9.05712984 32.4275718,9.26323462 32.3393713,9.47334852 C32.3393713,9.47334852 32.2280273,9.64938497 32.0308519,9.84856492 C31.9781868,9.90724374 31.9198724,9.96009112 31.8584601,10.0067426 L31.8579134,10.0074715 L31.8579134,10.0072893 C31.6067973,10.1980866 31.3095763,10.2799089 31.1725376,10.2077449 C31.0630159,10.1499772 31.0498952,9.93640091 31.1370023,9.6366287 C31.1645194,9.54205011 31.1967745,9.45512528 31.2319453,9.37330296 L31.2317631,9.37330296 C31.232492,9.37166287 31.2330387,9.37075171 31.2337677,9.36911162 C31.2366834,9.36255125 31.2394169,9.35617312 31.2419681,9.34997722 L31.2414214,9.35052392 C31.2414214,9.35052392 31.242697,9.34779043 31.2448838,9.34359909 C31.2463417,9.34068337 31.2485285,9.33722096 31.251262,9.33321185 C31.3522187,9.13148064 31.452082,8.98715262 31.5280729,8.89220957 C31.5523098,8.86232346 31.601877,8.80346241 31.6616492,8.74715262 C31.7653394,8.64747153 31.8697585,8.57129841 31.9647016,8.51298405 L31.9639727,8.51334852 C31.9639727,8.51334852 31.9654305,8.51243736 31.9679818,8.5109795 C32.0179134,8.4805467 32.0645649,8.45539863 32.1073895,8.43444191 C32.1622415,8.40637813 32.2223781,8.37904328 32.2675718,8.36665148 C32.2675718,8.36665148 32.3080273,8.35371298 32.3193257,8.37539863 C32.3271617,8.41384966 32.2730387,8.4732574 32.1294396,8.55763098 C32.1294396,8.55799544 32.1290752,8.55799544 32.1288929,8.55817768 C32.1055672,8.57403189 32.0804191,8.59006834 32.0545421,8.60592255 L32.0547244,8.60592255 C32.0547244,8.60592255 32.0339499,8.61831435 31.999508,8.64273349 C31.9630615,8.66879271 31.9324465,8.69284738 31.9091207,8.71179954 C31.7884829,8.81093394 31.6157267,8.98041002 31.4830615,9.22277904 C31.8320364,9.07735763 32.3984146,8.8118451 32.5680729,8.55526196 C32.6666606,8.40637813 32.6890752,8.27207289 32.6349522,8.15635535 C32.6236538,8.13175399 32.6094396,8.1104328 32.5934032,8.09111617 C32.5934032,8.09111617 32.593221,8.09075171 32.5930387,8.09056948 C32.5624237,8.05047836 32.5318087,8.01968109 32.502287,7.99580866 L32.5013759,7.99507973 C32.4997358,7.9938041 32.4982779,7.99271071 32.49682,7.99143508 C32.4769567,7.97594533 32.4576401,7.96373576 32.4390524,7.95389522 C32.3594169,7.91580866 32.2728565,7.92200456 32.2094396,7.93603645 C32.0631071,7.97722096 31.394861,8.2028246 30.9653394,8.94870159 C30.5177768,8.99826879 30.2108975,8.87252847 30.0027882,8.70031891 C29.9903964,8.69084282 29.9770934,8.67954442 29.9630615,8.66624146 C29.7759089,8.48437358 29.6563645,8.22742597 29.6563645,8.22742597 C29.473221,7.80027335 29.5016492,7.27070615 29.7144966,7.01138952 L29.7141321,7.01138952 C29.7141321,7.01138952 29.8098041,6.88182232 29.8721276,6.88820046 C29.8735854,6.88820046 29.8750433,6.88856492 29.8765011,6.88874715 L29.8766834,6.88874715 C29.9034715,6.89202733 29.9184146,6.91589977 29.9175034,6.95216401 L29.9178679,6.95179954 C29.9176856,6.95343964 29.9175034,6.95489749 29.9175034,6.95599089 C29.917139,6.96072893 29.91641,6.96528474 29.9158633,6.97002278 C29.9021959,7.07170843 29.8548155,7.18596811 29.7872073,7.41630979 C29.7864784,7.41904328 29.7855672,7.421959 29.7848383,7.42469248 C29.7420137,7.57302961 29.7338132,7.68291572 29.7339954,7.74560364 C29.7345421,7.77129841 29.7361822,7.79644647 29.7387335,7.81977221 L29.7387335,7.81995444 C29.7405558,7.83690205 29.7423781,7.8529385 29.7449294,7.86824601 L29.7449294,7.86861048 C29.7460228,7.87553531 29.7472984,7.8828246 29.7487563,7.88993166 C29.7487563,7.89047836 29.7487563,7.89102506 29.7487563,7.89175399 C29.7498497,7.89849658 29.7511253,7.90505695 29.7524009,7.91107062 C29.7525831,7.91161731 29.7525831,7.91198178 29.7525831,7.91234624 C29.7580501,7.93949886 29.7638815,7.96318907 29.769713,7.98268793 C29.769713,7.98323462 29.769713,7.98341686 29.7698952,7.98359909 C29.7711708,7.9881549 29.7722642,7.99252847 29.7735399,7.99671982 C29.7735399,7.99726651 29.7737221,7.99744875 29.7737221,7.99763098 C29.7777312,8.01056948 29.7813759,8.02132118 29.7841093,8.02915718 L29.7842916,8.02933941 C29.7850205,8.03207289 29.7859317,8.03407745 29.7866606,8.03589977 C29.7866606,8.03626424 29.7868428,8.0366287 29.7868428,8.03681093 C29.7873895,8.03863326 29.7879362,8.03990888 29.7884829,8.04082005 C29.7886651,8.04118451 29.7886651,8.04136674 29.7888474,8.04209567 C29.7890296,8.04300683 29.7895763,8.04373576 29.7895763,8.043918 C29.7897585,8.04428246 29.7897585,8.04446469 29.7899408,8.04482916 C29.790123,8.04537585 29.7904875,8.04555809 29.7904875,8.04555809 L29.7904875,8.04537585 C29.8582779,8.2456492 29.9674351,8.39398633 30.0106241,8.4484738 C30.0846105,8.26952164 30.2495308,7.80209567 30.2939954,7.10068337 C30.301467,6.78396355 30.2356811,6.59243736 30.0909886,6.49512528 C30.0377768,6.45922551 29.9663417,6.4315262 29.8759544,6.4377221 C29.8759544,6.4377221 29.6334032,6.43808656 29.3919453,6.72892938 C29.3859317,6.73640091 29.3801002,6.74350797 29.3742688,6.75079727 C29.3735399,6.75189066 29.3728109,6.75316629 29.3717175,6.75389522 C29.358779,6.77066059 29.3460228,6.78797267 29.333631,6.80546697 C29.330533,6.81038724 29.3272528,6.81476082 29.3239727,6.81931663 L29.3241549,6.8191344 C29.0482551,7.23207289 29.023836,7.89740319 29.2913531,8.45940774 C29.3061139,8.49093394 29.3221503,8.52173121 29.3385513,8.55161731 C29.3385513,8.55161731 29.3092118,8.65002278 29.2485285,8.80455581 C29.2441549,8.81585421 29.2395991,8.82715262 29.2346788,8.83899772 C29.2344966,8.83972665 29.2339499,8.84045558 29.2335854,8.84154897 C29.2293941,8.85266515 29.2248383,8.86378132 29.219918,8.87526196 C29.2193713,8.87599089 29.2191891,8.87690205 29.2188246,8.87763098 C29.2140866,8.88947608 29.2091663,8.90150342 29.2036993,8.91371298 C29.2035171,8.91407745 29.2033349,8.91462415 29.2033349,8.91517084 C29.1982323,8.92738041 29.1927654,8.93977221 29.1871162,8.95252847 C29.1652483,9.00318907 29.1406469,9.05712984 29.1136765,9.11362187 C29.1003736,9.14150342 29.0863417,9.1701139 29.0715809,9.19927107 C29.0712164,9.19963554 29.0712164,9.2005467 29.0706697,9.20091116 C29.0562733,9.22933941 29.0413303,9.25849658 29.0258405,9.28783599 C29.0249294,9.28892938 29.0243827,9.29020501 29.023836,9.29148064 C29.0083462,9.32045558 28.9921276,9.35015945 28.97518,9.37968109 C28.974451,9.38095672 28.9740866,9.38205011 28.9735399,9.38350797 C28.9560456,9.41412301 28.9380046,9.44492027 28.9194169,9.476082 C28.9135854,9.48555809 28.9086651,9.49430524 28.9044738,9.5014123 C28.8988246,9.51034169 28.8933576,9.5194533 28.8878907,9.52820046 L28.8877084,9.52838269 C28.8569112,9.57831435 28.8264784,9.62569476 28.7969567,9.67034169 C28.5195991,10.0685194 28.3023781,10.2567654 28.1983235,10.333303 C28.0734943,10.4200456 27.953221,10.4770843 27.8429704,10.4938497 C27.7995991,10.50041 27.758779,10.5046014 27.7195991,10.5064237 C27.7168656,10.5066059 27.7144966,10.5069704 27.7117631,10.5073349 L27.7097585,10.5073349 L27.7083007,10.5073349 C27.594041,10.5135308 27.4963645,10.4973121 27.4158178,10.4592255 C27.4154533,10.4592255 27.4152711,10.4590433 27.4150888,10.4590433 C27.4061595,10.4548519 27.3975945,10.4504784 27.3892118,10.4455581 C27.3884829,10.4453759 27.3881185,10.4448292 27.3873895,10.4444647 C27.3795535,10.4400911 27.3717175,10.4353531 27.3644282,10.4302506 C27.3633349,10.4298861 27.3624237,10.4291572 27.3613303,10.4287927 C27.3542232,10.4238724 27.3474806,10.4189522 27.3405558,10.4136674 C27.3394624,10.4127563 27.338369,10.4116629 27.3370934,10.4109339 C27.3307153,10.4060137 27.3241549,10.4005467 27.3181412,10.3948975 C27.3166834,10.3938041 27.31559,10.3928929 27.3143144,10.3917995 C27.3081185,10.3861503 27.3024692,10.3805011 27.2966378,10.3744875 L27.2929932,10.3710251 C27.2871617,10.3648292 27.2813303,10.358451 27.2758633,10.3518907 C27.2751344,10.3509795 27.274041,10.3497039 27.2733121,10.3486105 C27.2669339,10.3413212 27.2611025,10.333303 27.2550888,10.3256492 C27.2550888,10.3252847 27.2550888,10.3252847 27.2549066,10.3251025 C27.1698041,10.206287 27.1309886,10.0311617 27.1417403,9.80136674 C27.1510342,9.59817768 27.1801913,9.43143508 27.2111708,9.30569476 C27.2113531,9.30551253 27.2113531,9.30496583 27.2115353,9.3047836 C27.2139043,9.29439636 27.2166378,9.28455581 27.2190068,9.27471526 C27.2193713,9.27398633 27.2195535,9.27307517 27.2195535,9.27234624 C27.2221048,9.26250569 27.2248383,9.25321185 27.2275718,9.243918 L27.2275718,9.24373576 C27.2428793,9.18851936 27.2578223,9.14369021 27.2702141,9.11015945 C27.4289385,8.64382688 27.6609203,8.32291572 27.7975945,8.16109339 C27.8039727,8.15453303 27.811262,8.14724374 27.8194624,8.14031891 C27.8254761,8.13558087 27.8375034,8.1290205 27.8528109,8.13193622 C27.8739499,8.13612756 27.8730387,8.15526196 27.8735854,8.16109339 C27.8730387,8.17330296 27.870123,8.18751708 27.8672073,8.1977221 C27.7445649,8.61230068 27.5517631,8.96036446 27.3729932,9.22095672 L27.3731754,9.22095672 C27.3731754,9.22095672 27.2375945,9.58378132 27.3041093,9.98615034 C27.4987335,9.78642369 28.0108064,9.20091116 28.270123,8.34751708 C28.2885285,8.27626424 28.4636538,7.56464692 28.1134032,7.51015945 C27.8684829,7.47207289 27.6020592,7.70915718 27.4509886,7.87189066 C27.173631,8.17676538 26.8419681,8.68829157 26.7433804,9.45457859 C26.7158633,9.63735763 26.7060228,9.80446469 26.7144055,9.95553531 C26.3415581,10.2270615 25.624656,10.5146241 25.1738132,10.294123 C24.7913075,10.1067882 24.6626515,9.54041002 24.7942232,8.67079727 C24.6200091,8.72236902 24.4521731,8.73840547 24.3513986,8.74332574 C24.3032893,9.12364465 24.3027426,9.45403189 24.3508519,9.7295672 C24.4519909,10.3068793 24.7517631,10.5645558 24.9855672,10.6788155 C25.3316264,10.8482916 25.800328,10.8382688 26.3054761,10.6507517 C26.4836993,10.5849658 26.6580957,10.4989522 26.8115353,10.4043736 C26.856,10.5089749 26.9161367,10.6000911 26.9908519,10.6768109 C27.1131298,10.8025513 27.3263417,10.937221 27.6767745,10.9361276 C27.7480273,10.9357631 27.8247472,10.9299317 27.9076629,10.9175399 C28.4286651,10.8379043 28.9600547,10.28082 29.359508,9.67653759 C29.3698952,9.6614123 29.3804647,9.64555809 29.3915809,9.62769932 C29.4413303,9.5509795 29.4888929,9.47316629 29.5340866,9.39589977 C29.6395991,9.22022779 29.7050205,9.10159453 29.740738,9.03416856 C29.8014214,9.08482916 29.8695763,9.13439636 29.9442916,9.17813212 C29.9577768,9.18560364 29.971262,9.19343964 29.9849294,9.2005467 C30.2181868,9.32410023 30.4798724,9.38660592 30.7667062,9.38788155 C30.7521276,9.42961276 30.7384601,9.47280182 30.7257039,9.51690205 C30.5195991,10.2252392 30.7918542,10.4909339 30.9726287,10.5864237 C31.2867973,10.7520729 31.7307153,10.6252392 32.0798724,10.3744875 C32.0643827,10.3189066 32.0521731,10.2549431 32.0539954,10.1933485 C32.0585513,10.0380866 32.1837449,10.0732574 32.1804647,10.1517995 C32.1771845,10.2305239 32.1928565,10.2866515 32.1928565,10.2866515 C32.2407836,10.5009567 32.3821959,10.5975399 32.4749522,10.6389066 C32.8683918,10.8136674 33.3372756,10.5680182 33.8695763,9.90870159 C34.2263872,9.46642369 34.4893485,8.99280182 34.5004647,8.97257403 L34.5057494,8.96273349 Z" id="Fill-61" fill="#000000" mask="url(#mask-2)"></path>
                    <polygon id="Fill-63" fill="#64505A" mask="url(#mask-2)" points="0 55.4904784 80 55.4904784 80 54.3059681 0 54.3059681"></polygon>
                    <polygon id="Fill-64" fill="#414042" mask="url(#mask-2)" points="43.3379499 41.0392711 72.3575399 41.0392711 72.3575399 23.7271982 43.3379499 23.7271982"></polygon>
                    <polygon id="Fill-65" fill="#807D7D" mask="url(#mask-2)" points="43.6796355 38.2802733 72.0160364 38.2802733 72.0160364 24.0927563 43.6796355 24.0927563"></polygon>
                </g>
            </g>
        </g>
    </g>
</svg>