<?xml version="1.0" encoding="UTF-8"?>
<svg width="80px" height="77px" viewBox="0 0 80 77" version="1.1" xmlns="http://www.w3.org/2000/svg" xmlns:xlink="http://www.w3.org/1999/xlink">
    <!-- Generator: Sketch 51.3 (57544) - http://www.bohemiancoding.com/sketch -->
    <title>Group 30</title>
    <desc>Created with Sketch.</desc>
    <defs>
        <polygon id="path-1" points="0.0212124646 0.120793201 48.9667082 0.120793201 48.9667082 47.4295524 0.0212124646 47.4295524"></polygon>
        <polygon id="path-3" points="0.20015864 0.120793201 12.0265609 0.120793201 12.0265609 11.9469915 0.20015864 11.9469915"></polygon>
        <polygon id="path-5" points="0 0.0979036827 75.1542965 0.0979036827 75.1542965 51.898017 0 51.898017"></polygon>
    </defs>
    <g id="Page-1" stroke="none" stroke-width="1" fill="none" fill-rule="evenodd">
        <g id="Entrepreneur-Single-Page-(Form)" transform="translate(-885.000000, -956.000000)">
            <g id="Group-30" transform="translate(885.000000, 956.000000)">
                <path d="M79.0083853,37.2004306 C78.3658924,36.4555014 77.4326346,35.9870595 76.4433994,35.9870595 L69.8169972,36.0745382 L67.4999433,36.102187 L75.1339377,72.7981643 L79.7988669,39.9134051 C79.9364306,38.9443399 79.6533711,37.9444533 79.0083853,37.2004306" id="Fill-1" fill="#5A4650"></path>
                <g id="Group-5" transform="translate(20.849858, 0.105836)">
                    <mask id="mask-2" fill="white">
                        <use xlink:href="#path-1"></use>
                    </mask>
                    <g id="Clip-4"></g>
                    <path d="M11.594017,22.7231501 L38.7044986,22.7231501 C39.7696544,22.7231501 40.6349235,23.6858697 40.6349235,24.7507989 C40.6349235,25.8159547 39.7732805,26.7748215 38.7044986,26.7748215 L11.594017,26.7748215 C10.5322606,26.7748215 9.66903116,25.8161813 9.66903116,24.7507989 C9.66903116,23.6858697 10.5306742,22.7231501 11.594017,22.7231501 M11.594017,13.2144816 L38.7044986,13.2144816 C39.7696544,13.2144816 40.6349235,14.1772011 40.6349235,15.2419037 C40.6349235,16.3070595 39.7732805,17.2663796 38.7044986,17.2663796 L11.594017,17.2663796 C10.5322606,17.2663796 9.66903116,16.3072861 9.66903116,15.2419037 C9.66903116,14.1772011 10.5306742,13.2144816 11.594017,13.2144816 M9.7830255,26.8962946 L13.9135637,31.7835467 L38.0674448,31.7835467 C38.8513541,31.7835467 39.5258017,32.3054731 39.827898,33.0053031 L43.368068,33.0053031 C45.1221756,33.0053031 46.6163399,34.2574278 46.8762833,35.9961246 L48.9667082,47.4295524 L48.9667082,11.9469462 L48.7824589,11.9469462 L42.2210992,11.9469462 C39.4152068,11.9469462 37.1405326,9.67249858 37.1405326,6.86615297 L37.3306742,0.120770538 L43.1486912,6.12892918 L37.3306742,0.120770538 L24.4939603,0.120770538 L5.10177904,0.120770538 C2.29566006,0.120770538 0.0212124646,2.39544476 0.0212124646,5.20156374 L0.0212124646,24.800204 L5.39503683,24.800204 C7.08546176,24.8004306 8.69180737,25.6110822 9.7830255,26.8962946" id="Fill-3" fill="#E6E7E8" mask="url(#mask-2)"></path>
                </g>
                <path d="M32.4438754,17.37217 L59.5543569,17.37217 C60.6231388,17.37217 61.4847819,16.4133031 61.4847819,15.3476941 C61.4847819,14.2829915 60.6197394,13.320272 59.5543569,13.320272 L32.4438754,13.320272 C31.3805326,13.320272 30.5188895,14.2829915 30.5188895,15.3476941 C30.5188895,16.4130765 31.3823456,17.37217 32.4438754,17.37217" id="Fill-6" fill="#D1D3D4"></path>
                <path d="M32.4438754,26.8806346 L59.5543569,26.8806346 C60.6231388,26.8806346 61.4847819,25.922221 61.4847819,24.8566119 C61.4847819,23.7916827 60.6197394,22.8289632 59.5543569,22.8289632 L32.4438754,22.8289632 C31.3805326,22.8289632 30.5188895,23.7916827 30.5188895,24.8566119 C30.5188895,25.9219943 31.3823456,26.8806346 32.4438754,26.8806346" id="Fill-8" fill="#D1D3D4"></path>
                <path d="M58.9176431,31.8894958 L34.763762,31.8894958 L35.7965099,33.1114788 L60.6778697,33.1114788 C60.376,32.4114221 59.701779,31.8894958 58.9176431,31.8894958" id="Fill-10" fill="#D1D3D4"></path>
                <g id="Group-14" transform="translate(57.790368, 0.105836)">
                    <mask id="mask-4" fill="white">
                        <use xlink:href="#path-3"></use>
                    </mask>
                    <g id="Clip-13"></g>
                    <path d="M0.20015864,6.8661983 C0.20015864,9.67254391 2.47483286,11.9469915 5.28072521,11.9469915 L11.842085,11.9469915 L12.0265609,11.9469915 L6.20854391,6.1289745 L0.390300283,0.120589235 L0.20015864,6.8661983 Z" id="Fill-12" fill="#D1D3D4" mask="url(#mask-4)"></path>
                </g>
                <polygon id="Fill-15" fill="#C5901A" points="49.3111388 44.8484986 49.1500057 47.5447025 62.6303456 48.3508215 56.1566912 46.6486119"></polygon>
                <polygon id="Fill-17" fill="#C5901A" points="69.2972011 48.7494391 75.5884193 49.1254164 77.1691558 22.6871161 66.8292125 22.0688725 75.6994674 24.4011105"></polygon>
                <path d="M60.7592068,29.1449292 C58.6404533,28.5878754 57.3701983,26.4111048 57.9272521,24.2925779 L58.376204,22.5849292 L60.9377904,23.2582436 L60.4888385,24.966119 C60.3030028,25.6722946 60.7263456,26.3979603 61.4327479,26.5835694 L62.8920113,21.0336544 L61.6113314,20.6968839 L59.049745,20.0233428 L50.0845326,17.665949 L43.3493484,43.2809065 L49.3110482,44.8484986 L56.1566006,46.6486119 L60.7592068,29.1449292 Z" id="Fill-19" fill="#FCDE60"></path>
                <path d="M69.2972011,48.7494391 L75.6994674,24.4011105 L66.8292125,22.0688725 L66.734255,22.0439433 L65.6115354,26.3131785 C65.0544816,28.431932 62.8779377,29.702187 60.7591841,29.1449065 L56.1568045,46.6485892 L62.6302323,48.3507989 L68.9640567,50.0162946 L69.2972011,48.7494391 Z" id="Fill-21" fill="#FED304"></path>
                <path d="M63.050289,25.6394788 L64.1727819,21.3704703 L62.892102,21.0336997 L61.4326119,26.5836147 C62.1390142,26.7692238 62.8646799,26.3456544 63.050289,25.6394788" id="Fill-23" fill="#FFDA44"></path>
                <path d="M61.8356941,19.8429688 C62.0213031,19.1367932 62.7469688,18.7134504 63.4533711,18.8990595 C64.1595467,19.0846686 64.5828895,19.8103343 64.3972805,20.5167365 L64.1729178,21.3704476 L63.0501983,25.6394561 C62.8645892,26.3456317 62.1389235,26.7692011 61.4327479,26.5835921 C60.7263456,26.397983 60.3030028,25.6723173 60.4888385,24.965915 L60.9377904,23.2582663 L58.376204,22.5849518 L57.9272521,24.2926006 C57.3701983,26.4111275 58.6404533,28.587898 60.7592068,29.1449518 C62.8779603,29.7022323 65.0545042,28.4317507 65.6115581,26.3132238 L66.7342776,22.0439887 L66.9586402,21.190051 C67.5156941,19.0715241 66.2454391,16.8945269 64.1266856,16.3374731 C62.0081586,15.7804193 59.8313881,17.0509008 59.2743343,19.1694278 L59.049745,20.0233654 L61.6113314,20.6969065 L61.8356941,19.8429688 Z" id="Fill-25" fill="#6E5A64"></path>
                <g id="Group-29" transform="translate(0.000000, 24.808385)">
                    <mask id="mask-6" fill="white">
                        <use xlink:href="#path-5"></use>
                    </mask>
                    <g id="Clip-28"></g>
                    <path d="M75.1162833,47.8492918 L75.1004193,47.7708782 L67.7261416,11.2935977 C67.4661983,9.55467422 65.972034,8.3027762 64.2179263,8.3027762 L60.6777564,8.3027762 L35.7963966,8.3027762 L34.7636487,7.0807932 L30.6331105,2.19376771 C29.5418924,0.908555241 27.9353201,0.0979036827 26.2448952,0.0979036827 L20.8710708,0.0979036827 L7.7775864,0.0979036827 C6.46177904,0.0979036827 5.21237394,0.715240793 4.36070255,1.72192635 C3.51175071,2.73450425 3.14959773,4.11626062 3.37146742,5.41416431 L3.86121246,8.3027762 L3.53985269,8.3027762 C2.5046119,8.3027762 1.52534844,8.72113314 0.857473088,9.50617564 C0.179399433,10.2912181 -0.116577904,11.314221 0.0416090652,12.3367705 L7.55413031,48.012238 C7.90087252,50.2511048 9.8285779,51.898017 12.0926006,51.898017 L71.6130538,51.898017 C72.6455751,51.898017 73.6246119,51.4440793 74.2929405,50.6665156 C74.9660283,49.8837394 75.2667649,48.8688952 75.1162833,47.8492918" id="Fill-27" fill="#6E5A64" mask="url(#mask-6)"></path>
                </g>
            </g>
        </g>
    </g>
</svg>