<?xml version="1.0" encoding="UTF-8"?>
<svg width="110px" height="77px" viewBox="0 0 110 77" version="1.1" xmlns="http://www.w3.org/2000/svg" xmlns:xlink="http://www.w3.org/1999/xlink">
    <!-- Generator: Sketch 51.3 (57544) - http://www.bohemiancoding.com/sketch -->
    <title>Group 14</title>
    <desc>Created with Sketch.</desc>
    <defs></defs>
    <g id="Page-1" stroke="none" stroke-width="1" fill="none" fill-rule="evenodd">
        <g id="Entrepreneur-Single-Page-(Form)" transform="translate(-462.000000, -956.000000)">
            <g id="Group-14" transform="translate(462.000000, 956.000000)">
                <polygon id="Fill-1" fill="#FED304" points="30.5132388 46.0132284 -0.000152249135 76.5262388 109.659952 76.4855121 109.659952 76.4851315 79.1880484 46.0132284"></polygon>
                <polygon id="Fill-2" fill="#EABF0C" points="30.5131626 46.0131142 54.8224014 60.002526 79.1879723 46.0131142"></polygon>
                <g id="Group-13" transform="translate(30.069204, 0.020934)">
                    <path d="M42.2487163,7.61877509 C32.5702388,-2.05970242 16.9361557,-2.05970242 7.38176125,7.61877509 C-2.29671626,17.2972526 -2.29671626,32.8076332 7.38176125,42.4857301 L24.7530069,59.9814394 L42.1246332,42.6101938 C51.8031107,32.9313356 51.8031107,17.2972526 42.2487163,7.61877509" id="Fill-3" fill="#64505A"></path>
                    <path d="M24.7608858,8.61121107 C15.7028235,8.61121107 8.25784083,15.9321107 8.25784083,25.1142561 C8.25784083,34.1723183 15.5787405,41.617301 24.7608858,41.617301 C33.8189481,41.617301 41.2639308,34.2964014 41.2639308,25.1142561 C41.2639308,15.9321107 33.8189481,8.61121107 24.7608858,8.61121107" id="Fill-5" fill="#FFFFFF"></path>
                    <path d="M16.2996401,23.8740346 L16.9817163,23.8740346 C17.7433426,23.8740346 18.2651765,23.4728581 18.2651765,22.6975294 C18.2651765,22.0824429 17.7970104,21.6279792 17.1153149,21.6279792 C16.4598824,21.6279792 16.0457647,22.0424775 15.9654533,22.617218 L14.3074602,22.617218 C14.3744498,21.106526 15.617564,20.0769412 17.2089481,20.0769412 C18.8932042,20.0769412 20.1233772,21.2401246 20.1233772,22.617218 C20.1233772,23.6601246 19.4816471,24.3018547 18.8665606,24.6360415 C19.6552111,25.0238962 20.2569758,25.7459377 20.2569758,26.8421315 C20.2569758,28.3395017 19.2140692,29.5430311 17.3155225,29.5430311 C15.3636886,29.5430311 14.2537924,28.4464567 14.1871834,26.9490865 L15.8318547,26.9490865 C15.9254879,27.5371488 16.3666298,27.9649689 17.1956263,27.9649689 C17.9439308,27.9649689 18.3987751,27.4305744 18.3987751,26.7484983 C18.3987751,25.9328235 17.930609,25.4517163 16.9817163,25.4517163 L16.2996401,25.4517163 L16.2996401,23.8740346 Z" id="Fill-7" fill="#5A4650"></path>
                    <path d="M27.0888512,29.4224498 L25.3908927,29.4224498 L25.3908927,25.5050796 C25.3908927,24.4355294 24.9763945,24.0876401 24.3750104,24.0876401 C23.7599239,24.0876401 23.318782,24.5424844 23.318782,25.4917578 L23.318782,29.4224498 L21.6075017,29.4224498 L21.6075017,22.7379516 L23.278436,22.7379516 L23.278436,23.2989896 C23.532692,22.951481 24.0137993,22.6172941 24.7624844,22.6172941 C25.5648374,22.6172941 26.2198893,22.9248374 26.6343875,23.5132803 C27.0622076,22.9914464 27.7172595,22.6172941 28.5595779,22.6172941 C30.0169827,22.6172941 30.8726228,23.4995779 30.8726228,25.2378824 L30.8726228,29.4224498 L29.1613426,29.4224498 L29.1613426,25.5050796 C29.1613426,24.502519 28.8134533,24.0876401 28.1317578,24.0876401 C27.5166713,24.0876401 27.0888512,24.5424844 27.0888512,25.4917578 L27.0888512,29.4224498 Z" id="Fill-9" fill="#5A4650"></path>
                    <path d="M35.2722422,24.9701903 L31.9520692,24.9701903 L31.9520692,24.2687024 L33.7524152,22.1486332 C34.0877439,21.7588754 34.2510311,21.4315398 34.2510311,21.0809862 C34.2510311,20.6444118 33.9316886,20.4263149 33.5811349,20.4263149 C33.2145952,20.4263149 32.9416886,20.6520242 32.9104775,21.0809862 L31.9440761,21.0809862 C31.9440761,20.1534083 32.7079862,19.5223356 33.635564,19.5223356 C34.6019654,19.5223356 35.3346644,20.1922318 35.3346644,21.0809862 C35.3346644,21.7904671 34.8668789,22.3438927 34.5239377,22.7488754 L33.4170865,24.0506055 L35.2722422,24.0506055 L35.2722422,24.9701903 Z" id="Fill-11" fill="#5A4650"></path>
                </g>
            </g>
        </g>
    </g>
</svg>