<?xml version="1.0" encoding="UTF-8"?>
<svg width="100px" height="37px" viewBox="0 0 100 37" version="1.1" xmlns="http://www.w3.org/2000/svg" xmlns:xlink="http://www.w3.org/1999/xlink">
    <!-- Generator: Sketch 51.3 (57544) - http://www.bohemiancoding.com/sketch -->
    <title>Group 36</title>
    <desc>Created with Sketch.</desc>
    <defs>
        <polygon id="path-1" points="0 37 37.8866609 37 37.8866609 0.0914909091 0 0.0914909091"></polygon>
        <polygon id="path-3" points="16 37 53.8866609 37 53.8866609 0.0914909091 16 0.0914909091"></polygon>
        <polygon id="path-5" points="0 37 37.8866609 37 37.8866609 0.0914909091 0 0.0914909091"></polygon>
        <polygon id="path-7" points="16 37 53.8866609 37 53.8866609 0.0914909091 16 0.0914909091"></polygon>
        <polygon id="path-9" points="0 37 37.8866609 37 37.8866609 0.0914909091 0 0.0914909091"></polygon>
        <polygon id="path-11" points="16 37 53.8866609 37 53.8866609 0.0914909091 16 0.0914909091"></polygon>
    </defs>
    <g id="Page-1" stroke="none" stroke-width="1" fill="none" fill-rule="evenodd">
        <g id="Index-Opsi-1" transform="translate(-598.000000, -1811.000000)">
            <g id="Group-36" transform="translate(592.000000, 1811.000000)">
                <g id="Group-31" transform="translate(78.000000, 11.000000)">
                    <polygon id="Fill-1" fill="#D6C9AD" points="3 6 10 6 10 3 3 3"></polygon>
                    <polygon id="Fill-2" fill="#C2AE86" points="9 6 10 6 10 3 9 3"></polygon>
                    <path d="M11.0047026,25.9999664 L2.61397217,25.9999664 C1.57475478,25.9999664 0.732476522,25.1422391 0.732476522,24.0847118 L0.732476522,6.97759364 C0.732476522,5.91973 1.57475478,5.06200273 2.61397217,5.06200273 L11.0047026,5.06200273 C12.04392,5.06200273 12.8861983,5.91973 12.8861983,6.97759364 L12.8861983,24.0847118 C12.8861983,25.1422391 12.04392,25.9999664 11.0047026,25.9999664" id="Fill-3" fill="#854437"></path>
                    <path d="M11.0014643,5.06200273 L9.89219478,5.06200273 C10.9330643,5.06200273 11.7769948,5.91804818 11.7769948,6.97423 L11.7769948,24.0877391 C11.7769948,25.1439209 10.9330643,25.9999664 9.89219478,25.9999664 L11.0014643,25.9999664 C12.0423339,25.9999664 12.8862643,25.1439209 12.8862643,24.0877391 L12.8862643,6.97423 C12.8862643,5.91804818 12.0423339,5.06200273 11.0014643,5.06200273" id="Fill-5" fill="#63352B"></path>
                    <path d="M10.9862974,3.34601 L2.63257565,3.34601 C2.51031478,3.34601 2.41085391,3.24510091 2.41085391,3.12064636 L2.41085391,1.04393727 C2.41085391,0.919482727 2.51031478,0.818573636 2.63257565,0.818573636 L10.985967,0.818573636 C11.1082278,0.818573636 11.2076887,0.919482727 11.2076887,1.04393727 L11.2076887,3.12064636 C11.2076887,3.24510091 11.1085583,3.34601 10.9862974,3.34601" id="Fill-7" fill="#F6F1DD"></path>
                    <polygon id="Fill-9" fill="#4A4A4A" points="0.732278261 17.3853909 12.8866609 17.3853909 12.8866609 12.7193545 0.732278261 12.7193545"></polygon>
                    <path d="M6.80940348,10.6006673 C9.12013391,10.6006673 10.9936991,12.5011218 10.9936991,14.8455764 C10.9936991,17.1896945 9.12013391,19.0901491 6.80940348,19.0901491 C4.49834261,19.0901491 2.62510783,17.1896945 2.62510783,14.8455764 C2.62510783,12.5011218 4.49834261,10.6006673 6.80940348,10.6006673" id="Fill-12" fill="#F6CC65"></path>
                    <path d="M8.51676,15.8920036 C7.92197739,17.2808491 6.87978609,17.9912491 5.94234261,17.8721764 C5.79034261,17.8536764 5.64131652,17.81264 5.49691652,17.7490673 C5.36771652,17.6922218 5.24842957,17.6195673 5.14037739,17.5327855 C4.38500348,16.9306945 4.16956,15.6545309 4.77458609,14.24214 C5.36771652,12.8573309 6.5569513,11.7920673 7.5353687,11.8055218 C7.69761217,11.8072036 7.85390783,11.8388218 8.00029043,11.9034036 C8.12882957,11.9602491 8.24382087,12.0396309 8.34559478,12.1381855 C9.06362957,12.8314309 9.12244696,14.4786036 8.51676,15.8920036" id="Fill-13" fill="#854437"></path>
                    <path d="M8.34572696,12.1381182 C8.33350087,12.1576273 8.3186313,12.1764636 8.30244,12.1939545 C8.28459652,12.2127909 7.21993565,13.3809818 7.16607478,14.8391182 C7.11221391,16.2868273 6.28282261,17.4516545 5.94247478,17.8721091 C5.79047478,17.8536091 5.64111826,17.8125727 5.49671826,17.749 C5.36751826,17.6921545 5.2482313,17.6195 5.14017913,17.5327182 C5.15537913,17.5064818 5.17355304,17.4815909 5.1950313,17.4583818 C5.20527478,17.4476182 6.28017913,16.2700091 6.33470087,14.8078364 C6.38657913,13.3883818 7.18259652,12.2450818 7.53550087,11.8054545 C7.69741391,11.8071364 7.85404,11.8387545 8.00009217,11.9033364 C8.12896174,11.9601818 8.24362261,12.0395636 8.34572696,12.1381182" id="Fill-14" fill="#572F26"></path>
                </g>
                <g id="Group-31" transform="translate(93.000000, 11.000000)">
                    <polygon id="Fill-1" fill="#D6C9AD" points="3 6 10 6 10 3 3 3"></polygon>
                    <polygon id="Fill-2" fill="#C2AE86" points="9 6 10 6 10 3 9 3"></polygon>
                    <path d="M11.0047026,25.9999664 L2.61397217,25.9999664 C1.57475478,25.9999664 0.732476522,25.1422391 0.732476522,24.0847118 L0.732476522,6.97759364 C0.732476522,5.91973 1.57475478,5.06200273 2.61397217,5.06200273 L11.0047026,5.06200273 C12.04392,5.06200273 12.8861983,5.91973 12.8861983,6.97759364 L12.8861983,24.0847118 C12.8861983,25.1422391 12.04392,25.9999664 11.0047026,25.9999664" id="Fill-3" fill="#854437"></path>
                    <path d="M11.0014643,5.06200273 L9.89219478,5.06200273 C10.9330643,5.06200273 11.7769948,5.91804818 11.7769948,6.97423 L11.7769948,24.0877391 C11.7769948,25.1439209 10.9330643,25.9999664 9.89219478,25.9999664 L11.0014643,25.9999664 C12.0423339,25.9999664 12.8862643,25.1439209 12.8862643,24.0877391 L12.8862643,6.97423 C12.8862643,5.91804818 12.0423339,5.06200273 11.0014643,5.06200273" id="Fill-5" fill="#63352B"></path>
                    <path d="M10.9862974,3.34601 L2.63257565,3.34601 C2.51031478,3.34601 2.41085391,3.24510091 2.41085391,3.12064636 L2.41085391,1.04393727 C2.41085391,0.919482727 2.51031478,0.818573636 2.63257565,0.818573636 L10.985967,0.818573636 C11.1082278,0.818573636 11.2076887,0.919482727 11.2076887,1.04393727 L11.2076887,3.12064636 C11.2076887,3.24510091 11.1085583,3.34601 10.9862974,3.34601" id="Fill-7" fill="#F6F1DD"></path>
                    <polygon id="Fill-9" fill="#4A4A4A" points="0.732278261 17.3853909 12.8866609 17.3853909 12.8866609 12.7193545 0.732278261 12.7193545"></polygon>
                    <path d="M6.80940348,10.6006673 C9.12013391,10.6006673 10.9936991,12.5011218 10.9936991,14.8455764 C10.9936991,17.1896945 9.12013391,19.0901491 6.80940348,19.0901491 C4.49834261,19.0901491 2.62510783,17.1896945 2.62510783,14.8455764 C2.62510783,12.5011218 4.49834261,10.6006673 6.80940348,10.6006673" id="Fill-12" fill="#F6CC65"></path>
                    <path d="M8.51676,15.8920036 C7.92197739,17.2808491 6.87978609,17.9912491 5.94234261,17.8721764 C5.79034261,17.8536764 5.64131652,17.81264 5.49691652,17.7490673 C5.36771652,17.6922218 5.24842957,17.6195673 5.14037739,17.5327855 C4.38500348,16.9306945 4.16956,15.6545309 4.77458609,14.24214 C5.36771652,12.8573309 6.5569513,11.7920673 7.5353687,11.8055218 C7.69761217,11.8072036 7.85390783,11.8388218 8.00029043,11.9034036 C8.12882957,11.9602491 8.24382087,12.0396309 8.34559478,12.1381855 C9.06362957,12.8314309 9.12244696,14.4786036 8.51676,15.8920036" id="Fill-13" fill="#854437"></path>
                    <path d="M8.34572696,12.1381182 C8.33350087,12.1576273 8.3186313,12.1764636 8.30244,12.1939545 C8.28459652,12.2127909 7.21993565,13.3809818 7.16607478,14.8391182 C7.11221391,16.2868273 6.28282261,17.4516545 5.94247478,17.8721091 C5.79047478,17.8536091 5.64111826,17.8125727 5.49671826,17.749 C5.36751826,17.6921545 5.2482313,17.6195 5.14017913,17.5327182 C5.15537913,17.5064818 5.17355304,17.4815909 5.1950313,17.4583818 C5.20527478,17.4476182 6.28017913,16.2700091 6.33470087,14.8078364 C6.38657913,13.3883818 7.18259652,12.2450818 7.53550087,11.8054545 C7.69741391,11.8071364 7.85404,11.8387545 8.00009217,11.9033364 C8.12896174,11.9601818 8.24362261,12.0395636 8.34572696,12.1381182" id="Fill-14" fill="#572F26"></path>
                </g>
                <g id="Group-34">
                    <g id="Group-32" transform="translate(38.000000, 0.000000)">
                        <polygon id="Fill-1" fill="#D6C9AD" points="28 17 35 17 35 14 28 14"></polygon>
                        <polygon id="Fill-2" fill="#C2AE86" points="34 17 35 17 35 14 34 14"></polygon>
                        <path d="M36.0047026,36.9999664 L27.6139722,36.9999664 C26.5747548,36.9999664 25.7324765,36.1422391 25.7324765,35.0847118 L25.7324765,17.9775936 C25.7324765,16.91973 26.5747548,16.0620027 27.6139722,16.0620027 L36.0047026,16.0620027 C37.04392,16.0620027 37.8861983,16.91973 37.8861983,17.9775936 L37.8861983,35.0847118 C37.8861983,36.1422391 37.04392,36.9999664 36.0047026,36.9999664" id="Fill-3" fill="#854437"></path>
                        <path d="M36.0014643,16.0620027 L34.8921948,16.0620027 C35.9330643,16.0620027 36.7769948,16.9180482 36.7769948,17.97423 L36.7769948,35.0877391 C36.7769948,36.1439209 35.9330643,36.9999664 34.8921948,36.9999664 L36.0014643,36.9999664 C37.0423339,36.9999664 37.8862643,36.1439209 37.8862643,35.0877391 L37.8862643,17.97423 C37.8862643,16.9180482 37.0423339,16.0620027 36.0014643,16.0620027" id="Fill-5" fill="#63352B"></path>
                        <path d="M35.9862974,14.34601 L27.6325757,14.34601 C27.5103148,14.34601 27.4108539,14.2451009 27.4108539,14.1206464 L27.4108539,12.0439373 C27.4108539,11.9194827 27.5103148,11.8185736 27.6325757,11.8185736 L35.985967,11.8185736 C36.1082278,11.8185736 36.2076887,11.9194827 36.2076887,12.0439373 L36.2076887,14.1206464 C36.2076887,14.2451009 36.1085583,14.34601 35.9862974,14.34601" id="Fill-7" fill="#F6F1DD"></path>
                        <polygon id="Fill-9" fill="#4A4A4A" points="25.7322783 28.3853909 37.8866609 28.3853909 37.8866609 23.7193545 25.7322783 23.7193545"></polygon>
                        <path d="M31.8094035,21.6006673 C34.1201339,21.6006673 35.9936991,23.5011218 35.9936991,25.8455764 C35.9936991,28.1896945 34.1201339,30.0901491 31.8094035,30.0901491 C29.4983426,30.0901491 27.6251078,28.1896945 27.6251078,25.8455764 C27.6251078,23.5011218 29.4983426,21.6006673 31.8094035,21.6006673" id="Fill-12" fill="#F6CC65"></path>
                        <path d="M33.51676,26.8920036 C32.9219774,28.2808491 31.8797861,28.9912491 30.9423426,28.8721764 C30.7903426,28.8536764 30.6413165,28.81264 30.4969165,28.7490673 C30.3677165,28.6922218 30.2484296,28.6195673 30.1403774,28.5327855 C29.3850035,27.9306945 29.16956,26.6545309 29.7745861,25.24214 C30.3677165,23.8573309 31.5569513,22.7920673 32.5353687,22.8055218 C32.6976122,22.8072036 32.8539078,22.8388218 33.0002904,22.9034036 C33.1288296,22.9602491 33.2438209,23.0396309 33.3455948,23.1381855 C34.0636296,23.8314309 34.122447,25.4786036 33.51676,26.8920036" id="Fill-13" fill="#854437"></path>
                        <path d="M33.345727,23.1381182 C33.3335009,23.1576273 33.3186313,23.1764636 33.30244,23.1939545 C33.2845965,23.2127909 32.2199357,24.3809818 32.1660748,25.8391182 C32.1122139,27.2868273 31.2828226,28.4516545 30.9424748,28.8721091 C30.7904748,28.8536091 30.6411183,28.8125727 30.4967183,28.749 C30.3675183,28.6921545 30.2482313,28.6195 30.1401791,28.5327182 C30.1553791,28.5064818 30.173553,28.4815909 30.1950313,28.4583818 C30.2052748,28.4476182 31.2801791,27.2700091 31.3347009,25.8078364 C31.3865791,24.3883818 32.1825965,23.2450818 32.5355009,22.8054545 C32.6974139,22.8071364 32.85404,22.8387545 33.0000922,22.9033364 C33.1289617,22.9601818 33.2436226,23.0395636 33.345727,23.1381182" id="Fill-14" fill="#572F26"></path>
                        <g id="Group-30">
                            <mask id="mask-2" fill="white">
                                <use xlink:href="#path-1"></use>
                            </mask>
                            <g id="Clip-10"></g>
                            <mask id="mask-4" fill="white">
                                <use xlink:href="#path-3"></use>
                            </mask>
                            <g id="Clip-10"></g>
                            <path d="M17.2270835,4.78840545 L9.59602261,4.78840545 L9.59602261,1.34908727 C9.59602261,0.654496364 10.1491704,0.09176 10.8311878,0.09176 L15.9915878,0.09176 C16.6739357,0.09176 17.2270835,0.654496364 17.2270835,1.34908727 L17.2270835,4.78840545 Z" id="Fill-15" fill="#ED3124"></path>
                            <path d="M17.2272487,1.35823636 L17.2272487,4.78813636 L15.0282052,4.78813636 L15.0282052,1.35823636 C15.0282052,0.6586 14.4786922,0.0918272727 13.8016313,0.0918272727 L16.0006748,0.0918272727 C16.6777357,0.0918272727 17.2272487,0.6586 17.2272487,1.35823636" id="Fill-16" fill="#D8231E"></path>
                            <path d="M19.4669026,19.5337127 L20.3871635,18.3816673 C20.6686939,18.0291582 20.8226765,17.5861673 20.8226765,17.1293855 L20.8226765,12.1680218 C20.8226765,11.6829855 20.6491983,11.2147673 20.3352852,10.8538491 L17.7274939,7.85247636 C17.4139113,7.49155818 17.240433,7.02367636 17.240433,6.53830364 L17.240433,4.78854 L9.58260696,4.78854 L9.58260696,6.53830364 C9.58260696,7.02334 9.4091287,7.49155818 9.09521565,7.85247636 L6.48742435,10.8535127 C6.17384174,11.2147673 6.00036348,11.6826491 6.00036348,12.1680218 L6.00036348,17.1293855 C6.00036348,17.5861673 6.15434609,18.0291582 6.43554609,18.3816673 L7.35580696,19.5337127 C7.63733739,19.8858855 7.79132,20.3288764 7.79132,20.7856582 L7.79132,25.1075945 C7.79132,25.5700945 7.63370261,26.0174582 7.34589391,26.3719855 L6.44545913,27.4813127 C6.15798087,27.8355036 6.00036348,28.2832036 6.00036348,28.7457036 L6.00036348,35.0326764 C6.00036348,36.1194673 6.85255478,37.0000673 7.90399826,37.0000673 L18.9187113,37.0000673 C19.9701548,37.0000673 20.8226765,36.1194673 20.8226765,35.0326764 L20.8226765,28.7457036 C20.8226765,28.2832036 20.6647287,27.83584 20.3772504,27.4813127 L19.4764852,26.3719855 C19.189007,26.0177945 19.0313896,25.5700945 19.0313896,25.1075945 L19.0313896,20.7856582 C19.0313896,20.3288764 19.1853722,19.8862218 19.4669026,19.5337127" id="Fill-17" fill="#9A3F21"></path>
                            <path d="M19.0312574,20.7853891 L19.0312574,25.1076618 C19.0312574,25.5701618 19.1892052,26.0178618 19.4766835,26.3720527 L20.3774487,27.4817164 C20.6652574,27.8355709 20.8228748,28.2836073 20.8228748,28.7461073 L20.8228748,35.0327436 C20.8228748,36.1191982 19.9700226,36.9997982 18.9185791,36.9997982 L16.6593965,36.9997982 C17.7105096,36.9997982 18.5633617,36.1191982 18.5633617,35.0327436 L18.5633617,28.7461073 C18.5633617,28.2836073 18.4057443,27.8355709 18.1182661,27.4817164 L17.2171704,26.3720527 C16.9296922,26.0178618 16.7727357,25.5701618 16.7727357,25.1076618 L16.7727357,20.7853891 C16.7727357,20.3289436 16.9260574,19.8856164 17.2079183,19.53378 L18.1281791,18.3813982 C18.4093791,18.0292255 18.5633617,17.5858982 18.5633617,17.1294527 L18.5633617,12.1674164 C18.5633617,11.6827164 18.3902139,11.2144982 18.0759704,10.85358 L15.4685096,7.85288 C15.1545965,7.49196182 14.9807878,7.02340727 14.9807878,6.53803455 L14.9807878,4.78827091 L17.2403009,4.78827091 L17.2403009,6.53803455 C17.2403009,7.02340727 17.4137791,7.49196182 17.7273617,7.85288 L20.335153,10.85358 C20.6493965,11.2144982 20.8228748,11.6830527 20.8228748,12.1677527 L20.8228748,17.1294527 C20.8228748,17.5862345 20.6688922,18.0292255 20.3870313,18.3813982 L19.46644,19.53378 C19.18524,19.8856164 19.0312574,20.3289436 19.0312574,20.7853891" id="Fill-18" fill="#8C331B"></path>
                            <polygon id="Fill-19" fill="#ED3124" points="6 17.3230636 20.822313 17.3230636 20.822313 12.3569909 6 12.3569909"></polygon>
                            <polygon id="Fill-20" fill="#D8231E" points="18.5634609 17.3230636 20.822313 17.3230636 20.822313 12.3569909 18.5634609 12.3569909"></polygon>
                            <path d="M19.8002452,12.3570582 L19.5593583,12.3570582 C19.5405235,12.3547036 19.5200365,12.3536945 19.4978974,12.3536945 C19.3452365,12.3540309 18.3942452,12.3415855 18.278593,12.3536945 C18.2713235,12.3543673 18.2643843,12.3560491 18.2574452,12.3570582 L18.0618278,12.3570582 C18.0618278,12.3570582 17.9884713,12.4942945 17.9174278,12.6170673 C17.898593,12.6466673 17.8807496,12.67694 17.8632365,12.7078855 C17.8496887,12.7321036 17.8361409,12.7566582 17.8222626,12.7812127 C17.5387496,13.2844127 17.0004713,13.5457673 16.4813583,13.7284127 C15.9457235,13.9167764 15.3915843,14.0149945 14.8536365,14.1838491 C14.296193,14.3584218 13.7377583,14.5329945 13.1958452,14.7586945 C12.1721583,15.1848673 10.9928365,15.5787491 10.4218452,16.6816855 C10.3818626,16.7587127 10.3154452,16.8939309 10.2797583,17.0204036 L10.1892191,17.3231309 L10.404993,17.3231309 L10.4608365,17.3231309 L10.7770626,17.3231309 L11.499393,17.3231309 L13.7744365,17.3231309 L14.3844191,17.3231309 L14.7687148,17.3231309 L14.7710278,17.22054 C14.7746626,17.0574036 14.8050626,16.8956127 14.86388,16.74324 C14.9560713,16.5030764 15.0776713,16.24374 15.2749409,16.0738764 C15.4877409,15.8912309 15.7547322,15.79604 16.0170974,15.7139673 C17.2258278,15.3369036 18.7765583,15.4304127 19.5078104,13.9806855 C19.6654278,13.6678673 19.7546452,13.2992127 19.7853757,12.9460309 C19.7926452,12.8626127 19.7995843,12.7818855 19.7999148,12.7078855 L19.8002452,12.7078855 L19.8002452,12.3570582 Z" id="Fill-21" fill="#E2EEFD"></path>
                            <path d="M16.2293357,24.8915482 C16.6721183,24.8915482 17.0309704,25.2625573 17.0309704,25.7200118 C17.0309704,26.17713 16.6721183,26.5481391 16.2293357,26.5481391 C15.786553,26.5481391 15.4277009,26.17713 15.4277009,25.7200118 C15.4277009,25.2625573 15.786553,24.8915482 16.2293357,24.8915482" id="Fill-22" fill="#E2EEFD"></path>
                            <path d="M16.2293357,20.5281718 C16.6721183,20.5281718 17.0309704,20.8991809 17.0309704,21.3562991 C17.0309704,21.81409 16.6721183,22.1847627 16.2293357,22.1847627 C15.786553,22.1847627 15.4277009,21.81409 15.4277009,21.3562991 C15.4277009,20.8991809 15.786553,20.5281718 16.2293357,20.5281718" id="Fill-23" fill="#E2EEFD"></path>
                            <path d="M13.8244974,27.2957073 C14.26728,27.2957073 14.6261322,27.6667164 14.6261322,28.1241709 C14.6261322,28.5812891 14.26728,28.9522982 13.8244974,28.9522982 C13.3817148,28.9522982 13.0228626,28.5812891 13.0228626,28.1241709 C13.0228626,27.6667164 13.3817148,27.2957073 13.8244974,27.2957073" id="Fill-24" fill="#E2EEFD"></path>
                            <path d="M17.2272487,29.2557318 C17.6700313,29.2557318 18.0288835,29.6267409 18.0288835,30.0841955 C18.0288835,30.5413136 17.6700313,30.9123227 17.2272487,30.9123227 C16.7844661,30.9123227 16.4256139,30.5413136 16.4256139,30.0841955 C16.4256139,29.6267409 16.7844661,29.2557318 17.2272487,29.2557318" id="Fill-25" fill="#E2EEFD"></path>
                            <path d="M10.6140591,13.5803455 L7.7809113,13.5803455 C7.48385043,13.5803455 7.24296348,13.8292545 7.24296348,14.1363545 C7.24296348,14.4431182 7.48385043,14.6920273 7.7809113,14.6920273 L10.6140591,14.6920273 C10.91112,14.6920273 11.152007,14.4431182 11.152007,14.1363545 C11.152007,13.8292545 10.91112,13.5803455 10.6140591,13.5803455" id="Fill-26" fill="#A80505"></path>
                            <path d="M8.76729217,15.0997336 L7.78094435,15.0997336 C7.48388348,15.0997336 7.24299652,15.3486427 7.24299652,15.6554064 C7.24299652,15.9625064 7.48388348,16.2114155 7.78094435,16.2114155 L8.76729217,16.2114155 C9.06435304,16.2114155 9.30490957,15.9625064 9.30490957,15.6554064 C9.30490957,15.3486427 9.06435304,15.0997336 8.76729217,15.0997336" id="Fill-27" fill="#A80505"></path>
                        </g>
                    </g>
                    <g id="Group-30" transform="translate(19.000000, 0.000000)">
                        <mask id="mask-6" fill="white">
                            <use xlink:href="#path-5"></use>
                        </mask>
                        <g id="Clip-10"></g>
                        <mask id="mask-8" fill="white">
                            <use xlink:href="#path-7"></use>
                        </mask>
                        <g id="Clip-10"></g>
                        <path d="M17.2270835,4.78840545 L9.59602261,4.78840545 L9.59602261,1.34908727 C9.59602261,0.654496364 10.1491704,0.09176 10.8311878,0.09176 L15.9915878,0.09176 C16.6739357,0.09176 17.2270835,0.654496364 17.2270835,1.34908727 L17.2270835,4.78840545 Z" id="Fill-15" fill="#ED3124"></path>
                        <path d="M17.2272487,1.35823636 L17.2272487,4.78813636 L15.0282052,4.78813636 L15.0282052,1.35823636 C15.0282052,0.6586 14.4786922,0.0918272727 13.8016313,0.0918272727 L16.0006748,0.0918272727 C16.6777357,0.0918272727 17.2272487,0.6586 17.2272487,1.35823636" id="Fill-16" fill="#D8231E"></path>
                        <path d="M19.4669026,19.5337127 L20.3871635,18.3816673 C20.6686939,18.0291582 20.8226765,17.5861673 20.8226765,17.1293855 L20.8226765,12.1680218 C20.8226765,11.6829855 20.6491983,11.2147673 20.3352852,10.8538491 L17.7274939,7.85247636 C17.4139113,7.49155818 17.240433,7.02367636 17.240433,6.53830364 L17.240433,4.78854 L9.58260696,4.78854 L9.58260696,6.53830364 C9.58260696,7.02334 9.4091287,7.49155818 9.09521565,7.85247636 L6.48742435,10.8535127 C6.17384174,11.2147673 6.00036348,11.6826491 6.00036348,12.1680218 L6.00036348,17.1293855 C6.00036348,17.5861673 6.15434609,18.0291582 6.43554609,18.3816673 L7.35580696,19.5337127 C7.63733739,19.8858855 7.79132,20.3288764 7.79132,20.7856582 L7.79132,25.1075945 C7.79132,25.5700945 7.63370261,26.0174582 7.34589391,26.3719855 L6.44545913,27.4813127 C6.15798087,27.8355036 6.00036348,28.2832036 6.00036348,28.7457036 L6.00036348,35.0326764 C6.00036348,36.1194673 6.85255478,37.0000673 7.90399826,37.0000673 L18.9187113,37.0000673 C19.9701548,37.0000673 20.8226765,36.1194673 20.8226765,35.0326764 L20.8226765,28.7457036 C20.8226765,28.2832036 20.6647287,27.83584 20.3772504,27.4813127 L19.4764852,26.3719855 C19.189007,26.0177945 19.0313896,25.5700945 19.0313896,25.1075945 L19.0313896,20.7856582 C19.0313896,20.3288764 19.1853722,19.8862218 19.4669026,19.5337127" id="Fill-17" fill="#9A3F21"></path>
                        <path d="M19.0312574,20.7853891 L19.0312574,25.1076618 C19.0312574,25.5701618 19.1892052,26.0178618 19.4766835,26.3720527 L20.3774487,27.4817164 C20.6652574,27.8355709 20.8228748,28.2836073 20.8228748,28.7461073 L20.8228748,35.0327436 C20.8228748,36.1191982 19.9700226,36.9997982 18.9185791,36.9997982 L16.6593965,36.9997982 C17.7105096,36.9997982 18.5633617,36.1191982 18.5633617,35.0327436 L18.5633617,28.7461073 C18.5633617,28.2836073 18.4057443,27.8355709 18.1182661,27.4817164 L17.2171704,26.3720527 C16.9296922,26.0178618 16.7727357,25.5701618 16.7727357,25.1076618 L16.7727357,20.7853891 C16.7727357,20.3289436 16.9260574,19.8856164 17.2079183,19.53378 L18.1281791,18.3813982 C18.4093791,18.0292255 18.5633617,17.5858982 18.5633617,17.1294527 L18.5633617,12.1674164 C18.5633617,11.6827164 18.3902139,11.2144982 18.0759704,10.85358 L15.4685096,7.85288 C15.1545965,7.49196182 14.9807878,7.02340727 14.9807878,6.53803455 L14.9807878,4.78827091 L17.2403009,4.78827091 L17.2403009,6.53803455 C17.2403009,7.02340727 17.4137791,7.49196182 17.7273617,7.85288 L20.335153,10.85358 C20.6493965,11.2144982 20.8228748,11.6830527 20.8228748,12.1677527 L20.8228748,17.1294527 C20.8228748,17.5862345 20.6688922,18.0292255 20.3870313,18.3813982 L19.46644,19.53378 C19.18524,19.8856164 19.0312574,20.3289436 19.0312574,20.7853891" id="Fill-18" fill="#8C331B"></path>
                        <polygon id="Fill-19" fill="#ED3124" points="6 17.3230636 20.822313 17.3230636 20.822313 12.3569909 6 12.3569909"></polygon>
                        <polygon id="Fill-20" fill="#D8231E" points="18.5634609 17.3230636 20.822313 17.3230636 20.822313 12.3569909 18.5634609 12.3569909"></polygon>
                        <path d="M19.8002452,12.3570582 L19.5593583,12.3570582 C19.5405235,12.3547036 19.5200365,12.3536945 19.4978974,12.3536945 C19.3452365,12.3540309 18.3942452,12.3415855 18.278593,12.3536945 C18.2713235,12.3543673 18.2643843,12.3560491 18.2574452,12.3570582 L18.0618278,12.3570582 C18.0618278,12.3570582 17.9884713,12.4942945 17.9174278,12.6170673 C17.898593,12.6466673 17.8807496,12.67694 17.8632365,12.7078855 C17.8496887,12.7321036 17.8361409,12.7566582 17.8222626,12.7812127 C17.5387496,13.2844127 17.0004713,13.5457673 16.4813583,13.7284127 C15.9457235,13.9167764 15.3915843,14.0149945 14.8536365,14.1838491 C14.296193,14.3584218 13.7377583,14.5329945 13.1958452,14.7586945 C12.1721583,15.1848673 10.9928365,15.5787491 10.4218452,16.6816855 C10.3818626,16.7587127 10.3154452,16.8939309 10.2797583,17.0204036 L10.1892191,17.3231309 L10.404993,17.3231309 L10.4608365,17.3231309 L10.7770626,17.3231309 L11.499393,17.3231309 L13.7744365,17.3231309 L14.3844191,17.3231309 L14.7687148,17.3231309 L14.7710278,17.22054 C14.7746626,17.0574036 14.8050626,16.8956127 14.86388,16.74324 C14.9560713,16.5030764 15.0776713,16.24374 15.2749409,16.0738764 C15.4877409,15.8912309 15.7547322,15.79604 16.0170974,15.7139673 C17.2258278,15.3369036 18.7765583,15.4304127 19.5078104,13.9806855 C19.6654278,13.6678673 19.7546452,13.2992127 19.7853757,12.9460309 C19.7926452,12.8626127 19.7995843,12.7818855 19.7999148,12.7078855 L19.8002452,12.7078855 L19.8002452,12.3570582 Z" id="Fill-21" fill="#E2EEFD"></path>
                        <path d="M16.2293357,24.8915482 C16.6721183,24.8915482 17.0309704,25.2625573 17.0309704,25.7200118 C17.0309704,26.17713 16.6721183,26.5481391 16.2293357,26.5481391 C15.786553,26.5481391 15.4277009,26.17713 15.4277009,25.7200118 C15.4277009,25.2625573 15.786553,24.8915482 16.2293357,24.8915482" id="Fill-22" fill="#E2EEFD"></path>
                        <path d="M16.2293357,20.5281718 C16.6721183,20.5281718 17.0309704,20.8991809 17.0309704,21.3562991 C17.0309704,21.81409 16.6721183,22.1847627 16.2293357,22.1847627 C15.786553,22.1847627 15.4277009,21.81409 15.4277009,21.3562991 C15.4277009,20.8991809 15.786553,20.5281718 16.2293357,20.5281718" id="Fill-23" fill="#E2EEFD"></path>
                        <path d="M13.8244974,27.2957073 C14.26728,27.2957073 14.6261322,27.6667164 14.6261322,28.1241709 C14.6261322,28.5812891 14.26728,28.9522982 13.8244974,28.9522982 C13.3817148,28.9522982 13.0228626,28.5812891 13.0228626,28.1241709 C13.0228626,27.6667164 13.3817148,27.2957073 13.8244974,27.2957073" id="Fill-24" fill="#E2EEFD"></path>
                        <path d="M17.2272487,29.2557318 C17.6700313,29.2557318 18.0288835,29.6267409 18.0288835,30.0841955 C18.0288835,30.5413136 17.6700313,30.9123227 17.2272487,30.9123227 C16.7844661,30.9123227 16.4256139,30.5413136 16.4256139,30.0841955 C16.4256139,29.6267409 16.7844661,29.2557318 17.2272487,29.2557318" id="Fill-25" fill="#E2EEFD"></path>
                        <path d="M10.6140591,13.5803455 L7.7809113,13.5803455 C7.48385043,13.5803455 7.24296348,13.8292545 7.24296348,14.1363545 C7.24296348,14.4431182 7.48385043,14.6920273 7.7809113,14.6920273 L10.6140591,14.6920273 C10.91112,14.6920273 11.152007,14.4431182 11.152007,14.1363545 C11.152007,13.8292545 10.91112,13.5803455 10.6140591,13.5803455" id="Fill-26" fill="#A80505"></path>
                        <path d="M8.76729217,15.0997336 L7.78094435,15.0997336 C7.48388348,15.0997336 7.24299652,15.3486427 7.24299652,15.6554064 C7.24299652,15.9625064 7.48388348,16.2114155 7.78094435,16.2114155 L8.76729217,16.2114155 C9.06435304,16.2114155 9.30490957,15.9625064 9.30490957,15.6554064 C9.30490957,15.3486427 9.06435304,15.0997336 8.76729217,15.0997336" id="Fill-27" fill="#A80505"></path>
                    </g>
                    <g id="Group-30">
                        <mask id="mask-10" fill="white">
                            <use xlink:href="#path-9"></use>
                        </mask>
                        <g id="Clip-10"></g>
                        <mask id="mask-12" fill="white">
                            <use xlink:href="#path-11"></use>
                        </mask>
                        <g id="Clip-10"></g>
                        <path d="M17.2270835,4.78840545 L9.59602261,4.78840545 L9.59602261,1.34908727 C9.59602261,0.654496364 10.1491704,0.09176 10.8311878,0.09176 L15.9915878,0.09176 C16.6739357,0.09176 17.2270835,0.654496364 17.2270835,1.34908727 L17.2270835,4.78840545 Z" id="Fill-15" fill="#ED3124"></path>
                        <path d="M17.2272487,1.35823636 L17.2272487,4.78813636 L15.0282052,4.78813636 L15.0282052,1.35823636 C15.0282052,0.6586 14.4786922,0.0918272727 13.8016313,0.0918272727 L16.0006748,0.0918272727 C16.6777357,0.0918272727 17.2272487,0.6586 17.2272487,1.35823636" id="Fill-16" fill="#D8231E"></path>
                        <path d="M19.4669026,19.5337127 L20.3871635,18.3816673 C20.6686939,18.0291582 20.8226765,17.5861673 20.8226765,17.1293855 L20.8226765,12.1680218 C20.8226765,11.6829855 20.6491983,11.2147673 20.3352852,10.8538491 L17.7274939,7.85247636 C17.4139113,7.49155818 17.240433,7.02367636 17.240433,6.53830364 L17.240433,4.78854 L9.58260696,4.78854 L9.58260696,6.53830364 C9.58260696,7.02334 9.4091287,7.49155818 9.09521565,7.85247636 L6.48742435,10.8535127 C6.17384174,11.2147673 6.00036348,11.6826491 6.00036348,12.1680218 L6.00036348,17.1293855 C6.00036348,17.5861673 6.15434609,18.0291582 6.43554609,18.3816673 L7.35580696,19.5337127 C7.63733739,19.8858855 7.79132,20.3288764 7.79132,20.7856582 L7.79132,25.1075945 C7.79132,25.5700945 7.63370261,26.0174582 7.34589391,26.3719855 L6.44545913,27.4813127 C6.15798087,27.8355036 6.00036348,28.2832036 6.00036348,28.7457036 L6.00036348,35.0326764 C6.00036348,36.1194673 6.85255478,37.0000673 7.90399826,37.0000673 L18.9187113,37.0000673 C19.9701548,37.0000673 20.8226765,36.1194673 20.8226765,35.0326764 L20.8226765,28.7457036 C20.8226765,28.2832036 20.6647287,27.83584 20.3772504,27.4813127 L19.4764852,26.3719855 C19.189007,26.0177945 19.0313896,25.5700945 19.0313896,25.1075945 L19.0313896,20.7856582 C19.0313896,20.3288764 19.1853722,19.8862218 19.4669026,19.5337127" id="Fill-17" fill="#9A3F21"></path>
                        <path d="M19.0312574,20.7853891 L19.0312574,25.1076618 C19.0312574,25.5701618 19.1892052,26.0178618 19.4766835,26.3720527 L20.3774487,27.4817164 C20.6652574,27.8355709 20.8228748,28.2836073 20.8228748,28.7461073 L20.8228748,35.0327436 C20.8228748,36.1191982 19.9700226,36.9997982 18.9185791,36.9997982 L16.6593965,36.9997982 C17.7105096,36.9997982 18.5633617,36.1191982 18.5633617,35.0327436 L18.5633617,28.7461073 C18.5633617,28.2836073 18.4057443,27.8355709 18.1182661,27.4817164 L17.2171704,26.3720527 C16.9296922,26.0178618 16.7727357,25.5701618 16.7727357,25.1076618 L16.7727357,20.7853891 C16.7727357,20.3289436 16.9260574,19.8856164 17.2079183,19.53378 L18.1281791,18.3813982 C18.4093791,18.0292255 18.5633617,17.5858982 18.5633617,17.1294527 L18.5633617,12.1674164 C18.5633617,11.6827164 18.3902139,11.2144982 18.0759704,10.85358 L15.4685096,7.85288 C15.1545965,7.49196182 14.9807878,7.02340727 14.9807878,6.53803455 L14.9807878,4.78827091 L17.2403009,4.78827091 L17.2403009,6.53803455 C17.2403009,7.02340727 17.4137791,7.49196182 17.7273617,7.85288 L20.335153,10.85358 C20.6493965,11.2144982 20.8228748,11.6830527 20.8228748,12.1677527 L20.8228748,17.1294527 C20.8228748,17.5862345 20.6688922,18.0292255 20.3870313,18.3813982 L19.46644,19.53378 C19.18524,19.8856164 19.0312574,20.3289436 19.0312574,20.7853891" id="Fill-18" fill="#8C331B"></path>
                        <polygon id="Fill-19" fill="#ED3124" points="6 17.3230636 20.822313 17.3230636 20.822313 12.3569909 6 12.3569909"></polygon>
                        <polygon id="Fill-20" fill="#D8231E" points="18.5634609 17.3230636 20.822313 17.3230636 20.822313 12.3569909 18.5634609 12.3569909"></polygon>
                        <path d="M19.8002452,12.3570582 L19.5593583,12.3570582 C19.5405235,12.3547036 19.5200365,12.3536945 19.4978974,12.3536945 C19.3452365,12.3540309 18.3942452,12.3415855 18.278593,12.3536945 C18.2713235,12.3543673 18.2643843,12.3560491 18.2574452,12.3570582 L18.0618278,12.3570582 C18.0618278,12.3570582 17.9884713,12.4942945 17.9174278,12.6170673 C17.898593,12.6466673 17.8807496,12.67694 17.8632365,12.7078855 C17.8496887,12.7321036 17.8361409,12.7566582 17.8222626,12.7812127 C17.5387496,13.2844127 17.0004713,13.5457673 16.4813583,13.7284127 C15.9457235,13.9167764 15.3915843,14.0149945 14.8536365,14.1838491 C14.296193,14.3584218 13.7377583,14.5329945 13.1958452,14.7586945 C12.1721583,15.1848673 10.9928365,15.5787491 10.4218452,16.6816855 C10.3818626,16.7587127 10.3154452,16.8939309 10.2797583,17.0204036 L10.1892191,17.3231309 L10.404993,17.3231309 L10.4608365,17.3231309 L10.7770626,17.3231309 L11.499393,17.3231309 L13.7744365,17.3231309 L14.3844191,17.3231309 L14.7687148,17.3231309 L14.7710278,17.22054 C14.7746626,17.0574036 14.8050626,16.8956127 14.86388,16.74324 C14.9560713,16.5030764 15.0776713,16.24374 15.2749409,16.0738764 C15.4877409,15.8912309 15.7547322,15.79604 16.0170974,15.7139673 C17.2258278,15.3369036 18.7765583,15.4304127 19.5078104,13.9806855 C19.6654278,13.6678673 19.7546452,13.2992127 19.7853757,12.9460309 C19.7926452,12.8626127 19.7995843,12.7818855 19.7999148,12.7078855 L19.8002452,12.7078855 L19.8002452,12.3570582 Z" id="Fill-21" fill="#E2EEFD"></path>
                        <path d="M16.2293357,24.8915482 C16.6721183,24.8915482 17.0309704,25.2625573 17.0309704,25.7200118 C17.0309704,26.17713 16.6721183,26.5481391 16.2293357,26.5481391 C15.786553,26.5481391 15.4277009,26.17713 15.4277009,25.7200118 C15.4277009,25.2625573 15.786553,24.8915482 16.2293357,24.8915482" id="Fill-22" fill="#E2EEFD"></path>
                        <path d="M16.2293357,20.5281718 C16.6721183,20.5281718 17.0309704,20.8991809 17.0309704,21.3562991 C17.0309704,21.81409 16.6721183,22.1847627 16.2293357,22.1847627 C15.786553,22.1847627 15.4277009,21.81409 15.4277009,21.3562991 C15.4277009,20.8991809 15.786553,20.5281718 16.2293357,20.5281718" id="Fill-23" fill="#E2EEFD"></path>
                        <path d="M13.8244974,27.2957073 C14.26728,27.2957073 14.6261322,27.6667164 14.6261322,28.1241709 C14.6261322,28.5812891 14.26728,28.9522982 13.8244974,28.9522982 C13.3817148,28.9522982 13.0228626,28.5812891 13.0228626,28.1241709 C13.0228626,27.6667164 13.3817148,27.2957073 13.8244974,27.2957073" id="Fill-24" fill="#E2EEFD"></path>
                        <path d="M17.2272487,29.2557318 C17.6700313,29.2557318 18.0288835,29.6267409 18.0288835,30.0841955 C18.0288835,30.5413136 17.6700313,30.9123227 17.2272487,30.9123227 C16.7844661,30.9123227 16.4256139,30.5413136 16.4256139,30.0841955 C16.4256139,29.6267409 16.7844661,29.2557318 17.2272487,29.2557318" id="Fill-25" fill="#E2EEFD"></path>
                        <path d="M10.6140591,13.5803455 L7.7809113,13.5803455 C7.48385043,13.5803455 7.24296348,13.8292545 7.24296348,14.1363545 C7.24296348,14.4431182 7.48385043,14.6920273 7.7809113,14.6920273 L10.6140591,14.6920273 C10.91112,14.6920273 11.152007,14.4431182 11.152007,14.1363545 C11.152007,13.8292545 10.91112,13.5803455 10.6140591,13.5803455" id="Fill-26" fill="#A80505"></path>
                        <path d="M8.76729217,15.0997336 L7.78094435,15.0997336 C7.48388348,15.0997336 7.24299652,15.3486427 7.24299652,15.6554064 C7.24299652,15.9625064 7.48388348,16.2114155 7.78094435,16.2114155 L8.76729217,16.2114155 C9.06435304,16.2114155 9.30490957,15.9625064 9.30490957,15.6554064 C9.30490957,15.3486427 9.06435304,15.0997336 8.76729217,15.0997336" id="Fill-27" fill="#A80505"></path>
                    </g>
                </g>
            </g>
        </g>
    </g>
</svg>