<?xml version="1.0" encoding="UTF-8"?>
<svg width="95px" height="76px" viewBox="0 0 95 76" version="1.1" xmlns="http://www.w3.org/2000/svg" xmlns:xlink="http://www.w3.org/1999/xlink">
    <!-- Generator: Sketch 51.3 (57544) - http://www.bohemiancoding.com/sketch -->
    <title>Group 23</title>
    <desc>Created with Sketch.</desc>
    <defs></defs>
    <g id="Page-1" stroke="none" stroke-width="1" fill="none" fill-rule="evenodd">
        <g id="Index-Opsi-1" transform="translate(-464.000000, -1868.000000)">
            <g id="Group-23" transform="translate(464.000000, 1868.000000)">
                <polygon id="Fill-1" fill="#C5901A" points="0 76 95 76 95 7 0 7"></polygon>
                <polygon id="Fill-2" fill="#E6E7E8" points="10 31 85 31 85 7 10 7"></polygon>
                <path d="M13.6426667,0.257938902 L40.9286275,0.257938902 C42.8122353,0.257938902 44.3388235,1.78067305 44.3388235,3.65875354 L44.3388235,7.05956817 L10.2318431,7.05956817 L10.2318431,3.65875354 C10.2318431,1.78067305 11.7590588,0.257938902 13.6426667,0.257938902" id="Fill-3" fill="#3A3A38"></path>
                <path d="M54.5712941,0.257938902 L81.8566275,0.257938902 C83.7402353,0.257938902 85.267451,1.78067305 85.267451,3.65875354 L85.267451,7.05956817 L51.1604706,7.05956817 L51.1604706,3.65875354 C51.1604706,1.78067305 52.6876863,0.257938902 54.5712941,0.257938902" id="Fill-5" fill="#3A3A38"></path>
                <path d="M22.1696,13.8606344 C24.9950118,13.8606344 27.2858353,16.1447356 27.2858353,18.9618563 C27.2858353,21.7789771 24.9950118,24.0630783 22.1696,24.0630783 C19.3441882,24.0630783 17.0533647,21.7789771 17.0533647,18.9618563 C17.0533647,16.1447356 19.3441882,13.8606344 22.1696,13.8606344" id="Fill-7" fill="#B9B9B9"></path>
                <path d="M39.2229647,13.8606344 C42.0483765,13.8606344 44.3392,16.1447356 44.3392,18.9618563 C44.3392,21.7789771 42.0483765,24.0630783 39.2229647,24.0630783 C36.3975529,24.0630783 34.1073569,21.7789771 34.1073569,18.9618563 C34.1073569,16.1447356 36.3975529,13.8606344 39.2229647,13.8606344" id="Fill-9" fill="#B9B9B9"></path>
                <path d="M56.2765804,13.8606344 C59.1019922,13.8606344 61.3928157,16.1447356 61.3928157,18.9618563 C61.3928157,21.7789771 59.1019922,24.0630783 56.2765804,24.0630783 C53.4511686,24.0630783 51.1603451,21.7789771 51.1603451,18.9618563 C51.1603451,16.1447356 53.4511686,13.8606344 56.2765804,13.8606344" id="Fill-11" fill="#B9B9B9"></path>
                <path d="M73.3301333,13.8606344 C76.1555451,13.8606344 78.4457412,16.1447356 78.4457412,18.9618563 C78.4457412,21.7789771 76.1555451,24.0630783 73.3301333,24.0630783 C70.5047216,24.0630783 68.213898,21.7789771 68.213898,18.9618563 C68.213898,16.1447356 70.5047216,13.8606344 73.3301333,13.8606344" id="Fill-13" fill="#B9B9B9"></path>
                <polygon id="Fill-15" fill="#E6E7E8" points="10 76 85.0349804 76 85.0349804 35 10 35"></polygon>
                <polygon id="Fill-17" fill="#3A3A38" points="24 44.9008146 71.7496471 44.9008146 71.7496471 41.5 24 41.5"></polygon>
                <path d="M17.0534902,18.9617312 C17.0534902,21.778852 19.3436863,24.0629532 22.1697255,24.0629532 L22.1697255,13.8605093 C19.3436863,13.8605093 17.0534902,16.1446105 17.0534902,18.9617312" id="Fill-18" fill="#62666A"></path>
                <path d="M34.1071059,18.9617312 C34.1071059,21.778852 36.397302,24.0629532 39.2227137,24.0629532 L39.2227137,13.8605093 C36.397302,13.8605093 34.1071059,16.1446105 34.1071059,18.9617312" id="Fill-19" fill="#62666A"></path>
                <path d="M51.1604078,18.9617312 C51.1604078,21.778852 53.4506039,24.0629532 56.2766431,24.0629532 L56.2766431,13.8605093 C53.4506039,13.8605093 51.1604078,16.1446105 51.1604078,18.9617312" id="Fill-20" fill="#62666A"></path>
                <path d="M68.2140235,18.9617312 C68.2140235,21.778852 70.5042196,24.0629532 73.3302588,24.0629532 L73.3302588,13.8605093 C70.5042196,13.8605093 68.2140235,16.1446105 68.2140235,18.9617312" id="Fill-21" fill="#62666A"></path>
            </g>
        </g>
    </g>
</svg>