<?xml version="1.0" encoding="UTF-8"?>
<svg width="71px" height="133px" viewBox="0 0 71 133" version="1.1" xmlns="http://www.w3.org/2000/svg" xmlns:xlink="http://www.w3.org/1999/xlink">
    <!-- Generator: Sketch 51.3 (57544) - http://www.bohemiancoding.com/sketch -->
    <title>Group 18</title>
    <desc>Created with Sketch.</desc>
    <defs>
        <polygon id="path-1" points="0 0.00634619486 70.4934597 0.00634619486 70.4934597 7.79926349 0 7.79926349"></polygon>
        <polygon id="path-3" points="0 133 70.4935703 133 70.4935703 0.294697095 0 0.294697095"></polygon>
    </defs>
    <g id="Page-1" stroke="none" stroke-width="1" fill="none" fill-rule="evenodd">
        <g id="Index-Opsi-1" transform="translate(-940.000000, -1811.000000)">
            <g id="Group-18" transform="translate(940.000000, 1811.000000)">
                <polygon id="Fill-1" fill="#2FA8CC" points="46 69.8571429 40.9998601 79.5708851 40.9998601 82 31.0001399 82 31.0001399 79.5708851 26 69.8571429 26 65 46 65"></polygon>
                <g id="Group-17">
                    <path d="M7.83274219,75.6123763 L62.6608281,75.6123763 C66.9868359,75.6123763 70.4935703,79.5654012 70.4935703,84.4411481 L70.4935703,132.999945 L0,132.999945 L0,84.4411481 C0,79.5654012 3.50673437,75.6123763 7.83274219,75.6123763" id="Fill-2" fill="#BCBEC0"></path>
                    <g id="Group-6" transform="translate(0.000000, 75.605809)">
                        <mask id="mask-2" fill="white">
                            <use xlink:href="#path-1"></use>
                        </mask>
                        <g id="Clip-5"></g>
                        <path d="M70.4934597,7.79926349 L-0.000111217087,7.79926349 C-0.000665625,5.73196888 0.824154688,3.75021369 2.29352188,2.28831743 C3.76233438,0.826421162 5.75477188,0.00579460581 7.83263125,0.00634647303 L62.6607172,0.00634647303 C64.7385766,0.00579460581 66.7310141,0.826973029 68.1998266,2.28831743 C69.6691937,3.75021369 70.4940141,5.73252075 70.4934597,7.79926349" id="Fill-4" fill="#A7A9AC" mask="url(#mask-2)"></path>
                    </g>
                    <mask id="mask-4" fill="white">
                        <use xlink:href="#path-3"></use>
                    </mask>
                    <g id="Clip-8"></g>
                    <polygon id="Fill-7" fill="#1B75BC" mask="url(#mask-4)" points="12.0566875 64.417805 59.3171719 64.417805 59.3171719 2.76154357 12.0566875 2.76154357"></polygon>
                    <path d="M17.894607,88.6079112 L52.5986305,88.6079112 C58.0750602,88.6079112 62.5136695,93.0245046 62.5136695,98.4725378 L62.5136695,133.00011 L7.97956797,133.00011 L7.97956797,98.4725378 C7.97956797,93.0245046 12.418732,88.6079112 17.894607,88.6079112" id="Fill-9" fill="#D1D3D4" mask="url(#mask-4)"></path>
                    <path d="M25.3314133,110.803845 C24.6741086,110.803845 24.0434289,110.544468 23.5786008,110.081451 C23.113218,109.618986 22.8525148,108.992065 22.8525148,108.337551 L22.8525148,103.404961 C22.8525148,102.042953 23.9618898,100.938667 25.3314133,100.938667 C26.7009367,100.938667 27.8103117,102.042953 27.8103117,103.404961 L27.8103117,108.337551 C27.8108664,108.991513 27.5496086,109.618986 27.0842258,110.081451 C26.6193977,110.544468 25.9892727,110.803845 25.3314133,110.803845" id="Fill-10" fill="#FFFFFF" mask="url(#mask-4)"></path>
                    <path d="M45.1620461,110.803845 C44.5041867,110.803845 43.8740617,110.544468 43.4092336,110.081451 C42.9438508,109.618986 42.6831477,108.992065 42.6831477,108.337551 L42.6831477,103.404961 C42.6831477,102.042953 43.7925227,100.938667 45.1620461,100.938667 C46.5315695,100.938667 47.6409445,102.042953 47.6409445,103.404961 L47.6409445,108.337551 C47.6414992,108.991513 47.3802414,109.618986 46.9148586,110.081451 C46.4500305,110.544468 45.8199055,110.803845 45.1620461,110.803845" id="Fill-11" fill="#FFFFFF" mask="url(#mask-4)"></path>
                    <path d="M62.9542578,5.22745187 C62.9614687,6.53592905 62.4334062,7.79142697 61.4915469,8.70476722 C60.5735391,9.64183776 59.311625,10.1666635 57.9964609,10.1600411 L13.3773984,10.1600411 C10.6422344,10.1517631 8.42736719,7.94815726 8.41960156,5.22745187 C8.41294531,3.91897469 8.94100781,2.66347676 9.8823125,1.75013651 C10.800875,0.813065975 12.0622344,0.288240249 13.3773984,0.294862656 L57.9964609,0.294862656 C60.7310703,0.303140664 62.9459375,2.50674647 62.9542578,5.22745187" id="Fill-12" fill="#27AAE1" mask="url(#mask-4)"></path>
                    <path d="M62.9542578,34.8224353 C62.9342891,37.5381739 60.7260781,39.7351573 57.9964609,39.7550245 L13.3773984,39.7550245 C10.6422344,39.7467465 8.42736719,37.5431407 8.41960156,34.8224353 C8.43957031,32.1066967 10.6472266,29.9097133 13.3773984,29.8898461 L57.9964609,29.8898461 C60.7310703,29.8981241 62.9459375,32.1017299 62.9542578,34.8224353" id="Fill-13" fill="#27AAE1" mask="url(#mask-4)"></path>
                    <path d="M62.9542578,64.4173635 C62.9342891,67.1331021 60.7260781,69.3295336 57.9964609,69.3499527 L13.3773984,69.3499527 C10.6422344,69.3416747 8.42736719,67.1380689 8.41960156,64.4173635 C8.43957031,61.7016249 10.6472266,59.5046415 13.3773984,59.4847743 L57.9964609,59.4847743 C60.7310703,59.4930523 62.9459375,61.6966581 62.9542578,64.4173635" id="Fill-14" fill="#27AAE1" mask="url(#mask-4)"></path>
                    <path d="M20.3738938,88.6079112 L30.2889328,88.6079112 L30.2889328,100.938832 C30.2889328,102.300841 29.1795578,103.405127 27.8100344,103.405127 L22.8527922,103.405127 C21.4838234,103.405127 20.3733391,102.301393 20.3733391,100.938832 L20.3733391,88.6079112 L20.3738938,88.6079112 Z" id="Fill-15" fill="#E6E7E8" mask="url(#mask-4)"></path>
                    <path d="M40.2045266,88.6079112 L50.1195656,88.6079112 L50.1195656,100.938832 C50.1195656,102.300841 49.0101906,103.405127 47.6406672,103.405127 L42.683425,103.405127 C41.3139016,103.405127 40.2039719,102.301393 40.2039719,100.938832 L40.2039719,88.6079112 L40.2045266,88.6079112 Z" id="Fill-16" fill="#E6E7E8" mask="url(#mask-4)"></path>
                </g>
            </g>
        </g>
    </g>
</svg>