<?xml version="1.0" encoding="UTF-8"?>
<svg width="90px" height="90px" viewBox="0 0 90 90" version="1.1" xmlns="http://www.w3.org/2000/svg" xmlns:xlink="http://www.w3.org/1999/xlink">
    <!-- Generator: Sketch 51.3 (57544) - http://www.bohemiancoding.com/sketch -->
    <title>Group 34</title>
    <desc>Created with Sketch.</desc>
    <defs>
        <polygon id="path-1" points="0.170372093 0.257602862 8.36916279 0.257602862 8.36916279 16.3756422 0.170372093 16.3756422"></polygon>
        <polygon id="path-3" points="0 0.00284651163 16.5421102 0.00284651163 16.5421102 8.20205581 0 8.20205581"></polygon>
        <polygon id="path-5" points="0.3915322 0.00284651163 17.5169946 0.00284651163 17.5169946 8.20205581 0.3915322 8.20205581"></polygon>
    </defs>
    <g id="Page-1" stroke="none" stroke-width="1" fill="none" fill-rule="evenodd">
        <g id="Entrepreneur-Single-Page-(Form)" transform="translate(-676.000000, -943.000000)">
            <g id="Group-34" transform="translate(676.000000, 943.000000)">
                <g id="Group-3" opacity="0.25" transform="translate(40.813953, 0.000000)">
                    <mask id="mask-2" fill="white">
                        <use xlink:href="#path-1"></use>
                    </mask>
                    <g id="Clip-2"></g>
                    <path d="M4.26976744,16.3756422 C1.94651163,16.3756422 0.170372093,14.5539606 0.170372093,12.1711342 L0.170372093,4.46236852 C0.170372093,2.07954204 1.94651163,0.257431127 4.26976744,0.257431127 C6.59302326,0.257431127 8.36916279,2.07954204 8.36916279,4.46236852 L8.36916279,12.1711342 C8.36916279,14.4135671 6.59302326,16.3756422 4.26976744,16.3756422" id="Fill-1" fill="#FED304" mask="url(#mask-2)"></path>
                </g>
                <path d="M45,90 C42.6276363,90 40.8139535,88.1071247 40.8139535,85.6317575 L40.8139535,77.6240564 C40.8139535,75.1486893 42.6276363,73.255814 45,73.255814 C47.3723637,73.255814 49.1860465,75.1486893 49.1860465,77.6240564 L49.1860465,85.6317575 C49.1860465,88.1071247 47.3723637,90 45,90" id="Fill-4" fill-opacity="0.85" fill="#FED304"></path>
                <path d="M28.119577,21.9767442 C26.669859,21.9767442 25.220585,21.2416262 24.3507542,19.7727408 L20.4371816,12.8654229 C19.2774071,10.8077228 20.0024882,8.01580507 22.0316494,6.83997645 C24.0608106,5.66459799 26.8150528,6.3992658 27.9748272,8.45696588 L31.8883998,15.3638336 C33.0481743,17.4210835 32.3230932,20.2130013 30.293932,21.3888299 C29.7140448,21.682787 28.844214,21.9767442 28.119577,21.9767442" id="Fill-6" fill-opacity="0.15" fill="#FED304"></path>
                <path d="M64.747484,84.7674419 C63.297766,84.7674419 61.848492,84.0327675 60.9786612,82.5634189 L57.0650885,75.6560398 C55.9053141,73.5983214 56.6303951,70.806379 58.6595563,69.6309901 C60.6887176,68.455151 63.4429598,69.1898254 64.6027342,71.2475437 L68.5163068,78.1544727 C69.6760812,80.2117408 68.9510002,83.0041335 66.921839,84.1795223 C66.197202,84.6206871 65.472121,84.7674419 64.747484,84.7674419" id="Fill-8" fill-opacity="0.75" fill="#FED304"></path>
                <path d="M16.54063,33.4883721 C15.8047069,33.4883721 15.0683328,33.3439212 14.3328606,32.9096822 L7.41374004,29.0046331 C5.35297486,27.8472532 4.61705172,25.0986977 5.79443856,23.0737261 C6.97227634,21.0487546 9.76896466,20.3251706 11.8301808,21.4825504 L18.7488504,25.3880427 C20.8096155,26.5454225 21.5459896,29.2935349 20.3681518,31.3189496 C19.4847735,32.7652313 18.0129272,33.4883721 16.54063,33.4883721" id="Fill-10" fill-opacity="0.2" fill="#FED304" opacity="0.4"></path>
                <path d="M80.5251827,70.1162791 C79.7892568,70.1162791 79.0528799,69.971831 78.317405,69.5376005 L71.2512537,65.6321849 C69.1900299,64.4752708 68.454104,61.7263261 69.6319462,59.7013943 C70.8093374,57.6764624 73.6064872,56.9533358 75.6672601,58.1102498 L82.5859556,62.0161085 C84.6471794,63.1730225 85.3831053,65.9215242 84.2052631,67.9468991 C83.4693372,69.3927093 81.9974854,70.1162791 80.5251827,70.1162791" id="Fill-12" fill-opacity="0.65" fill="#FED304"></path>
                <g id="Group-16" opacity="0.1" transform="translate(0.000000, 40.813953)">
                    <mask id="mask-4" fill="white">
                        <use xlink:href="#path-3"></use>
                    </mask>
                    <g id="Clip-15"></g>
                    <path d="M12.2269572,8.20205581 L4.31532925,8.20205581 C1.87023745,8.20205581 -0.000264381885,6.42549767 -0.000264381885,4.10224186 C-0.000264381885,1.77898605 1.87023745,0.00284651163 4.31532925,0.00284651163 L12.2269572,0.00284651163 C14.6724896,0.00284651163 16.5421102,1.77898605 16.5421102,4.10224186 C16.5421102,6.42549767 14.5284015,8.20205581 12.2269572,8.20205581" id="Fill-14" fill="#FED304" mask="url(#mask-4)"></path>
                </g>
                <g id="Group-19" opacity="0.55" transform="translate(72.209302, 40.813953)">
                    <mask id="mask-6" fill="white">
                        <use xlink:href="#path-5"></use>
                    </mask>
                    <g id="Clip-18"></g>
                    <path d="M13.0493855,8.20205581 L4.858822,8.20205581 C2.32752504,8.20205581 0.3915322,6.42549767 0.3915322,4.10224186 C0.3915322,1.77898605 2.32752504,0.00284651163 4.858822,0.00284651163 L13.0493855,0.00284651163 C15.5811386,0.00284651163 17.5171315,1.77898605 17.5171315,4.10224186 C17.5171315,6.42549767 15.5811386,8.20205581 13.0493855,8.20205581" id="Fill-17" fill="#FED304" mask="url(#mask-6)"></path>
                </g>
                <path d="M9.62216069,70.1162791 C8.14986347,70.1162791 6.67801718,69.3927093 5.79463885,67.9468991 C4.61680107,65.9215242 5.35317515,63.1730225 7.41394033,62.0161085 L14.3326099,58.1102498 C16.393826,56.9533358 19.1905144,57.6764624 20.3683521,59.7013943 C21.545739,61.7263261 20.8098158,64.4752708 18.7490507,65.6321849 L11.8299301,69.5376005 C11.2414622,69.971831 10.5050881,70.1162791 9.62216069,70.1162791" id="Fill-20" fill="#FED304"></path>
                <path d="M73.45937,33.4883721 C71.9870728,33.4883721 70.5152265,32.7652313 69.6318482,31.3189496 C68.4540104,29.2935349 69.1903845,26.5454225 71.2511496,25.3880427 L78.1698192,21.4825504 C80.2310353,20.3251706 83.0277237,21.0487546 84.2055614,23.0737261 C85.3829483,25.0986977 84.6470251,27.8472532 82.58626,29.0046331 L75.6671394,32.9096822 C74.9312163,33.3439212 74.1952931,33.4883721 73.45937,33.4883721" id="Fill-22" fill-opacity="0.45" fill="#FED304"></path>
                <path d="M24.2060044,84.7674419 C23.4813674,84.7674419 22.7562864,84.6206871 22.0316494,84.1795223 C20.0024882,83.0041335 19.2774071,80.2117408 20.4371816,78.1544727 L24.3507542,71.2475437 C25.5105286,69.1898254 28.2647708,68.455151 30.293932,69.6309901 C32.3230932,70.806379 33.0481743,73.5983214 31.8883998,75.6560398 L27.9748272,82.5634189 C27.1049964,84.0327675 25.6552784,84.7674419 24.2060044,84.7674419" id="Fill-24" fill-opacity="0.95" fill="#FED304"></path>
                <path d="M60.8339114,21.9767442 C60.1092744,21.9767442 59.3841933,21.8299907 58.6595563,21.3888299 C56.6303951,20.2130013 55.9053141,17.4210835 57.0650885,15.3638336 L60.9786612,8.45696588 C62.1384356,6.3992658 64.8926778,5.66459799 66.921839,6.83997645 C68.9510002,8.01580507 69.6760812,10.8077228 68.5163068,12.8654229 L64.6027342,19.7727408 C63.7329034,21.0948727 62.2831854,21.9767442 60.8339114,21.9767442" id="Fill-26" fill-opacity="0.35" fill="#FED304"></path>
                <path d="M41.9538174,50.5974229 L41.9641292,50.5611115 L41.9802694,50.566491 L41.9538174,50.5974229 Z M57.321075,32.5327406 C57.1838834,32.4341171 57.0054446,32.4143924 56.8503194,32.4802908 L30.3490183,43.1737651 L27.2093023,44.4764915 L36.6952527,48.3165309 L36.7060129,48.3165309 L36.7060129,48.3219104 L39.2436099,57.1791949 C39.2947206,57.3571654 39.4363956,57.4952383 39.6161794,57.541412 C39.7959632,57.588034 39.9865072,57.5355842 40.1174221,57.4042357 L45.4019904,51.9996694 L52.5337143,54.803714 C52.8273761,54.9238554 53.1604918,54.9023375 53.4362201,54.7449882 C53.7119484,54.587639 53.9002507,54.3123898 53.9464296,53.9981396 L57.546141,33.0769628 C57.5923199,32.8662672 57.5026522,32.6492956 57.321075,32.5327406 Z" id="Fill-28" fill="#64505A"></path>
                <path d="M45,51.5486393 L39.7674419,56.5116279 C39.8282598,56.4498787 39.8726524,56.3761913 39.8966244,56.2950941 L41.5857636,50.2613744 L41.6115113,50.2325581 L43.8599975,51.1069267 L44.8650464,51.5008866 L45,51.5486393 Z" id="Fill-30" fill="#5A4650"></path>
                <path d="M57.5581395,32.4418605 L41.9768603,50.5330306 L41.9609624,50.5276256 L41.950061,50.5641097 L40.221735,57.166835 C40.1972068,57.2546672 40.1517843,57.3361934 40.0895555,57.4033062 C39.9569218,57.5352796 39.7638762,57.5879789 39.581732,57.5415855 C39.3995878,57.4947417 39.2560527,57.356012 39.204271,57.1771947 L36.6333577,48.2777713 L36.6333577,48.2723663 L36.627907,48.2723663 L36.627907,48.2674117 L57.5581395,32.4418605 Z" id="Fill-32" fill="#75646D"></path>
            </g>
        </g>
    </g>
</svg>