<?xml version="1.0" encoding="UTF-8"?>
<svg width="80px" height="89px" viewBox="0 0 80 89" version="1.1" xmlns="http://www.w3.org/2000/svg" xmlns:xlink="http://www.w3.org/1999/xlink">
    <!-- Generator: Sketch 51.3 (57544) - http://www.bohemiancoding.com/sketch -->
    <title>Group 21</title>
    <desc>Created with Sketch.</desc>
    <defs>
        <polygon id="path-1" points="0 0.179649635 47.1645255 0.179649635 47.1645255 42.6276788 0 42.6276788"></polygon>
        <polygon id="path-3" points="0.0564087591 0.109605839 25.6662774 0.109605839 25.6662774 25.7195328 0.0564087591 25.7195328"></polygon>
    </defs>
    <g id="Page-1" stroke="none" stroke-width="1" fill="none" fill-rule="evenodd">
        <g id="Entrepreneur-Single-Page-(Form)" transform="translate(-1089.000000, -944.000000)">
            <g id="Group-21" transform="translate(1089.000000, 944.000000)">
                <path d="M2.35827737,74.7923212 C2.0540438,74.7923212 1.74572263,74.7348029 1.45550365,74.6127591 C0.57579562,74.2489635 2.91970803e-05,73.3873577 2.91970803e-05,72.434073 L2.91970803e-05,25.2696934 C2.91970803e-05,21.3683796 3.17345985,18.1946569 7.07477372,18.1946569 L35.3734599,18.1946569 C36.6768175,18.1946569 37.731708,19.2498394 37.731708,20.5529051 L37.731708,58.2845839 C37.731708,59.2381606 37.1559416,60.0994745 36.2759416,60.4632701 C35.4055766,60.833781 34.3830949,60.6291095 33.7060146,59.9520292 L25.9404672,52.1864818 L4.02543066,74.1012263 C3.5740438,74.5529051 2.97083212,74.7923212 2.35827737,74.7923212" id="Fill-1" fill="#FED304"></path>
                <path d="M58.955708,88.9414891 L35.3732263,88.9414891 C34.0698686,88.9414891 33.0152701,87.8868905 33.0152701,86.5835328 C33.0152701,85.2798832 34.0698686,84.2252847 35.3732263,84.2252847 C39.2745401,84.2252847 42.4479708,81.051854 42.4479708,77.1505401 L42.4479708,20.5531679 C42.4479708,19.2498102 43.5028613,18.1946277 44.806219,18.1946277 L58.955708,18.1946277 C60.2590657,18.1946277 61.3139562,19.2498102 61.3139562,20.5531679 L61.3139562,86.5835328 C61.3139562,87.8868905 60.2590657,88.9414891 58.955708,88.9414891" id="Fill-3" fill="#BCBEC0"></path>
                <g id="Group-7" transform="translate(0.000000, 46.313869)">
                    <mask id="mask-2" fill="white">
                        <use xlink:href="#path-1"></use>
                    </mask>
                    <g id="Clip-6"></g>
                    <path d="M47.1645255,30.8367299 C47.1645255,37.3380438 41.8769343,42.6276788 35.3732847,42.6276788 L7.07459854,42.6276788 C3.17357664,42.6276788 -0.000145985401,39.4542482 -0.000145985401,35.5529343 L-0.000145985401,25.1435912 L24.2731387,0.870306569 C25.1943066,-0.0505693431 26.6868613,-0.0505693431 27.6080292,0.870306569 L37.0407299,10.3032993 C37.4827737,10.7453431 37.7315328,11.3444672 37.7315328,11.9707445 L37.7315328,14.566073 C41.8468613,15.4054891 45.189927,18.3941022 46.5312409,22.3044672 C46.9414599,23.5018394 47.1645255,29.5018394 47.1645255,30.8367299" id="Fill-5" fill="#6E5A64" mask="url(#mask-2)"></path>
                </g>
                <path d="M35.3733723,8.44735766 C34.0527883,8.44735766 33.0151241,9.4850219 33.0151241,10.8056058 L33.0151241,65.5950949 C33.7695766,65.453781 34.5716204,65.3594745 35.3733723,65.3594745 C41.8819854,65.3594745 47.1646131,70.6418102 47.1646131,77.1507153 L47.1646131,20.5530511 C47.1646131,14.044438 41.8819854,8.44735766 35.3733723,8.44735766" id="Fill-8" fill="#D1D3D4"></path>
                <path d="M25.9404672,32.3442044 L11.7912701,32.3442044 C10.4876204,32.3442044 9.43272993,31.2896058 9.43272993,29.9859562 C9.43272993,28.6825985 10.4876204,27.627708 11.7912701,27.627708 L25.9404672,27.627708 C27.2438248,27.627708 28.2987153,28.6825985 28.2987153,29.9859562 C28.2987153,31.2896058 27.2438248,32.3442044 25.9404672,32.3442044" id="Fill-10" fill="#C5901A"></path>
                <path d="M25.9404672,41.7770803 L11.7912701,41.7770803 C10.4876204,41.7770803 9.43272993,40.7224818 9.43272993,39.4188321 C9.43272993,38.1154745 10.4876204,37.0605839 11.7912701,37.0605839 L25.9404672,37.0605839 C27.2438248,37.0605839 28.2987153,38.1154745 28.2987153,39.4188321 C28.2987153,40.7224818 27.2438248,41.7770803 25.9404672,41.7770803" id="Fill-12" fill="#C5901A"></path>
                <g id="Group-16" transform="translate(54.306569, 0.182482)">
                    <mask id="mask-4" fill="white">
                        <use xlink:href="#path-3"></use>
                    </mask>
                    <g id="Clip-15"></g>
                    <path d="M12.8613723,25.7195328 C5.80064234,25.7195328 0.0564087591,19.9750073 0.0564087591,12.9148613 C0.0564087591,5.85413139 5.80064234,0.109605839 12.8613723,0.109605839 C19.9218102,0.109605839 25.6663358,5.85413139 25.6663358,12.9148613 C25.6663358,19.9750073 19.9218102,25.7195328 12.8613723,25.7195328" id="Fill-14" fill="#FED304" mask="url(#mask-4)"></path>
                </g>
                <path d="M73.1436496,21.6339562 C66.0829197,21.6339562 60.3386861,15.8894307 60.3386861,8.8289927 C60.3386861,5.87337226 61.3550365,3.156 63.0432117,0.986364964 C58.0026277,2.70870073 54.3629197,7.48067153 54.3629197,13.0973139 C54.3629197,20.1574599 60.1074453,25.9019854 67.1678832,25.9019854 C71.2729927,25.9019854 74.9235036,23.9524964 77.2683212,20.9393577 C75.9719708,21.3822774 74.5880292,21.6339562 73.1436496,21.6339562" id="Fill-17" fill="#EABF0C"></path>
                <path d="M64.5185401,19.7204672 C64.2925547,19.7204672 64.0665693,19.6340438 63.8940146,19.4614891 L58.5953285,14.1630949 C58.2505109,13.8182774 58.2505109,13.2588613 58.5953285,12.9140438 C58.940146,12.5692263 59.499854,12.5692263 59.8443796,12.9140438 L64.5185401,17.5882044 L73.6084672,8.49856934 C73.9529927,8.15375182 74.5127007,8.15375182 74.8572263,8.49856934 C75.2020438,8.84338686 75.2020438,9.40280292 74.8572263,9.74762044 L65.1430657,19.4614891 C64.9705109,19.6340438 64.7445255,19.7204672 64.5185401,19.7204672" id="Fill-19" fill="#FFFFFF"></path>
            </g>
        </g>
    </g>
</svg>