<?xml version="1.0" encoding="UTF-8"?>
<svg width="95px" height="84px" viewBox="0 0 95 84" version="1.1" xmlns="http://www.w3.org/2000/svg" xmlns:xlink="http://www.w3.org/1999/xlink">
    <!-- Generator: Sketch 51.3 (57544) - http://www.bohemiancoding.com/sketch -->
    <title>Group 35</title>
    <desc>Created with Sketch.</desc>
    <defs>
        <polygon id="path-1" points="0 83.5768472 94.9004062 83.5768472 94.9004062 0 0 0"></polygon>
    </defs>
    <g id="Page-1" stroke="none" stroke-width="1" fill="none" fill-rule="evenodd">
        <g id="Entrepreneur-Single-Page-(Form)" transform="translate(-469.000000, -1381.000000)">
            <g id="Group-35" transform="translate(469.000000, 1381.000000)">
                <path d="M45.0234952,20.5308598 L88.6250039,20.5308598 C90.0169284,20.5308598 91.1563772,21.6701248 91.1563772,23.0624168 L91.1563772,47.1602602 C91.1563772,48.5525522 90.0169284,49.6914497 88.6250039,49.6914497 L45.0234952,49.6914497 C43.6313868,49.6914497 42.4921219,48.5525522 42.4921219,47.1602602 L42.4921219,23.0624168 C42.4921219,21.6701248 43.6313868,20.5308598 45.0234952,20.5308598" id="Fill-1" fill="#D1D3D4"></path>
                <mask id="mask-2" fill="white">
                    <use xlink:href="#path-1"></use>
                </mask>
                <g id="Clip-4"></g>
                <polygon id="Fill-3" fill="#FED304" mask="url(#mask-2)" points="44.8714217 47.7982302 88.7772244 47.7982302 88.7772244 22.4245938 44.8714217 22.4245938"></polygon>
                <path d="M76.9212244,49.6916886 L80.1168627,49.6916886 L80.1168627,50.6723752 L76.9212244,50.6723752 L76.9212244,49.6916886 Z M53.5321141,50.6723752 L56.7279362,50.6723752 L56.7279362,49.6916886 L53.5321141,49.6916886 L53.5321141,50.6723752 Z" id="Fill-5" fill="#666666" mask="url(#mask-2)"></path>
                <polygon id="Fill-6" fill="#E3AA75" mask="url(#mask-2)" points="72.5811576 30.0141199 71.296912 30.0141199 67.401177 30.0141199 66.1165638 30.0141199 65.5928694 35.4620116 64.663266 36.2084139 62.7013414 37.4571954 67.0792427 47.7985977 71.618295 47.7985977 75.9965638 37.4571954 74.034823 36.2084139 73.1044845 35.4625629"></polygon>
                <polygon id="Fill-7" fill="#ECF0F1" mask="url(#mask-2)" points="74.7140455 36.61153 80.0720822 38.3213462 73.2232621 47.7985609 66.1596354 47.7985609 60.2255348 37.8235609 64.0112021 36.6236576 67.3448385 38.9767911 71.3414536 38.9767911"></polygon>
                <polygon id="Fill-8" fill="#FED304" mask="url(#mask-2)" points="70.5449787 38.7612863 70.0867002 39.8906286 70.7121934 47.7985977 67.9843888 47.7985977 68.6100658 39.8906286 68.1517872 38.7612863 69.3480155 38.7131431"></polygon>
                <path d="M52.2587466,47.7985242 C52.4987273,45.5850426 52.6793559,43.8678762 53.0012901,42.1850716 C53.3713675,40.2448298 54.5980986,39.6072089 54.5980986,39.6072089 L64.011,36.6238046 L67.8216576,47.7985242 L52.2587466,47.7985242 Z M74.6217834,36.5820928 L84.0989981,39.6073926 C84.0989981,39.6073926 85.325913,40.2450135 85.6963578,42.1852553 C86.0177408,43.86806 86.1981857,45.5855938 86.4381663,47.7987079 L70.8535725,47.7987079 L74.6217834,36.5820928 Z" id="Fill-9" fill="#6E5A64" mask="url(#mask-2)"></path>
                <path d="M63.9099729,47.7985242 L62.3500986,44.8586692 L63.9290832,43.776735 C64.0367621,43.6240368 63.9160368,43.5031277 63.9160368,43.5031277 L62.0713462,42.809646 C61.7468395,42.848234 61.6386093,42.4215609 61.6386093,42.4215609 L62.0301857,37.2515029 L64.0112205,36.6238046 L67.8218781,47.7985242 L63.9099729,47.7985242 Z M74.6218201,36.5820928 L76.6662495,37.2349652 L77.0592959,42.4217447 C77.0592959,42.4217447 76.9505145,42.8484178 76.625824,42.8098298 L74.7811335,43.5033114 C74.7811335,43.5033114 74.6605919,43.6242205 74.7682708,43.7769188 L76.3474391,44.858853 L74.7875648,47.7987079 L70.8534255,47.7987079 L74.6218201,36.5820928 Z" id="Fill-10" fill="#5A4650" mask="url(#mask-2)"></path>
                <path d="M76.8772524,18.9344188 C76.8772524,19.4406567 77.0619236,19.9362369 77.0483259,20.4220783 C78.7801925,20.1008791 77.944119,25.2461306 76.9636161,25.9535774 C76.8862563,26.0099894 76.694235,25.8843027 76.5327166,25.7814014 C76.1927747,27.6735 73.291324,32.7309178 71.4460822,34.8593221 C70.9337805,35.4502698 67.800618,35.4401634 67.2936451,34.8815561 C65.404119,32.8018462 62.5059758,27.6843414 62.1641963,25.7814014 C62.0026779,25.8843027 61.8108404,26.0099894 61.7331132,25.9535774 C60.7531615,25.2461306 59.916353,20.1008791 61.6491383,20.4220783 C61.6349894,19.9362369 61.8198443,19.4406567 61.8198443,18.9344188 C61.9159468,14.9387224 65.5362369,12.9439062 69.3483646,12.9268172 C73.160676,12.9440899 76.7815174,14.9387224 76.8772524,18.9344188" id="Fill-11" fill="#F5B97D" mask="url(#mask-2)"></path>
                <path d="M74.5559449,13.8123201 C75.1022408,13.7489255 77.0753743,14.353471 77.3122311,16.4410822 C77.5494555,18.5290609 77.4364478,20.4529487 77.4364478,20.4529487 C77.4364478,20.4529487 76.2800938,20.7447476 76.1345619,21.9295832 C75.9892137,23.1147863 76.0928501,23.1147863 76.0928501,23.1147863 L75.6740783,23.0205213 L75.3760319,20.9889545 C73.6461867,19.9053665 75.3890783,18.2997379 73.6586818,17.9239642 C68.9865928,21.2539255 64.8642911,20.6839255 63.0054516,19.1174362 C63.0054516,19.1174362 63.4392911,20.7557727 63.1048617,21.3401054 C62.769881,21.9242544 62.9698037,22.8450377 62.9698037,22.8450377 L62.5352292,22.8242737 C62.5352292,22.8242737 62.6138752,20.4110532 61.6495426,20.4218946 C57.9836818,14.3700087 69.5874632,6.85269729 74.5559449,13.8123201" id="Fill-12" fill="#666666" mask="url(#mask-2)"></path>
                <path d="M73.1490996,34.6840957 C73.0136741,34.6938346 74.7313917,36.6315039 74.7313917,36.6315039 L73.2694574,41.6385735 L69.3485484,38.713235 C71.5052505,37.6550048 72.7920687,36.2843956 73.1490996,34.6840957" id="Fill-13" fill="#FFFFFF" mask="url(#mask-2)"></path>
                <path d="M65.5475928,34.6840957 C65.6830184,34.6938346 63.9654845,36.6315039 63.9654845,36.6315039 L65.42797,41.6385735 L69.3488791,38.713235 C67.1919932,37.6550048 65.9048075,36.2843956 65.5475928,34.6840957" id="Fill-14" fill="#FFFFFF" mask="url(#mask-2)"></path>
                <path d="M77.7969149,21.492234 C78.6168182,17.4011702 77.0315861,14.5425338 74.5424758,12.9574855 C73.0009768,11.9756963 71.1121857,11.4751547 69.2294584,11.4668859 C67.3485687,11.4582495 65.476499,11.9405996 63.9653191,12.9242263 C61.5699226,14.4837331 60.0813443,17.3239942 60.9163153,21.4924178 L60.2792456,21.6193907 C59.3821663,17.1441006 61.007089,14.0772727 63.612882,12.3812379 C65.2315571,11.3274178 67.2296809,10.810706 69.2320309,10.8197099 C71.2325435,10.82853 73.2433462,11.362882 74.8899516,12.4117408 C77.5920309,14.1320309 79.3159961,17.2190716 78.4341683,21.6193907 L77.7969149,21.492234 Z" id="Fill-15" fill="#414042" mask="url(#mask-2)"></path>
                <path d="M60.9227466,20.7584923 C60.5273114,20.8046141 60.2417602,21.1658714 60.2882495,21.5614903 L60.8516344,26.3645948 C60.8981238,26.76003 61.2591973,27.0455812 61.6546325,26.9990919 C62.0500677,26.9527863 62.335619,26.591529 62.2891296,26.1959101 L61.7257447,21.3928056 C61.6796228,20.9975542 61.3183656,20.7121867 60.9227466,20.7584923" id="Fill-16" fill="#807D7D" mask="url(#mask-2)"></path>
                <path d="M59.5885571,21.6574275 L60.2897563,21.5752901 L60.8400948,26.2657544 L60.1337505,26.3489942 C59.7504429,26.3938298 59.4003946,26.1172824 59.355559,25.7341586 L58.9693114,22.441499 C58.9241083,22.0552515 59.2024932,21.7028143 59.5885571,21.6574275" id="Fill-17" fill="#414042" mask="url(#mask-2)"></path>
                <path d="M77.7743133,20.7584923 C78.1697485,20.8046141 78.4552998,21.1658714 78.4084429,21.5614903 L77.8452418,26.3645948 C77.7989362,26.76003 77.4376789,27.0455812 77.04206,26.9990919 C76.6466248,26.9527863 76.3612573,26.591529 76.4079304,26.1959101 L76.9713153,21.3928056 C77.0176209,20.9975542 77.3788781,20.7121867 77.7743133,20.7584923" id="Fill-18" fill="#807D7D" mask="url(#mask-2)"></path>
                <path d="M79.108852,21.6574275 L78.4072853,21.5752901 L77.8571306,26.2657544 L78.5634749,26.3489942 C78.9467824,26.3938298 79.296647,26.1172824 79.3416663,25.7341586 L79.7277302,22.441499 C79.773117,22.0552515 79.4945484,21.7028143 79.108852,21.6574275" id="Fill-19" fill="#414042" mask="url(#mask-2)"></path>
                <path d="M78.1437843,25.8684632 C77.6827495,27.9092176 76.4618985,29.440794 74.8718888,30.4532698 C73.691647,31.205001 72.3078075,31.6744884 70.8789487,31.8573221 L70.8789487,32.5092756 C72.4289004,32.3223994 73.9354865,31.817264 75.2199159,30.999382 C76.9912892,29.8715097 78.3420532,28.1561809 78.8141132,25.868647 L78.1437843,25.8684632 Z" id="Fill-20" fill="#414042" mask="url(#mask-2)"></path>
                <path d="M69.029205,31.2599246 L71.2353366,31.2599246 C71.3929961,31.2599246 71.5219903,31.3885513 71.5219903,31.5463946 L71.5219903,32.6926422 C71.5219903,32.850118 71.3931799,32.9791122 71.2353366,32.9791122 L69.029205,32.9791122 C68.8713617,32.9791122 68.7425513,32.850118 68.7425513,32.6926422 L68.7425513,31.5463946 C68.7425513,31.388735 68.8713617,31.2599246 69.029205,31.2599246" id="Fill-21" fill="#666666" mask="url(#mask-2)"></path>
                <path d="M41.9246393,50.6719894 L94.9004613,50.6719894 L94.9004613,52.4630242 C94.9004613,53.4479371 94.0070571,54.2535077 92.9148327,54.2535077 L43.9099004,54.2535077 C42.817676,54.2535077 41.9246393,53.4479371 41.9246393,52.4630242 L41.9246393,50.6719894 Z" id="Fill-22" fill="#D1D3D4" mask="url(#mask-2)"></path>
                <path d="M42.0952901,53.1878356 L94.7297002,53.1878356 C94.4193424,53.8144313 93.7212669,54.2537834 92.9147776,54.2537834 L43.9098453,54.2537834 C43.1037234,54.2535996 42.4054642,53.8144313 42.0952901,53.1878356" id="Fill-23" fill="#E6E7E8" mask="url(#mask-2)"></path>
                <path d="M20.0247321,12.3763133 C20.0247321,13.3141857 19.6829526,18.7374545 19.7084942,19.6371064 C16.4996257,19.0421161 18.6938133,28.574089 20.508001,29.8820387 C20.6498578,29.98494 21.0072563,29.7537795 21.3067727,29.563412 C21.783059,32.2184507 24.3396064,35.6520484 27.3483685,38.8750658 L26.0957282,49.3785377 L33.9742969,48.9018839 L41.8530493,49.3785377 L40.6033491,38.8993211 C43.6319565,35.6979865 46.1545097,32.2199207 46.6315309,29.5635957 C46.9314149,29.7539632 47.2873433,29.9851238 47.4299352,29.8822224 C49.2446741,28.5744565 51.4379429,19.0422998 48.2296257,19.6372901 C48.2549836,18.7376383 47.9130203,13.3143694 47.9130203,12.3764971 C47.735883,4.97641973 41.0300222,1.28170986 33.9689681,1.2502882 C26.9082814,1.28152611 20.2026044,4.97623598 20.0247321,12.3763133" id="Fill-24" fill="#FED198" mask="url(#mask-2)"></path>
                <polygon id="Fill-25" fill="#CCCCCC" mask="url(#mask-2)" points="24.0317476 46.8702621 14.1080145 50.03797 33.9687108 77.5201654 50.8665832 49.1155329 43.8547747 46.8932311 37.6805097 51.2518385 30.2785948 51.2518385"></polygon>
                <path d="M31.7532998,50.8519749 L32.601501,52.9450986 L30.7160174,76.7941412 L32.6316364,78.2603017 C33.2361818,78.487971 33.8458723,78.7035126 34.4618104,78.9071103 L37.222323,76.7941412 L35.3368395,52.9450986 L36.1850406,50.8519749 L33.9691702,50.7639574 L31.7532998,50.8519749 Z" id="Fill-26" fill="#0E5E9A" mask="url(#mask-2)"></path>
                <path d="M27.3561596,40.7624603 C24.9657244,41.8879439 25.1516818,43.0426441 25.1516818,43.0426441 L24.8817495,46.52806 C30.5602505,43.7063578 37.3770977,43.7059903 43.0561499,46.52806 L42.7864014,43.0426441 C42.7864014,43.0426441 42.9087805,42.0141818 40.5822911,40.7624603 C37.2945928,38.9938433 31.2461983,38.930265 27.3561596,40.7624603" id="Fill-27" fill="#E6E7E8" mask="url(#mask-2)"></path>
                <path d="M24.2411702,3.41156576 C20.7739458,5.93944778 16.4864507,9.12700097 18.0428337,14.0675522 L21.1952901,24.079119 C22.6272727,28.627175 22.8387718,36.9002602 29.5477563,36.8164691 L33.9769246,36.7609758 L38.4060928,36.8164691 C45.1150774,36.9002602 45.3265764,28.6279101 46.7587427,24.079119 L49.911383,14.0675522 C51.4672147,9.12644971 47.1791683,5.93944778 43.7124952,3.41156576 C39.7592456,0.529960348 28.1947872,0.529592843 24.2411702,3.41156576" id="Fill-28" fill="#666666" mask="url(#mask-2)"></path>
                <path d="M18.7779352,19.2270996 L18.7777515,19.2270996 C18.0638733,19.3410261 17.5732544,20.0181538 17.6869971,20.7312969 L19.0699178,29.4047785 C19.1836605,30.1181054 19.860972,30.6090919 20.5746663,30.4951654 L20.5748501,30.4951654 C21.2885445,30.3814226 21.7793472,29.7044787 21.6657882,28.9909681 L20.2826838,20.317854 C20.1685735,19.6041596 19.4918133,19.1131731 18.7779352,19.2270996" id="Fill-29" fill="#807D7D" mask="url(#mask-2)"></path>
                <path d="M16.4241586,20.9588375 L17.690764,20.7568936 L19.0413443,29.2265938 L17.7662863,29.429824 C17.0744584,29.5400754 16.4180948,29.0645242 16.3078433,28.3728801 L15.3598646,22.4272031 C15.2486944,21.7305977 15.7279207,21.0700077 16.4241586,20.9588375" id="Fill-30" fill="#414042" mask="url(#mask-2)"></path>
                <path d="M49.5198617,19.2270996 L49.5200455,19.2270996 C50.2339236,19.3410261 50.7249101,20.0181538 50.6107998,20.7312969 L49.2280629,29.4047785 C49.1145039,30.1181054 48.4371925,30.6090919 47.7234981,30.4951654 L47.7231306,30.4951654 C47.0096199,30.3814226 46.5188172,29.7044787 46.63256,28.9909681 L48.0152969,20.317854 C48.1290397,19.6041596 48.8059836,19.1131731 49.5198617,19.2270996" id="Fill-31" fill="#807D7D" mask="url(#mask-2)"></path>
                <path d="M51.8734729,20.9588375 L50.6068675,20.7568936 L49.2562872,29.2265938 L50.5318965,29.429824 C51.2237244,29.5400754 51.880088,29.0645242 51.9903395,28.3728801 L52.9383182,22.4272031 C53.0494884,21.7305977 52.5702621,21.0700077 51.8734729,20.9588375" id="Fill-32" fill="#414042" mask="url(#mask-2)"></path>
                <path d="M50.7094014,20.7521161 C52.3181538,12.7245242 49.2053878,7.11382785 44.3177573,4.00198066 C41.2941112,2.07680658 37.5916838,1.09538491 33.9008327,1.07847969 C30.2131054,1.06175822 26.5424671,2.00826692 23.5783569,3.93748356 C18.8744787,6.9993501 15.9495077,12.5743985 17.5883956,20.7521161 L16.5268578,20.9637988 C14.7854362,12.2743308 17.9356876,6.32240619 22.9905329,3.0321354 C26.1339855,0.985868472 30.0142853,-0.017787234 33.9054265,0.000220502901 C37.7925251,0.017860735 41.6989178,1.0560619 44.8971286,3.09222244 C50.1392176,6.42990135 53.4833279,12.4209652 51.7713066,20.9639826 L50.7094014,20.7521161 Z" id="Fill-33" fill="#414042" mask="url(#mask-2)"></path>
                <path d="M67.4457737,77.5789845 C66.1462766,68.9014603 64.6367505,59.2357157 64.2468279,57.1934913 C63.5752128,53.6761025 61.2885977,52.4188685 61.2885977,52.4188685 L43.855087,46.8932495 C41.0383462,45.5430368 38.2335493,44.7223985 35.4416151,44.4811315 C35.3863056,44.476354 35.3311799,44.4704739 35.2758704,44.4662476 C35.1634139,44.4574275 35.0511412,44.4509961 34.9388685,44.4440135 C34.8398259,44.4379497 34.7405996,44.4309671 34.6415571,44.4263733 C34.5478433,44.422147 34.4541296,44.4197582 34.3604159,44.4166344 C34.2497969,44.4133269 34.1388104,44.4089168 34.0281915,44.4074468 C33.9269439,44.405793 33.8258801,44.406528 33.7248162,44.406528 C33.6237524,44.406528 33.5226886,44.405793 33.421441,44.4074468 C33.3106383,44.4089168 33.2000193,44.4133269 33.0890329,44.4166344 C32.9955029,44.4197582 32.9019729,44.422147 32.8082592,44.4263733 C32.7090329,44.4309671 32.6099903,44.4379497 32.510764,44.4440135 C32.3984913,44.4509961 32.2862186,44.4574275 32.1737621,44.4662476 C32.1184526,44.4704739 32.0631431,44.476354 32.0080174,44.4811315 C29.2158994,44.7223985 26.4112863,45.5430368 23.5945455,46.8932495 L6.16103482,52.4188685 C6.16103482,52.4188685 3.87441973,53.6761025 3.20280464,57.1934913 C2.81251451,59.2377369 1.30041586,68.9207544 0,77.6048936 C0,77.6048936 7.58529981,83.5768472 33.7648743,83.5768472 C59.9135783,83.5768472 67.4896905,77.6048936 67.4896905,77.6048936 L67.4457737,77.5789845 Z" id="Fill-34" fill="#6E5A64" mask="url(#mask-2)"></path>
            </g>
        </g>
    </g>
</svg>