<?xml version="1.0" encoding="UTF-8"?>
<svg width="100px" height="84px" viewBox="0 0 100 84" version="1.1" xmlns="http://www.w3.org/2000/svg" xmlns:xlink="http://www.w3.org/1999/xlink">
    <!-- Generator: Sketch 51.3 (57544) - http://www.bohemiancoding.com/sketch -->
    <title>Group</title>
    <desc>Created with Sketch.</desc>
    <defs>
        <polygon id="path-1" points="0 83.7768014 99.8994728 83.7768014 99.8994728 0 0 0"></polygon>
    </defs>
    <g id="Page-1" stroke="none" stroke-width="1" fill="none" fill-rule="evenodd">
        <g id="Entrepreneur-Single-Page-(Form)" transform="translate(-263.000000, -1381.000000)">
            <g id="Group" transform="translate(263.000000, 1381.000000)">
                <g id="Group-42">
                    <path d="M63.6082777,83.7767838 L26.3741828,83.7767838 C26.3741828,80.3497188 29.1527417,77.5711599 32.5798067,77.5711599 L57.4023023,77.5711599 C60.8295431,77.5709842 63.6082777,80.3497188 63.6082777,83.7767838" id="Fill-1" fill="#D1D3D4"></path>
                    <polygon id="Fill-3" fill="#E6E7E8" points="55.8512127 77.5710545 34.1313533 77.5710545 37.2339895 65.1598067 52.7484007 65.1598067"></polygon>
                    <path d="M89.9826889,52.748348 L8.78734622e-05,52.748348 L8.78734622e-05,5.4300703 C8.78734622e-05,2.43112478 2.43119508,1.75746924e-05 5.42996485,1.75746924e-05 L84.5524605,1.75746924e-05 C87.5515817,1.75746924e-05 89.9826889,2.43112478 89.9826889,5.4300703 L89.9826889,52.748348 Z" id="Fill-5" fill="#5A4650"></path>
                    <path d="M84.5523726,65.1597891 L5.43005272,65.1597891 C2.43110721,65.1597891 0,62.7286819 0,59.7297364 L0,52.7483656 L89.9824253,52.7483656 L89.9824253,59.7297364 C89.9824253,62.7286819 87.5513181,65.1597891 84.5523726,65.1597891" id="Fill-7" fill="#D1D3D4"></path>
                    <path d="M76.0197188,46.5426362 L52.7483656,46.5426362 C51.8903691,46.5426362 51.1968717,45.8477329 51.1968717,44.9913181 C51.1968717,44.1349033 51.8903691,43.4398243 52.7483656,43.4398243 L76.0197188,43.4398243 C76.8777153,43.4398243 77.5712127,44.1349033 77.5712127,44.9913181 C77.5710369,45.8477329 76.8775395,46.5426362 76.0197188,46.5426362" id="Fill-9" fill="#FFFFFF"></path>
                    <path d="M29.4769947,37.2340598 L13.9627592,37.2340598 C13.1047627,37.2340598 12.4112654,36.5389807 12.4112654,35.6825659 C12.4112654,34.8261511 13.1047627,34.1310721 13.9627592,34.1310721 L29.4769947,34.1310721 C30.3349912,34.1310721 31.0284886,34.8261511 31.0284886,35.6825659 C31.0284886,36.5389807 30.3349912,37.2340598 29.4769947,37.2340598" id="Fill-11" fill="#FFFFFF"></path>
                    <path d="M68.262478,37.2340598 L44.9913005,37.2340598 C44.1331283,37.2340598 43.4398067,36.5389807 43.4398067,35.6825659 C43.4398067,34.8261511 44.1331283,34.1310721 44.9913005,34.1310721 L68.262478,34.1310721 C69.1206503,34.1310721 69.8139719,34.8261511 69.8139719,35.6825659 C69.8137961,36.5389807 69.1204745,37.2340598 68.262478,37.2340598" id="Fill-13" fill="#FFFFFF"></path>
                    <path d="M37.2340598,37.2340598 C37.032478,37.2340598 36.8307206,37.1874868 36.6446046,37.1099824 C36.4428471,37.0326538 36.2878383,36.9238664 36.1326538,36.7841476 C35.8518102,36.4895958 35.6827417,36.1017223 35.6827417,35.6825659 C35.6827417,35.2635852 35.8518102,34.8758875 36.1326538,34.5809842 C36.2878383,34.4414411 36.4430228,34.3328295 36.6446046,34.2551494 C37.2015466,34.0226362 37.9011951,34.1467135 38.3358172,34.5809842 C38.6149033,34.8757118 38.7855536,35.279051 38.7855536,35.6825659 C38.7855536,36.0859051 38.6149033,36.48942 38.3358172,36.7841476 C38.0407381,37.0634095 37.6373989,37.2340598 37.2340598,37.2340598" id="Fill-15" fill="#FFFFFF"></path>
                    <path d="M44.9913005,46.5426362 L21.7199473,46.5426362 C20.861775,46.5426362 20.1684534,45.8477329 20.1684534,44.9913181 C20.1684534,44.1349033 20.861775,43.4398243 21.7199473,43.4398243 L44.9913005,43.4398243 C45.849297,43.4398243 46.5426186,44.1349033 46.5426186,44.9913181 C46.5426186,45.8477329 45.849297,46.5426362 44.9913005,46.5426362" id="Fill-17" fill="#FFFFFF"></path>
                    <path d="M13.9626889,46.5426362 C13.7611072,46.5426362 13.5593497,46.4960633 13.3732337,46.4185589 C13.1871178,46.3412302 13.0164675,46.2324429 12.861283,46.0927241 C12.5806151,45.7981722 12.4113708,45.4102988 12.4113708,44.9913181 C12.4113708,44.7893849 12.4579438,44.5878032 12.5354482,44.4016872 C12.6129525,44.1999297 12.7215641,44.0449209 12.861283,43.8897364 C13.2338664,43.5329701 13.761283,43.3777856 14.2560105,43.4709315 C14.3662039,43.4863972 14.457768,43.5175044 14.5523199,43.5642531 C14.643884,43.5951845 14.7384359,43.6415817 14.816116,43.7037961 C14.9076801,43.7656591 14.9867663,43.8278735 15.0644464,43.8897364 C15.2038137,44.0449209 15.3126011,44.2002812 15.3901054,44.4016872 C15.4676098,44.5878032 15.5141828,44.7895606 15.5141828,44.9913181 C15.5141828,45.410123 15.3435325,45.7979965 15.0644464,46.0927241 C14.9867663,46.1547627 14.9075044,46.2168014 14.816116,46.2788401 C14.7386116,46.3410545 14.643884,46.3874517 14.5523199,46.4183831 C14.457768,46.4651318 14.3662039,46.4958875 14.2560105,46.511529 C14.1644464,46.5269947 14.0558348,46.5426362 13.9626889,46.5426362" id="Fill-19" fill="#FFFFFF"></path>
                    <path d="M76.0197188,37.2340598 C75.925167,37.2340598 75.8179613,37.218594 75.7249912,37.2029525 C75.6163796,37.1874868 75.5232337,37.1565554 75.4302636,37.1098067 C75.3371178,37.0786995 75.2441476,37.032478 75.14942,36.9702636 C75.0733216,36.908225 74.9958172,36.8461863 74.9181371,36.7841476 C74.6374692,36.4895958 74.4684007,36.0860808 74.4684007,35.6825659 C74.4684007,35.2792267 74.6374692,34.8758875 74.9181371,34.5809842 L75.14942,34.3948682 C75.2441476,34.3328295 75.3371178,34.2864323 75.4302636,34.2553251 C75.5234095,34.2087522 75.6163796,34.1778207 75.7249912,34.1621793 C76.2213005,34.0535677 76.7629525,34.2242179 77.1213005,34.5809842 C77.1833392,34.6584886 77.2453779,34.7361687 77.3074165,34.8291388 C77.3694552,34.9066432 77.4144464,34.9997891 77.4469596,35.092935 C77.4935325,35.1862566 77.524464,35.279051 77.5385237,35.3876626 C77.5555712,35.4808084 77.5710369,35.5895958 77.5710369,35.6823902 C77.5710369,35.7753603 77.5555712,35.8841476 77.5385237,35.992935 C77.5246397,36.0859051 77.4935325,36.1788752 77.4469596,36.2720211 C77.4144464,36.3653427 77.3694552,36.4581371 77.3074165,36.551283 C77.2453779,36.6289631 77.1833392,36.7064675 77.1213005,36.7839719 C77.0437961,36.8460105 76.9645343,36.908225 76.8884359,36.9700879 C76.7954657,37.0323023 76.7009139,37.0786995 76.609174,37.1096309 C76.5146221,37.1563796 76.4232337,37.1871353 76.3130404,37.2027768 C76.2211248,37.218594 76.1125132,37.2340598 76.0197188,37.2340598" id="Fill-21" fill="#FFFFFF"></path>
                    <path d="M76.0197188,18.617065 L52.7483656,18.617065 C51.8903691,18.617065 51.1968717,17.9219859 51.1968717,17.0655712 C51.1968717,16.2091564 51.8903691,15.5140773 52.7483656,15.5140773 L76.0197188,15.5140773 C76.8777153,15.5140773 77.5712127,16.2091564 77.5712127,17.0655712 C77.5712127,17.9219859 76.8775395,18.617065 76.0197188,18.617065" id="Fill-23" fill="#FFFFFF"></path>
                    <path d="M76.0197188,27.9256415 L60.5054833,27.9256415 C59.6474868,27.9256415 58.9539895,27.2305624 58.9539895,26.3741476 C58.9539895,25.5177329 59.6474868,24.8226538 60.5054833,24.8226538 L76.0197188,24.8226538 C76.8777153,24.8226538 77.5712127,25.5177329 77.5712127,26.3741476 C77.5712127,27.2305624 76.8775395,27.9256415 76.0197188,27.9256415" id="Fill-25" fill="#FFFFFF"></path>
                    <path d="M48.0939895,27.9256415 L44.9913533,27.9256415 C44.133181,27.9256415 43.4398594,27.2305624 43.4398594,26.3741476 C43.4398594,25.5177329 44.133181,24.8226538 44.9913533,24.8226538 L48.0939895,24.8226538 C48.9519859,24.8226538 49.6454833,25.5177329 49.6454833,26.3741476 C49.6454833,27.2305624 48.9519859,27.9256415 48.0939895,27.9256415" id="Fill-27" fill="#FFFFFF"></path>
                    <path d="M68.262478,9.30864675 L44.9913005,9.30864675 C44.1331283,9.30864675 43.4398067,8.61356766 43.4398067,7.7571529 C43.4398067,6.90073814 44.1331283,6.20565905 44.9913005,6.20565905 L68.262478,6.20565905 C69.1206503,6.20565905 69.8139719,6.90073814 69.8139719,7.7571529 C69.8139719,8.61356766 69.1204745,9.30864675 68.262478,9.30864675" id="Fill-29" fill="#FFFFFF"></path>
                    <path d="M76.0197188,9.30864675 C75.925167,9.30864675 75.8179613,9.29318102 75.7249912,9.2773638 C75.6163796,9.26189807 75.5232337,9.23096661 75.4302636,9.18439367 C75.3371178,9.15328647 75.2441476,9.10688928 75.14942,9.04485062 C75.0733216,8.98281195 74.9958172,8.92077329 74.9181371,8.85855888 C74.6374692,8.56400703 74.4684007,8.16066784 74.4684007,7.7571529 C74.4684007,7.35381371 74.6374692,6.95047452 74.9181371,6.65539543 L75.14942,6.46945518 C75.2441476,6.40741652 75.3371178,6.36084359 75.4302636,6.32991213 C75.5234095,6.28333919 75.6163796,6.25223199 75.7249912,6.23676626 C76.2213005,6.12797891 76.7629525,6.29880492 77.1213005,6.65539543 C77.1833392,6.73307557 77.2453779,6.81075571 77.3074165,6.90355009 C77.3694552,6.98123023 77.4144464,7.0743761 77.4469596,7.16734622 C77.4935325,7.26066784 77.524464,7.35363796 77.5385237,7.46224956 C77.5555712,7.55521968 77.5710369,7.66400703 77.5710369,7.75697715 C77.5710369,7.84994728 77.5555712,7.95855888 77.5385237,8.06734622 C77.5246397,8.16049209 77.4935325,8.25346221 77.4469596,8.34643234 C77.4144464,8.43975395 77.3694552,8.53272408 77.3074165,8.6256942 C77.2453779,8.70337434 77.1833392,8.78105448 77.1213005,8.85838313 C77.0437961,8.92059754 76.9645343,8.9826362 76.8884359,9.04467487 C76.7954657,9.10671353 76.7009139,9.15328647 76.609174,9.18421793 C76.5146221,9.23079086 76.4232337,9.26154657 76.3130404,9.27718805 C76.2211248,9.29300527 76.1125132,9.30864675 76.0197188,9.30864675" id="Fill-31" fill="#FFFFFF"></path>
                    <path d="M46.5426362,18.617065 C46.139297,18.617065 45.7343761,18.4464148 45.4410545,18.1669772 C45.3015114,18.0119684 45.1928998,17.8413181 45.1152197,17.6552021 C45.0377153,17.4690861 44.9913181,17.2673286 44.9913181,17.0657469 C44.9913181,16.8638137 45.0377153,16.6624077 45.1152197,16.4762917 C45.1927241,16.2901757 45.3015114,16.1195255 45.4410545,15.9643409 C45.7979965,15.6075747 46.3410545,15.4523902 46.8357821,15.5453603 C46.9461511,15.5610018 47.0375395,15.592109 47.1320914,15.6386819 C47.2236555,15.6696134 47.3182074,15.7161863 47.3958875,15.778225 C47.4874517,15.8402636 47.5665378,15.9023023 47.6287522,15.9643409 C47.783761,16.1195255 47.8925483,16.2901757 47.969877,16.4762917 C48.0475571,16.6624077 48.0939543,16.8641652 48.0939543,17.0657469 C48.0939543,17.2675044 48.0475571,17.4690861 47.969877,17.6552021 C47.8925483,17.8413181 47.783761,18.0119684 47.6287522,18.1669772 C47.5665378,18.2291916 47.4874517,18.2912302 47.3958875,18.3532689 C47.3183831,18.4153076 47.2236555,18.4618805 47.1320914,18.492812 C47.0375395,18.5393849 46.9461511,18.5703163 46.8357821,18.5859578 C46.7442179,18.6015993 46.6356063,18.617065 46.5426362,18.617065" id="Fill-33" fill="#FFFFFF"></path>
                    <path d="M54.299877,27.9256415 C53.8793146,27.9256415 53.4914411,27.7549912 53.1981195,27.4757293 C52.9174517,27.1810018 52.7483831,26.7776626 52.7483831,26.3741476 C52.7483831,25.9708084 52.9174517,25.5674692 53.1981195,25.2725659 C53.7722847,24.6985764 54.8272935,24.6985764 55.401283,25.2725659 C55.6803691,25.5672935 55.8511951,25.9706327 55.8511951,26.3741476 C55.8511951,26.4827592 55.8355536,26.5759051 55.8186819,26.6845167 C55.8047979,26.7776626 55.7736907,26.8706327 55.7271178,26.9637786 C55.6946046,27.0569244 55.6496134,27.1498946 55.5875747,27.2430404 C55.525536,27.3205448 55.4634974,27.398225 55.4014587,27.4757293 C55.1065554,27.7549912 54.7186819,27.9256415 54.299877,27.9256415" id="Fill-35" fill="#FFFFFF"></path>
                    <mask id="mask-2" fill="white">
                        <use xlink:href="#path-1"></use>
                    </mask>
                    <g id="Clip-38"></g>
                    <polygon id="Fill-37" fill="#FED304" mask="url(#mask-2)" points="13.9627417 27.9256591 35.6826011 27.9256591 35.6826011 6.20579965 13.9627417 6.20579965"></polygon>
                    <path d="M90.2463093,70.0716169 L90.2566784,70.0681019 L90.2635325,70.0920035 L90.2463093,70.0716169 Z M80.0731986,58.6401582 L82.4257469,72.3148506 C82.4559754,72.520123 82.5789982,72.7000879 82.7591388,72.8028998 C82.9394552,72.9057118 83.1570299,72.9199473 83.3491213,72.8413884 L88.009754,71.0085237 L91.4637083,74.5408612 C91.5491213,74.6268014 91.6737258,74.6608963 91.7911248,74.6306678 C91.9086995,74.6006151 92.0011424,74.5104569 92.03471,74.3939367 L93.693058,68.6044815 L93.693058,68.6011424 L93.6999121,68.6011424 L99.8995606,66.0913005 L97.847891,65.2398067 L80.5280316,58.2503515 C80.4264499,58.2072935 80.3099297,58.220123 80.2202988,58.2846221 C80.1014938,58.3605448 80.0427944,58.5025483 80.0731986,58.6401582 Z" id="Fill-39" fill="#64505A" mask="url(#mask-2)"></path>
                    <path d="M88.0988928,70.9743761 L88.7621617,70.693884 L90.2463445,70.0715641 L90.2633919,70.0921265 L91.3781547,74.3870299 C91.3941476,74.4443234 91.4233216,74.4970475 91.4637434,74.5408084 L88.0099649,71.008471 L88.0988928,70.9743761 Z" id="Fill-40" fill="#5A4650" mask="url(#mask-2)"></path>
                    <path d="M93.6965378,68.5976626 L93.6965378,68.6011775 L93.6930228,68.6011775 L93.6930228,68.6045167 L92.0346749,74.3937961 C92.001283,74.5104921 91.9086643,74.6004745 91.7912654,74.630703 C91.6738664,74.6609315 91.5490861,74.6268366 91.4636731,74.5407206 C91.4232513,74.4969596 91.3940773,74.4444112 91.3782601,74.386942 L90.2634974,70.0920387 L90.2566432,70.0681371 L90.2462742,70.071652 L80.1949561,58.302935 L93.6965378,68.5976626 Z" id="Fill-41" fill="#75646D" mask="url(#mask-2)"></path>
                </g>
            </g>
        </g>
    </g>
</svg>