<?xml version="1.0" encoding="UTF-8"?>
<svg width="90px" height="95px" viewBox="0 0 90 95" version="1.1" xmlns="http://www.w3.org/2000/svg" xmlns:xlink="http://www.w3.org/1999/xlink">
    <!-- Generator: Sketch 51.3 (57544) - http://www.bohemiancoding.com/sketch -->
    <title>Group 54</title>
    <desc>Created with Sketch.</desc>
    <defs>
        <polygon id="path-1" points="0.0958678414 0.0562995595 31.4179295 0.0562995595 31.4179295 31.3782225 0.0958678414 31.3782225"></polygon>
    </defs>
    <g id="Page-1" stroke="none" stroke-width="1" fill="none" fill-rule="evenodd">
        <g id="Entrepreneur-Single-Page-(Form)" transform="translate(-880.000000, -1370.000000)">
            <g id="Group-54" transform="translate(880.000000, 1370.000000)">
                <path d="M12.4946564,36.9620088 C16.2722775,36.9620088 19.3346564,40.0241894 19.3346564,43.8018106 C19.3346564,47.5794317 16.2722775,50.6416123 12.4946564,50.6416123 C8.71723348,50.6416123 5.65485463,47.5794317 5.65485463,43.8018106 C5.65485463,40.0241894 8.71723348,36.9620088 12.4946564,36.9620088" id="Fill-1" fill="#FFD00D"></path>
                <path d="M9.58922247,43.8021872 C9.58922247,40.708685 11.6435617,38.0957115 14.4623062,37.2508216 C13.8390463,37.0642797 13.1791123,36.9623855 12.4953899,36.9623855 C8.71776872,36.9623855 5.65538987,40.0247643 5.65538987,43.8021872 C5.65538987,47.5798084 8.71776872,50.641989 12.4953899,50.641989 C13.1791123,50.641989 13.8390463,50.540293 14.4623062,50.3535529 C11.6435617,49.5084648 9.58922247,46.8958877 9.58922247,43.8021872" id="Fill-3" fill="#C5901A"></path>
                <path d="M77.4208546,29.5222797 C68.7776828,29.5222797 61.5184097,23.4857379 59.6367357,15.4073458 L17.6277489,15.4073458 C16.5374405,15.4073458 15.64537,16.2994163 15.64537,17.3897247 L15.64537,40.5786013 C15.64537,41.6689097 16.5374405,42.5609802 17.6277489,42.5609802 L76.9906784,42.5609802 C78.0809868,42.5609802 78.9730573,41.6689097 78.9730573,40.5786013 L78.9730573,29.4556718 C78.4614053,29.4990859 77.9436079,29.5222797 77.4208546,29.5222797" id="Fill-5" fill="#E6E7E8"></path>
                <path d="M19.5789449,40.5787004 L19.5789449,17.3896256 C19.5789449,16.2993172 20.4710154,15.4072467 21.5613238,15.4072467 L17.6276894,15.4072467 C16.5373811,15.4072467 15.6453106,16.2993172 15.6453106,17.3896256 L15.6453106,40.5787004 C15.6453106,41.6690088 16.5373811,42.5610793 17.6276894,42.5610793 L21.5613238,42.5610793 C20.4710154,42.5610793 19.5789449,41.6690088 19.5789449,40.5787004" id="Fill-7" fill="#D1D3D4"></path>
                <path d="M43.2451388,83.7738436 L43.2451388,94.1343502 C44.5856233,94.2451652 45.9405793,94.3048348 47.3092137,94.3048348 C54.1787511,94.3048348 60.713663,92.8755396 66.6372093,90.3032048 L66.6372093,83.7736454 L43.2451388,83.7738436 Z" id="Fill-9" fill="#6E5A64"></path>
                <path d="M47.1789317,83.7751916 L43.2450991,83.7751916 L43.2450991,94.1356982 C44.5427643,94.2431432 45.8543062,94.3012269 47.1789317,94.3047952 L47.1789317,83.7751916 Z" id="Fill-11" fill="#64505A"></path>
                <path d="M67.0431806,74.0923216 L67.0431806,49.1993921 C67.0431806,47.5639295 65.7050749,46.2258238 64.0696123,46.2258238 L62.8807797,46.2258238 C61.7048326,46.2258238 60.6860881,46.9190617 60.20437,47.915207 C59.7224537,46.9190617 58.7037093,46.2258238 57.5277621,46.2258238 L56.3389295,46.2258238 C55.1629824,46.2258238 54.1442379,46.9190617 53.6625198,47.915207 C53.1806035,46.9190617 52.161859,46.2258238 50.9859119,46.2258238 L49.7970793,46.2258238 C48.8255154,46.2258238 47.961,46.7000088 47.41763,47.4265507 L47.41763,35.8512423 C47.41763,34.2157797 46.0795242,32.877674 44.4440617,32.877674 L43.2552291,32.877674 C41.6197665,32.877674 40.2816608,34.2157797 40.2816608,35.8512423 L40.2816608,60.2265727 L36.9736652,56.9185771 C35.8171454,55.7622555 33.925163,55.7622555 32.7686432,56.9187753 L31.5312423,58.155978 C30.3749207,59.3124978 30.3749207,61.2048767 31.5312423,62.3611982 L43.2623656,74.0923216 L67.0431806,74.0923216 Z" id="Fill-13" fill="#F5B97D"></path>
                <path d="M47.1961586,74.0923216 L35.464837,62.3611982 C34.3085154,61.2048767 34.3085154,59.3124978 35.464837,58.155978 L36.7020396,56.9187753 C36.745652,56.875163 36.7924361,56.8365066 36.8382291,56.7960661 C35.673978,55.7674097 33.8817093,55.8058678 32.7688018,56.9187753 L31.5314009,58.155978 C30.3750793,59.3124978 30.3750793,61.2048767 31.5314009,62.3611982 L43.2625242,74.0923216 L47.1961586,74.0923216 Z" id="Fill-15" fill="#D29B6E"></path>
                <path d="M69.0160639,82.9808921 C69.0160639,83.5260463 68.5700286,83.9720815 68.0248744,83.9720815 L41.8574736,83.9720815 C41.3123194,83.9720815 40.8662841,83.5260463 40.8662841,82.9808921 L40.8662841,74.8852533 C40.8662841,74.3400991 41.3123194,73.8940639 41.8574736,73.8940639 L68.0248744,73.8940639 C68.5700286,73.8940639 69.0160639,74.3400991 69.0160639,74.8852533 L69.0160639,82.9808921 Z" id="Fill-17" fill="#5A4650"></path>
                <path d="M44.8000771,82.9808921 L44.8000771,74.8852533 C44.8000771,74.3400991 45.2461123,73.8940639 45.7912665,73.8940639 L41.8574339,73.8940639 C41.3122797,73.8940639 40.8662445,74.3400991 40.8662445,74.8852533 L40.8662445,82.9808921 C40.8662445,83.5260463 41.3122797,83.9720815 41.8574339,83.9720815 L45.7912665,83.9720815 C45.2461123,83.9720815 44.8000771,83.5260463 44.8000771,82.9808921" id="Fill-19" fill="#5A4650"></path>
                <path d="M63.8620771,76.7530308 C65.0663722,76.7530308 66.0426938,77.7293524 66.0426938,78.9336476 C66.0426938,80.1377445 65.0663722,81.1142643 63.8620771,81.1142643 C62.6577819,81.1142643 61.6814604,80.1377445 61.6814604,78.9336476 C61.6814604,77.7293524 62.6577819,76.7530308 63.8620771,76.7530308" id="Fill-21" fill="#FFFFFF"></path>
                <path d="M43.6416145,30.1748789 C42.820315,30.1748789 42.1548304,29.5093943 42.1548304,28.6880947 L42.1548304,25.7145264 C42.1548304,24.8934251 42.820315,24.2277423 43.6416145,24.2277423 C44.4631123,24.2277423 45.1283987,24.8934251 45.1283987,25.7145264 L45.1283987,28.6880947 C45.1283987,29.5093943 44.4631123,30.1748789 43.6416145,30.1748789" id="Fill-23" fill="#FFFFFF"></path>
                <path d="M48.5478238,32.2072137 C48.1674053,32.2072137 47.7867885,32.0621035 47.49637,31.771685 C46.9159295,31.190848 46.9159295,30.2496145 47.49637,29.6689758 L49.5992775,27.5664648 C50.1799163,26.9856278 51.1211498,26.9856278 51.7017885,27.5664648 C52.2824273,28.1471035 52.2824273,29.0885352 51.7017885,29.6689758 L49.5994758,31.771685 C49.308859,32.0621035 48.9282423,32.2072137 48.5478238,32.2072137" id="Fill-25" fill="#FFFFFF"></path>
                <path d="M53.5535088,37.1132048 L50.5801388,37.1132048 C49.7588392,37.1132048 49.0933546,36.4477203 49.0933546,35.6264207 C49.0933546,34.8053194 49.7588392,34.1396366 50.5801388,34.1396366 L53.5535088,34.1396366 C54.3750066,34.1396366 55.040293,34.8053194 55.040293,35.6264207 C55.040293,36.4477203 54.3750066,37.1132048 53.5535088,37.1132048" id="Fill-27" fill="#FFFFFF"></path>
                <path d="M36.7029119,37.1132048 L33.7297401,37.1132048 C32.9084405,37.1132048 32.2429559,36.4477203 32.2429559,35.6264207 C32.2429559,34.8053194 32.9084405,34.1396366 33.7297401,34.1396366 L36.7029119,34.1396366 C37.5244097,34.1396366 38.189696,34.8053194 38.189696,35.6264207 C38.189696,36.4477203 37.5244097,37.1132048 36.7029119,37.1132048" id="Fill-29" fill="#FFFFFF"></path>
                <path d="M38.7352269,32.2068172 C38.3548084,32.2068172 37.9741916,32.0619053 37.6837731,31.7714868 L35.5816586,29.6689758 C35.0008216,29.0885352 35.0008216,28.1471035 35.5816586,27.5664648 C36.1622974,26.9856278 37.1037291,26.9856278 37.6841696,27.5664648 L39.7866806,29.6685793 C40.3671211,30.2492181 40.3671211,31.1906498 39.7866806,31.7712885 C39.4962621,32.0619053 39.1156454,32.2068172 38.7352269,32.2068172" id="Fill-31" fill="#FFFFFF"></path>
                <path d="M13.2922467,58.9464714 C20.6333921,58.9464714 26.5844934,64.8977709 26.5844934,72.2389163 C26.5844934,79.5798634 20.6333921,85.5309648 13.2922467,85.5309648 C5.95110132,85.5309648 0,79.5798634 0,72.2389163 C0,64.8977709 5.95110132,58.9464714 13.2922467,58.9464714" id="Fill-33" fill="#FED304"></path>
                <path d="M13.2922467,61.2490639 C19.361696,61.2490639 24.2821586,66.1693282 24.2821586,72.2389758 C24.2821586,78.3084251 19.361696,83.2286894 13.2922467,83.2286894 C7.22279736,83.2286894 2.3023348,78.3084251 2.3023348,72.2389758 C2.3023348,66.1693282 7.22279736,61.2490639 13.2922467,61.2490639" id="Fill-35" fill="#C5901A"></path>
                <path d="M80.6906101,50.6423656 C84.4682313,50.6423656 87.5304119,53.7047445 87.5304119,57.4821674 C87.5304119,61.2597885 84.4682313,64.3221674 80.6906101,64.3221674 C76.912989,64.3221674 73.8508084,61.2597885 73.8508084,57.4821674 C73.8508084,53.7047445 76.912989,50.6423656 80.6906101,50.6423656" id="Fill-37" fill="#FFD00D"></path>
                <path d="M77.7840264,57.4815727 C77.7840264,54.3880705 79.8385639,51.7752952 82.6571101,50.930207 C82.0340485,50.7436652 81.3739163,50.6417709 80.6901938,50.6417709 C76.9125727,50.6417709 73.8503921,53.7041498 73.8503921,57.4815727 C73.8503921,61.2593921 76.9125727,64.3213744 80.6901938,64.3213744 C81.3739163,64.3213744 82.0338502,64.2196784 82.6571101,64.0331366 C79.8387621,63.1878502 77.7840264,60.5752731 77.7840264,57.4815727" id="Fill-39" fill="#C5901A"></path>
                <path d="M10.311522,70.8583678 C11.3316542,70.8583678 11.9214119,70.6371344 11.9214119,69.7522004 C11.9214119,68.8672665 11.3316542,68.6214515 10.311522,68.6214515 L9.15599339,68.6214515 L9.15599339,70.8583678 L10.311522,70.8583678 Z M12.0566101,75.6392709 L10.5325573,72.308478 L9.15599339,72.308478 L9.15599339,75.6392709 L7.43548678,75.6392709 L7.43548678,67.1586542 L10.4713018,67.1586542 C12.4253326,67.1586542 13.642315,68.0312974 13.642315,69.7522004 C13.642315,70.8952401 13.1138128,71.6449758 12.1920066,72.025989 L13.9495837,75.6392709 L12.0566101,75.6392709 Z" id="Fill-41" fill="#FED304"></path>
                <path d="M18.5591101,72.8738524 L18.5591101,72.2347335 C18.5591101,71.2516718 18.2518414,70.7106806 17.4777225,70.7106806 C16.7279868,70.7106806 16.3836476,71.2023106 16.3836476,72.0997335 L16.3836476,72.8738524 C16.3836476,73.7587863 16.5927885,74.4224868 17.4777225,74.4224868 C18.3257841,74.4224868 18.5591101,73.7587863 18.5591101,72.8738524 Z M20.1325242,72.9721784 C20.1325242,74.570174 19.3211366,75.7500859 17.7358282,75.7500859 C17.0967093,75.7500859 16.666533,75.6271784 16.3836476,75.3934559 L16.3836476,77.9745132 L14.81063,77.9745132 L14.81063,69.4940947 L16.3836476,69.4940947 L16.3836476,69.8996894 C16.6788238,69.567641 17.1210925,69.383478 17.7479207,69.383478 C19.1738458,69.383478 20.1325242,70.3790286 20.1325242,72.1366057 L20.1325242,72.9721784 Z" id="Fill-43" fill="#FED304"></path>
                <g id="Group-47" transform="translate(58.480176, 0.141938)">
                    <mask id="mask-2" fill="white">
                        <use xlink:href="#path-1"></use>
                    </mask>
                    <g id="Clip-46"></g>
                    <path d="M15.7570573,0.0562400881 C24.4063744,0.0562400881 31.4180485,7.0679141 31.4180485,15.7172313 C31.4180485,24.3665485 24.4063744,31.3782225 15.7570573,31.3782225 C7.10754185,31.3782225 0.0958678414,24.3665485 0.0958678414,15.7172313 C0.0958678414,7.0679141 7.10754185,0.0562400881 15.7570573,0.0562400881" id="Fill-45" fill="#FED304" mask="url(#mask-2)"></path>
                </g>
                <path d="M74.2372335,2.91098458 C81.3882687,2.91098458 87.1853392,8.70805507 87.1853392,15.8590903 C87.1853392,23.0103238 81.3882687,28.8075925 74.2372335,28.8075925 C67.086,28.8075925 61.2889295,23.0103238 61.2889295,15.8590903 C61.2889295,8.70805507 67.086,2.91098458 74.2372335,2.91098458" id="Fill-48" fill="#C5901A"></path>
                <path d="M70.7250925,14.2326079 C71.9268106,14.2326079 72.6220308,13.9721233 72.6220308,12.9293921 C72.6220308,11.886859 71.9268106,11.5970352 70.7250925,11.5970352 L69.363793,11.5970352 L69.363793,14.2326079 L70.7250925,14.2326079 Z M72.7812159,19.8657357 L70.9857753,15.9414185 L69.363793,15.9414185 L69.363793,19.8657357 L67.3366123,19.8657357 L67.3366123,9.8737533 L70.9132203,9.8737533 C73.2157533,9.8737533 74.6496079,10.901815 74.6496079,12.9293921 C74.6496079,14.276022 74.0267445,15.15937 72.9407974,15.6081806 L75.0115903,19.8657357 L72.7812159,19.8657357 Z" id="Fill-50" fill="#FED304"></path>
                <path d="M80.4426344,16.6075969 L80.4426344,15.8544912 C80.4426344,14.695989 80.080652,14.0588524 79.1683612,14.0588524 C78.2850132,14.0588524 77.8796167,14.6381035 77.8796167,15.6953062 L77.8796167,16.6075969 C77.8796167,17.65013 78.1258282,18.4319802 79.1683612,18.4319802 C80.1676784,18.4319802 80.4426344,17.65013 80.4426344,16.6075969 Z M82.2963568,16.7233678 C82.2963568,18.6058348 81.3404537,19.9962753 79.4724581,19.9962753 C78.7197489,19.9962753 78.2126564,19.8513634 77.8796167,19.5762093 L77.8796167,22.6169802 L76.0260925,22.6169802 L76.0260925,12.6253943 L77.8796167,12.6253943 L77.8796167,13.1031476 C78.2269295,12.7122225 78.7482952,12.4949537 79.4869295,12.4949537 C81.1667974,12.4949537 82.2963568,13.6679273 82.2963568,15.7387203 L82.2963568,16.7233678 Z" id="Fill-52" fill="#FED304"></path>
            </g>
        </g>
    </g>
</svg>