<?xml version="1.0" encoding="UTF-8"?>
<svg width="80px" height="74px" viewBox="0 0 80 74" version="1.1" xmlns="http://www.w3.org/2000/svg" xmlns:xlink="http://www.w3.org/1999/xlink">
    <!-- Generator: Sketch 51.3 (57544) - http://www.bohemiancoding.com/sketch -->
    <title>Group 32</title>
    <desc>Created with Sketch.</desc>
    <defs>
        <polygon id="path-1" points="0 0.121769462 79.9998434 0.121769462 79.9998434 49.7847358 0 49.7847358"></polygon>
        <polygon id="path-3" points="0.0873573198 0.153111546 30.3541187 0.153111546 30.3541187 40.1591389 0.0873573198 40.1591389"></polygon>
        <polygon id="path-5" points="0.0873955374 0.153111546 15.2641566 0.153111546 15.2641566 40.1592016 0.0873955374 40.1592016"></polygon>
    </defs>
    <g id="Page-1" stroke="none" stroke-width="1" fill="none" fill-rule="evenodd">
        <g id="Entrepreneur-Single-Page-(Form)" transform="translate(-680.000000, -1386.000000)">
            <g id="Group-32" transform="translate(680.000000, 1386.000000)">
                <g id="Group-3" transform="translate(0.000000, 23.486810)">
                    <mask id="mask-2" fill="white">
                        <use xlink:href="#path-1"></use>
                    </mask>
                    <g id="Clip-2"></g>
                    <path d="M77.1917495,49.7844227 L2.80803131,49.7844227 C1.96435225,49.7972603 1.16043836,49.4241879 0.626270059,48.7710372 C0.0914755382,48.1178865 -0.116117417,47.2566732 0.0628258317,46.4319374 L10.0368376,2.28759295 C10.3353894,1.0141683 11.4743327,0.115694716 12.7820431,0.121800391 L67.2177378,0.121800391 C68.5259178,0.115694716 69.6643914,1.0141683 69.9629432,2.28759295 L79.936955,46.4319374 C80.1158982,47.2566732 79.908775,48.1178865 79.3739804,48.7710372 C78.8393425,49.4241879 78.0354286,49.7972603 77.1917495,49.7844227" id="Fill-1" fill="#C5901A" mask="url(#mask-2)"></path>
                </g>
                <path d="M16.8103014,64.6901605 C18.1801644,64.6901605 19.4462309,63.9595147 20.1317886,62.7728219 C20.8167202,61.5861292 20.8167202,60.124681 20.1317886,58.9379883 C19.4462309,57.7512955 18.1801644,57.0206497 16.8103014,57.0206497 C16.5266223,57.0162661 16.2438826,57.0486732 15.968501,57.1170881 C15.5955851,55.1587319 13.8002035,53.8010802 11.8144501,53.9757965 C9.82869667,54.1497299 8.29711155,55.7996712 8.27081018,57.7927828 C8.27331507,59.0068728 8.85805088,60.1461292 9.84403914,60.8554834 C8.85805088,61.564681 8.27331507,62.7037808 8.27081018,63.9178708 C8.29711155,65.9111389 9.82869667,67.5610802 11.8144501,67.7356399 C13.8002035,67.9095734 15.5955851,66.5520783 15.968501,64.5937221 C16.2438826,64.662137 16.5266223,64.6950137 16.8103014,64.6901605" id="Fill-4" fill="#FED304"></path>
                <path d="M62.3342309,39.8592564 C63.7045636,39.8592564 64.9707867,39.128454 65.6555616,37.9417613 C66.3404932,36.7550685 66.3404932,35.2931507 65.6555616,34.1064579 C64.9707867,32.9203914 63.7045636,32.1889628 62.3342309,32.1889628 C62.050865,32.1847358 61.7682818,32.2171429 61.4930568,32.2854012 C61.1193581,30.3272016 59.3239765,28.9695499 57.3383796,29.1441096 C55.3524697,29.3186693 53.8215108,30.9681409 53.7953659,32.9617221 C53.7972446,34.1759687 54.3826067,35.3150685 55.3678121,36.0244227 C54.3826067,36.7331507 53.7972446,37.8728767 53.7953659,39.0863405 C53.8215108,41.0800783 55.3524697,42.7295499 57.3383796,42.9041096 C59.3239765,43.0786693 61.1193581,41.7211742 61.4930568,39.762818 C61.7682818,39.8310763 62.050865,39.8634834 62.3342309,39.8592564" id="Fill-6" fill="#FED304"></path>
                <path d="M16.7194834,27.7321487 C16.0406575,27.7315225 15.4637495,27.2377456 15.3576047,26.5673738 C15.2096595,25.6352407 15.168955,25.0869824 15.168955,25.0869824 C15.1132211,24.325182 15.6865284,23.6629511 16.4484853,23.608 C17.2102857,23.5524227 17.8725166,24.1255734 17.9274677,24.8875303 C17.9274677,24.9174325 17.964728,25.3758278 18.0860587,26.1371585 C18.1436712,26.4984892 18.0544344,26.8678043 17.8394834,27.1638513 C17.6240626,27.4598982 17.2999922,27.6582544 16.9385049,27.7150841 C16.8660196,27.7266693 16.7927515,27.7321487 16.7194834,27.7321487" id="Fill-8" fill="#FFFFFF"></path>
                <path d="M66.7904188,65.8909432 C66.5627867,64.9166967 66.2726888,63.957636 65.9210646,63.0212759 C65.6441174,62.3148963 64.8535108,61.9598278 64.1416517,62.2211194 C63.798638,62.3460509 63.520908,62.6037417 63.3699883,62.9357965 C63.219225,63.2678513 63.2088924,63.6470294 63.3414951,63.9870685 C63.6417691,64.8227632 63.8950763,65.6748963 64.1001644,66.5393973 C64.247953,67.1649941 64.8088924,67.6056986 65.4523366,67.6014716 C65.5592642,67.6002192 65.6652524,67.5861292 65.7692055,67.5598278 C66.1269354,67.4749746 66.4350372,67.2510998 66.626818,66.9378317 C66.8185988,66.6242505 66.8771507,66.2474207 66.7904188,65.8909432 M63.024,57.7238982 C62.4104579,56.920454 61.7421213,56.1599061 61.0235303,55.4475773 C60.6712798,55.1026849 60.1615342,54.9719609 59.6867006,55.1045636 C59.2118669,55.2374795 58.8436477,55.613683 58.720908,56.090865 C58.5983249,56.5688297 58.7398513,57.0754442 59.092728,57.4204932 C59.7148806,58.0345049 60.2910059,58.6943875 60.8167202,59.393409 C61.0792642,59.7383014 61.4869354,59.942137 61.9204384,59.9451115 C62.221182,59.9433894 62.5125323,59.8414716 62.7481487,59.6553268 C63.0410646,59.4355225 63.2345675,59.1089472 63.2857613,58.7469902 C63.3377378,58.384407 63.2438043,58.0168141 63.024,57.7238982 M56.2506145,51.8336438 C55.4069354,51.3270294 54.5364853,50.8667554 53.6431781,50.4540744 C53.1971507,50.2422544 52.6720626,50.2843679 52.2656438,50.5646027 C51.8589119,50.8448376 51.6331585,51.3209237 51.6722975,51.8128219 C51.7119061,52.3050333 52.0110841,52.7390059 52.4571115,52.9508258 C53.2782466,53.327499 54.0798121,53.7469119 54.8574247,54.2064031 C55.512454,54.594818 56.3584814,54.3786145 56.7475225,53.7235851 C56.9328845,53.4068728 56.9842348,53.0301996 56.8915538,52.6754442 C56.79809,52.3206888 56.5673268,52.0180665 56.2506145,51.8336438 M48.1804775,48.3571663 C47.2702622,48.067225 46.3454873,47.8054638 45.3803209,47.5570098 C45.026818,47.463546 44.6509276,47.5159922 44.3370333,47.7027632 C44.0226693,47.8896908 43.7975421,48.1954442 43.7108102,48.5500431 C43.5179335,49.2850724 43.9561331,50.037636 44.6905362,50.2330176 C45.6005949,50.4673816 46.4975029,50.7158356 47.3527671,50.9918434 C47.4875616,51.0303562 47.6267397,51.0491429 47.766544,51.0469511 C48.4411429,51.0389667 49.011319,50.544407 49.113863,49.8771663 C49.216407,49.2105519 48.8214168,48.5678904 48.1804775,48.3571663 M39.7513581,46.3152094 C38.8272094,46.1497299 37.8895969,45.984407 36.9372681,45.8323914 C36.5753112,45.7725871 36.2041174,45.8605714 35.9063483,46.0753659 C35.6082661,46.290317 35.4088141,46.6150137 35.3507319,46.9775969 C35.2909276,47.3383014 35.3787554,47.7082427 35.5937065,48.0036634 C35.8091272,48.2992407 36.1339804,48.496501 36.4959374,48.5500431 C37.4341761,48.7020587 38.3443914,48.8675382 39.2550763,49.0328611 C39.336955,49.0488297 39.4199295,49.05791 39.5035303,49.0604149 C40.2410646,49.0953268 40.875272,48.5426849 40.9418082,47.8065597 C41.0083444,47.0709041 40.4840391,46.4135264 39.7513581,46.3152094 M31.6954677,44.5772838 C30.868227,44.2647984 30.0624344,43.9009628 29.2810646,43.4871859 C28.8439609,43.2135264 28.2910059,43.2067945 27.8471703,43.4693386 C27.4033346,43.7312564 27.1432955,44.2189276 27.1721018,44.7335264 C27.2007515,45.2482818 27.513863,45.7043288 27.9844697,45.9153659 C28.8679139,46.3958356 29.7853307,46.8103953 30.7296751,47.1570098 C30.882317,47.2205714 31.046544,47.2534481 31.2124932,47.2534481 C31.8845871,47.2595538 32.4627476,46.7804932 32.5823562,46.1187319 C32.7014951,45.4575969 32.3271703,44.8061683 31.6954677,44.5772838 M25.0457613,40.3834677 C24.4067006,39.7689863 23.8122583,39.1097299 23.2663483,38.4107084 C22.7940196,37.8123523 21.926544,37.7104344 21.3281879,38.1829198 C20.7299883,38.6554051 20.6280705,39.5235068 21.1005558,40.1212368 C21.7206732,40.9109041 22.3933933,41.6575186 23.1144892,42.3559139 C23.3756243,42.6172055 23.7310059,42.7612368 24.0996947,42.7563836 C24.4690098,42.7509041 24.8200078,42.5970098 25.0733151,42.3285166 C25.6007515,41.7827632 25.5885401,40.9140352 25.0457613,40.3834677 M20.4657221,33.8586928 C20.0934325,33.0582231 19.7350763,32.2305127 19.4315147,31.3611585 C19.1575421,30.6665205 18.3810254,30.3155225 17.6784031,30.5700822 C16.976407,30.8240157 16.6041174,31.5901996 16.8378552,32.2995538 C17.1686575,33.2377926 17.5551937,34.1619413 17.9689706,35.0447593 C18.1991076,35.5282035 18.6886575,35.8345832 19.2247045,35.8308258 C19.4255656,35.8314521 19.6245479,35.7838591 19.8039609,35.6929002 C20.1366419,35.5391624 20.3937065,35.2589276 20.5183249,34.9140352 C20.6426301,34.5691429 20.6236869,34.1888689 20.4657221,33.8586928" id="Fill-10" fill="#FFFFFF"></path>
                <path d="M67.5901683,73.2712329 L64.831499,73.2712329 C64.831499,72.8158121 64.817409,72.3744814 64.8034755,71.9331507 C64.7803053,71.1762035 65.371773,70.5418395 66.1280939,70.5120939 C66.4963131,70.4893933 66.8568611,70.6182387 67.1280157,70.8677886 C67.3990137,71.1181213 67.5558826,71.4678669 67.5626145,71.8367123 C67.5767045,72.3054403 67.5901683,72.7884149 67.5901683,73.2712329" id="Fill-12" fill="#FFFFFF"></path>
                <path d="M33.1024971,62.2349589 C33.1024971,63.7585597 31.8669589,64.9942544 30.3433581,64.9942544 C28.8197573,64.9942544 27.5840626,63.7585597 27.5840626,62.2349589 C27.5840626,60.7113581 28.8197573,59.47582 30.3433581,59.47582 C31.8669589,59.47582 33.1024971,60.7113581 33.1024971,62.2349589" id="Fill-14" fill="#E4C05C"></path>
                <path d="M68.9696595,48.4395616 C68.9696595,49.9631624 67.7347476,51.1988571 66.2111468,51.1988571 C64.6869198,51.1988571 63.4518513,49.9631624 63.4518513,48.4395616 C63.4518513,46.9159609 64.6869198,45.6810489 66.2111468,45.6810489 C67.7347476,45.6810489 68.9696595,46.9159609 68.9696595,48.4395616" id="Fill-16" fill="#E4C05C"></path>
                <g id="Group-20" transform="translate(24.735812, 0.003444)">
                    <mask id="mask-4" fill="white">
                        <use xlink:href="#path-3"></use>
                    </mask>
                    <g id="Clip-19"></g>
                    <path d="M30.3517652,15.8244227 C30.3517652,24.4811742 15.2214325,40.1591389 15.2214325,40.1591389 C15.2214325,40.1591389 0.0896908023,24.4811742 0.0896908023,15.8244227 C-0.0568454012,7.31968689 6.71654012,0.305205479 15.2214325,0.153033268 C23.7261683,0.305205479 30.4989276,7.31968689 30.3517652,15.8244227" id="Fill-18" fill="#58595B" mask="url(#mask-4)"></path>
                </g>
                <path d="M42.4502857,56.6067476 C42.1780352,56.6067476 41.9118904,56.5261213 41.6859804,56.3748885 C41.0229667,55.9249472 40.3093855,55.5542231 39.5597965,55.2711703 C39.0915382,55.114771 38.7422622,54.7210333 38.6436321,54.2369628 C38.5446888,53.7535186 38.7112642,53.2541057 39.0812055,52.9262779 C39.4505205,52.5990763 39.9663718,52.4935577 40.4344736,52.6499569 C41.4173307,53.0111311 42.3519687,53.492227 43.2169393,54.0819726 C43.7230841,54.4195068 43.9482114,55.0482348 43.771773,55.6306223 C43.5953346,56.2123836 43.0581918,56.6098787 42.4502857,56.6092524 L42.4502857,56.6067476 Z M47.3221448,63.0901918 C46.7117339,63.0895656 46.1739648,62.6873738 46.0012838,62.1013855 C45.7722427,61.3254951 45.4505205,60.5801331 45.043319,59.8817378 C44.7748258,59.455593 44.7601096,58.916728 45.00418,58.4764932 C45.2485636,58.0364149 45.7136908,57.7641644 46.2173307,57.7665127 C46.7208141,57.7690176 47.1829667,58.0454951 47.4229667,58.4882348 C47.9442975,59.3787241 48.3550998,60.3291742 48.6467632,61.3187632 C48.7505597,61.6697613 48.7109511,62.0483131 48.5357652,62.369409 C48.3612055,62.6909746 48.0656282,62.9303483 47.7140039,63.0335186 C47.5871937,63.0706223 47.4552172,63.0895656 47.3221448,63.0901918 Z M47.2397965,71.2622466 C46.8136517,71.2628728 46.4120861,71.0662387 46.1501683,70.7305832 C45.8882505,70.3941448 45.7966654,69.9564149 45.9017143,69.5438904 C46.1140039,68.7143014 46.2691507,67.8712485 46.3649628,67.0203679 C46.4485636,66.2627945 47.1305205,65.7164149 47.8879374,65.7993894 C48.6455108,65.8829902 49.1925166,66.5647906 49.1089159,67.322364 C48.9977613,68.299272 48.8196008,69.2672564 48.5747476,70.2195851 C48.4210098,70.8318748 47.8710294,71.2616204 47.2397965,71.2622466 Z" id="Fill-21" fill="#FFFFFF"></path>
                <path d="M17.9274364,42.9217221 C17.9274364,44.4453229 16.6925245,45.6810176 15.1689237,45.6810176 C13.6446967,45.6810176 12.4096282,44.4453229 12.4096282,42.9217221 C12.4096282,41.3981213 13.6446967,40.1625832 15.1689237,40.1625832 C16.6925245,40.1625832 17.9274364,41.3981213 17.9274364,42.9217221" id="Fill-23" fill="#E4C05C"></path>
                <g id="Group-27" transform="translate(24.735812, 0.003444)">
                    <mask id="mask-6" fill="white">
                        <use xlink:href="#path-5"></use>
                    </mask>
                    <g id="Clip-26"></g>
                    <path d="M15.2641566,0.15309589 L15.2641566,40.1177143 L15.2225127,40.1592016 C15.2225127,40.1592016 0.0896751468,24.4738787 0.0896751468,15.8244853 C-0.0551389432,7.31974951 6.71777691,0.305737769 15.2225127,0.15309589 L15.2641566,0.15309589 Z" id="Fill-25" fill="#414042" mask="url(#mask-6)"></path>
                </g>
                <path d="M49.6564384,15.3316008 C49.6564384,20.6643601 45.3334638,24.988274 39.9999217,24.988274 C34.6671624,24.988274 30.3434051,20.6643601 30.3434051,15.3316008 C30.3434051,9.99821526 34.6671624,5.67492759 39.9999217,5.67492759 C45.3334638,5.67492759 49.6564384,9.99821526 49.6564384,15.3316008" id="Fill-28" fill="#FFFFFF"></path>
                <path d="M44.1387554,15.3316008 C44.1387554,17.6171585 42.2854481,19.4698395 39.9998904,19.4698395 C37.7144892,19.4698395 35.8616517,17.6171585 35.8616517,15.3316008 C35.8616517,13.0454168 37.7144892,11.1927358 39.9998904,11.1927358 C42.2854481,11.1927358 44.1387554,13.0454168 44.1387554,15.3316008" id="Fill-30" fill="#58595B"></path>
            </g>
        </g>
    </g>
</svg>