<?xml version="1.0" encoding="UTF-8"?>
<svg width="90px" height="90px" viewBox="0 0 90 90" version="1.1" xmlns="http://www.w3.org/2000/svg" xmlns:xlink="http://www.w3.org/1999/xlink">
    <!-- Generator: Sketch 51.3 (57544) - http://www.bohemiancoding.com/sketch -->
    <title>Group 2</title>
    <desc>Created with Sketch.</desc>
    <defs>
        <polygon id="path-1" points="0.294784416 0.245361305 46.2044987 0.245361305 46.2044987 34.4328275 0.294784416 34.4328275"></polygon>
        <polygon id="path-3" points="0.406180614 0.341148325 66.0929079 0.341148325 66.0929079 41.8181818 0.406180614 41.8181818"></polygon>
        <polygon id="path-5" points="0.406180614 0.416826446 66.0929079 0.416826446 66.0929079 24.5454545 0.406180614 24.5454545"></polygon>
        <polygon id="path-7" points="0.406312462 0.114772727 66.0926881 0.114772727 66.0926881 4.54545455 0.406312462 4.54545455"></polygon>
        <polygon id="path-9" points="0 0.376821263 17.1388858 0.376821263 17.1388858 25.9893174 0 25.9893174"></polygon>
        <polygon id="path-11" points="0 0.258772727 4.39763636 0.258772727 4.39763636 11.3905909 0 11.3905909"></polygon>
    </defs>
    <g id="Page-1" stroke="none" stroke-width="1" fill="none" fill-rule="evenodd">
        <g id="Entrepreneur-Single-Page-(Form)" transform="translate(-268.000000, -943.000000)">
            <g id="Group-2" transform="translate(268.000000, 943.000000)">
                <path d="M41.3636364,23.6363636 C50.1498915,23.6363636 57.2727273,30.7591994 57.2727273,39.5454545 C57.2727273,48.3317097 50.1498915,55.4545455 41.3636364,55.4545455 C32.5773812,55.4545455 25.4545455,48.3317097 25.4545455,39.5454545 C25.4545455,30.7591994 32.5773812,23.6363636 41.3636364,23.6363636" id="Fill-1" fill="#5A4650"></path>
                <path d="M72.2727273,23.6363636 C81.0589824,23.6363636 88.1818182,30.7591994 88.1818182,39.5454545 C88.1818182,48.3317097 81.0589824,55.4545455 72.2727273,55.4545455 C63.4864721,55.4545455 56.3636364,48.3317097 56.3636364,39.5454545 C56.3636364,30.7591994 63.4864721,23.6363636 72.2727273,23.6363636" id="Fill-3" fill="#5A4650"></path>
                <g id="Group-7" transform="translate(33.636364, 0.000000)">
                    <mask id="mask-2" fill="white">
                        <use xlink:href="#path-1"></use>
                    </mask>
                    <g id="Clip-6"></g>
                    <path d="M23.2496416,0.245228438 C10.5720571,0.245228438 0.294784416,10.5535035 0.294784416,23.269331 L0.294784416,34.4328275 L46.2044987,34.4328275 L46.2044987,23.269331 C46.2044987,10.5535035 35.927226,0.245228438 23.2496416,0.245228438" id="Fill-5" fill="#64505A" mask="url(#mask-2)"></path>
                </g>
                <g id="Group-10" transform="translate(23.636364, 47.272727)">
                    <mask id="mask-4" fill="white">
                        <use xlink:href="#path-3"></use>
                    </mask>
                    <g id="Clip-9"></g>
                    <path d="M60.3764937,22.5694928 L45.6279446,17.355866 C43.3443323,16.548555 41.8170897,14.3867751 41.8170897,11.9608804 L41.8170897,0.341148325 L24.6812077,0.341148325 L24.6812077,11.9608804 C24.6812077,14.3867751 23.1539651,16.548555 20.8703528,17.355866 L6.12224323,22.5694928 C2.6968248,23.7804593 0.406180614,27.0233493 0.406180614,30.6615311 L0.406180614,37.5271962 C0.406180614,39.8967464 2.32413365,41.8181818 4.68993137,41.8181818 L61.8088055,41.8181818 C64.1750427,41.8181818 66.0929958,39.8967464 66.0929958,37.5271962 L66.0929958,30.6615311 C66.0925563,27.0233493 63.8019121,23.7804593 60.3764937,22.5694928" id="Fill-8" fill="#E3AA75" mask="url(#mask-4)"></path>
                </g>
                <g id="Group-13" transform="translate(23.636364, 65.454545)">
                    <mask id="mask-6" fill="white">
                        <use xlink:href="#path-5"></use>
                    </mask>
                    <g id="Clip-12"></g>
                    <path d="M60.3764937,5.03047934 L47.5028272,0.416826446 C47.2303408,8.18122314 40.9622733,14.3952397 33.2491487,14.3952397 C25.5364636,14.3952397 19.2683961,8.18122314 18.9954702,0.416826446 L6.12224323,5.03047934 C2.6968248,6.25775207 0.406180614,9.54595041 0.406180614,13.2344628 L0.406180614,20.1951074 C0.406180614,22.5978843 2.32413365,24.5454545 4.68993137,24.5454545 L61.8088055,24.5454545 C64.1750427,24.5454545 66.0929958,22.5978843 66.0929958,20.1951074 L66.0929958,13.2344628 C66.0925563,9.54595041 63.8019121,6.25775207 60.3764937,5.03047934" id="Fill-11" fill="#FED304" mask="url(#mask-6)"></path>
                </g>
                <path d="M48.1818182,56.3817667 C50.8310502,57.5416606 53.7522938,58.1818182 56.8184033,58.1818182 C59.8845129,58.1818182 62.8057564,57.5412129 65.4545455,56.3817667 L65.4545455,50.9090909 L48.1818182,50.9090909 L48.1818182,56.3817667 Z" id="Fill-14" fill="#D29B6E"></path>
                <path d="M75.5397258,30.2353841 C75.5397258,30.2353841 73.6375527,30.0047608 73.0556653,29.8427964 C69.8288347,28.9431895 62.8418133,26.1343388 57.5488669,17.9216853 C56.9914616,17.0564079 55.7358787,17.0564079 55.1784734,17.9216853 C49.885527,26.1338987 42.8985056,28.9431895 39.6716751,29.8427964 C39.0897876,30.0047608 37.1871773,30.2353841 37.1871773,30.2353841 C35.105323,30.2353841 33.4418505,32.0394391 33.6547575,34.1788662 C33.8396849,36.0396967 35.5324485,37.385586 37.3900291,37.385586 L37.9692935,37.385586 C38.6971993,46.9819792 46.6447067,54.5454545 56.3636702,54.5454545 C66.0826336,54.5454545 74.030141,46.9819792 74.7576096,37.385586 L75.3373112,37.385586 C77.1948918,37.385586 78.8876554,36.0396967 79.0725828,34.1788662 C79.2850526,32.0394391 77.6220173,30.2353841 75.5397258,30.2353841" id="Fill-16" fill="#F5B97D"></path>
                <path d="M73.8307297,29.831632 C70.5435679,28.9325152 63.4307452,26.1272885 58.0359483,17.9308838 C57.4586667,17.0542229 56.1627921,17.052902 55.5855105,17.9295628 C51.859258,23.591973 47.3141126,26.6794396 43.7750866,28.3455795 C42.1903483,29.0910275 40.8066556,29.5537952 39.7898375,29.831632 C39.196508,29.9936667 37.2573767,30.2243901 37.2573767,30.2243901 C35.1341394,30.2243901 33.4384025,32.028788 33.6550503,34.1700245 C33.8436141,36.0316629 35.569218,37.3776962 37.4633258,37.3776962 L38.0544265,37.3776962 C38.7966457,46.9786957 46.9004313,54.5454545 56.8105065,54.5454545 C57.798349,54.5454545 58.7603364,54.4477053 59.7071674,54.3028427 C51.4379985,53.0382671 44.9399027,46.4776208 43.9159523,38.2314608 C43.7634964,37.0065133 43.7978213,35.7630727 43.9520602,34.5381252 C44.0773236,33.5399382 44.3773318,32.5514382 44.9635289,31.7289357 C45.4784017,31.0059436 46.1488508,30.3956714 46.940997,29.9513968 C50.1095821,28.1764998 53.6557405,25.4333571 56.8105065,21.2068038 C60.5893607,26.2699496 64.9307859,29.2041876 68.5103776,30.8958657 C71.0642358,32.1027604 74.0714495,31.864992 76.3636364,30.2243901 C76.3636364,30.2243901 74.4240593,29.994107 73.8307297,29.831632" id="Fill-18" fill="#E3AA75"></path>
                <path d="M47.7272727,35.4545455 C46.9734744,35.4545455 46.3636364,34.7760846 46.3636364,33.9390831 L46.3636364,32.424087 C46.3636364,31.5880181 46.9734744,30.9090909 47.7272727,30.9090909 C48.4810711,30.9090909 49.0909091,31.5880181 49.0909091,32.424087 L49.0909091,33.9390831 C49.0909091,34.7760846 48.4806514,35.4545455 47.7272727,35.4545455" id="Fill-20" fill="#5A4650"></path>
                <path d="M64.9999999,35.4545455 C64.2462016,35.4545455 63.6363636,34.7760846 63.6363636,33.9390831 L63.6363636,32.424087 C63.6363636,31.5880181 64.2462016,30.9090909 64.9999999,30.9090909 C65.7533785,30.9090909 66.3636361,31.5880181 66.3636361,32.424087 L66.3636361,33.9390831 C66.3640559,34.7760846 65.7537982,35.4545455 64.9999999,35.4545455" id="Fill-22" fill="#5A4650"></path>
                <polygon id="Fill-24" fill="#FFD164" points="65.4545455 58.2290909 65.4559091 58.2295455 65.4559091 58.1818182"></polygon>
                <polygon id="Fill-26" fill="#FFD164" points="48.1818182 58.1818182 48.1818182 58.2295455 48.1831818 58.2290909"></polygon>
                <path d="M61.625044,0.909090909 C60.5913648,3.18565411 60,5.70803298 60,8.3752438 C60,18.3101833 67.9946359,26.3636364 77.8570172,26.3636364 C78.5833626,26.3636364 79.2960781,26.3069437 80,26.2219048 L80,23.4855999 C80,12.3149383 72.1012135,3.00848966 61.625044,0.909090909" id="Fill-28" fill="#6E5A64"></path>
                <path d="M50.7192151,40.9090909 C50.2697174,40.9090909 49.9357796,41.3014892 50.0104762,41.7249435 C50.4740345,44.3504445 53.1420214,46.3636364 56.3636419,46.3636364 C59.5852624,46.3636364 62.2528098,44.3504445 62.7168076,41.7249435 C62.7915042,41.3014892 62.457127,40.9090909 62.0076292,40.9090909 L50.7192151,40.9090909 Z" id="Fill-30" fill="#FFFFFF"></path>
                <g id="Group-34" transform="translate(23.636364, 85.454545)">
                    <mask id="mask-8" fill="white">
                        <use xlink:href="#path-7"></use>
                    </mask>
                    <g id="Clip-33"></g>
                    <path d="M66.0926881,0.114772727 L0.406312462,0.114772727 C0.406312462,2.56159091 2.32382601,4.54568182 4.69006321,4.54568182 L61.8089374,4.54568182 C64.1747351,4.54568182 66.0926881,2.56159091 66.0926881,0.114772727" id="Fill-32" fill="#C5901A" mask="url(#mask-8)"></path>
                </g>
                <path d="M23.6363636,78.1818182 L50,78.1818182 C47.9602468,77.1242586 46.1972178,75.5607677 44.8488399,73.6363636 L24.9468877,73.6363636 C24.1558742,74.9760324 23.6877055,76.5315962 23.6363636,78.1818182" id="Fill-35" fill="#C5901A"></path>
                <path d="M88.689476,73.6363636 L68.7875237,73.6363636 C67.4391459,75.5607677 65.6761169,77.1237923 63.6363636,78.1818182 L90,78.1818182 C89.9486581,76.5311299 89.4800544,74.9755661 88.689476,73.6363636" id="Fill-37" fill="#C5901A"></path>
                <g id="Group-41" transform="translate(0.000000, 63.636364)">
                    <mask id="mask-10" fill="white">
                        <use xlink:href="#path-9"></use>
                    </mask>
                    <g id="Clip-40"></g>
                    <path d="M7.07641492,0.376821263 L-8.85780886e-05,5.01458706 C-8.85780886e-05,10.0808737 1.525669,12.2082851 2.41499301,13.0179615 C2.80872261,13.3763282 3.03902564,13.8825994 3.03902564,14.4174684 L3.03902564,25.9893174 L14.0997716,25.9893174 L14.0997716,14.8911202 C14.0997716,14.207453 14.4629417,13.5675763 15.0612867,13.2462974 C15.9519394,12.768624 17.1388858,11.2936009 17.1388858,6.82474114 L7.07641492,0.376821263 Z" id="Fill-39" fill="#E3AA75" mask="url(#mask-10)"></path>
                </g>
                <path d="M7.95465117,62.1546457 C7.95465117,60.9644011 7.0387476,60 5.90930234,60 C4.77943422,60 3.8639535,60.9644011 3.8639535,62.1546457 L1.81818182,65.1467389 L3.8639535,68.7544452 C3.8639535,69.9442444 4.77943422,70.9090909 5.90930234,70.9090909 C7.0387476,70.9090909 7.95465117,69.9442444 7.95465117,68.7544452 L10,64.9716768 L7.95465117,62.1546457 Z" id="Fill-42" fill="#D29B6E"></path>
                <path d="M15.1515152,60 C13.980178,60 13.030303,60.9967978 13.030303,62.2259976 L10.9090909,65.1367759 L13.030303,70.9090909 L17.2727273,70.9090909 L17.2727273,62.2259976 C17.2727273,60.9967978 16.3228523,60 15.1515152,60" id="Fill-44" fill="#D29B6E"></path>
                <path d="M12.7272727,70.9090909 L12.7272727,62.2264578 C12.7272727,60.9967978 11.7096547,60 10.4547804,60 C9.19943622,60 8.18181818,60.9967978 8.18181818,62.2264578 L8.18181818,70.9090909 L12.7272727,70.9090909 Z" id="Fill-46" fill="#E3AA75"></path>
                <g id="Group-50" transform="translate(0.000000, 60.000000)">
                    <mask id="mask-12" fill="white">
                        <use xlink:href="#path-11"></use>
                    </mask>
                    <g id="Clip-49"></g>
                    <path d="M-9.09090909e-05,2.45740909 L-9.09090909e-05,9.19195455 C-9.09090909e-05,10.4060455 0.984454545,11.3905909 2.19854545,11.3905909 C3.41309091,11.3905909 4.39763636,10.4060455 4.39763636,9.19195455 L4.39763636,2.45740909 C4.39763636,1.24286364 3.41309091,0.258772727 2.19854545,0.258772727 C0.984454545,0.258772727 -9.09090909e-05,1.24286364 -9.09090909e-05,2.45740909" id="Fill-48" fill="#F5B97D" mask="url(#mask-12)"></path>
                </g>
                <path d="M14.3234226,68.1818182 L9.31336283,68.1818182 C8.18633137,68.1818182 7.27272727,69.1995414 7.27272727,70.4545455 C7.27272727,71.7100194 8.18633137,72.7272727 9.31336283,72.7272727 L14.3234226,72.7272727 C15.4500323,72.7272727 16.3636364,71.7100194 16.3636364,70.4545455 C16.3636364,69.1995414 15.4500323,68.1818182 14.3234226,68.1818182" id="Fill-51" fill="#F5B97D"></path>
            </g>
        </g>
    </g>
</svg>