<?xml version="1.0" encoding="UTF-8"?>
<svg width="258px" height="18px" viewBox="0 0 258 18" version="1.1" xmlns="http://www.w3.org/2000/svg" xmlns:xlink="http://www.w3.org/1999/xlink">
    <!-- Generator: Sketch 51.3 (57544) - http://www.bohemiancoding.com/sketch -->
    <title>Group 33</title>
    <desc>Created with Sketch.</desc>
    <defs>
        <polygon id="path-1" points="0.0003 0.0013 17.999 0.0013 17.999 18 0.0003 18"></polygon>
        <polygon id="path-3" points="0.0003 0.0013 17.999 0.0013 17.999 18 0.0003 18"></polygon>
        <polygon id="path-5" points="0.0003 0.0013 17.999 0.0013 17.999 18 0.0003 18"></polygon>
        <polygon id="path-7" points="0.0003 0.0013 17.999 0.0013 17.999 18 0.0003 18"></polygon>
        <polygon id="path-9" points="0.0003 0.0013 17.999 0.0013 17.999 18 0.0003 18"></polygon>
    </defs>
    <g id="Page-1" stroke="none" stroke-width="1" fill="none" fill-rule="evenodd">
        <g id="Index-Opsi-1" transform="translate(-612.000000, -1857.000000)">
            <g id="Group-33" transform="translate(612.000000, 1856.000000)">
                <g id="Group-10">
                    <g id="Group-3" transform="translate(0.000000, 0.999100)">
                        <mask id="mask-2" fill="white">
                            <use xlink:href="#path-1"></use>
                        </mask>
                        <g id="Clip-2"></g>
                        <path d="M12.9993,18.0003 L5.0003,18.0003 C2.2503,18.0003 0.0003,15.7503 0.0003,13.0003 L0.0003,5.0013 C0.0003,2.2513 2.2503,0.0013 5.0003,0.0013 L12.9993,0.0013 C15.7493,0.0013 17.9993,2.2513 17.9993,5.0013 L17.9993,13.0003 C17.9993,15.7503 15.7493,18.0003 12.9993,18.0003" id="Fill-1" fill="#FFFFFF" mask="url(#mask-2)"></path>
                    </g>
                    <path d="M13.9993,9.9994 C13.9993,12.7614 11.7613,14.9994 8.9993,14.9994 C6.2383,14.9994 3.9993,12.7614 3.9993,9.9994 C3.9993,7.2374 6.2383,4.9994 8.9993,4.9994 C11.7613,4.9994 13.9993,7.2374 13.9993,9.9994" id="Fill-4" fill="#E2E2E2"></path>
                    <path d="M7.8362,9.9994 C7.8362,10.4624 7.4622,10.8364 6.9992,10.8364 C6.5372,10.8364 6.1622,10.4624 6.1622,9.9994 C6.1622,9.5374 6.5372,9.1624 6.9992,9.1624 C7.4622,9.1624 7.8362,9.5374 7.8362,9.9994" id="Fill-6" fill="#414042"></path>
                    <path d="M11.8362,9.9994 C11.8362,10.4624 11.4622,10.8364 10.9992,10.8364 C10.5372,10.8364 10.1622,10.4624 10.1622,9.9994 C10.1622,9.5374 10.5372,9.1624 10.9992,9.1624 C11.4622,9.1624 11.8362,9.5374 11.8362,9.9994" id="Fill-8" fill="#414042"></path>
                </g>
                <g id="Group-10" transform="translate(60.000000, 0.000000)">
                    <g id="Group-3" transform="translate(0.000000, 0.999100)">
                        <mask id="mask-4" fill="white">
                            <use xlink:href="#path-3"></use>
                        </mask>
                        <g id="Clip-2"></g>
                        <path d="M12.9993,18.0003 L5.0003,18.0003 C2.2503,18.0003 0.0003,15.7503 0.0003,13.0003 L0.0003,5.0013 C0.0003,2.2513 2.2503,0.0013 5.0003,0.0013 L12.9993,0.0013 C15.7493,0.0013 17.9993,2.2513 17.9993,5.0013 L17.9993,13.0003 C17.9993,15.7503 15.7493,18.0003 12.9993,18.0003" id="Fill-1" fill="#FFFFFF" mask="url(#mask-4)"></path>
                    </g>
                    <path d="M13.9993,9.9994 C13.9993,12.7614 11.7613,14.9994 8.9993,14.9994 C6.2383,14.9994 3.9993,12.7614 3.9993,9.9994 C3.9993,7.2374 6.2383,4.9994 8.9993,4.9994 C11.7613,4.9994 13.9993,7.2374 13.9993,9.9994" id="Fill-4" fill="#E2E2E2"></path>
                    <path d="M7.8362,9.9994 C7.8362,10.4624 7.4622,10.8364 6.9992,10.8364 C6.5372,10.8364 6.1622,10.4624 6.1622,9.9994 C6.1622,9.5374 6.5372,9.1624 6.9992,9.1624 C7.4622,9.1624 7.8362,9.5374 7.8362,9.9994" id="Fill-6" fill="#414042"></path>
                    <path d="M11.8362,9.9994 C11.8362,10.4624 11.4622,10.8364 10.9992,10.8364 C10.5372,10.8364 10.1622,10.4624 10.1622,9.9994 C10.1622,9.5374 10.5372,9.1624 10.9992,9.1624 C11.4622,9.1624 11.8362,9.5374 11.8362,9.9994" id="Fill-8" fill="#414042"></path>
                </g>
                <g id="Group-10" transform="translate(120.000000, 0.000000)">
                    <g id="Group-3" transform="translate(0.000000, 0.999100)">
                        <mask id="mask-6" fill="white">
                            <use xlink:href="#path-5"></use>
                        </mask>
                        <g id="Clip-2"></g>
                        <path d="M12.9993,18.0003 L5.0003,18.0003 C2.2503,18.0003 0.0003,15.7503 0.0003,13.0003 L0.0003,5.0013 C0.0003,2.2513 2.2503,0.0013 5.0003,0.0013 L12.9993,0.0013 C15.7493,0.0013 17.9993,2.2513 17.9993,5.0013 L17.9993,13.0003 C17.9993,15.7503 15.7493,18.0003 12.9993,18.0003" id="Fill-1" fill="#FFFFFF" mask="url(#mask-6)"></path>
                    </g>
                    <path d="M13.9993,9.9994 C13.9993,12.7614 11.7613,14.9994 8.9993,14.9994 C6.2383,14.9994 3.9993,12.7614 3.9993,9.9994 C3.9993,7.2374 6.2383,4.9994 8.9993,4.9994 C11.7613,4.9994 13.9993,7.2374 13.9993,9.9994" id="Fill-4" fill="#E2E2E2"></path>
                    <path d="M7.8362,9.9994 C7.8362,10.4624 7.4622,10.8364 6.9992,10.8364 C6.5372,10.8364 6.1622,10.4624 6.1622,9.9994 C6.1622,9.5374 6.5372,9.1624 6.9992,9.1624 C7.4622,9.1624 7.8362,9.5374 7.8362,9.9994" id="Fill-6" fill="#414042"></path>
                    <path d="M11.8362,9.9994 C11.8362,10.4624 11.4622,10.8364 10.9992,10.8364 C10.5372,10.8364 10.1622,10.4624 10.1622,9.9994 C10.1622,9.5374 10.5372,9.1624 10.9992,9.1624 C11.4622,9.1624 11.8362,9.5374 11.8362,9.9994" id="Fill-8" fill="#414042"></path>
                </g>
                <g id="Group-10" transform="translate(180.000000, 0.000000)">
                    <g id="Group-3" transform="translate(0.000000, 0.999100)">
                        <mask id="mask-8" fill="white">
                            <use xlink:href="#path-7"></use>
                        </mask>
                        <g id="Clip-2"></g>
                        <path d="M12.9993,18.0003 L5.0003,18.0003 C2.2503,18.0003 0.0003,15.7503 0.0003,13.0003 L0.0003,5.0013 C0.0003,2.2513 2.2503,0.0013 5.0003,0.0013 L12.9993,0.0013 C15.7493,0.0013 17.9993,2.2513 17.9993,5.0013 L17.9993,13.0003 C17.9993,15.7503 15.7493,18.0003 12.9993,18.0003" id="Fill-1" fill="#FFFFFF" mask="url(#mask-8)"></path>
                    </g>
                    <path d="M13.9993,9.9994 C13.9993,12.7614 11.7613,14.9994 8.9993,14.9994 C6.2383,14.9994 3.9993,12.7614 3.9993,9.9994 C3.9993,7.2374 6.2383,4.9994 8.9993,4.9994 C11.7613,4.9994 13.9993,7.2374 13.9993,9.9994" id="Fill-4" fill="#E2E2E2"></path>
                    <path d="M7.8362,9.9994 C7.8362,10.4624 7.4622,10.8364 6.9992,10.8364 C6.5372,10.8364 6.1622,10.4624 6.1622,9.9994 C6.1622,9.5374 6.5372,9.1624 6.9992,9.1624 C7.4622,9.1624 7.8362,9.5374 7.8362,9.9994" id="Fill-6" fill="#414042"></path>
                    <path d="M11.8362,9.9994 C11.8362,10.4624 11.4622,10.8364 10.9992,10.8364 C10.5372,10.8364 10.1622,10.4624 10.1622,9.9994 C10.1622,9.5374 10.5372,9.1624 10.9992,9.1624 C11.4622,9.1624 11.8362,9.5374 11.8362,9.9994" id="Fill-8" fill="#414042"></path>
                </g>
                <g id="Group-10" transform="translate(240.000000, 0.000000)">
                    <g id="Group-3" transform="translate(0.000000, 0.999100)">
                        <mask id="mask-10" fill="white">
                            <use xlink:href="#path-9"></use>
                        </mask>
                        <g id="Clip-2"></g>
                        <path d="M12.9993,18.0003 L5.0003,18.0003 C2.2503,18.0003 0.0003,15.7503 0.0003,13.0003 L0.0003,5.0013 C0.0003,2.2513 2.2503,0.0013 5.0003,0.0013 L12.9993,0.0013 C15.7493,0.0013 17.9993,2.2513 17.9993,5.0013 L17.9993,13.0003 C17.9993,15.7503 15.7493,18.0003 12.9993,18.0003" id="Fill-1" fill="#FFFFFF" mask="url(#mask-10)"></path>
                    </g>
                    <path d="M13.9993,9.9994 C13.9993,12.7614 11.7613,14.9994 8.9993,14.9994 C6.2383,14.9994 3.9993,12.7614 3.9993,9.9994 C3.9993,7.2374 6.2383,4.9994 8.9993,4.9994 C11.7613,4.9994 13.9993,7.2374 13.9993,9.9994" id="Fill-4" fill="#E2E2E2"></path>
                    <path d="M7.8362,9.9994 C7.8362,10.4624 7.4622,10.8364 6.9992,10.8364 C6.5372,10.8364 6.1622,10.4624 6.1622,9.9994 C6.1622,9.5374 6.5372,9.1624 6.9992,9.1624 C7.4622,9.1624 7.8362,9.5374 7.8362,9.9994" id="Fill-6" fill="#414042"></path>
                    <path d="M11.8362,9.9994 C11.8362,10.4624 11.4622,10.8364 10.9992,10.8364 C10.5372,10.8364 10.1622,10.4624 10.1622,9.9994 C10.1622,9.5374 10.5372,9.1624 10.9992,9.1624 C11.4622,9.1624 11.8362,9.5374 11.8362,9.9994" id="Fill-8" fill="#414042"></path>
                </g>
            </g>
        </g>
    </g>
</svg>