<?xml version="1.0" encoding="UTF-8"?>
<svg width="87px" height="80px" viewBox="0 0 87 80" version="1.1" xmlns="http://www.w3.org/2000/svg" xmlns:xlink="http://www.w3.org/1999/xlink">
    <!-- Generator: Sketch 51.3 (57544) - http://www.bohemiancoding.com/sketch -->
    <title>Group 12</title>
    <desc>Created with Sketch.</desc>
    <defs>
        <polygon id="path-1" points="0.141427195 0.00185445007 77.3034256 0.00185445007 77.3034256 77.9844934 0.141427195 77.9844934"></polygon>
        <polygon id="path-3" points="0.159035608 0.00183835681 74.8284177 0.00183835681 74.8284177 59.8098358 0.159035608 59.8098358"></polygon>
        <polygon id="path-5" points="0 0.427583047 86.4749046 0.427583047 86.4749046 8.24742268 0 8.24742268"></polygon>
    </defs>
    <g id="Page-1" stroke="none" stroke-width="1" fill="none" fill-rule="evenodd">
        <g id="Partner-Single-Page-(Form)" transform="translate(-371.000000, -379.000000)">
            <g id="Group-12" transform="translate(371.000000, 379.000000)">
                <g id="Group-3" transform="translate(6.597938, 0.000000)">
                    <mask id="mask-2" fill="white">
                        <use xlink:href="#path-1"></use>
                    </mask>
                    <g id="Clip-2"></g>
                    <path d="M77.3034256,38.9932898 C77.3034256,60.5276276 60.0303164,77.9844934 38.722197,77.9844934 C17.4145364,77.9844934 0.141427195,60.5276276 0.141427195,38.9932898 C0.141427195,17.458952 17.4145364,0.00162264381 38.722197,0.00162264381 C60.0303164,0.00162264381 77.3034256,17.458952 77.3034256,38.9932898" id="Fill-1" fill="#FED304" mask="url(#mask-2)"></path>
                </g>
                <g id="Group-6" transform="translate(9.072165, 0.000000)">
                    <mask id="mask-4" fill="white">
                        <use xlink:href="#path-3"></use>
                    </mask>
                    <g id="Clip-5"></g>
                    <path d="M32.5628861,6.77921649 C53.9498142,6.77921649 71.2876423,24.0845883 71.2876423,45.4320472 C71.2876423,50.5151038 70.2944755,55.3642295 68.507512,59.8098358 C72.4995176,53.7308495 74.8284177,46.4661229 74.8284177,38.6549448 C74.8284177,17.307486 57.49105,0.00165452113 36.1036615,0.00165452113 C19.8096485,0.00165452113 5.87538499,10.0524108 0.159035608,24.2766966 C7.07574929,13.7424525 19.0015781,6.77921649 32.5628861,6.77921649" id="Fill-4" fill="#C5901A" mask="url(#mask-4)"></path>
                </g>
                <path d="M45.0016667,45.9011292 C45.2070088,47.1964235 44.8238259,48.5160362 43.9561642,49.499322 C42.3675136,50.7661685 40.1779627,50.9643857 38.3876369,50.0045005 L44.4543936,43.9313458 C44.7261968,44.5594924 44.9109129,45.2225106 45.0016667,45.9011292 M44.9704988,30.960049 L44.9704988,29.3710995 C45.0580441,28.5557478 45.4132675,27.7917856 45.9807082,27.1994282 C47.5698171,25.9348759 49.7575346,25.7361999 51.5478603,26.6937908 L45.4824788,32.7655691 C45.23726,32.1878944 45.0649194,31.5808542 44.9704988,30.960049 M61.876839,26.4900676 L62.68904,25.6774689 C64.0870158,24.2780187 64.0870158,22.0090742 62.68904,20.6091652 C61.2910642,19.2101739 59.02451,19.2101739 57.6265342,20.6091652 L56.8138748,21.4231404 C52.0034629,17.9029498 45.3972251,18.1970638 40.917744,22.1302069 C38.8326974,24.3078431 37.7124834,27.2347586 37.8101125,30.2493118 L37.8101125,31.1807491 L37.8174462,31.2188325 C37.8275299,31.3440948 37.8059873,31.4633922 37.8201963,31.5886544 C38.1112503,33.8956824 38.9289515,36.1045194 40.2100474,38.0444785 L33.3310897,44.9306908 C33.0588282,44.303003 32.8754871,43.6404437 32.7861083,42.9622839 C32.5798496,41.6660719 32.9634908,40.3460004 33.8311525,39.3622558 C35.2295867,37.9628057 35.2295867,35.6938611 33.8311525,34.294411 C32.4331767,32.8949609 30.1666225,32.8949609 28.7686467,34.294411 C26.3490027,36.808374 25.2063293,40.2904813 25.6674322,43.7510232 C25.9580278,46.0589688 26.775729,48.2691824 28.0577416,50.2096003 L27.247374,51.0208225 C26.3435024,51.9256473 25.9896541,53.24526 26.3210431,54.4822821 C26.6519738,55.7188454 27.6168063,56.6846954 28.8525252,57.016434 C30.0873275,57.3477136 31.4055499,56.993951 32.3103382,56.0891262 L33.1133722,55.2847865 C35.4711386,56.8365702 38.2217133,57.6849582 41.0433326,57.7299241 C44.0171251,57.7868198 46.8891633,56.6484474 49.0182117,54.5699198 C51.4387724,52.0559568 52.5796123,48.572473 52.1157594,45.1110134 C51.8269971,42.8030678 51.0088375,40.5923954 49.7272833,38.6524364 L56.6103662,31.7620945 C57.5687817,33.5543083 57.3712317,35.7457096 56.1080116,37.3378709 C55.2023066,38.2426957 54.8475416,39.563226 55.1784723,40.800707 C55.5098613,42.0386468 56.4756105,43.0049557 57.7122461,43.3353177 C58.9493401,43.6661385 60.2680209,43.3105405 61.1709758,42.4025039 C65.1018087,37.9182986 65.3951545,31.3041761 61.876839,26.4900676" id="Fill-7" fill="#C5901A"></path>
                <g id="Group-11" transform="translate(0.000000, 71.752577)">
                    <mask id="mask-6" fill="white">
                        <use xlink:href="#path-5"></use>
                    </mask>
                    <g id="Clip-10"></g>
                    <path d="M82.5443716,0.428041237 L76.5810902,0.428041237 C76.5815508,0.428041237 76.5815508,0.427583047 76.5815508,0.427583047 L65.3380983,0.427583047 L21.1330752,0.427583047 L9.8891621,0.427583047 C9.8891621,0.427583047 9.8891621,0.428041237 9.88962272,0.428041237 L3.93048695,0.428041237 C1.75955034,0.428041237 -4.60627331e-05,2.17832761 -4.60627331e-05,4.33777778 C-4.60627331e-05,6.49722795 1.75955034,8.24751432 3.93048695,8.24751432 L82.5443716,8.24751432 C84.7153082,8.24751432 86.4749046,6.49722795 86.4749046,4.33777778 C86.4749046,2.17832761 84.7148476,0.428041237 82.5443716,0.428041237" id="Fill-9" fill="#414042" mask="url(#mask-6)"></path>
                </g>
            </g>
        </g>
    </g>
</svg>