<?xml version="1.0" encoding="UTF-8"?>
<svg width="216px" height="38px" viewBox="0 0 216 38" version="1.1" xmlns="http://www.w3.org/2000/svg" xmlns:xlink="http://www.w3.org/1999/xlink">
    <!-- Generator: Sketch 51.3 (57544) - http://www.bohemiancoding.com/sketch -->
    <title>Group 28</title>
    <desc>Created with Sketch.</desc>
    <defs>
        <polygon id="path-1" points="0.00223926662 0.0267579032 15.4324163 0.0267579032 15.4324163 19.4499799 0.00223926662 19.4499799"></polygon>
        <polygon id="path-3" points="0 0.0413413589 5.73241292 0.0413413589 5.73241292 3.91826945 0 3.91826945"></polygon>
        <polygon id="path-5" points="0.0242195582 0.0387373131 20.7341055 0.0387373131 20.7341055 19.0641111 0.0242195582 19.0641111"></polygon>
    </defs>
    <g id="Page-1" stroke="none" stroke-width="1" fill="none" fill-rule="evenodd">
        <g id="Index-Opsi-1" transform="translate(-104.000000, -16.000000)">
            <g id="Group-28" transform="translate(104.000000, 16.000000)">
                <path d="M130.401053,17.7816398 C130.401053,19.319936 129.252124,20.3160759 127.474216,20.3160759 L124.547056,20.3160759 L124.547056,15.1959461 L127.395614,15.1959461 C129.333066,15.1959461 130.401053,16.0954382 130.401053,17.7299748 L130.401053,17.7816398 Z M127.735443,11 L120.26155,11 C120.117419,11 120,11.1185687 120,11.2641107 L120,29.7358078 C120,29.8821647 120.117419,30 120.26155,30 L124.285507,30 C124.429637,30 124.547056,29.8821647 124.547056,29.7358078 L124.547056,24.4584012 L127.343643,24.4584012 C131.994157,24.4584012 135,21.8065373 135,17.702594 L135,17.6497881 C135,13.6100594 132.148779,11 127.735443,11 Z" id="Fill-1" fill="#000000"></path>
                <path d="M178,15.0108856 L178,11.2640349 C178,11.1185712 177.881661,11 177.733841,11 L162.266488,11 C162.119821,11 162,11.1185712 162,11.2640349 L162,15.0108856 C162,15.1568383 162.119821,15.275002 162.266488,15.275002 L167.680004,15.275002 L167.680004,29.7358021 C167.680004,29.8824882 167.799825,30 167.946904,30 L172.053425,30 C172.201328,30 172.319914,29.8824882 172.319914,29.7358021 L172.319914,15.275002 L177.733841,15.275002 C177.881661,15.275002 178,15.1568383 178,15.0108856" id="Fill-3" fill="#000000"></path>
                <path d="M184.896996,21.7971964 L186.946866,16.8024824 L188.996736,21.7971964 L184.896996,21.7971964 Z M189.104863,11.1596761 C189.062877,11.0622356 188.968367,11 188.86332,11 L185.136269,11 C185.030736,11 184.935173,11.0622356 184.894726,11.1596761 L177.02068,29.6358122 C176.986637,29.7161763 176.994986,29.8094084 177.043051,29.882246 C177.092495,29.9570258 177.174522,30 177.261899,30 L181.383118,30 C181.489705,30 181.586484,29.9366313 181.626201,29.8380578 L183.238701,25.8854065 L190.654626,25.8854065 L192.268261,29.8380578 C192.308464,29.9366313 192.405162,30 192.511749,30 L196.736961,30 C196.825797,30 196.907905,29.9570258 196.956214,29.882246 C197.005819,29.8094084 197.013276,29.7161763 196.978585,29.6358122 L189.104863,11.1596761 Z" id="Fill-5" fill="#000000"></path>
                <path d="M140.466437,10 L145.533563,10 C145.791175,10 146,9.83355323 146,9.62953962 L146,8.37080758 C146,8.16582182 145.791175,8 145.533563,8 L140.466437,8 C140.208912,8 140,8.16582182 140,8.37080758 L140,9.62953962 C140,9.83355323 140.208912,10 140.466437,10" id="Fill-7" fill="#000000"></path>
                <g id="Group-11" transform="translate(200.000000, 11.000000)">
                    <mask id="mask-2" fill="white">
                        <use xlink:href="#path-1"></use>
                    </mask>
                    <g id="Clip-10"></g>
                    <path d="M9.43753734,12.8525573 L8.29724021,11.7259263 C9.52546148,10.1920953 9.9723269,8.73332307 10.1301458,7.79896242 C10.1673571,7.55420925 10.1923019,7.30637375 10.2049801,7.05812172 C10.2196341,6.75513762 10.2222686,6.45090393 10.1992173,6.14866958 C10.0725999,4.37325105 9.43185685,2.82934003 8.25961724,1.52784961 C8.24735067,1.51352097 8.23475479,1.49910903 8.21853657,1.480865 C8.23195571,1.46495355 8.24471624,1.44937531 8.258547,1.4353799 C8.27690569,1.41680265 8.29501741,1.39730903 8.31345843,1.37906501 L9.32927868,0.37289454 C9.33043124,0.373977518 9.33281869,0.376393394 9.33388893,0.379475718 C10.2242444,1.34565928 10.8753606,2.46370977 11.2903658,3.73254422 C11.4888537,4.33976201 11.6220572,4.96222482 11.6938454,5.59934949 C11.7226595,5.84951755 11.7418415,6.10051868 11.7499094,6.35335254 C11.7499094,6.37126334 11.754602,6.39067365 11.7580597,6.41008396 L11.7580597,6.93457885 C11.754602,6.9559052 11.7511443,6.97689832 11.7499094,6.99714169 C11.7383838,7.16067147 11.7314684,7.32620059 11.7180493,7.48973036 C11.6858598,7.89926291 11.6243623,8.30288072 11.5368498,8.70266645 C11.2082045,10.1975102 10.560546,11.5219098 9.59033435,12.6761984 C9.54003318,12.7367619 9.48899108,12.7939099 9.43753734,12.8525573 Z M6.14466285,9.59537408 C6.89135948,8.74615221 7.27911483,7.75039499 7.27565714,6.61210113 C7.27112921,5.45481349 6.86410958,4.44622715 6.08094254,3.58617549 L7.14442953,2.53368686 C9.24374199,4.67781796 9.3841901,8.31570985 7.2127601,10.6521113 L6.14466285,9.59537408 Z M5.21783698,8.67967398 L4.18925621,7.66150744 C4.34979187,7.34169551 4.43187087,6.99131027 4.43080063,6.60743599 C4.42964807,6.20073586 4.33283271,5.83160675 4.14817554,5.49713296 L5.17058187,4.48629736 C6.01565804,5.72130954 6.03253487,7.42833381 5.21783698,8.67967398 Z M2.07619532,8.06904063 C1.28257288,8.21774193 0.518587804,7.68558289 0.371553606,6.88326232 C0.364638224,6.84252566 0.358052146,6.80053942 0.35080746,6.76013598 L0.35080746,6.47073077 C0.359945643,6.41983077 0.368095915,6.37043028 0.378468988,6.31961359 C0.431075289,6.05653309 0.545014443,5.822693 0.725143684,5.6256742 C1.05568249,5.26404264 1.46492493,5.1024289 1.94760214,5.14399862 C2.6006118,5.20147979 3.13540136,5.7069809 3.24752934,6.36076678 C3.3830379,7.16067147 2.86282004,7.9198395 2.07619532,8.06904063 Z M15.2037312,18.8466775 L13.6276827,17.3120968 L9.69052507,13.2522597 C12.669079,13.0064236 15.0198973,10.1443609 15.0198973,6.64867249 C15.0198973,2.99253658 12.4478691,0.0267579032 9.27444958,0.0267579032 C9.21179951,0.0267579032 9.1499727,0.0302567572 9.08855752,0.0325060206 C8.99297705,0.0302567572 8.89731427,0.0267579032 8.79909938,0.0267579032 L0.269057763,0.0267579032 C0.122023565,0.0267579032 0.00223926662,0.147968205 0.00223926662,0.29675281 L0.00223926662,19.179985 C0.00223926662,19.3299359 0.122023565,19.4499799 0.269057763,19.4499799 L4.37391338,19.4499799 C4.52218247,19.4499799 4.64032024,19.3299359 4.64032024,19.179985 L4.64032024,13.4077088 L4.65653846,13.4077088 L10.2242444,19.3299359 C10.2733107,19.4057444 10.3567069,19.4499799 10.445372,19.4499799 L14.8148233,19.4499799 L14.9565063,19.4499799 L14.9937176,19.4499799 L15.1000828,19.4499799 L15.171871,19.4499799 C15.3473077,19.4488136 15.4010666,19.3691731 15.4318565,19.2432976 C15.4371253,19.1811513 15.4133331,19.0506107 15.2037312,18.8466775 Z" id="Fill-9" fill="#000000" mask="url(#mask-2)"></path>
                </g>
                <path d="M159.735382,11 L155.710258,11 C155.563802,11 155.445231,11.1181617 155.445231,11.2641119 L155.445231,21.8552336 L147.235199,11.1044713 C147.184091,11.0383822 147.107796,11 147.024388,11 L143.265027,11 C143.118571,11 143,11.1181617 143,11.2641119 L143,13.2015569 L143,19.4933027 L145.168299,19.4933027 L143,26.0857498 L143,29.7355622 C143,29.8825717 143.118571,30 143.265027,30 L147.289006,30 C147.435789,30 147.553951,29.8825717 147.553951,29.7355622 L147.553951,18.7754498 L156.055014,29.8958547 C156.106122,29.9620253 156.183153,30 156.265907,30 L159.735382,30 C159.881102,30 160,29.8825717 160,29.7355622 L160,11.2641119 C160,11.1181617 159.881102,11 159.735382,11" id="Fill-12" fill="#000000"></path>
                <path d="M141.712371,11 L137.286919,11 C137.127529,11 137,11.1181617 137,11.2641119 L137,29.7355622 C137,29.8825717 137.127529,30 137.286919,30 L141.712371,30 C141.871761,30 142,29.8825717 142,29.7355622 L142,28.200193 L142,21.927842 L139.034256,21.927842 L142,14.9705604 L142,11.2641119 C142,11.1181617 141.871761,11 141.712371,11" id="Fill-14" fill="#000000"></path>
                <path d="M98.9250357,35.415417 C98.4048407,35.7103245 97.1568812,36.2951897 96.1376501,35.8082012 C96.0569514,35.7654101 95.9854379,35.716312 95.925816,35.6611466 C95.6377938,35.3938618 95.6281986,34.9273108 95.8978503,34.2769017 C96.3840108,33.1019022 98.0587548,31.3792402 100.586822,30.3758842 C101.275959,30.1018933 102.108944,29.8502559 103.060106,29.7083906 C102.026687,32.7724265 101.274401,34.0040285 98.9250357,35.415417 M110.393764,28.8125712 C108.844005,28.1513845 107.381505,27.804026 106.033738,27.6726189 C106.225316,27.0549419 106.684248,25.6599193 107.528714,23.486753 C108.707867,20.4502599 109.614661,19.1895983 109.86627,18.6006615 C110.082041,18.0950717 109.894236,17.346706 109.322046,17.0153143 C109.301789,17.0027005 109.280713,16.9919229 109.25857,16.9807461 C109.230686,16.9670147 109.201244,16.9532033 109.171064,16.9416274 C109.160321,16.9356398 109.146543,16.9315683 109.135471,16.9267782 C109.095696,16.9115299 109.054363,16.8988363 109.011471,16.8876595 C108.959148,16.8750457 108.909367,16.8638689 108.861555,16.855646 C108.85319,16.8538098 108.844415,16.8530114 108.835968,16.8519736 C108.797341,16.8467045 108.758713,16.840717 108.722793,16.8388808 C108.71779,16.8377631 108.712869,16.8377631 108.707047,16.8377631 C108.668501,16.8355278 108.632089,16.8344101 108.596988,16.8344101 L108.592395,16.8344101 C108.104349,16.8463054 107.928353,17.143049 107.928353,17.143049 C107.762035,17.3325754 107.620156,17.6199784 107.406764,18.0518814 C107.251436,18.3664281 107.015818,18.8605218 106.718693,19.5276961 C105.379291,21.9979254 104.110665,23.4268774 103.210022,24.2246604 C101.681339,25.5788078 100.274279,26.2831848 99.4451486,26.1081883 C99.2306082,26.0631618 98.9142922,25.9317547 98.6461987,25.3244561 C98.376629,24.7131658 98.625532,23.7038222 99.0970945,22.6456999 C99.1522058,22.5042338 99.2389733,22.320695 99.3682224,22.0809529 C99.3701907,22.0753645 99.372487,22.071293 99.3755214,22.0668223 C99.3839685,22.0507756 99.3912675,22.0348088 99.3988125,22.0191613 C99.4061115,22.0065475 99.4137385,21.9945723 99.4206274,21.9822779 C99.6482076,21.5649048 99.8559411,21.2094031 100.043336,20.9093064 L100.042516,20.9104241 C100.04678,20.9037181 100.050225,20.8977305 100.054079,20.8918228 C100.055146,20.8903059 100.055146,20.8895874 100.056294,20.8880706 C100.106402,20.806959 100.156511,20.7276038 100.20662,20.6512824 C100.209654,20.6453746 100.21236,20.6409039 100.215805,20.636034 C100.527856,20.1591046 100.83958,19.7626481 101.110297,19.4505763 C101.513463,18.9845043 101.824448,18.708278 101.899406,18.6431333 C101.900472,18.6419358 101.900882,18.6408181 101.900882,18.6408181 C101.905885,18.6371458 101.909329,18.6337927 101.911626,18.6315574 C101.913512,18.6304397 101.917284,18.6266875 101.917284,18.6266875 L101.913512,18.6315574 C102.182015,18.3708988 102.46036,18.1159084 102.758716,17.8627542 C102.884193,17.7551377 103.003846,17.671711 103.116283,17.6058478 L103.118662,17.6040116 C103.122106,17.6017762 103.128585,17.5973055 103.136622,17.5928348 C103.19936,17.5529976 103.392086,17.4349228 103.579891,17.4100145 C103.662148,17.3984386 103.744733,17.4051447 103.813212,17.4468979 C103.852987,17.4706885 103.880871,17.5019835 103.899979,17.5369509 C103.910313,17.5541152 103.917202,17.5745528 103.922614,17.5957887 C103.924501,17.6918292 104.037676,17.7722222 103.274236,18.4041098 C102.832198,18.768952 102.451667,19.1110415 102.207193,19.3352159 C102.107796,19.4197603 102.013729,19.5082964 101.921959,19.6002654 C101.920401,19.6025007 101.917284,19.6047361 101.917284,19.6047361 L101.918515,19.6047361 C101.216665,20.317336 100.760849,21.2015794 100.681627,21.3605293 L100.846468,21.2790185 C102.078764,20.7897947 103.631148,20.3035247 104.706228,19.3668302 C104.751334,19.3277114 104.794144,19.2886725 104.835477,19.2506715 C104.848517,19.2387762 104.860737,19.2275994 104.872546,19.2168218 C104.902398,19.1888798 104.93143,19.161337 104.959806,19.1329959 C104.971615,19.1211006 104.983097,19.1099238 104.995727,19.0976293 C105.028613,19.0656957 105.060433,19.0340015 105.091679,19.0011896 C105.095944,18.9967988 105.101357,18.992328 105.105867,18.987059 C105.14105,18.9505748 105.174346,18.9141704 105.206494,18.877287 C105.216008,18.8676271 105.224127,18.8582865 105.23241,18.8482273 C105.256193,18.8218022 105.280222,18.7942594 105.302529,18.7674352 C105.311222,18.7562584 105.320408,18.7465984 105.329675,18.7350225 C105.353376,18.7059628 105.377405,18.6781007 105.399958,18.6490411 C105.404551,18.6434527 105.409553,18.6360281 105.414146,18.6311582 C105.440143,18.5953925 105.466551,18.5615428 105.491318,18.5280124 C105.497141,18.5202685 105.501324,18.5127641 105.507474,18.5056589 C105.526173,18.4792338 105.544133,18.4513716 105.562586,18.425665 C105.568326,18.4174421 105.574805,18.407383 105.580464,18.3981222 C105.598834,18.3720164 105.615647,18.345272 105.631721,18.3198847 L105.643612,18.3001657 C105.662311,18.2674337 105.68224,18.2361387 105.7002,18.205642 C105.702168,18.2000536 105.705203,18.1955829 105.707089,18.1911122 C105.722015,18.1642879 105.736613,18.1378628 105.74916,18.1125554 C105.753425,18.1047316 105.757608,18.0969079 105.76097,18.0894833 C105.773682,18.0652935 105.785081,18.0418223 105.796153,18.0187502 C105.799269,18.0116449 105.802714,18.005338 105.80542,17.9993505 C105.819116,17.9699715 105.830597,17.9405127 105.842899,17.9129699 C105.843637,17.9107345 105.844785,17.910016 105.844785,17.9077807 C105.855529,17.8817547 105.866272,17.8552498 105.875375,17.83106 C105.87882,17.8240346 105.881116,17.8169294 105.883412,17.809904 C105.890711,17.7893866 105.8976,17.7692684 105.904489,17.7495493 C105.905965,17.7428432 105.908262,17.7365363 105.911378,17.7298303 C105.926632,17.6795347 105.94,17.6307561 105.950743,17.5854102 C105.952629,17.5775067 105.954926,17.5704812 105.956074,17.5637752 L105.966407,17.5172318 C105.967145,17.5094081 105.969442,17.5011852 105.97059,17.4952774 C105.973624,17.4781131 105.976002,17.4628648 105.978299,17.4476164 C105.979037,17.442028 105.980513,17.4364397 105.981743,17.4315698 C105.983958,17.4129684 105.985926,17.3954847 105.988632,17.378001 C105.98937,17.3690596 105.990518,17.359719 105.991257,17.3526936 C105.992077,17.3422353 105.992815,17.3336931 105.993881,17.323634 C105.995111,17.3143732 105.994701,17.3061503 105.995849,17.2964105 C105.995849,17.2889859 105.996669,17.2819605 105.996669,17.2745359 C105.998555,17.2394887 105.998555,17.2081937 105.997325,17.1784156 L105.997325,17.1705918 C105.997325,17.1605327 105.997325,17.1508728 105.996669,17.1412128 C105.990518,17.0351132 105.972558,16.9766746 105.972558,16.9766746 L105.972148,16.9766746 C105.903341,16.6180594 105.732348,16.3023951 105.493286,16.0533124 C104.68712,15.2174485 102.987444,15.0466034 101.425465,16.3779981 C100.272802,17.3586013 99.3900373,18.3489444 98.3677718,19.4960019 C97.6108934,20.3455973 96.7526497,21.307679 95.6072038,22.4719009 C93.9821583,24.1234307 92.7583101,25.099643 91.8946536,25.6588017 C91.7872193,25.7243455 90.9029781,26.2470199 90.5810034,25.9592975 C90.366791,25.7675358 90.4173097,25.4268834 90.487265,25.1949651 C90.7320674,24.5110256 91.1581139,23.7514832 91.5386444,23.078002 C91.6537876,22.874345 91.7626981,22.6800286 91.8610291,22.499763 C91.9944608,22.2548318 92.1512656,21.9818787 92.3184038,21.693358 C93.2864601,20.0187561 94.3845037,18.1218161 93.6765858,16.7562524 C93.4284209,16.27597 92.9671098,15.9666125 92.4114041,15.9077747 C90.9243829,15.7513796 88.9822835,17.4342043 88.0467854,18.4129714 C88.0460473,18.4144882 88.0460473,18.4144882 88.0453092,18.4156059 C87.432934,19.0146018 86.5640288,20.2726288 86.5640288,20.2726288 C86.5398356,20.3035247 86.5150684,20.3367357 86.4913672,20.3679509 L86.4906291,20.3679509 C86.4075521,20.4763657 86.361298,20.5135684 86.3398931,20.5254637 C86.3146338,20.5384767 86.2828956,20.552288 86.2492711,20.5630656 C86.1436411,20.58502 86.0913182,20.5332874 86.0683551,20.4900972 L86.0667969,20.4900972 C86.0664689,20.4889795 86.0664689,20.4867441 86.0660588,20.4856264 C86.0622043,20.4785212 86.05999,20.4718151 86.0572837,20.4666259 C86.052281,20.4483439 86.0503948,20.4279063 86.0518709,20.4077881 C86.0526911,20.3966113 86.0538392,20.3866321 86.0561355,20.3732199 L86.0561355,20.3705854 C86.0607281,20.3459965 86.067617,20.3184537 86.0767202,20.2871587 C86.082461,20.2745449 86.0867256,20.2618512 86.0920563,20.2488383 C86.1605354,20.0883715 86.4611052,19.4312564 87.1124356,18.6665247 C87.862425,17.7826805 88.2231088,17.5711998 88.4495408,17.1613311 C88.6755628,16.7517817 88.5061283,15.8664206 87.88506,15.5098013 C87.88506,15.5098013 87.8838298,15.5098013 87.8838298,15.5086038 C87.7052101,15.3969158 87.4949343,15.3344056 87.2719467,15.3344056 L87.266616,15.3344056 C86.489809,15.336641 85.848894,16.0224166 84.9855656,17.7789283 C84.9753142,17.8001642 84.9645708,17.8221186 84.9549755,17.8433545 C84.211547,18.7003744 83.1735353,19.9695783 81.7408874,21.8780943 C79.890148,24.3460882 78.5511565,25.5697865 77.6600264,26.178123 C77.6492829,26.1829929 76.4928476,26.8851345 76.3056988,26.0065594 C76.1990847,25.5072764 76.1833386,24.9115537 76.2446007,24.2064582 C76.2446007,24.2064582 76.5700198,21.0939629 78.0699987,18.7402117 C78.4204312,18.1810531 78.5679687,18.0466123 78.7228873,17.998632 C78.75889,17.9900099 78.8146574,17.9896905 78.872065,18.0369524 C78.9408722,18.1043324 78.9225837,18.2067597 78.9206155,18.2157011 C78.9006868,18.3121408 78.8521364,18.4424302 78.7917764,18.5805433 C78.7748822,18.6177461 78.645305,18.8906991 78.3385843,19.4822704 C78.3025815,19.5511673 78.2574756,19.6356319 78.2061368,19.7354246 C78.2058087,19.73766 78.2047426,19.7391768 78.2027743,19.7413324 C78.2023643,19.7439669 78.2012161,19.7462022 78.200068,19.7484376 C77.8439767,20.4495414 77.1980591,21.8456816 76.9372645,23.227292 C77.2703107,22.9279936 77.5257746,22.6591121 77.6792169,22.4867501 C78.5573073,21.489701 79.1030897,20.4614367 79.4162892,19.7302354 L79.4273607,19.7060456 C79.4289189,19.7022934 79.4308051,19.6981421 79.4320353,19.6944697 C79.460247,19.6282073 79.4869826,19.5641803 79.5110938,19.5016701 C79.5841655,19.3236399 79.64879,19.148324 79.7020151,18.9785167 C79.7567163,18.8114238 79.7810736,18.7164211 79.7810736,18.7164211 L79.7808275,18.7175388 C80.1402812,17.3802364 79.8885898,16.3704936 79.0552773,15.9859324 C78.6945935,15.8206756 77.9545274,15.6680327 77.0523258,16.5224181 C76.5734643,16.9762754 76.0766424,17.6821693 75.5710454,18.6214983 C74.5908514,20.447306 74.1023947,22.2514787 73.9375528,23.7943542 C71.8288073,26.0538212 70.3887783,26.5337843 69.8689934,26.6331779 C69.4904312,26.7064656 69.2892586,26.6536154 69.2345573,26.6238373 C69.1806762,26.5419274 69.0264957,26.1848291 69.3852933,25.0408053 C69.6957865,24.050063 70.257971,22.8806519 70.8550101,21.6702859 C71.4695996,20.4249525 72.0146439,19.125252 72.2850337,18.4617501 C72.460209,18.0351162 72.6196381,17.6262853 72.7363396,17.3095033 C72.8318822,17.0541138 72.9106947,16.83928 72.9386604,16.6378583 L72.9390705,16.6378583 C72.9409567,16.6244462 72.9421049,16.6125509 72.943171,16.5998573 C72.9439911,16.5935504 72.9455493,16.587962 72.9455493,16.5823736 C72.9481737,16.5537131 72.95047,16.5257711 72.9516181,16.4996654 C72.9528483,16.4732402 72.9528483,16.4476135 72.9524382,16.4234237 L72.9524382,16.4219069 C72.9516181,16.3977171 72.9489938,16.374645 72.9466155,16.3500561 L72.9466155,16.3482199 C72.9443191,16.3258663 72.9409567,16.3039119 72.9363641,16.2830752 C72.9363641,16.2818777 72.9363641,16.279323 72.935954,16.2782053 C72.9317715,16.2588056 72.9275069,16.2379689 72.920618,16.2175314 C72.9198799,16.2168128 72.9198799,16.2156153 72.9187318,16.2134598 C72.9137291,16.1936609 72.9072502,16.1743411 72.9000333,16.1568574 C72.8996232,16.154622 72.8988031,16.1523867 72.8984751,16.151269 C72.8915862,16.1325878 72.8835491,16.1162218 72.8744459,16.0987381 C72.8740358,16.0965027 72.8732157,16.0942674 72.8724776,16.0927505 C72.8628824,16.0760652 72.8541072,16.0596193 72.8437738,16.0432533 C72.8434458,16.041018 72.8418876,16.0387826 72.8400013,16.0365473 C72.8307341,16.0212989 72.8200727,16.0053321 72.8098213,15.9915208 C72.8081811,15.9881677 72.8055568,15.985613 72.8035885,15.9832979 C72.7932551,15.9691672 72.7822657,15.9554357 72.7707021,15.9416244 C72.7680778,15.9378722 72.7653714,15.9349183 72.7626651,15.9323636 C72.7512656,15.91967 72.7401121,15.906657 72.7267443,15.8943626 C72.7229718,15.8894927 72.7194453,15.886938 72.7156728,15.883585 C72.7041913,15.8708913 72.6922997,15.8593154 72.679342,15.8481386 C72.6528525,15.8240287 72.6250508,15.8016751 72.6001195,15.7818762 C72.5985613,15.7796409 72.595937,15.778603 72.5944608,15.7774853 C72.4961297,15.7037185 72.4066559,15.6590912 72.3416212,15.6311493 C72.332026,15.6285147 72.3232508,15.624044 72.3141476,15.6214893 C72.3025841,15.6169388 72.2911025,15.6125479 72.2811792,15.6087957 C72.2590363,15.6020896 72.2372214,15.5949844 72.2172928,15.5886775 C72.2135203,15.5871606 72.2108139,15.5861228 72.2066313,15.5861228 C72.1829302,15.5790176 72.1592291,15.5734292 72.1366761,15.5678408 L72.136266,15.5678408 C72.0998532,15.5592985 72.0650806,15.5540295 72.0317842,15.5492394 C72.0066068,15.545088 71.9817575,15.5429325 71.9572363,15.5406971 C71.6803676,15.5108392 71.442126,15.5570632 71.2474322,15.6482338 C71.2474322,15.6482338 71.246284,15.6493515 71.2448078,15.6493515 C71.2183183,15.6613266 71.1923209,15.6750581 71.1674716,15.6895879 C71.1655853,15.6895879 71.1644372,15.6907056 71.1621409,15.6918233 C71.1384397,15.7059539 71.1143285,15.719366 71.0916935,15.7350135 C71.0894792,15.7372489 71.0867729,15.7383666 71.0844766,15.7406019 C71.0634818,15.7547326 71.042405,15.7695817 71.0225584,15.7849099 C71.0187039,15.7882629 71.0152594,15.791616 71.0118149,15.7942505 C70.9927064,15.809419 70.974746,15.8236295 70.9578518,15.8395963 C70.9525211,15.8441469 70.9479285,15.8478192 70.9437459,15.8526891 C70.9276718,15.8675383 70.9127458,15.8816689 70.8978198,15.8969971 C70.8924891,15.9025855 70.8867484,15.9092117 70.8810076,15.9151993 C70.869116,15.9290106 70.8565684,15.9431413 70.8443487,15.9568727 C70.8374598,15.9654948 70.831637,15.9747556 70.8247481,15.983697 C70.8144148,15.9956722 70.8049015,16.008286 70.7957163,16.0201813 C70.7872692,16.0324757 70.7803803,16.0432533 70.7728353,16.055947 C70.7662744,16.0652876 70.7597135,16.0753467 70.7540548,16.0853259 C70.7402769,16.106961 70.7276473,16.1289154 70.7161657,16.151269 C70.5318053,16.5127582 69.7592629,17.5514807 68.5691211,19.1803375 C67.3788973,20.8095137 64.2630582,24.7514862 62.670489,25.8140791 C62.6681107,25.8163145 62.6654864,25.8174322 62.662452,25.8192684 C62.6616319,25.8207852 62.6601557,25.8207852 62.6590075,25.8219029 C61.8711291,26.3464135 61.4087518,26.3989444 61.1433646,26.321106 C60.8763372,26.2071827 60.8082682,26.0218077 60.7956385,25.8918376 C60.7944903,25.8732363 60.7933422,25.8535172 60.7933422,25.833399 C60.7941623,25.8293275 60.7941623,25.8233399 60.7941623,25.8177515 C60.7976067,25.7656198 60.80712,25.7131687 60.8254904,25.6554486 C60.8259005,25.6543309 60.8262285,25.6543309 60.8262285,25.6520956 C60.9268559,25.3568688 61.282537,24.9450841 62.323501,23.8959831 C62.3774642,23.8412168 62.4306893,23.7864506 62.4830942,23.7332012 C62.5003165,23.7157175 62.5177848,23.6979145 62.5358272,23.6796324 C62.5687956,23.6449844 62.6028301,23.6107355 62.6348963,23.5761673 C62.655153,23.5549314 62.6746716,23.5355317 62.6937801,23.5142958 C62.7239601,23.4826815 62.753402,23.452105 62.7816958,23.4220075 C62.8004763,23.4014901 62.8181086,23.3832879 62.8368071,23.3631697 C62.8651008,23.3329924 62.8941327,23.3024958 62.9220984,23.2719991 C62.9397307,23.2533179 62.9561329,23.233998 62.9725351,23.2165143 C63.0009109,23.1859378 63.0287945,23.1558404 63.054792,23.125663 C63.0724243,23.1080995 63.0884165,23.0906158 63.1037525,23.0708968 C63.1308981,23.0429548 63.1568955,23.013975 63.183385,22.9845162 C63.1993772,22.9674317 63.2139751,22.9491497 63.2299672,22.9327836 C63.2544885,22.903724 63.2800759,22.8765804 63.3041871,22.8475207 C63.3195231,22.8311547 63.334039,22.8139904 63.3481449,22.7972252 C63.3725841,22.7697622 63.3966953,22.7421396 63.4203965,22.7153153 C63.4334362,22.6985502 63.446886,22.6844195 63.4598437,22.6684527 C63.4839549,22.641309 63.507656,22.6136864 63.5309471,22.5854251 C63.5425107,22.5708953 63.5543202,22.5578823 63.5662118,22.5437517 C63.5895029,22.5162089 63.6120559,22.4889854 63.6334607,22.4625603 C63.6450242,22.4495473 63.6564238,22.4361352 63.6670852,22.4220045 C63.6893101,22.3947811 63.710715,22.3694737 63.7313817,22.343767 C63.7420431,22.3311532 63.7523765,22.3184596 63.7631199,22.3054466 C63.7841967,22.27974 63.8036333,22.2541133 63.8247101,22.228726 C63.8342233,22.2172299 63.8430805,22.2053346 63.8522657,22.1937586 C63.8729325,22.1684512 63.8927791,22.1434631 63.9118876,22.1192733 C63.9210728,22.1088949 63.9283718,22.0973189 63.9363269,22.087659 C63.9562555,22.0623516 63.975036,22.0377626 63.9937345,22.0150099 C64.0009514,22.0046314 64.0090705,21.9949715 64.0166975,21.9856309 C64.0349859,21.9614411 64.0534384,21.9383691 64.0690205,21.9148978 C64.0767295,21.9063556 64.0836184,21.8962965 64.0900973,21.8880735 C64.1081396,21.8646821 64.1249519,21.8415302 64.140944,21.8206935 C64.1475049,21.8121512 64.1536557,21.8028106 64.1597245,21.7950667 C64.1761267,21.7730325 64.1918727,21.7518764 64.2075368,21.7309599 C64.2128675,21.7228168 64.2182802,21.7157115 64.223939,21.7074886 C64.2385369,21.6866519 64.2546111,21.6658152 64.269127,21.645697 C64.2737196,21.6386715 64.2783122,21.6323646 64.2829048,21.6263771 C64.2974207,21.6055404 64.3100504,21.5858213 64.3242383,21.5668208 C64.3287489,21.5605139 64.3333415,21.5545263 64.337196,21.5496564 C64.3509738,21.5292189 64.3639316,21.5098192 64.3765612,21.4926548 C64.3800057,21.4867471 64.3827121,21.4826756 64.3868946,21.478604 C64.3968999,21.4625573 64.4060851,21.4495444 64.4160085,21.4354137 C64.5222946,21.273031 64.7410996,20.9063526 64.8963461,20.4197632 C65.0597118,19.8661132 65.0875135,19.3195684 64.8569809,18.8683456 C64.6886946,18.5403867 64.4164185,18.3057541 64.0759094,18.1799354 L64.0748432,18.1799354 C63.5631774,17.9535257 63.2945918,18.0816595 62.6608938,18.0682474 C62.1132252,18.0559529 61.3115689,17.809904 61.1035073,17.7432424 C58.7300306,16.9695694 58.7429883,16.2975252 58.8256553,16.0674431 C58.8325442,16.0488417 58.8409093,16.0317572 58.8509146,16.0141937 C58.8700232,15.9877686 59.0027168,15.8213941 59.2367758,15.9799448 C59.4906815,16.1515883 59.4149854,16.3984356 60.1137181,16.7465126 C60.8109745,17.0961864 61.063732,17.0030997 61.063732,17.0030997 C61.063732,17.0030997 61.1008009,16.9766746 61.1570604,16.4568742 C61.1643594,16.3958809 61.1701001,16.3348078 61.1757589,16.2778062 L61.1757589,16.2755708 L61.1757589,16.2733354 C61.2304601,15.5961819 61.1142507,15.0797346 60.8281968,14.6817612 C60.6174288,14.3910051 60.1233133,13.9147942 59.177892,14.0131499 C57.3324833,14.2014787 57.0536464,15.3869365 57.0116568,15.745392 C56.922511,16.5190651 57.3501157,17.3705765 58.1077321,18.1024962 C58.45349,18.4259844 60.2678985,20.003907 62.8800268,20.0957961 C62.866249,20.128608 62.8501749,20.1654115 62.8341827,20.2007781 C62.6949283,20.4952864 62.2226277,21.3735422 61.1620631,22.2667271 L61.1612429,22.2667271 C60.5397646,22.7846114 59.7744391,23.4264782 59.2791754,24.2172358 C58.6657341,25.2015913 58.5919243,26.2369608 59.0600424,27.2295392 C59.2054476,27.5106354 59.5465309,28.011036 60.2318957,28.3416294 C60.5650239,28.4890831 60.9260358,28.5586985 61.3069763,28.5482402 C62.5013826,28.5151091 63.831599,27.6811612 65.4184274,25.9588984 L65.4184274,25.960016 C65.4184274,25.960016 65.4345015,25.941734 65.4631233,25.9112373 C65.5434939,25.8230206 65.6252588,25.7321693 65.7071876,25.6402003 C65.7595926,25.5739379 65.8092912,25.5072764 65.8578416,25.4406148 C66.245589,24.9529078 66.8143344,24.1595157 67.2462037,23.2391872 C67.6825015,22.3333886 67.6909487,22.1021888 67.9812671,22.0116568 C67.9995556,22.0095013 68.0163678,22.0079845 68.0325239,22.0091022 L68.0335901,22.0091022 C68.2321384,22.0482209 68.2450961,22.2243351 68.2436199,22.2916353 C68.2347628,22.4000501 68.1968737,22.5526133 68.1055136,22.7700816 C68.0895215,22.8088012 68.0745135,22.8423315 68.0596695,22.8758619 C67.1394255,24.9916274 66.7309294,26.7038311 67.6446945,27.8464978 C68.0872252,28.4015849 68.8471379,28.6878702 69.729821,28.636457 C70.7502003,28.5769007 71.9117202,28.0824876 73.1279415,27.2001602 L73.1879735,27.1561716 C73.230127,27.1245573 73.2717066,27.0943799 73.3145982,27.0624463 C73.3141882,27.0616479 73.3141882,27.0616479 73.3141882,27.0605302 L73.3757784,27.0147054 C73.3757784,27.0147054 73.2488255,26.0013701 73.3168945,25.7142864 C73.3857017,25.428001 73.5654695,25.3497635 73.70538,25.3922353 C73.70538,25.3922353 73.863743,25.4295179 73.8940051,25.7522077 C73.9177062,26.0121478 73.9678969,26.5661171 74.1594743,27.1390871 C74.1602124,27.1402048 74.1602124,27.1424401 74.1602124,27.1435578 C74.1613605,27.1446755 74.1613605,27.1457932 74.1613605,27.1457932 C74.1671013,27.1610415 74.1716939,27.1758906 74.1773526,27.1912188 C74.1854717,27.2131732 74.1923606,27.2355268 74.2003977,27.2571618 C74.2068765,27.275364 74.2137655,27.2913309 74.2199163,27.3092137 C74.2336121,27.3438618 74.2454216,27.3740391 74.2581333,27.4041366 C74.2626439,27.4157125 74.2676466,27.4276078 74.2723212,27.4387846 C74.3100462,27.526682 74.3422765,27.5940621 74.3640914,27.6372524 C74.3750808,27.6554546 74.3847581,27.6766905 74.3961576,27.6960902 C74.7465081,28.3118512 75.3806162,28.6905048 76.1379046,28.7366489 C76.1932619,28.7404011 76.2503415,28.7422373 76.3056988,28.7418381 C77.5988462,28.7377666 79.1386004,27.8103329 80.9101993,25.9804536 C81.1281842,25.7433461 81.3163171,25.5176548 81.4823071,25.3047371 L81.4808309,25.3069724 C81.4808309,25.3069724 81.4858336,25.3002663 81.4923124,25.2917241 C81.5106009,25.268652 81.5297914,25.2444623 81.5474237,25.220991 C81.5515243,25.2150034 81.6008948,25.142035 81.6804454,25.0210064 C81.8984303,24.6990351 82.2697755,24.1249475 82.6576049,23.4145829 C82.9483335,22.8810511 83.125723,22.5641892 83.2603849,22.3943819 C83.3204168,22.3233295 83.4496659,22.2019815 83.5945792,22.2593025 C83.6095051,22.2663279 83.6596138,22.2942699 83.6864313,22.3609314 C83.6925822,22.3772974 83.6975028,22.3929449 83.7009473,22.4126639 C83.7009473,22.4126639 83.7020954,22.4126639 83.7020954,22.4134623 C83.7020954,22.416017 83.7025055,22.4182523 83.7032436,22.4216054 C83.7032436,22.4238407 83.7039817,22.4264753 83.7043917,22.4298283 C83.7522041,22.742938 83.4106288,23.173324 82.4974377,24.9138689 C81.9126182,26.0285138 81.8475835,26.6271903 81.9057293,26.9403 C81.9886422,27.2035133 82.1689021,27.4023004 82.4457709,27.5322704 C83.2794934,27.9217016 83.8593103,27.1926558 84.2837985,26.6592038 C84.62644,26.2288177 85.1048914,25.5802448 85.712674,24.7593099 C86.5104757,23.6803509 87.5794055,22.2347136 88.9096218,20.5098162 C89.0140217,20.3761738 89.4599968,19.8143806 89.9373001,19.3459935 C90.095253,19.1974221 90.2566504,19.0574727 90.4173097,18.9252673 C90.4310875,18.9141704 90.4440453,18.9041113 90.4566749,18.8943715 L90.4566749,18.8954892 L90.4582331,18.8932538 C90.4819343,18.8735348 90.5040772,18.8564503 90.5240059,18.8385674 C90.6941784,18.7022905 91.1458943,18.3641927 91.3561702,18.4487371 C91.5998245,18.5474121 91.4854193,18.9956811 91.3343553,19.3124631 C91.0961137,19.7868378 90.8130942,20.2759819 90.5518896,20.726087 C90.3794207,21.0261837 90.215727,21.3099144 90.0703217,21.5768799 C89.9766653,21.7496411 89.8714453,21.935016 89.7624529,22.1286139 C88.8032537,23.8293215 87.4906697,26.1572863 88.8533624,27.6722198 C89.2167525,28.0761807 89.7166088,28.2962037 90.3001982,28.3084982 C91.7417033,28.3401125 93.8401975,27.0166214 96.5339267,24.3725133 C96.4852942,24.9834843 96.5503288,25.5728202 96.7843879,26.1033184 C97.3725698,27.4354316 98.3221737,27.8896881 99.0159857,28.035625 C99.2462723,28.0836851 99.4788551,28.106358 99.7128321,28.1052404 C100.18095,28.1037235 100.653661,28.0103175 101.121041,27.8524055 L101.119975,27.8539224 C101.119975,27.8539224 102.747644,27.3993465 103.34575,26.3844145 C103.653701,25.8684462 103.67814,25.1949651 103.982236,25.0355362 C103.988715,25.0321832 104.19489,24.9357435 104.318071,25.1051516 C104.358584,25.1770024 104.389584,25.2879719 104.375396,25.4577792 C104.358584,25.5746564 104.330618,25.6956851 104.307327,25.7894902 C104.296994,25.8219029 104.289285,25.8508827 104.282806,25.877707 C104.269848,25.9242503 104.261401,25.95331 104.261401,25.95331 C104.19366,26.1599208 104.126411,26.3714016 104.05949,26.584 L103.859876,27.2154086 C103.81354,27.3628623 103.769172,27.5058453 103.725214,27.6465131 C102.188494,27.7627517 100.867545,28.1339008 99.8219066,28.5490386 C97.1041483,29.6287161 94.8262143,31.5870486 94.0180791,33.5397927 C93.2172429,35.4753725 93.9939679,36.5941687 94.5286788,37.0900986 C95.2265913,37.7363564 96.2023567,38.0033219 97.1538468,37.9999688 C97.6028564,37.998452 98.044977,37.9359418 98.452243,37.8264892 C98.4633965,37.8242538 98.4733198,37.8209008 98.4848013,37.8186654 C98.5337618,37.8045348 98.5827223,37.7888873 98.6343071,37.7736389 C98.6683416,37.7627815 98.7001619,37.7512854 98.7322281,37.7401086 C98.7556012,37.732684 98.7784822,37.7248602 98.8010352,37.7155196 C98.8449931,37.7006705 98.8875567,37.685023 98.9288082,37.668657 C100.518343,37.048026 103.139738,35.2337942 104.04153,33.1007845 C104.522688,31.9641853 105.00606,30.6517911 105.375519,29.6034086 C106.654068,29.6763771 108.065311,29.9727216 109.579478,30.6190591 C110.091554,30.8382838 110.688921,30.6108362 110.914205,30.1126709 C111.139161,29.6145056 110.906578,29.0322749 110.393764,28.8125712" id="Fill-16" fill="#000000"></path>
                <path d="M113.457401,31.1030138 C112.973466,30.8755564 112.373486,31.0372157 112.11626,31.4654 C111.858954,31.8925916 112.04326,32.4220256 112.52591,32.6498375 C113.249082,32.9893928 114.047262,33.4579209 114.198562,33.6319173 C114.389855,33.8693011 114.689564,33.997565 114.996179,33.9999048 C115.198474,34.0025282 115.404062,33.9509816 115.581222,33.8395218 C116.028456,33.5600924 116.13398,33.0138544 115.817567,32.6177892 C115.342707,32.0265277 114.009035,31.3618813 113.457401,31.1030138" id="Fill-18" fill="#000000"></path>
                <g id="Group-22" transform="translate(0.000000, 14.000000)">
                    <mask id="mask-4" fill="white">
                        <use xlink:href="#path-3"></use>
                    </mask>
                    <g id="Clip-21"></g>
                    <path d="M4.82148216,1.77091001 C3.17877017,1.50989549 1.81832823,0.330956608 1.79628545,0.313024981 C1.35166856,-0.0819081742 0.669654431,-0.0414964095 0.273934034,0.403120474 C-0.123360848,0.84861207 -0.0838237968,1.53228816 0.362105157,1.92923316 C0.435843506,1.99448678 2.19602953,3.54290466 4.4824432,3.90512353 C4.54166131,3.91535768 4.59869263,3.91859412 4.65659866,3.91824423 C5.17714068,3.91658228 5.63531562,3.53844362 5.71893824,3.00731757 C5.81227017,2.41828549 5.41086413,1.86432941 4.82148216,1.77091001" id="Fill-20" fill="#000000" mask="url(#mask-4)"></path>
                </g>
                <g id="Group-25" transform="translate(7.000000, 0.000000)">
                    <mask id="mask-6" fill="white">
                        <use xlink:href="#path-5"></use>
                    </mask>
                    <g id="Clip-24"></g>
                    <path d="M8.16130617,15.5580546 C8.44160017,14.5114807 8.73249808,13.5200554 9.03074358,12.580613 C9.56578199,10.9539791 11.02979,6.98469577 13.31748,4.42220168 C14.2098786,3.49217294 15.2281883,2.76099574 16.3866032,2.37137335 C17.3490545,2.16194194 19.3018445,2.30997679 18.4587916,6.19687046 C18.4587916,6.19687046 18.4580401,6.20070254 18.4568712,6.20536767 C18.4206342,6.33049336 18.3828943,6.45520252 18.3443194,6.57874539 C18.0729594,7.4050581 17.2797533,9.46879887 15.5245134,11.6629969 C13.6629004,13.8467817 11.1373321,15.386694 7.97987071,16.2530769 C8.03748252,16.0246518 8.09701473,15.7934775 8.16130617,15.5580546 M7.4864965,18.4970087 C7.53049857,18.4853458 7.57216276,18.4760156 7.61265802,18.4679349 C7.62977457,18.4640195 7.64613967,18.4593544 7.66283875,18.455439 C11.1493554,17.6470371 14.0802938,16.0743855 16.3063641,13.8436161 C20.9780977,8.58142282 20.8339847,4.7970789 20.6798522,3.75750271 C20.1448138,0.628527484 17.077277,-1.70712423 13.0141412,1.76565506 C8.53085673,5.59856641 6.15249079,15.0114003 5.83170153,16.3513781 C5.80206067,16.4799193 5.77292078,16.606961 5.74444886,16.7344193 C3.16043379,17.141536 1.20889623,16.9679262 1.15671162,16.9628445 C0.59136439,16.9068628 0.0851318911,17.3210605 0.0291899854,17.8867086 C-0.026250948,18.4519401 0.388470613,18.9550254 0.954986777,19.0121733 C1.05008802,19.0203373 2.83730666,19.1885322 5.32814088,18.8723024 C5.32814088,18.8723024 6.29660382,18.7977435 7.4864965,18.4970087" id="Fill-23" fill="#000000" mask="url(#mask-6)"></path>
                </g>
                <path d="M59.8421302,19.7895808 C59.8477481,19.7778436 59.8911439,19.6868601 59.9593723,19.5396999 L60,19.4434549 L59.9590467,19.4181188 C59.545931,19.2256287 58.5575961,18.6798086 58.2431593,18.4151955 C58.1373157,18.7189865 57.6736393,19.5332242 57.6736393,19.5332242 C55.7497286,22.7626534 52.6385784,26.4542043 51.1251779,25.7860745 C51.0571937,25.7554768 50.971379,25.717675 50.9318912,25.4587281 C50.8570679,24.9646326 51.0351294,24.1715218 51.4250409,23.1960393 C52.9469089,21.3093455 53.9766042,19.8635656 55.0568601,17.6567297 C55.215137,17.3339972 55.544392,16.6613344 55.0439146,16.1086338 C54.7606609,15.7968291 54.3175834,15.6889278 53.9139122,15.8349548 C53.6545954,15.9286095 53.3759011,16.0935778 52.5873664,17.1558347 C52.0975548,17.8145748 51.5628818,18.623551 51.081782,19.4336604 C50.6076027,20.23009 50.0855496,21.1927021 49.6724339,22.1726366 C49.6724339,22.1726366 49.1495666,22.994888 48.2231095,23.9246359 C47.9763311,24.198315 47.7018705,24.4447961 47.413976,24.6626223 L47.4112892,24.6660221 L47.4116963,24.6648888 C46.2324359,25.5553779 44.8374173,25.9370391 44.1942954,25.600303 C43.6804655,25.3311569 43.6185877,24.3342236 44.027144,22.9352307 C44.1562731,22.493912 44.3077109,22.0877241 44.473234,21.705739 L44.4721755,21.705739 C44.4755951,21.6985348 44.4782005,21.6940018 44.4816201,21.6867976 C44.4949726,21.6562809 44.5078367,21.626088 44.5200494,21.5973521 L44.5176883,21.5996186 C44.5176883,21.5996186 44.5230619,21.5872338 44.5337277,21.5675639 C44.5405668,21.5539649 44.5510697,21.5373709 44.5636895,21.519239 C45.0375431,20.5770253 45.5064302,19.9039578 45.8629603,19.4604536 C45.9768643,19.3210643 46.2103715,19.046252 46.4894729,18.7831769 C46.9765977,18.318141 47.467142,17.9625444 47.9125807,17.6903224 L47.9094868,17.6918603 C47.9094868,17.6918603 47.9163259,17.6877321 47.9288643,17.6809326 C48.1623716,17.538953 48.3814678,17.421581 48.5827335,17.3234742 C48.8400962,17.1932318 49.1226172,17.0652559 49.3348743,17.0074603 C49.3348743,17.0074603 49.52466,16.9470745 49.5775004,17.0482572 C49.6147085,17.227553 49.3603582,17.5053603 48.6862973,17.8991635 C48.6862973,17.9002158 48.6848318,17.9002158 48.683692,17.9013491 C48.5740217,17.9753339 48.4566168,18.0497234 48.3344081,18.124113 L48.335548,18.124113 C48.335548,18.124113 48.238009,18.1818276 48.0761498,18.2958808 C47.9053345,18.417381 47.7610615,18.5295725 47.6520426,18.6178038 C47.0855352,19.0813826 46.2741219,19.8719031 45.651436,21.003207 C47.2902204,20.324878 49.9484414,19.0851871 50.7457693,17.8874263 C51.2086315,17.1932318 51.3142308,16.5662226 51.0602062,16.025583 C51.0063074,15.9108823 50.9394631,15.8119661 50.8646398,15.721792 C50.8646398,15.721792 50.8635814,15.7194446 50.8627672,15.718716 C50.719227,15.5318113 50.5749541,15.3876461 50.4363804,15.2762642 L50.4322281,15.2729454 C50.4249818,15.2668744 50.4181427,15.2619367 50.4108965,15.2559467 C50.3182426,15.1838236 50.2271357,15.1264328 50.1398555,15.0811839 C49.7654134,14.9033451 49.359544,14.9316763 49.0622863,14.9973236 C48.3749544,15.1902184 45.2371804,16.242276 43.22143,19.724662 C41.1202719,19.9552777 39.6789265,19.3686606 38.7023158,18.5650269 C38.6435319,18.5204255 38.5823869,18.4675677 38.5162754,18.4053201 C37.6372851,17.5570849 37.075337,16.3574624 37.075337,16.3574624 C36.2161313,14.363515 36.3498199,11.8924706 37.3487392,10.6822442 L37.3471922,10.6822442 C37.3471922,10.6822442 37.7967832,10.0767667 38.0891558,10.1069596 C38.0955878,10.1069596 38.1024269,10.1080929 38.1092661,10.1092261 L38.1099988,10.1092261 L38.1104059,10.1092261 C38.2361155,10.1242821 38.3067051,10.2360688 38.3021456,10.4051654 C38.3025527,10.4051654 38.3036926,10.4040321 38.3036926,10.4040321 C38.3032855,10.4112363 38.3021456,10.4183596 38.3021456,10.4236211 C38.3006801,10.4451528 38.2975862,10.4662797 38.293841,10.4889447 C38.2304163,10.9630465 38.0070863,11.4960772 37.6905325,12.5716092 C37.6862988,12.5848034 37.6824721,12.5984024 37.6787269,12.6104633 C37.478194,13.3027961 37.4399275,13.815833 37.4405788,14.1086964 C37.4435913,14.2283348 37.4508375,14.3461115 37.4626431,14.4549032 L37.4626431,14.4560364 C37.4707035,14.5345543 37.480148,14.6092676 37.4914652,14.6813906 L37.4914652,14.6825239 C37.4968388,14.7153071 37.502538,14.7493045 37.5089701,14.7821686 C37.5089701,14.7847589 37.5089701,14.7871064 37.5101099,14.7908299 C37.5154021,14.8221561 37.5211828,14.8527537 37.5268006,14.8814087 C37.5276148,14.8833514 37.5280219,14.8852131 37.5280219,14.8871558 C37.5534244,15.0139176 37.5815136,15.124571 37.6076489,15.2151498 C37.608056,15.2174163 37.608056,15.2185495 37.6088701,15.2200875 C37.614488,15.2408097 37.6205943,15.2612082 37.6259679,15.2807972 C37.6259679,15.2830637 37.6270264,15.2838731 37.6270264,15.2846016 C37.6456711,15.3453922 37.6627689,15.3955789 37.675633,15.4325713 L37.6764472,15.4333807 C37.6798668,15.4454417 37.6836934,15.4548315 37.687113,15.4638974 C37.6881714,15.4650307 37.6889042,15.4672972 37.6893113,15.4684304 C37.691591,15.4759584 37.6939521,15.4820294 37.6961504,15.4865624 C37.6972902,15.4888289 37.6972902,15.4895574 37.698023,15.4922286 C37.6991629,15.4967616 37.7011169,15.4997566 37.7018497,15.5016184 C37.7025824,15.5027516 37.7025824,15.5039658 37.7033966,15.5050181 C37.7038037,15.5076893 37.7052692,15.5088226 37.7052692,15.5088226 L37.7052692,15.5076893 C38.0241841,16.4426988 38.5359786,17.1351125 38.7395239,17.3895263 C39.0866095,16.5544854 39.8600004,14.3721762 40.0695707,11.0982266 C40.1045806,9.62039208 39.79625,8.72642237 39.1169784,8.27190952 C38.8671876,8.10467469 38.5315006,7.97564647 38.1065793,8.00389669 C38.1065793,8.00389669 36.9675394,8.00543466 35.8353387,9.36330698 C35.8068423,9.39835668 35.7794858,9.43162556 35.7513151,9.46554202 C35.747977,9.47047974 35.7445574,9.47614597 35.739998,9.47995044 C35.678853,9.55806351 35.6188478,9.63884781 35.5611224,9.72076535 C35.5463857,9.74343028 35.5307534,9.76382872 35.5156096,9.78527946 L35.5166681,9.78422716 C34.2212239,11.7120416 34.1061801,14.8172993 35.3618107,17.4408462 C35.4317489,17.5872779 35.5064908,17.7307145 35.5840009,17.8704276 C35.5840009,17.8704276 35.4468927,18.330202 35.1616849,19.0511897 C35.1408419,19.1040476 35.1192661,19.1565816 35.0967947,19.2120298 C35.0956548,19.2154295 35.0933751,19.219234 35.0919096,19.2240908 C35.0713922,19.2758154 35.0500607,19.32754 35.027345,19.3815311 C35.0249839,19.3852546 35.0239254,19.3890591 35.0223785,19.3924588 C34.9999885,19.4475832 34.9760516,19.503436 34.9513819,19.5608269 C34.9505677,19.5630934 34.9499163,19.5653599 34.9491022,19.5676264 C34.9248396,19.6246125 34.89903,19.6824081 34.8735461,19.7420654 C34.7703079,19.9786711 34.654857,20.23009 34.5284146,20.4939746 C34.4653155,20.6245408 34.4000996,20.7578591 34.3301614,20.8937678 C34.3286959,20.8956295 34.3282888,20.8993531 34.3263348,20.9017005 C34.258432,21.0345332 34.1885753,21.1697133 34.1152989,21.307079 C34.1118794,21.311612 34.1091926,21.3184115 34.1061801,21.3237539 C34.033718,21.4595816 33.9573477,21.5977568 33.8786978,21.7359319 C33.8752782,21.7415982 33.8722658,21.7472644 33.8696604,21.7533354 C33.787998,21.8959625 33.7037302,22.0398039 33.6163685,22.1859118 C33.5894191,22.2297037 33.5654822,22.2708243 33.5456976,22.3036885 C33.519888,22.3459424 33.4937528,22.3878725 33.4678618,22.4289932 L33.4675362,22.4301264 C33.322449,22.6634134 33.179723,22.8842346 33.0411493,23.092671 C31.7395989,24.9510336 30.7193481,25.8290569 30.2306764,26.1861915 C29.6451171,26.5912462 29.080238,26.8581258 28.5626628,26.9362389 C28.3595246,26.9668365 28.1670521,26.9868303 27.9828842,26.9951677 C27.9703458,26.9958962 27.95968,26.9973533 27.9464089,26.9985674 L27.9373715,26.9985674 L27.9305323,26.9985674 C27.3939868,27.0283556 26.9352769,26.9525091 26.5571711,26.775075 C26.5556241,26.775075 26.5544843,26.7739418 26.5533444,26.7739418 C26.511984,26.7535433 26.4717634,26.7331449 26.432927,26.7108847 C26.4295074,26.7097514 26.4273091,26.707485 26.4238896,26.7056232 C26.3866815,26.6852248 26.3502061,26.6629646 26.3152778,26.6391664 C26.3107183,26.6373046 26.3062403,26.6346334 26.3015995,26.6323669 C26.2682181,26.609702 26.2358951,26.5863085 26.2036535,26.5621056 C26.1982799,26.5572488 26.1933948,26.5527158 26.1876955,26.5493161 C26.1573266,26.5259227 26.1268762,26.5002627 26.0981356,26.474198 C26.0920292,26.4693413 26.0863299,26.4647273 26.0806307,26.4598706 C26.0518086,26.4330774 26.0247778,26.4073365 25.9978284,26.3790863 L25.9807306,26.362897 C25.9530484,26.3337564 25.9264247,26.304292 25.9006151,26.2733705 C25.8968699,26.2692423 25.8923105,26.2635761 25.8877511,26.2586383 C25.8584405,26.2247219 25.8308398,26.18692 25.8030762,26.1506561 C25.8026691,26.1495229 25.8026691,26.1495229 25.8015293,26.1480658 C25.4024989,25.594232 25.2202851,24.7765946 25.2703573,23.7038147 C25.3136717,22.7559349 25.4511056,21.9775563 25.5961927,21.3909393 C25.5969255,21.389806 25.5969255,21.3875395 25.5976582,21.3864063 C25.6094639,21.3380814 25.6219208,21.292023 25.6334008,21.2459647 C25.6345406,21.2425649 25.6355991,21.2380319 25.6355991,21.234956 C25.6481375,21.1885738 25.6606759,21.1451866 25.6728072,21.102528 L25.6728072,21.1013948 C25.7453507,20.8435811 25.8156146,20.6340115 25.8736657,20.4773806 C26.6186418,18.3011423 27.7083422,16.8032331 28.3504057,16.048248 C28.3789021,16.0176503 28.4138305,15.9833291 28.4521784,15.9512744 C28.4806748,15.9290142 28.5372604,15.8984166 28.6093968,15.9124203 C28.7084827,15.9320093 28.7035162,16.0210501 28.7066101,16.048248 C28.7035162,16.1049103 28.689838,16.1709624 28.6769739,16.2188825 C28.1009405,18.1535774 27.1953265,19.7790578 26.3567196,20.9945458 L26.3573709,20.9945458 C26.3573709,20.9945458 25.7210881,22.6886686 26.0331639,24.566782 C26.9467569,23.6339582 29.351279,20.9017005 30.568236,16.917691 C30.6543764,16.5854069 31.4760483,13.263861 29.8323788,13.0098518 C28.6822661,12.8316893 27.431602,13.9380618 26.7222871,14.6983893 C25.4203295,16.1207758 23.8636146,18.5087693 23.4007524,22.0854576 C23.2708905,22.9382257 23.2253777,23.7185469 23.2647841,24.4232645 C21.5140497,25.6908818 18.1480607,27.0328886 16.0320846,26.0039007 C14.2360817,25.1299247 13.6323661,22.486384 14.2497599,18.4275803 C13.431589,18.6680714 12.6441127,18.74238 12.1709919,18.7658544 C11.9443237,20.5407615 11.9424511,22.0828673 12.1687121,23.3689403 C12.6428914,26.0634771 14.0500412,27.2661755 15.1482092,27.7996109 C16.7725012,28.5904552 18.9735593,28.5439921 21.3447,27.6685591 C22.1811086,27.3612873 22.999768,26.9600371 23.7204815,26.5187184 C23.9296447,27.0072287 24.2110258,27.4318724 24.5618566,27.7901402 C25.1356102,28.377162 26.1364835,29.0056282 27.7827584,28.999962 C28.1165728,28.9989097 28.4768481,28.9720355 28.8660268,28.9139162 C31.3123979,28.5420494 33.8072941,25.9415721 35.6822726,23.121326 C35.731612,23.0507409 35.7806257,22.9763513 35.8325705,22.8937053 C36.0664848,22.5350327 36.2894077,22.1723128 36.5016648,21.8114547 C36.9975013,20.9911461 37.3046919,20.437717 37.471762,20.1229172 C37.7568883,20.3596039 38.0766174,20.591029 38.4277738,20.7948515 C38.4908729,20.8299822 38.5542976,20.8661651 38.6187808,20.8997578 C39.7134478,21.4761756 40.9425361,21.7683914 42.2888666,21.7740576 C42.2209638,21.9688141 42.1559921,22.1700463 42.0960684,22.3761353 C41.1285766,25.6826253 42.4066786,26.9226399 43.2556256,27.3680868 C44.7300268,28.1416086 46.8148198,27.5489206 48.4540114,26.3786815 C48.380735,26.1201394 48.3233352,25.8208004 48.3317213,25.5334414 C48.3541113,24.8087302 48.9414618,24.9732938 48.926318,25.3398181 C48.9103601,25.7067472 48.9840435,25.9686891 48.9840435,25.9686891 C49.2095718,26.969103 49.8728854,27.4198114 50.3083911,27.6134347 C52.1548732,28.4292104 54.3570712,27.2823648 56.855387,24.2047097 C58.5309724,22.1405819 59.7658414,19.9300225 59.816972,19.8356392 L59.8421302,19.7895808 Z" id="Fill-26" fill="#000000"></path>
            </g>
        </g>
    </g>
</svg>